<svg width="80" height="80" viewBox="0 0 80 80" fill="none" xmlns="http://www.w3.org/2000/svg">
<path d="M0 40C0 17.9086 17.9086 0 40 0V0C62.0914 0 80 17.9086 80 40V40C80 62.0914 62.0914 80 40 80V80C17.9086 80 0 62.0914 0 40V40Z" fill="#283341"/>
<path d="M25 30C25 28.8954 25.8954 28 27 28H53C54.1046 28 55 28.8954 55 30V50C55 51.1046 54.1046 52 53 52H27C25.8954 52 25 51.1046 25 50V30Z" fill="#D6E4F7" stroke="#151B23" stroke-miterlimit="10" stroke-linecap="round" stroke-linejoin="round"/>
<path d="M25 30C25 28.8954 25.8954 28 27 28H53C54.1046 28 55 28.8954 55 30V34H25V30Z" fill="white" stroke="#151B23" stroke-miterlimit="10" stroke-linecap="round" stroke-linejoin="round"/>
<path d="M30 40L50 40" stroke="#151B23" stroke-linecap="round"/>
<path d="M30 46L50 46" stroke="#151B23" stroke-linecap="round"/>
<circle cx="28" cy="31" r="0.5" stroke="#D6E4F7"/>
<circle cx="36" cy="40" r="1.5" fill="white" stroke="#151B23"/>
<circle cx="44" cy="46" r="1.5" fill="white" stroke="#151B23"/>
<circle cx="31" cy="31" r="0.5" stroke="#D6E4F7"/>
<circle cx="34" cy="31" r="0.5" stroke="#D6E4F7"/>
</svg>
