<svg width="80" height="80" viewBox="0 0 80 80" fill="none" xmlns="http://www.w3.org/2000/svg">
<path d="M70.1712 65.8557C36.1436 81.5701 15.0257 68.4223 1.5075 60.4366C0.670994 59.9333 -0.75077 60.5542 0.482805 61.9291C4.9864 67.2281 19.7457 80 39.0108 80C58.2891 80 69.758 69.7925 71.1927 68.0119C72.6177 66.2463 71.6111 65.2724 70.1709 65.8557H70.1712ZM79.7278 60.7343C78.814 59.5797 74.1714 59.3644 71.2496 59.7127C68.3233 60.0509 63.9309 61.7864 64.3128 62.8284C64.5087 63.2187 64.9087 63.0437 66.919 62.8683C68.9347 62.6731 74.5817 61.9815 75.7584 63.4741C76.9405 64.9771 73.9573 72.1367 73.4125 73.2913C72.8861 74.446 73.6136 74.7438 74.6024 73.9747C75.5776 73.206 77.3431 71.2151 78.5278 68.3978C79.7045 65.5651 80.422 61.6135 79.7275 60.7343H79.7278Z" fill="#FF9900"/>
<path fill-rule="evenodd" clip-rule="evenodd" d="M47.2914 33.7904C47.2914 37.9136 47.3988 41.3522 45.2511 45.0139C43.5176 47.9912 40.7717 49.8221 37.7038 49.8221C33.5158 49.8221 31.0768 46.7258 31.0768 42.1561C31.0768 33.1352 39.4062 31.498 47.2914 31.498V33.7904ZM58.2901 59.5872C57.5691 60.2122 56.5259 60.2571 55.713 59.8401C52.0928 56.9226 51.4484 55.5681 49.4543 52.7843C43.4717 58.7089 39.2378 60.4801 31.4758 60.4801C22.3024 60.4801 15.1538 54.9873 15.1538 43.9869C15.1538 35.3981 19.9555 29.5479 26.7814 26.6901C32.7029 24.1592 40.9713 23.7127 47.2914 23.0134V21.6438C47.2914 19.128 47.4906 16.1509 45.9722 13.9778C44.6374 12.0277 42.091 11.2238 39.8512 11.2238C35.6942 11.2238 31.9818 13.2928 31.0768 17.5798C30.8925 18.5327 30.1717 19.4706 29.19 19.5151L18.6052 18.4138C17.7157 18.2199 16.734 17.5205 16.9794 16.1955C19.4185 3.75142 30.9998 0 41.3696 0C46.6774 0 53.611 1.3696 57.799 5.26974C63.1067 10.0776 62.6004 16.4932 62.6004 23.4746V39.9678C62.6004 44.9248 64.7173 47.0979 66.7114 49.7775C67.417 50.7301 67.5706 51.8766 66.6807 52.5907C64.4564 54.3918 60.4986 57.7413 58.3205 59.617L58.2898 59.5872" fill="black"/>
<path d="M70.1712 65.8557C36.1436 81.5701 15.0257 68.4223 1.5075 60.4366C0.670994 59.9333 -0.75077 60.5542 0.482805 61.9291C4.9864 67.2281 19.7457 80 39.0108 80C58.2891 80 69.758 69.7925 71.1927 68.0119C72.6177 66.2463 71.6111 65.2724 70.1709 65.8557H70.1712ZM79.7278 60.7343C78.814 59.5797 74.1714 59.3644 71.2496 59.7127C68.3233 60.0509 63.9309 61.7864 64.3128 62.8284C64.5087 63.2187 64.9087 63.0437 66.919 62.8683C68.9347 62.6731 74.5817 61.9815 75.7584 63.4741C76.9405 64.9771 73.9573 72.1367 73.4125 73.2913C72.8861 74.446 73.6136 74.7438 74.6024 73.9747C75.5776 73.206 77.3431 71.2151 78.5278 68.3978C79.7045 65.5651 80.422 61.6135 79.7275 60.7343H79.7278Z" fill="#FF9900"/>
<path fill-rule="evenodd" clip-rule="evenodd" d="M47.2914 33.7904C47.2914 37.9136 47.3988 41.3522 45.2511 45.0139C43.5176 47.9912 40.7717 49.8221 37.7038 49.8221C33.5158 49.8221 31.0768 46.7258 31.0768 42.1561C31.0768 33.1352 39.4062 31.498 47.2914 31.498V33.7904ZM58.2901 59.5872C57.5691 60.2122 56.5259 60.2571 55.713 59.8401C52.0928 56.9226 51.4484 55.5681 49.4543 52.7843C43.4717 58.7089 39.2378 60.4801 31.4758 60.4801C22.3024 60.4801 15.1538 54.9873 15.1538 43.9869C15.1538 35.3981 19.9555 29.5479 26.7814 26.6901C32.7029 24.1592 40.9713 23.7127 47.2914 23.0134V21.6438C47.2914 19.128 47.4906 16.1509 45.9722 13.9778C44.6374 12.0277 42.091 11.2238 39.8512 11.2238C35.6942 11.2238 31.9818 13.2928 31.0768 17.5798C30.8925 18.5327 30.1717 19.4706 29.19 19.5151L18.6052 18.4138C17.7157 18.2199 16.734 17.5205 16.9794 16.1955C19.4185 3.75142 30.9998 0 41.3696 0C46.6774 0 53.611 1.3696 57.799 5.26974C63.1067 10.0776 62.6004 16.4932 62.6004 23.4746V39.9678C62.6004 44.9248 64.7173 47.0979 66.7114 49.7775C67.417 50.7301 67.5706 51.8766 66.6807 52.5907C64.4564 54.3918 60.4986 57.7413 58.3205 59.617L58.2898 59.5872" fill="black"/>
</svg>
