<svg width="528" height="400" viewBox="0 0 528 400" fill="none" xmlns="http://www.w3.org/2000/svg">
<circle cx="264" cy="200" r="199.5" fill="url(#paint0_linear)"/>
<circle cx="264" cy="200" r="199.5" fill="url(#paint1_linear)"/>
<circle cx="264" cy="200" r="199.5" fill="url(#paint2_linear)"/>
<circle cx="264" cy="200" r="199.5" stroke="url(#paint3_linear)"/>
<circle cx="264" cy="200" r="199.5" stroke="url(#paint4_linear)"/>
<mask id="mask0" mask-type="alpha" maskUnits="userSpaceOnUse" x="64" y="0" width="400" height="400">
<circle cx="264" cy="200" r="200" fill="white"/>
</mask>
<g mask="url(#mask0)">
<path d="M334 406L264 446L264 312.001L334 272.001L334 406Z" fill="#D6E4F7"/>
<path d="M264 459L194 419L194 272L264 312L264 459Z" fill="#F8FAFD"/>
</g>
<path d="M264 232L194 272L264 312L334 272L264 232Z" fill="#F1F6FC"/>
<g filter="url(#filter0_f)">
<path d="M264 216L194 256L264 296L334 256L264 216Z" fill="#7187A5" fill-opacity="0.7"/>
</g>
<path opacity="0.4" d="M194 160L124 200L194 240L264 200L194 160Z" fill="url(#paint5_linear)"/>
<path opacity="0.4" d="M194 80L264 120V200L194 160L194 80Z" fill="url(#paint6_linear)"/>
<g opacity="0.5">
<path d="M152 142.964C152 138.658 154.307 134.681 158.046 132.545L204.046 106.259C212.046 101.688 222 107.464 222 116.678V169.036C222 173.342 219.693 177.319 215.954 179.455L169.954 205.741C161.954 210.312 152 204.536 152 195.322L152 142.964Z" fill="url(#paint7_linear)"/>
<path d="M152 142.964C152 138.658 154.307 134.681 158.046 132.545L204.046 106.259C212.046 101.688 222 107.464 222 116.678V169.036C222 173.342 219.693 177.319 215.954 179.455L169.954 205.741C161.954 210.312 152 204.536 152 195.322L152 142.964Z" stroke="url(#paint8_linear)" stroke-linejoin="round"/>
<path d="M152 142.964C152 138.658 154.307 134.681 158.046 132.545L204.046 106.259C212.046 101.688 222 107.464 222 116.678V169.036C222 173.342 219.693 177.319 215.954 179.455L169.954 205.741C161.954 210.312 152 204.536 152 195.322L152 142.964Z" stroke="url(#paint9_linear)" stroke-linejoin="round"/>
</g>
<g opacity="0.5">
<path d="M166 150.964C166 146.658 168.307 142.681 172.046 140.545L218.046 114.259C226.046 109.688 236 115.464 236 124.678V177.036C236 181.342 233.693 185.319 229.954 187.455L183.954 213.741C175.954 218.312 166 212.536 166 203.322L166 150.964Z" fill="url(#paint10_linear)"/>
<path d="M166 150.964C166 146.658 168.307 142.681 172.046 140.545L218.046 114.259C226.046 109.688 236 115.464 236 124.678V177.036C236 181.342 233.693 185.319 229.954 187.455L183.954 213.741C175.954 218.312 166 212.536 166 203.322L166 150.964Z" stroke="url(#paint11_linear)" stroke-linejoin="round"/>
<path d="M166 150.964C166 146.658 168.307 142.681 172.046 140.545L218.046 114.259C226.046 109.688 236 115.464 236 124.678V177.036C236 181.342 233.693 185.319 229.954 187.455L183.954 213.741C175.954 218.312 166 212.536 166 203.322L166 150.964Z" stroke="url(#paint12_linear)" stroke-linejoin="round"/>
</g>
<g opacity="0.5">
<path d="M180 158.964C180 154.658 182.307 150.681 186.046 148.545L232.046 122.259C240.046 117.688 250 123.464 250 132.678V185.036C250 189.342 247.693 193.319 243.954 195.455L197.954 221.741C189.954 226.312 180 220.536 180 211.322L180 158.964Z" fill="url(#paint13_linear)"/>
<path d="M180 158.964C180 154.658 182.307 150.681 186.046 148.545L232.046 122.259C240.046 117.688 250 123.464 250 132.678V185.036C250 189.342 247.693 193.319 243.954 195.455L197.954 221.741C189.954 226.312 180 220.536 180 211.322L180 158.964Z" stroke="url(#paint14_linear)" stroke-linejoin="round"/>
<path d="M180 158.964C180 154.658 182.307 150.681 186.046 148.545L232.046 122.259C240.046 117.688 250 123.464 250 132.678V185.036C250 189.342 247.693 193.319 243.954 195.455L197.954 221.741C189.954 226.312 180 220.536 180 211.322L180 158.964Z" stroke="url(#paint15_linear)" stroke-linejoin="round"/>
</g>
<path opacity="0.4" d="M124 120L194 160V240L124 200L124 120Z" fill="url(#paint16_linear)"/>
<path d="M264 200L194 240L264 280L334 240L264 200Z" fill="url(#paint17_linear)"/>
<path d="M264 200L194 240L264 280L334 240L264 200Z" fill="url(#paint18_linear)"/>
<path opacity="0.3" d="M264 200L194 240L264 280L334 240L264 200Z" fill="url(#paint19_linear)"/>
<path d="M264 120L334 160V240L264 200L264 120Z" fill="url(#paint20_linear)"/>
<path d="M264 120L334 160V240L264 200L264 120Z" fill="url(#paint21_linear)"/>
<path opacity="0.6" d="M264 120L334 160V240L264 200L264 120Z" fill="url(#paint22_linear)"/>
<path d="M196 236.554L196 161.161L262 123.446V198.839L196 236.554Z" stroke="#254E81" stroke-width="4"/>
<path d="M194 160L264 200V280L194 240L194 160Z" fill="url(#paint23_linear)"/>
<path d="M264.5 279.138L264.5 200.29L333.5 160.862V239.71L264.5 279.138Z" stroke="url(#paint24_linear)" stroke-linejoin="round"/>
<path d="M264.5 279.138L264.5 200.29L333.5 160.862V239.71L264.5 279.138Z" stroke="url(#paint25_linear)" stroke-linejoin="round"/>
<path d="M264 120L194 160L264 200L334 160L264 120Z" fill="url(#paint26_linear)"/>
<path opacity="0.4" d="M194 80L124 120L194 160L264 120L194 80Z" fill="url(#paint27_linear)"/>
<path opacity="0.3" d="M201.204 235.666L200.595 233.39C200.565 233.287 200.533 233.168 200.501 233.032C200.469 232.896 200.436 232.751 200.404 232.596C200.374 232.715 200.343 232.825 200.311 232.926C200.278 233.025 200.247 233.109 200.217 233.18L199.611 234.746L201.204 235.666ZM202.85 238.8L202.129 238.384C202.048 238.337 201.983 238.277 201.932 238.202C201.881 238.125 201.843 238.044 201.817 237.96L201.443 236.564L199.368 235.366L198.994 236.33C198.976 236.381 198.94 236.416 198.887 236.436C198.834 236.456 198.768 236.443 198.689 236.398L197.962 235.978L199.933 231.332L200.882 231.88L202.85 238.8ZM205.862 237.663C206.033 237.762 206.182 237.824 206.309 237.849C206.436 237.872 206.541 237.862 206.624 237.819C206.71 237.775 206.773 237.7 206.815 237.593C206.857 237.484 206.877 237.348 206.877 237.185C206.877 237.031 206.857 236.879 206.815 236.729C206.773 236.58 206.711 236.437 206.628 236.301C206.545 236.165 206.44 236.038 206.313 235.919C206.186 235.798 206.036 235.687 205.862 235.587L205.166 235.185L205.166 237.261L205.862 237.663ZM205.862 234.755C206.197 234.949 206.487 235.161 206.732 235.393C206.977 235.625 207.179 235.869 207.338 236.123C207.497 236.378 207.615 236.641 207.691 236.911C207.77 237.183 207.809 237.454 207.809 237.723C207.809 238.003 207.769 238.237 207.688 238.425C207.607 238.611 207.486 238.741 207.324 238.815C207.163 238.89 206.959 238.903 206.715 238.855C206.472 238.809 206.188 238.691 205.862 238.503L205.166 238.101L205.166 240.137L204.234 239.599L204.234 233.815L205.862 234.755ZM210.325 243.116L209.39 242.576L209.39 236.792L210.325 237.332L210.325 243.116Z" fill="white"/>
<path opacity="0.3" d="M201.998 174.944C202.048 174.973 202.093 175.022 202.133 175.09L202.5 175.762C202.297 175.935 202.046 176.013 201.748 175.996C201.453 175.98 201.097 175.852 200.681 175.612C200.309 175.397 199.975 175.131 199.677 174.812C199.381 174.495 199.128 174.145 198.918 173.762C198.708 173.379 198.546 172.974 198.433 172.546C198.322 172.119 198.267 171.691 198.267 171.262C198.267 170.827 198.327 170.465 198.447 170.174C198.567 169.881 198.736 169.666 198.953 169.53C199.172 169.395 199.433 169.343 199.736 169.374C200.038 169.402 200.373 169.522 200.74 169.734C201.105 169.945 201.428 170.201 201.71 170.502C201.994 170.805 202.235 171.125 202.434 171.464L202.122 171.784C202.104 171.805 202.08 171.819 202.05 171.826C202.022 171.834 201.983 171.823 201.932 171.794C201.897 171.774 201.861 171.743 201.824 171.7C201.787 171.655 201.747 171.603 201.703 171.546C201.659 171.486 201.608 171.419 201.551 171.346C201.493 171.273 201.426 171.198 201.35 171.122C201.274 171.043 201.185 170.964 201.083 170.884C200.984 170.803 200.868 170.724 200.737 170.648C200.513 170.519 200.307 170.447 200.12 170.432C199.935 170.416 199.776 170.457 199.642 170.556C199.508 170.652 199.404 170.805 199.33 171.016C199.256 171.224 199.219 171.489 199.219 171.812C199.219 172.137 199.259 172.449 199.337 172.748C199.418 173.048 199.527 173.324 199.663 173.576C199.799 173.828 199.96 174.054 200.144 174.254C200.329 174.451 200.528 174.611 200.74 174.734C200.867 174.807 200.981 174.865 201.083 174.908C201.187 174.952 201.282 174.981 201.367 174.996C201.455 175.012 201.537 175.015 201.613 175.006C201.692 174.995 201.769 174.972 201.845 174.936C201.868 174.925 201.892 174.921 201.918 174.922C201.943 174.921 201.97 174.928 201.998 174.944ZM208.673 177.27C208.673 177.694 208.612 178.052 208.489 178.344C208.369 178.635 208.198 178.848 207.977 178.984C207.755 179.12 207.488 179.173 207.176 179.142C206.865 179.109 206.518 178.982 206.137 178.762C205.758 178.543 205.413 178.271 205.101 177.944C204.79 177.615 204.522 177.253 204.298 176.86C204.076 176.468 203.904 176.057 203.782 175.626C203.659 175.193 203.598 174.764 203.598 174.34C203.598 173.916 203.659 173.559 203.782 173.27C203.904 172.978 204.076 172.764 204.298 172.628C204.522 172.493 204.79 172.443 205.101 172.476C205.413 172.507 205.758 172.631 206.137 172.85C206.391 172.997 206.63 173.169 206.854 173.368C207.078 173.564 207.284 173.779 207.471 174.012C207.658 174.243 207.825 174.49 207.973 174.754C208.123 175.017 208.25 175.287 208.354 175.566C208.458 175.845 208.537 176.127 208.59 176.414C208.645 176.702 208.673 176.987 208.673 177.27ZM207.72 176.72C207.72 176.403 207.683 176.097 207.609 175.804C207.536 175.508 207.43 175.233 207.294 174.978C207.158 174.723 206.992 174.493 206.795 174.286C206.601 174.081 206.382 173.907 206.137 173.766C205.892 173.625 205.672 173.544 205.476 173.524C205.282 173.505 205.115 173.544 204.977 173.64C204.841 173.737 204.735 173.891 204.662 174.102C204.588 174.31 204.551 174.573 204.551 174.89C204.551 175.207 204.588 175.514 204.662 175.81C204.735 176.103 204.84 176.377 204.977 176.632C205.115 176.885 205.282 177.115 205.476 177.32C205.672 177.527 205.892 177.701 206.137 177.842C206.382 177.983 206.601 178.063 206.795 178.082C206.992 178.102 207.158 178.065 207.294 177.97C207.43 177.873 207.536 177.72 207.609 177.512C207.683 177.301 207.72 177.037 207.72 176.72ZM215.789 178.486L215.789 184.271L214.968 183.797L214.968 180.061C214.968 179.911 214.975 179.754 214.989 179.588L213.475 181.999C213.403 182.115 213.294 182.13 213.146 182.044L213.014 181.969C212.866 181.883 212.757 181.741 212.685 181.543L211.154 177.362C211.161 177.454 211.167 177.544 211.171 177.632C211.176 177.72 211.178 177.8 211.178 177.873L211.178 181.609L210.357 181.135L210.357 175.35L211.061 175.756C211.102 175.78 211.138 175.802 211.168 175.822C211.198 175.842 211.224 175.864 211.248 175.888C211.273 175.914 211.295 175.944 211.313 175.978C211.334 176.014 211.354 176.058 211.372 176.108L212.872 180.186C212.912 180.294 212.947 180.403 212.98 180.512C213.014 180.623 213.048 180.736 213.08 180.85C213.112 180.77 213.146 180.695 213.181 180.625C213.215 180.551 213.252 180.483 213.291 180.42L214.771 178.07C214.789 178.041 214.809 178.02 214.829 178.008C214.85 177.996 214.872 177.992 214.895 177.994C214.921 177.998 214.948 178.008 214.978 178.023C215.008 178.037 215.044 178.056 215.086 178.08L215.789 178.486ZM223.204 182.768L223.204 188.552L222.383 188.078L222.383 184.342C222.383 184.192 222.39 184.035 222.404 183.87L220.89 186.28C220.819 186.396 220.709 186.411 220.561 186.326L220.43 186.25C220.282 186.164 220.172 186.022 220.101 185.824L218.569 181.644C218.576 181.736 218.582 181.826 218.587 181.914C218.591 182.002 218.594 182.082 218.594 182.154L218.594 185.89L217.773 185.416L217.773 179.632L218.476 180.038C218.517 180.062 218.553 180.084 218.583 180.104C218.613 180.124 218.64 180.146 218.663 180.17C218.688 180.195 218.71 180.225 218.729 180.26C218.75 180.296 218.769 180.339 218.788 180.39L220.288 184.468C220.327 184.576 220.363 184.684 220.395 184.794C220.43 184.904 220.463 185.017 220.495 185.132C220.528 185.052 220.561 184.976 220.596 184.906C220.631 184.832 220.667 184.764 220.707 184.702L222.186 182.352C222.204 182.322 222.224 182.302 222.245 182.29C222.266 182.278 222.288 182.273 222.311 182.276C222.336 182.28 222.364 182.289 222.394 182.304C222.424 182.318 222.46 182.338 222.501 182.362L223.204 182.768ZM226.123 185.309L226.123 186.913L227.876 187.925L227.876 188.753L226.123 187.741L226.123 189.377L228.347 190.661L228.347 191.521L225.188 189.697L225.188 183.913L228.347 185.737L228.347 186.593L226.123 185.309ZM231.553 190.34C231.728 190.441 231.881 190.504 232.01 190.528C232.142 190.553 232.249 190.546 232.332 190.506C232.418 190.464 232.481 190.394 232.523 190.296C232.564 190.197 232.585 190.074 232.585 189.928C232.585 189.634 232.501 189.36 232.332 189.106C232.166 188.852 231.911 188.626 231.567 188.428L230.971 188.084L230.971 190.004L231.553 190.34ZM233.95 194.756L233.108 194.27C232.949 194.178 232.833 194.039 232.762 193.854L231.709 191.394C231.67 191.302 231.626 191.227 231.577 191.17C231.531 191.114 231.462 191.059 231.369 191.006L230.971 190.776L230.971 193.036L230.039 192.498L230.039 186.714L231.567 187.596C231.906 187.792 232.197 188.001 232.44 188.224C232.685 188.445 232.884 188.674 233.039 188.91C233.196 189.147 233.312 189.39 233.385 189.638C233.459 189.883 233.496 190.128 233.496 190.374C233.496 190.568 233.471 190.738 233.42 190.882C233.372 191.027 233.3 191.143 233.205 191.23C233.113 191.318 232.997 191.375 232.859 191.402C232.723 191.43 232.567 191.424 232.391 191.384C232.451 191.458 232.507 191.538 232.557 191.624C232.608 191.706 232.654 191.797 232.696 191.896L233.95 194.756ZM238.729 196.151C238.78 196.18 238.825 196.229 238.864 196.297L239.232 196.969C239.028 197.142 238.778 197.22 238.48 197.203C238.184 197.187 237.829 197.059 237.413 196.819C237.041 196.604 236.706 196.338 236.408 196.019C236.113 195.702 235.86 195.352 235.65 194.969C235.439 194.586 235.278 194.181 235.165 193.753C235.054 193.326 234.998 192.898 234.998 192.469C234.998 192.034 235.058 191.672 235.179 191.381C235.299 191.088 235.467 190.873 235.684 190.737C235.904 190.602 236.165 190.55 236.467 190.581C236.77 190.609 237.105 190.729 237.472 190.941C237.837 191.152 238.16 191.408 238.442 191.709C238.726 192.012 238.967 192.332 239.166 192.671L238.854 192.991C238.835 193.012 238.811 193.026 238.781 193.033C238.753 193.041 238.714 193.03 238.663 193.001C238.629 192.981 238.593 192.95 238.556 192.907C238.519 192.862 238.479 192.81 238.435 192.753C238.391 192.693 238.34 192.626 238.282 192.553C238.225 192.48 238.158 192.405 238.081 192.329C238.005 192.25 237.916 192.171 237.815 192.091C237.715 192.01 237.6 191.931 237.468 191.855C237.244 191.726 237.039 191.654 236.852 191.639C236.667 191.623 236.508 191.664 236.374 191.763C236.24 191.859 236.136 192.012 236.062 192.223C235.988 192.431 235.951 192.696 235.951 193.019C235.951 193.344 235.99 193.656 236.069 193.955C236.15 194.255 236.258 194.531 236.394 194.783C236.531 195.035 236.691 195.261 236.876 195.461C237.061 195.658 237.259 195.818 237.472 195.941C237.599 196.014 237.713 196.072 237.815 196.115C237.919 196.159 238.013 196.188 238.099 196.203C238.187 196.219 238.269 196.222 238.345 196.213C238.423 196.202 238.501 196.179 238.577 196.143C238.6 196.132 238.624 196.128 238.65 196.129C238.675 196.128 238.702 196.135 238.729 196.151ZM241.671 194.286L241.671 195.89L243.424 196.902L243.424 197.73L241.671 196.718L241.671 198.354L243.895 199.638L243.895 200.498L240.736 198.674L240.736 192.89L243.895 194.714L243.895 195.57L241.671 194.286ZM245.327 200.78C245.327 200.698 245.34 200.626 245.365 200.566C245.393 200.508 245.43 200.465 245.476 200.438C245.522 200.412 245.578 200.401 245.642 200.406C245.707 200.412 245.776 200.436 245.85 200.478C245.924 200.521 245.992 200.576 246.055 200.644C246.119 200.714 246.175 200.788 246.221 200.868C246.269 200.95 246.307 201.036 246.335 201.126C246.363 201.217 246.377 201.304 246.377 201.386C246.377 201.472 246.363 201.544 246.335 201.602C246.307 201.658 246.269 201.699 246.221 201.724C246.175 201.751 246.119 201.76 246.055 201.752C245.992 201.748 245.924 201.725 245.85 201.682C245.776 201.64 245.707 201.584 245.642 201.514C245.578 201.448 245.522 201.374 245.476 201.294C245.43 201.214 245.393 201.13 245.365 201.042C245.34 200.953 245.327 200.866 245.327 200.78ZM250.006 201.97C250.006 202.295 249.971 202.568 249.902 202.79C249.833 203.011 249.729 203.174 249.59 203.278C249.454 203.383 249.283 203.426 249.077 203.406C248.872 203.386 248.633 203.297 248.36 203.14C248.236 203.068 248.113 202.988 247.993 202.9C247.873 202.814 247.747 202.715 247.616 202.602C247.622 202.499 247.631 202.397 247.64 202.296C247.649 202.194 247.657 202.092 247.664 201.99C247.671 201.935 247.691 201.9 247.723 201.884C247.758 201.866 247.806 201.876 247.868 201.912C247.908 201.934 247.959 201.973 248.021 202.028C248.086 202.084 248.166 202.14 248.263 202.196C248.395 202.272 248.512 202.318 248.613 202.334C248.715 202.347 248.799 202.325 248.866 202.268C248.935 202.212 248.987 202.118 249.022 201.986C249.057 201.851 249.074 201.674 249.074 201.456L249.074 197.704L250.006 198.242L250.006 201.97ZM254.607 201.95C254.58 201.99 254.55 202.014 254.517 202.022C254.487 202.029 254.449 202.019 254.403 201.992C254.355 201.964 254.301 201.914 254.244 201.84C254.188 201.766 254.121 201.68 254.043 201.584C253.964 201.488 253.872 201.39 253.766 201.288C253.662 201.186 253.538 201.093 253.395 201.01C253.266 200.936 253.153 200.889 253.056 200.87C252.959 200.849 252.877 200.851 252.81 200.876C252.745 200.903 252.696 200.952 252.664 201.024C252.632 201.094 252.616 201.182 252.616 201.288C252.616 201.424 252.648 201.556 252.713 201.684C252.78 201.814 252.867 201.942 252.976 202.068C253.084 202.195 253.208 202.324 253.346 202.454C253.485 202.585 253.627 202.722 253.773 202.864C253.918 203.004 254.06 203.153 254.199 203.31C254.337 203.465 254.461 203.632 254.569 203.812C254.678 203.99 254.764 204.181 254.829 204.386C254.896 204.593 254.93 204.816 254.93 205.056C254.93 205.318 254.89 205.54 254.812 205.724C254.736 205.907 254.622 206.04 254.472 206.124C254.325 206.207 254.143 206.236 253.928 206.21C253.714 206.182 253.468 206.088 253.191 205.928C253.031 205.836 252.874 205.727 252.719 205.6C252.565 205.476 252.416 205.34 252.273 205.19C252.132 205.042 251.999 204.886 251.874 204.72C251.75 204.555 251.639 204.387 251.542 204.216L251.815 203.858C251.838 203.834 251.868 203.821 251.905 203.818C251.942 203.813 251.982 203.822 252.023 203.846C252.081 203.88 252.143 203.944 252.21 204.038C252.277 204.13 252.357 204.236 252.449 204.356C252.542 204.476 252.649 204.6 252.771 204.726C252.896 204.852 253.045 204.964 253.218 205.064C253.484 205.218 253.689 205.264 253.835 205.204C253.98 205.142 254.053 204.974 254.053 204.702C254.053 204.55 254.02 204.407 253.953 204.272C253.888 204.139 253.801 204.009 253.693 203.882C253.584 203.753 253.461 203.626 253.322 203.5C253.184 203.375 253.043 203.244 252.9 203.108C252.756 202.972 252.616 202.827 252.477 202.672C252.338 202.518 252.215 202.349 252.106 202.166C251.998 201.984 251.91 201.784 251.843 201.566C251.778 201.348 251.746 201.106 251.746 200.842C251.746 200.632 251.782 200.447 251.853 200.288C251.927 200.131 252.034 200.015 252.172 199.94C252.311 199.866 252.482 199.84 252.685 199.864C252.888 199.888 253.121 199.976 253.385 200.128C253.68 200.299 253.953 200.51 254.202 200.76C254.452 201.011 254.664 201.283 254.84 201.576L254.607 201.95Z" fill="white"/>
<path opacity="0.3" d="M255.135 262.418L253.112 267.034L252.27 266.548L250.247 259.596L250.996 260.028C251.076 260.075 251.142 260.136 251.193 260.21C251.244 260.285 251.282 260.366 251.307 260.452L252.489 264.662C252.528 264.8 252.565 264.948 252.599 265.106C252.636 265.264 252.671 265.426 252.703 265.594C252.731 265.461 252.761 265.336 252.793 265.218C252.826 265.098 252.862 264.992 252.901 264.9L254.075 262.05C254.094 262 254.129 261.964 254.182 261.944C254.238 261.926 254.305 261.939 254.383 261.984L255.135 262.418ZM259.547 270.01L259.547 270.75L256.776 269.15L256.776 268.41L257.791 268.996L257.791 265.624C257.791 265.49 257.794 265.355 257.801 265.218L257.081 265.498C257.039 265.511 256.998 265.511 256.956 265.498C256.917 265.483 256.879 265.461 256.842 265.432C256.807 265.404 256.776 265.372 256.748 265.338C256.721 265.3 256.7 265.266 256.686 265.234L256.416 264.65L257.943 264.032L258.647 264.438L258.647 269.49L259.547 270.01Z" fill="white"/>
<path d="M278 214.964C278 210.658 280.307 206.681 284.046 204.545L330.046 178.259C338.046 173.688 348 179.464 348 188.678V241.036C348 245.342 345.693 249.319 341.954 251.455L295.954 277.741C287.954 282.312 278 276.536 278 267.322L278 214.964Z" fill="white" fill-opacity="0.4" stroke="white" stroke-linecap="round" stroke-linejoin="round"/>
<path d="M292 222.964C292 218.658 294.307 214.681 298.046 212.545L344.046 186.259C352.046 181.688 362 187.464 362 196.678V249.036C362 253.342 359.693 257.319 355.954 259.455L309.954 285.741C301.954 290.312 292 284.536 292 275.322L292 222.964Z" fill="white" fill-opacity="0.6" stroke="white" stroke-linecap="round" stroke-linejoin="round"/>
<path d="M306 230.964C306 226.658 308.307 222.681 312.046 220.545L358.046 194.259C366.046 189.688 376 195.464 376 204.678V257.036C376 261.342 373.693 265.319 369.954 267.455L323.954 293.741C315.954 298.312 306 292.536 306 283.322L306 230.964Z" fill="url(#paint28_linear)"/>
<path d="M306 230.964C306 226.658 308.307 222.681 312.046 220.545L358.046 194.259C366.046 189.688 376 195.464 376 204.678V257.036C376 261.342 373.693 265.319 369.954 267.455L323.954 293.741C315.954 298.312 306 292.536 306 283.322L306 230.964Z" fill="url(#paint29_linear)"/>
<path d="M306 230.964C306 226.658 308.307 222.681 312.046 220.545L358.046 194.259C366.046 189.688 376 195.464 376 204.678V257.036C376 261.342 373.693 265.319 369.954 267.455L323.954 293.741C315.954 298.312 306 292.536 306 283.322L306 230.964Z" fill="white" fill-opacity="0.9"/>
<path d="M306 230.964C306 226.658 308.307 222.681 312.046 220.545L358.046 194.259C366.046 189.688 376 195.464 376 204.678V257.036C376 261.342 373.693 265.319 369.954 267.455L323.954 293.741C315.954 298.312 306 292.536 306 283.322L306 230.964Z" stroke="white" stroke-linecap="round" stroke-linejoin="round"/>
<path d="M77.6774 386.323C28.2615 336.907 0.500011 269.885 0.5 200C0.499989 130.116 28.2615 63.0933 77.6773 13.6774" stroke="url(#paint30_linear)" stroke-linecap="round"/>
<path d="M77.6774 386.323C28.2615 336.907 0.500011 269.885 0.5 200C0.499989 130.116 28.2615 63.0933 77.6773 13.6774" stroke="url(#paint31_linear)" stroke-linecap="round"/>
<path d="M77.6774 386.323C28.2615 336.907 0.500011 269.885 0.5 200C0.499989 130.116 28.2615 63.0933 77.6773 13.6774" stroke="#41546C" stroke-opacity="0.8" stroke-linecap="round"/>
<path d="M450.323 13.6774C499.738 63.0932 527.5 130.115 527.5 200C527.5 269.884 499.738 336.907 450.323 386.323" stroke="url(#paint32_linear)" stroke-linecap="round"/>
<path d="M450.323 13.6774C499.738 63.0932 527.5 130.115 527.5 200C527.5 269.884 499.738 336.907 450.323 386.323" stroke="url(#paint33_linear)" stroke-linecap="round"/>
<path d="M450.323 13.6774C499.738 63.0932 527.5 130.115 527.5 200C527.5 269.884 499.738 336.907 450.323 386.323" stroke="#41546C" stroke-opacity="0.8" stroke-linecap="round"/>
<defs>
<filter id="filter0_f" x="174" y="196" width="180" height="120" filterUnits="userSpaceOnUse" color-interpolation-filters="sRGB">
<feFlood flood-opacity="0" result="BackgroundImageFix"/>
<feBlend mode="normal" in="SourceGraphic" in2="BackgroundImageFix" result="shape"/>
<feGaussianBlur stdDeviation="10" result="effect1_foregroundBlur"/>
</filter>
<linearGradient id="paint0_linear" x1="64" y1="0" x2="464" y2="400" gradientUnits="userSpaceOnUse">
<stop offset="0.104167" stop-color="#ACC9DA"/>
<stop offset="0.203125" stop-color="#E7AED2"/>
<stop offset="0.317708" stop-color="#FF9ECA"/>
<stop offset="0.479167" stop-color="#6EFFFB"/>
<stop offset="0.536458" stop-color="#BCFFDF"/>
<stop offset="0.692708" stop-color="#FF9FB4"/>
<stop offset="0.918609" stop-color="#ACB8DA"/>
</linearGradient>
<linearGradient id="paint1_linear" x1="120.25" y1="53.75" x2="419" y2="326.25" gradientUnits="userSpaceOnUse">
<stop stop-color="#D6E4F7" stop-opacity="0.83"/>
<stop offset="1" stop-color="#D6E4F7" stop-opacity="0.46"/>
</linearGradient>
<linearGradient id="paint2_linear" x1="264" y1="0" x2="264" y2="400" gradientUnits="userSpaceOnUse">
<stop stop-color="#254E81"/>
<stop offset="1" stop-color="#254E81" stop-opacity="0"/>
</linearGradient>
<linearGradient id="paint3_linear" x1="64" y1="0" x2="464" y2="400" gradientUnits="userSpaceOnUse">
<stop offset="0.104167" stop-color="#ACC9DA"/>
<stop offset="0.203125" stop-color="#E7AED2"/>
<stop offset="0.317708" stop-color="#FF9ECA"/>
<stop offset="0.479167" stop-color="#6EFFFB"/>
<stop offset="0.536458" stop-color="#BCFFDF"/>
<stop offset="0.692708" stop-color="#FF9FB4"/>
<stop offset="0.918609" stop-color="#ACB8DA"/>
</linearGradient>
<linearGradient id="paint4_linear" x1="120.25" y1="53.75" x2="419" y2="326.25" gradientUnits="userSpaceOnUse">
<stop stop-color="#D6E4F7" stop-opacity="0.83"/>
<stop offset="1" stop-color="#D6E4F7" stop-opacity="0.46"/>
</linearGradient>
<linearGradient id="paint5_linear" x1="162" y1="186.5" x2="194" y2="240" gradientUnits="userSpaceOnUse">
<stop stop-color="white" stop-opacity="0"/>
<stop offset="1" stop-color="white"/>
</linearGradient>
<linearGradient id="paint6_linear" x1="200.5" y1="80" x2="282" y2="80" gradientUnits="userSpaceOnUse">
<stop stop-color="white" stop-opacity="0"/>
<stop offset="1" stop-color="white"/>
</linearGradient>
<linearGradient id="paint7_linear" x1="152" y1="96" x2="215.784" y2="92.7824" gradientUnits="userSpaceOnUse">
<stop stop-color="#254E81"/>
<stop offset="1" stop-color="#2C7EA1"/>
</linearGradient>
<linearGradient id="paint8_linear" x1="152" y1="96" x2="256.456" y2="156.933" gradientUnits="userSpaceOnUse">
<stop offset="0.104167" stop-color="#ACC9DA"/>
<stop offset="0.203125" stop-color="#E7AED2"/>
<stop offset="0.317708" stop-color="#FF9ECA"/>
<stop offset="0.479167" stop-color="#6EFFFB"/>
<stop offset="0.536458" stop-color="#BCFFDF"/>
<stop offset="0.692708" stop-color="#FF9FB4"/>
<stop offset="0.918609" stop-color="#ACB8DA"/>
</linearGradient>
<linearGradient id="paint9_linear" x1="161.844" y1="112.125" x2="236.49" y2="151.842" gradientUnits="userSpaceOnUse">
<stop stop-color="#D6E4F7" stop-opacity="0.83"/>
<stop offset="1" stop-color="#D6E4F7" stop-opacity="0.46"/>
</linearGradient>
<linearGradient id="paint10_linear" x1="166" y1="104" x2="229.784" y2="100.782" gradientUnits="userSpaceOnUse">
<stop stop-color="#254E81"/>
<stop offset="1" stop-color="#2C7EA1"/>
</linearGradient>
<linearGradient id="paint11_linear" x1="166" y1="104" x2="270.456" y2="164.933" gradientUnits="userSpaceOnUse">
<stop offset="0.104167" stop-color="#ACC9DA"/>
<stop offset="0.203125" stop-color="#E7AED2"/>
<stop offset="0.317708" stop-color="#FF9ECA"/>
<stop offset="0.479167" stop-color="#6EFFFB"/>
<stop offset="0.536458" stop-color="#BCFFDF"/>
<stop offset="0.692708" stop-color="#FF9FB4"/>
<stop offset="0.918609" stop-color="#ACB8DA"/>
</linearGradient>
<linearGradient id="paint12_linear" x1="175.844" y1="120.125" x2="250.49" y2="159.842" gradientUnits="userSpaceOnUse">
<stop stop-color="#D6E4F7" stop-opacity="0.83"/>
<stop offset="1" stop-color="#D6E4F7" stop-opacity="0.46"/>
</linearGradient>
<linearGradient id="paint13_linear" x1="180" y1="112" x2="243.784" y2="108.782" gradientUnits="userSpaceOnUse">
<stop stop-color="#254E81"/>
<stop offset="1" stop-color="#2C7EA1"/>
</linearGradient>
<linearGradient id="paint14_linear" x1="180" y1="112" x2="284.456" y2="172.933" gradientUnits="userSpaceOnUse">
<stop offset="0.104167" stop-color="#ACC9DA"/>
<stop offset="0.203125" stop-color="#E7AED2"/>
<stop offset="0.317708" stop-color="#FF9ECA"/>
<stop offset="0.479167" stop-color="#6EFFFB"/>
<stop offset="0.536458" stop-color="#BCFFDF"/>
<stop offset="0.692708" stop-color="#FF9FB4"/>
<stop offset="0.918609" stop-color="#ACB8DA"/>
</linearGradient>
<linearGradient id="paint15_linear" x1="189.844" y1="128.125" x2="264.49" y2="167.842" gradientUnits="userSpaceOnUse">
<stop stop-color="#D6E4F7" stop-opacity="0.83"/>
<stop offset="1" stop-color="#D6E4F7" stop-opacity="0.46"/>
</linearGradient>
<linearGradient id="paint16_linear" x1="127.5" y1="120" x2="204" y2="125.5" gradientUnits="userSpaceOnUse">
<stop stop-color="white" stop-opacity="0"/>
<stop offset="1" stop-color="white"/>
</linearGradient>
<linearGradient id="paint17_linear" x1="194" y1="200" x2="262.923" y2="320.615" gradientUnits="userSpaceOnUse">
<stop offset="0.104167" stop-color="#ACC9DA"/>
<stop offset="0.203125" stop-color="#E7AED2"/>
<stop offset="0.317708" stop-color="#FF9ECA"/>
<stop offset="0.479167" stop-color="#6EFFFB"/>
<stop offset="0.536458" stop-color="#BCFFDF"/>
<stop offset="0.692708" stop-color="#FF9FB4"/>
<stop offset="0.918609" stop-color="#ACB8DA"/>
</linearGradient>
<linearGradient id="paint18_linear" x1="213.687" y1="210.75" x2="267.678" y2="296.932" gradientUnits="userSpaceOnUse">
<stop stop-color="#D6E4F7" stop-opacity="0.83"/>
<stop offset="1" stop-color="#D6E4F7" stop-opacity="0.46"/>
</linearGradient>
<linearGradient id="paint19_linear" x1="194" y1="200" x2="319.03" y2="181.079" gradientUnits="userSpaceOnUse">
<stop stop-color="#254E81"/>
<stop offset="1" stop-color="#2C7EA1"/>
</linearGradient>
<linearGradient id="paint20_linear" x1="264" y1="120" x2="368.456" y2="180.933" gradientUnits="userSpaceOnUse">
<stop offset="0.104167" stop-color="#ACC9DA"/>
<stop offset="0.203125" stop-color="#E7AED2"/>
<stop offset="0.317708" stop-color="#FF9ECA"/>
<stop offset="0.479167" stop-color="#6EFFFB"/>
<stop offset="0.536458" stop-color="#BCFFDF"/>
<stop offset="0.692708" stop-color="#FF9FB4"/>
<stop offset="0.918609" stop-color="#ACB8DA"/>
</linearGradient>
<linearGradient id="paint21_linear" x1="273.844" y1="136.125" x2="348.49" y2="175.842" gradientUnits="userSpaceOnUse">
<stop stop-color="#D6E4F7" stop-opacity="0.83"/>
<stop offset="1" stop-color="#D6E4F7" stop-opacity="0.46"/>
</linearGradient>
<linearGradient id="paint22_linear" x1="264" y1="120" x2="327.784" y2="116.782" gradientUnits="userSpaceOnUse">
<stop stop-color="#254E81"/>
<stop offset="1" stop-color="#2C7EA1"/>
</linearGradient>
<linearGradient id="paint23_linear" x1="194" y1="160" x2="257.784" y2="156.782" gradientUnits="userSpaceOnUse">
<stop stop-color="#254E81"/>
<stop offset="1" stop-color="#2C7EA1"/>
</linearGradient>
<linearGradient id="paint24_linear" x1="264" y1="160" x2="368.456" y2="220.933" gradientUnits="userSpaceOnUse">
<stop offset="0.104167" stop-color="#ACC9DA"/>
<stop offset="0.203125" stop-color="#E7AED2"/>
<stop offset="0.317708" stop-color="#FF9ECA"/>
<stop offset="0.479167" stop-color="#6EFFFB"/>
<stop offset="0.536458" stop-color="#BCFFDF"/>
<stop offset="0.692708" stop-color="#FF9FB4"/>
<stop offset="0.918609" stop-color="#ACB8DA"/>
</linearGradient>
<linearGradient id="paint25_linear" x1="273.844" y1="176.125" x2="348.49" y2="215.842" gradientUnits="userSpaceOnUse">
<stop stop-color="#D6E4F7" stop-opacity="0.83"/>
<stop offset="1" stop-color="#D6E4F7" stop-opacity="0.46"/>
</linearGradient>
<linearGradient id="paint26_linear" x1="194" y1="120" x2="319.03" y2="101.079" gradientUnits="userSpaceOnUse">
<stop stop-color="#254E81"/>
<stop offset="1" stop-color="#2C7EA1"/>
</linearGradient>
<linearGradient id="paint27_linear" x1="160" y1="102.5" x2="194" y2="160" gradientUnits="userSpaceOnUse">
<stop stop-color="white" stop-opacity="0"/>
<stop offset="1" stop-color="white"/>
</linearGradient>
<linearGradient id="paint28_linear" x1="306" y1="184" x2="410.456" y2="244.933" gradientUnits="userSpaceOnUse">
<stop offset="0.104167" stop-color="#ACC9DA"/>
<stop offset="0.203125" stop-color="#E7AED2"/>
<stop offset="0.317708" stop-color="#FF9ECA"/>
<stop offset="0.479167" stop-color="#6EFFFB"/>
<stop offset="0.536458" stop-color="#BCFFDF"/>
<stop offset="0.692708" stop-color="#FF9FB4"/>
<stop offset="0.918609" stop-color="#ACB8DA"/>
</linearGradient>
<linearGradient id="paint29_linear" x1="315.844" y1="200.125" x2="390.49" y2="239.842" gradientUnits="userSpaceOnUse">
<stop stop-color="#D6E4F7" stop-opacity="0.83"/>
<stop offset="1" stop-color="#D6E4F7" stop-opacity="0.46"/>
</linearGradient>
<linearGradient id="paint30_linear" x1="0" y1="-64" x2="528" y2="464" gradientUnits="userSpaceOnUse">
<stop offset="0.104167" stop-color="#ACC9DA"/>
<stop offset="0.203125" stop-color="#E7AED2"/>
<stop offset="0.317708" stop-color="#FF9ECA"/>
<stop offset="0.479167" stop-color="#6EFFFB"/>
<stop offset="0.536458" stop-color="#BCFFDF"/>
<stop offset="0.692708" stop-color="#FF9FB4"/>
<stop offset="0.918609" stop-color="#ACB8DA"/>
</linearGradient>
<linearGradient id="paint31_linear" x1="74.25" y1="6.95001" x2="468.6" y2="366.65" gradientUnits="userSpaceOnUse">
<stop stop-color="#D6E4F7" stop-opacity="0.83"/>
<stop offset="1" stop-color="#D6E4F7" stop-opacity="0.46"/>
</linearGradient>
<linearGradient id="paint32_linear" x1="528" y1="464" x2="-4.61592e-05" y2="-64" gradientUnits="userSpaceOnUse">
<stop offset="0.104167" stop-color="#ACC9DA"/>
<stop offset="0.203125" stop-color="#E7AED2"/>
<stop offset="0.317708" stop-color="#FF9ECA"/>
<stop offset="0.479167" stop-color="#6EFFFB"/>
<stop offset="0.536458" stop-color="#BCFFDF"/>
<stop offset="0.692708" stop-color="#FF9FB4"/>
<stop offset="0.918609" stop-color="#ACB8DA"/>
</linearGradient>
<linearGradient id="paint33_linear" x1="453.75" y1="393.05" x2="59.4" y2="33.35" gradientUnits="userSpaceOnUse">
<stop stop-color="#D6E4F7" stop-opacity="0.83"/>
<stop offset="1" stop-color="#D6E4F7" stop-opacity="0.46"/>
</linearGradient>
</defs>
</svg>
