<svg width="528" height="418" viewBox="0 0 528 418" fill="none" xmlns="http://www.w3.org/2000/svg">
<g opacity="0.2" filter="url(#filter0_f)">
<rect width="240" height="180" rx="8" transform="matrix(0.866025 -0.5 0.866025 0.5 97 310)" fill="url(#paint0_linear)"/>
</g>
<g clip-path="url(#clip0)">
<path d="M103.928 294C100.102 291.791 100.102 288.209 103.928 286L297.918 174C301.744 171.791 307.948 171.791 311.774 174L453.802 256C457.629 258.209 457.629 261.791 453.802 264L259.813 376C255.986 378.209 249.783 378.209 245.956 376L103.928 294Z" fill="url(#paint1_linear)"/>
<g opacity="0.1">
<rect width="208" height="148" transform="matrix(0.866025 -0.5 0.866025 0.5 124.713 290)" stroke="white"/>
<rect width="104" height="148" transform="matrix(0.866025 -0.5 0.866025 0.5 124.713 290)" stroke="white"/>
<rect width="52" height="148" transform="matrix(0.866025 -0.5 0.866025 0.5 124.713 290)" stroke="white"/>
<rect width="52" height="148" transform="matrix(0.866025 -0.5 0.866025 0.5 259.813 212)" stroke="white"/>
<rect width="208" height="74" transform="matrix(0.866025 -0.5 0.866025 0.5 124.713 290)" stroke="white"/>
<rect width="208" height="37" transform="matrix(0.866025 -0.5 0.866025 0.5 124.713 290)" stroke="white"/>
<rect width="208" height="37" transform="matrix(0.866025 -0.5 0.866025 0.5 220.842 345.5)" stroke="white"/>
</g>
<line x1="0.5" y1="-0.5" x2="127.5" y2="-0.5" transform="matrix(0.866025 -0.5 0.866025 0.5 206.119 297)" stroke="white" stroke-linecap="round" stroke-dasharray="4 4"/>
<line x1="0.5" y1="-0.5" x2="63.5" y2="-0.5" transform="matrix(0.866025 0.5 -0.866026 0.5 205.253 285.5)" stroke="white" stroke-linecap="round" stroke-dasharray="4 4"/>
<line x1="0.5" y1="-0.5" x2="63.5" y2="-0.5" transform="matrix(0.866025 0.5 -0.866026 0.5 290.99 236)" stroke="white" stroke-linecap="round" stroke-dasharray="4 4"/>
<line x1="0.5" y1="-0.5" x2="127.5" y2="-0.5" transform="matrix(0.866025 -0.5 0.866025 0.5 241.626 317.5)" stroke="white" stroke-linecap="round" stroke-dasharray="4 4"/>
<path d="M261.649 295.065L252.409 300.399L257.018 305.16L250.76 308.773L230.061 285.177L235.452 282.064L276.132 294.125L269.874 297.738L261.649 295.065ZM248.815 296.64L255.2 292.953L240.717 288.229L248.815 296.64Z" fill="white" fill-opacity="0.2"/>
<path d="M278.305 279.833L289.596 286.352L283.655 289.782L252.87 272.008L263.399 265.929C265.077 264.961 266.839 264.228 268.685 263.732C270.518 263.227 272.343 262.955 274.161 262.914C275.98 262.857 277.749 263.032 279.468 263.439C281.202 263.838 282.809 264.464 284.289 265.319C285.67 266.116 286.685 267.003 287.334 267.98C287.996 268.948 288.278 269.958 288.179 271.007C288.081 272.041 287.594 273.087 286.72 274.145C285.847 275.202 284.571 276.216 282.894 277.184L278.305 279.833ZM273.485 277.05L278.073 274.401C278.919 273.913 279.525 273.416 279.891 272.912C280.258 272.407 280.427 271.911 280.399 271.422C280.385 270.926 280.194 270.458 279.828 270.019C279.461 269.563 278.968 269.156 278.348 268.798C277.629 268.383 276.854 268.057 276.022 267.821C275.204 267.577 274.352 267.443 273.464 267.418C272.59 267.386 271.709 267.471 270.821 267.675C269.933 267.878 269.066 268.224 268.22 268.712L263.632 271.361L273.485 277.05Z" fill="white" fill-opacity="0.2"/>
<path d="M284.137 253.957L301.939 243.678L306.739 246.449L300.734 249.916L321.941 262.16L327.945 258.693L332.724 261.452L314.921 271.73L310.143 268.971L316 265.59L294.793 253.346L288.936 256.728L284.137 253.957Z" fill="white" fill-opacity="0.2"/>
<path fill-rule="evenodd" clip-rule="evenodd" d="M229.479 285.513L235.5 282.037L277.324 294.437L270.143 298.583L261.918 295.91L253.334 300.865L257.944 305.626L250.76 309.773L229.479 285.513ZM230.972 285.651L251.089 308.583L256.423 305.504L251.813 300.744L261.709 295.03L269.934 297.704L275.269 294.623L235.734 282.902L230.972 285.651ZM252.169 272.413L263.131 266.084C264.85 265.092 266.669 264.334 268.589 263.817C270.485 263.295 272.389 263.009 274.298 262.966C276.206 262.907 278.063 263.091 279.862 263.516C281.681 263.935 283.356 264.59 284.887 265.474C286.323 266.303 287.387 267.231 288.069 268.257C288.763 269.273 289.059 270.332 288.955 271.432C288.852 272.517 288.341 273.608 287.438 274.702C286.529 275.802 285.21 276.847 283.491 277.839L279.336 280.238L290.626 286.757L283.819 290.687L252.169 272.413ZM253.901 272.413L283.819 289.687L288.894 286.757L277.604 280.238L282.625 277.339C284.261 276.394 285.493 275.413 286.332 274.397C287.176 273.376 287.639 272.375 287.732 271.393C287.826 270.394 287.558 269.435 286.929 268.515L286.926 268.512C286.311 267.585 285.346 266.739 284.021 265.974C282.592 265.149 281.054 264.551 279.406 264.172L279.401 264.171C277.763 263.784 276.085 263.618 274.359 263.672L274.35 263.672C272.624 263.711 270.879 263.97 269.113 264.456L269.108 264.457C267.336 264.934 265.632 265.64 263.997 266.584L253.901 272.413ZM283.435 254.362L302.104 243.583L307.769 246.854L301.765 250.321L322.105 262.065L328.11 258.598L333.754 261.857L315.086 272.635L309.441 269.376L315.298 265.995L294.957 254.251L289.101 257.633L283.435 254.362ZM285.167 254.362L289.101 256.633L294.957 253.251L317.03 265.995L311.173 269.376L315.086 271.635L332.022 261.857L328.11 259.598L322.105 263.065L300.033 250.321L306.037 246.854L302.104 244.583L285.167 254.362ZM262.931 271.766L267.952 268.867C268.842 268.353 269.777 267.976 270.759 267.751C271.722 267.531 272.692 267.435 273.663 267.47C274.638 267.498 275.573 267.645 276.462 267.911C277.358 268.165 278.185 268.514 278.945 268.953C279.615 269.339 280.149 269.78 280.546 270.273C280.95 270.757 281.159 271.274 281.175 271.819C281.206 272.363 281.016 272.909 280.62 273.453C280.216 274.01 279.558 274.543 278.67 275.056L273.649 277.955L262.931 271.766ZM264.663 271.766L273.649 276.955L277.804 274.556C278.608 274.092 279.162 273.633 279.491 273.18C279.828 272.717 279.976 272.271 279.951 271.839L279.951 271.833C279.938 271.387 279.768 270.969 279.441 270.577L279.437 270.572C279.101 270.155 278.649 269.782 278.079 269.453C277.403 269.063 276.682 268.761 275.916 268.544L275.905 268.54C275.163 268.319 274.396 268.199 273.599 268.177L273.589 268.176C272.813 268.147 272.023 268.223 271.211 268.408C270.418 268.59 269.619 268.905 268.818 269.367L264.663 271.766ZM239.29 287.709L256.368 293.279L248.839 297.626L239.29 287.709ZM249.12 296.463L254.362 293.437L242.473 289.559L249.12 296.463Z" fill="white"/>
</g>
<path d="M104.794 286.5L298.784 174.5L297.052 173.5L103.062 285.5L104.794 286.5ZM310.908 174.5L452.936 256.5L454.668 255.5L312.64 173.5L310.908 174.5ZM452.936 263.5L258.947 375.5L260.679 376.5L454.668 264.5L452.936 263.5ZM246.822 375.5L104.794 293.5L103.062 294.5L245.09 376.5L246.822 375.5ZM258.947 375.5C255.599 377.433 250.17 377.433 246.822 375.5L245.09 376.5C249.395 378.985 256.374 378.985 260.679 376.5L258.947 375.5ZM452.936 256.5C456.285 258.433 456.285 261.567 452.936 263.5L454.668 264.5C458.973 262.015 458.973 257.985 454.668 255.5L452.936 256.5ZM298.784 174.5C302.132 172.567 307.56 172.567 310.908 174.5L312.64 173.5C308.336 171.015 301.357 171.015 297.052 173.5L298.784 174.5ZM103.062 285.5C98.7575 287.985 98.7575 292.015 103.062 294.5L104.794 293.5C101.446 291.567 101.446 288.433 104.794 286.5L103.062 285.5Z" fill="url(#paint2_linear)"/>
<path d="M104.794 286.5L298.784 174.5L297.052 173.5L103.062 285.5L104.794 286.5ZM310.908 174.5L452.936 256.5L454.668 255.5L312.64 173.5L310.908 174.5ZM452.936 263.5L258.947 375.5L260.679 376.5L454.668 264.5L452.936 263.5ZM246.822 375.5L104.794 293.5L103.062 294.5L245.09 376.5L246.822 375.5ZM258.947 375.5C255.599 377.433 250.17 377.433 246.822 375.5L245.09 376.5C249.395 378.985 256.374 378.985 260.679 376.5L258.947 375.5ZM452.936 256.5C456.285 258.433 456.285 261.567 452.936 263.5L454.668 264.5C458.973 262.015 458.973 257.985 454.668 255.5L452.936 256.5ZM298.784 174.5C302.132 172.567 307.56 172.567 310.908 174.5L312.64 173.5C308.336 171.015 301.357 171.015 297.052 173.5L298.784 174.5ZM103.062 285.5C98.7575 287.985 98.7575 292.015 103.062 294.5L104.794 293.5C101.446 291.567 101.446 288.433 104.794 286.5L103.062 285.5Z" fill="url(#paint3_linear)"/>
<g opacity="0.3" filter="url(#filter1_f)">
<rect width="240" height="180" rx="8" transform="matrix(0.866025 -0.5 0.866025 0.5 97 225)" fill="#151B23"/>
</g>
<g clip-path="url(#clip1)">
<path d="M103.928 209C100.102 206.791 100.102 203.209 103.928 201L297.918 89C301.744 86.7909 307.948 86.7909 311.774 89L453.802 171C457.629 173.209 457.629 176.791 453.802 179L259.813 291C255.986 293.209 249.783 293.209 245.956 291L103.928 209Z" fill="#151B23"/>
<path d="M151.884 221.75L153.826 220.629C154.264 220.371 154.613 220.091 154.875 219.789C155.141 219.484 155.299 219.174 155.348 218.859C155.398 218.544 155.328 218.233 155.139 217.926C154.949 217.613 154.618 217.32 154.144 217.047C153.671 216.773 153.163 216.582 152.622 216.473C152.085 216.361 151.544 216.319 150.998 216.348C150.452 216.376 149.916 216.467 149.388 216.621C148.865 216.772 148.377 216.973 147.926 217.223L144.733 219.066L154.584 224.754L155.836 224.031L151.884 221.75ZM150.856 221.156L147.013 218.938L148.955 217.816C149.248 217.652 149.561 217.526 149.895 217.438C150.233 217.346 150.576 217.297 150.924 217.289C151.266 217.284 151.607 217.322 151.945 217.402C152.288 217.48 152.608 217.605 152.906 217.777C153.204 217.949 153.418 218.133 153.549 218.328C153.68 218.518 153.736 218.712 153.718 218.91C153.7 219.108 153.614 219.303 153.461 219.496C153.303 219.686 153.082 219.866 152.798 220.035L150.856 221.156ZM160.132 212.941C159.6 213.249 159.241 213.591 159.056 213.969C158.871 214.341 158.831 214.729 158.934 215.133L158.745 215.031L157.71 214.496L156.519 215.184L163.84 219.41L165.098 218.684L160.403 215.973C160.258 215.796 160.157 215.62 160.098 215.445C160.039 215.266 160.03 215.091 160.071 214.922C160.112 214.732 160.22 214.544 160.396 214.359C160.567 214.172 160.806 213.99 161.113 213.812C161.352 213.674 161.593 213.551 161.837 213.441C162.08 213.327 162.351 213.215 162.649 213.105L161.593 212.301C161.413 212.342 161.181 212.427 160.896 212.555C160.617 212.68 160.362 212.809 160.132 212.941ZM167.033 213.262L167.182 213.348C167.71 213.652 168.276 213.891 168.88 214.062C169.485 214.234 170.098 214.333 170.72 214.359C171.338 214.388 171.947 214.339 172.547 214.211C173.152 214.081 173.713 213.866 174.232 213.566C174.746 213.27 175.114 212.948 175.335 212.602C175.556 212.255 175.644 211.902 175.599 211.543C175.549 211.186 175.375 210.833 175.078 210.484C174.78 210.135 174.367 209.809 173.839 209.504L173.691 209.418C173.163 209.113 172.597 208.875 171.992 208.703C171.383 208.529 170.77 208.427 170.152 208.398C169.53 208.372 168.916 208.424 168.312 208.555C167.707 208.68 167.146 208.892 166.627 209.191C166.113 209.488 165.748 209.811 165.531 210.16C165.31 210.507 165.224 210.858 165.274 211.215C165.319 211.574 165.493 211.93 165.795 212.281C166.093 212.63 166.505 212.957 167.033 213.262ZM168.434 212.625L168.285 212.539C167.928 212.333 167.631 212.112 167.392 211.875C167.148 211.635 166.99 211.393 166.918 211.148C166.841 210.906 166.859 210.669 166.972 210.438C167.08 210.203 167.308 209.986 167.655 209.785C168.003 209.585 168.379 209.453 168.785 209.391C169.191 209.323 169.606 209.31 170.03 209.352C170.45 209.396 170.867 209.488 171.282 209.629C171.697 209.764 172.083 209.935 172.439 210.141L172.588 210.227C172.949 210.435 173.251 210.659 173.494 210.898C173.733 211.135 173.891 211.375 173.968 211.617C174.04 211.862 174.018 212.102 173.9 212.336C173.788 212.568 173.56 212.783 173.217 212.98C172.87 213.181 172.493 213.315 172.087 213.383C171.681 213.451 171.268 213.462 170.849 213.418C170.425 213.376 170.008 213.286 169.597 213.148C169.182 213.008 168.794 212.833 168.434 212.625ZM175.477 208.395L175.619 208.477C176.142 208.779 176.701 209.021 177.297 209.203C177.888 209.383 178.476 209.496 179.063 209.543C179.649 209.59 180.215 209.565 180.761 209.469C181.311 209.37 181.807 209.193 182.249 208.938C182.7 208.677 183.018 208.405 183.203 208.121C183.388 207.837 183.454 207.539 183.4 207.227L184.225 207.641L185.375 206.977L174.983 200.977L173.731 201.699L177.527 203.891C177.008 203.867 176.512 203.909 176.038 204.016C175.565 204.117 175.109 204.294 174.672 204.547C174.225 204.805 173.914 205.091 173.738 205.406C173.562 205.721 173.512 206.047 173.589 206.383C173.661 206.721 173.857 207.064 174.178 207.41C174.498 207.751 174.931 208.079 175.477 208.395ZM176.871 207.754L176.728 207.672C176.372 207.466 176.072 207.249 175.829 207.02C175.581 206.788 175.414 206.553 175.328 206.316C175.242 206.085 175.251 205.855 175.355 205.629C175.463 205.4 175.693 205.184 176.045 204.98C176.456 204.743 176.895 204.602 177.364 204.555C177.829 204.505 178.291 204.52 178.751 204.598L182.148 206.559C182.306 206.837 182.342 207.111 182.256 207.379C182.17 207.647 181.918 207.902 181.498 208.145C181.151 208.345 180.783 208.477 180.396 208.539C180.003 208.599 179.606 208.604 179.205 208.555C178.799 208.508 178.397 208.414 178 208.273C177.604 208.133 177.227 207.96 176.871 207.754ZM192.581 202.816L193.717 202.16L186.397 197.934L185.138 198.66L190.389 201.691C190.479 201.822 190.54 201.956 190.571 202.094C190.603 202.227 190.598 202.359 190.558 202.492C190.513 202.654 190.413 202.818 190.26 202.984C190.102 203.148 189.883 203.311 189.604 203.473C189.365 203.611 189.121 203.715 188.873 203.785C188.63 203.853 188.366 203.878 188.082 203.859C187.802 203.844 187.5 203.779 187.175 203.664C186.85 203.549 186.489 203.378 186.092 203.148L181.728 200.629L180.477 201.352L184.827 203.863C185.373 204.178 185.901 204.415 186.41 204.574C186.92 204.728 187.412 204.814 187.885 204.832C188.359 204.85 188.812 204.805 189.245 204.695C189.674 204.583 190.08 204.417 190.463 204.195C190.941 203.919 191.264 203.618 191.431 203.293C191.593 202.965 191.616 202.626 191.498 202.277L192.581 202.816ZM198.318 198.488C197.926 198.715 197.52 198.861 197.1 198.926C196.681 198.986 196.266 198.988 195.855 198.934C195.445 198.884 195.048 198.79 194.665 198.652C194.281 198.509 193.929 198.345 193.609 198.16L193.325 197.996C193.009 197.814 192.73 197.613 192.486 197.395C192.247 197.173 192.082 196.943 191.992 196.703C191.906 196.466 191.918 196.228 192.026 195.988C192.134 195.743 192.382 195.509 192.77 195.285C193.023 195.139 193.3 195.029 193.602 194.953C193.909 194.875 194.216 194.833 194.523 194.828C194.829 194.823 195.127 194.852 195.416 194.914C195.704 194.971 195.961 195.062 196.187 195.188L197.371 194.504C197.001 194.29 196.579 194.133 196.106 194.031C195.632 193.93 195.145 193.885 194.644 193.898C194.144 193.917 193.643 193.992 193.142 194.125C192.642 194.253 192.175 194.441 191.742 194.691C191.187 195.012 190.801 195.349 190.585 195.703C190.368 196.057 190.289 196.41 190.348 196.762C190.407 197.118 190.587 197.465 190.889 197.801C191.192 198.137 191.584 198.444 192.067 198.723L192.351 198.887C192.838 199.168 193.372 199.396 193.954 199.57C194.532 199.742 195.127 199.844 195.74 199.875C196.354 199.911 196.967 199.867 197.581 199.742C198.194 199.617 198.778 199.395 199.333 199.074C199.721 198.85 200.028 198.598 200.253 198.316C200.474 198.033 200.61 197.746 200.659 197.457C200.713 197.171 200.675 196.896 200.544 196.633C200.413 196.365 200.188 196.135 199.868 195.945L198.684 196.629C198.882 196.749 199.017 196.889 199.09 197.051C199.162 197.207 199.177 197.37 199.137 197.539C199.101 197.711 199.011 197.88 198.866 198.047C198.726 198.211 198.544 198.358 198.318 198.488ZM198.271 189.031L197.012 189.758L198.785 190.781L196.864 191.891L197.831 192.449L199.753 191.34L203.731 193.637C204.182 193.897 204.626 194.086 205.064 194.203C205.501 194.315 205.923 194.368 206.329 194.363C206.739 194.361 207.132 194.306 207.506 194.199C207.881 194.087 208.23 193.938 208.555 193.75C208.749 193.638 208.934 193.521 209.11 193.398C209.29 193.273 209.45 193.15 209.59 193.027C209.734 192.908 209.858 192.792 209.962 192.68C210.061 192.565 210.131 192.46 210.172 192.363L209.11 191.953C209.051 192.008 208.974 192.078 208.88 192.164C208.785 192.245 208.681 192.331 208.568 192.422C208.451 192.516 208.329 192.609 208.203 192.703C208.072 192.794 207.939 192.879 207.804 192.957C207.619 193.064 207.42 193.152 207.208 193.223C207.001 193.29 206.778 193.328 206.539 193.336C206.304 193.346 206.058 193.319 205.801 193.254C205.544 193.189 205.273 193.074 204.989 192.91L201.011 190.613L203.799 189.004L202.831 188.445L200.043 190.055L198.271 189.031ZM214.089 189.461C214.351 189.612 214.655 189.694 215.003 189.707C215.35 189.715 215.686 189.625 216.011 189.438C216.331 189.253 216.487 189.059 216.478 188.855C216.469 188.652 216.331 188.474 216.065 188.32C215.794 188.164 215.481 188.082 215.125 188.074C214.768 188.061 214.428 188.148 214.103 188.336C213.774 188.526 213.622 188.723 213.65 188.926C213.677 189.129 213.823 189.307 214.089 189.461ZM217.093 184.367L217.235 184.449C217.759 184.751 218.316 184.995 218.907 185.18C219.493 185.362 220.079 185.477 220.666 185.523C221.248 185.573 221.814 185.548 222.364 185.449C222.914 185.35 223.413 185.172 223.859 184.914C224.125 184.76 224.344 184.6 224.515 184.434C224.691 184.27 224.822 184.103 224.908 183.934C224.962 183.824 224.996 183.714 225.009 183.602C225.027 183.487 225.03 183.371 225.016 183.254L225.645 183.617C225.961 183.799 226.196 183.987 226.349 184.18C226.502 184.372 226.577 184.564 226.572 184.754C226.568 184.949 226.489 185.141 226.335 185.328C226.182 185.516 225.957 185.695 225.659 185.867C225.492 185.964 225.307 186.049 225.104 186.125C224.906 186.203 224.685 186.268 224.441 186.32C224.197 186.372 223.929 186.408 223.636 186.426C223.347 186.447 223.034 186.448 222.695 186.43L222.797 187.238C223.203 187.28 223.602 187.281 223.995 187.242C224.391 187.201 224.764 187.134 225.111 187.043C225.458 186.957 225.774 186.855 226.058 186.738C226.347 186.624 226.586 186.512 226.775 186.402C227.235 186.137 227.587 185.855 227.831 185.559C228.074 185.262 228.203 184.958 228.216 184.648C228.225 184.341 228.117 184.036 227.892 183.734C227.671 183.43 227.319 183.138 226.836 182.859L219.671 178.723L218.534 179.379L219.272 179.875C219.078 179.862 218.886 179.858 218.697 179.863C218.512 179.866 218.332 179.879 218.156 179.902C217.826 179.941 217.504 180.013 217.188 180.117C216.877 180.219 216.575 180.354 216.281 180.523C215.826 180.786 215.51 181.076 215.334 181.391C215.158 181.706 215.109 182.031 215.185 182.367C215.262 182.703 215.463 183.043 215.788 183.387C216.112 183.725 216.548 184.052 217.093 184.367ZM218.487 183.727L218.345 183.645C217.989 183.439 217.687 183.223 217.438 182.996C217.19 182.764 217.023 182.53 216.938 182.293C216.852 182.061 216.861 181.832 216.965 181.605C217.073 181.376 217.303 181.16 217.655 180.957C217.862 180.837 218.079 180.743 218.304 180.676C218.525 180.605 218.751 180.556 218.981 180.527C219.216 180.501 219.45 180.493 219.685 180.504C219.919 180.514 220.154 180.54 220.388 180.582L223.744 182.52C223.821 182.658 223.87 182.796 223.893 182.934C223.916 183.072 223.907 183.207 223.866 183.34C223.821 183.475 223.737 183.609 223.616 183.742C223.494 183.87 223.325 183.996 223.108 184.121C222.761 184.322 222.393 184.453 222.005 184.516C221.613 184.576 221.216 184.581 220.815 184.531C220.409 184.484 220.007 184.391 219.61 184.25C219.218 184.107 218.843 183.932 218.487 183.727ZM232.736 179.789C233.449 179.378 233.904 178.951 234.103 178.508C234.301 178.06 234.337 177.659 234.211 177.305L232.851 177.402C232.919 177.707 232.869 178.012 232.702 178.316C232.535 178.621 232.229 178.902 231.782 179.16C231.444 179.355 231.072 179.497 230.666 179.586C230.26 179.674 229.847 179.712 229.427 179.699C229.026 179.691 228.634 179.642 228.25 179.551C227.871 179.457 227.488 179.316 227.1 179.129L227.053 179.102L232.283 176.082L231.721 175.758C231.211 175.464 230.672 175.228 230.104 175.051C229.54 174.871 228.965 174.763 228.379 174.727C227.797 174.693 227.217 174.738 226.64 174.863C226.063 174.983 225.51 175.195 224.982 175.5C224.563 175.742 224.238 176.029 224.008 176.359C223.783 176.688 223.674 177.034 223.683 177.398C223.692 177.768 223.837 178.143 224.116 178.523C224.391 178.901 224.824 179.26 225.415 179.602L225.699 179.766C226.209 180.06 226.766 180.283 227.371 180.434C227.975 180.585 228.588 180.663 229.211 180.668C229.833 180.673 230.447 180.603 231.051 180.457C231.66 180.309 232.222 180.086 232.736 179.789ZM226.011 176.094C226.331 175.909 226.665 175.784 227.012 175.719C227.364 175.651 227.711 175.628 228.054 175.648C228.397 175.669 228.742 175.73 229.089 175.832C229.432 175.931 229.716 176.046 229.942 176.176L230.003 176.211L226.065 178.484C225.776 178.26 225.564 178.039 225.429 177.82C225.294 177.596 225.226 177.38 225.226 177.172C225.23 176.966 225.3 176.772 225.436 176.59C225.566 176.405 225.758 176.24 226.011 176.094ZM231.559 169.812L230.3 170.539L232.073 171.562L230.151 172.672L231.119 173.23L233.04 172.121L237.019 174.418C237.47 174.678 237.914 174.867 238.352 174.984C238.789 175.096 239.211 175.15 239.617 175.145C240.027 175.142 240.42 175.087 240.794 174.98C241.168 174.868 241.518 174.719 241.843 174.531C242.037 174.419 242.222 174.302 242.398 174.18C242.578 174.055 242.738 173.931 242.878 173.809C243.022 173.689 243.146 173.573 243.25 173.461C243.349 173.346 243.419 173.241 243.46 173.145L242.398 172.734C242.339 172.789 242.262 172.859 242.168 172.945C242.073 173.026 241.969 173.112 241.856 173.203C241.739 173.297 241.617 173.391 241.491 173.484C241.36 173.576 241.227 173.66 241.092 173.738C240.907 173.845 240.708 173.934 240.496 174.004C240.289 174.072 240.066 174.109 239.827 174.117C239.592 174.128 239.346 174.1 239.089 174.035C238.832 173.97 238.561 173.855 238.277 173.691L234.299 171.395L237.086 169.785L236.119 169.227L233.331 170.836L231.559 169.812ZM243.25 168.945L243.318 168.984C243.963 169.357 244.619 169.678 245.287 169.949C245.959 170.217 246.622 170.441 247.276 170.621C247.93 170.806 248.566 170.949 249.184 171.051C249.811 171.152 250.404 171.221 250.963 171.258C251.522 171.299 252.034 171.311 252.499 171.293C252.973 171.275 253.385 171.237 253.737 171.18L253.236 170.586C252.903 170.607 252.537 170.609 252.14 170.594C251.752 170.578 251.337 170.542 250.895 170.484C250.444 170.417 249.962 170.323 249.448 170.203C248.938 170.086 248.415 169.94 247.878 169.766C247.355 169.589 246.816 169.376 246.261 169.129C245.706 168.882 245.147 168.595 244.583 168.27L244.488 168.215C243.902 167.876 243.388 167.54 242.946 167.207C242.504 166.874 242.131 166.549 241.829 166.234C241.486 165.891 241.214 165.551 241.011 165.215C240.803 164.876 240.656 164.562 240.571 164.273C240.521 164.083 240.492 163.902 240.483 163.73C240.478 163.556 240.494 163.396 240.53 163.25L239.441 162.926C239.342 163.129 239.279 163.366 239.251 163.637C239.224 163.908 239.245 164.203 239.312 164.523C239.375 164.846 239.495 165.189 239.671 165.551C239.851 165.91 240.097 166.279 240.408 166.656C240.724 167.036 241.114 167.421 241.579 167.809C242.048 168.194 242.605 168.573 243.25 168.945ZM254.968 162.258L254.901 162.219C254.211 161.82 253.536 161.493 252.878 161.238C252.219 160.978 251.572 160.758 250.936 160.578C250.277 160.391 249.641 160.247 249.028 160.148C248.415 160.049 247.821 159.98 247.249 159.941C246.694 159.902 246.18 159.892 245.706 159.91C245.232 159.928 244.82 159.966 244.468 160.023L244.969 160.617C245.239 160.602 245.541 160.599 245.875 160.609C246.204 160.617 246.559 160.645 246.937 160.691C247.425 160.749 247.959 160.839 248.541 160.961C249.118 161.081 249.72 161.246 250.347 161.457C250.785 161.605 251.288 161.802 251.856 162.047C252.429 162.289 253.02 162.586 253.629 162.938L253.724 162.992C254.26 163.302 254.736 163.611 255.151 163.918C255.566 164.22 255.925 164.518 256.227 164.812C256.565 165.122 256.838 165.428 257.046 165.73C257.262 166.033 257.433 166.316 257.56 166.582C257.673 166.85 257.742 167.104 257.769 167.344C257.797 167.583 257.785 167.798 257.736 167.988L258.764 168.277C258.863 168.074 258.926 167.837 258.954 167.566C258.99 167.296 258.974 166.997 258.906 166.672C258.838 166.352 258.714 166.012 258.534 165.652C258.363 165.293 258.119 164.923 257.803 164.543C257.492 164.165 257.102 163.784 256.633 163.398C256.168 163.01 255.613 162.63 254.968 162.258Z" fill="#EFA9B5"/>
<path d="M181.268 232.926L180.017 233.648C180.274 233.844 180.481 234.044 180.639 234.25C180.792 234.453 180.878 234.656 180.896 234.859C180.919 235.065 180.86 235.268 180.72 235.469C180.585 235.667 180.353 235.861 180.023 236.051C179.721 236.225 179.41 236.35 179.09 236.426C178.765 236.499 178.433 236.534 178.095 236.531C177.761 236.531 177.43 236.499 177.101 236.434C176.771 236.368 176.447 236.283 176.126 236.176C175.811 236.072 175.508 235.954 175.22 235.824C174.931 235.689 174.665 235.551 174.421 235.41L173.034 234.609C172.791 234.469 172.554 234.316 172.324 234.152C172.094 233.983 171.889 233.807 171.708 233.625C171.528 233.443 171.381 233.257 171.268 233.066C171.16 232.874 171.106 232.681 171.106 232.488C171.102 232.298 171.165 232.111 171.296 231.926C171.426 231.736 171.641 231.555 171.938 231.383C172.268 231.193 172.608 231.061 172.96 230.988C173.312 230.91 173.668 230.879 174.029 230.895C174.39 230.91 174.748 230.964 175.105 231.055C175.461 231.146 175.808 231.266 176.147 231.414L177.398 230.691C176.875 230.452 176.334 230.27 175.774 230.145C175.22 230.017 174.663 229.953 174.103 229.953C173.549 229.956 173.003 230.026 172.466 230.164C171.925 230.299 171.408 230.509 170.917 230.793C170.506 231.03 170.195 231.277 169.983 231.535C169.766 231.79 169.631 232.051 169.577 232.316C169.518 232.585 169.534 232.854 169.624 233.125C169.715 233.391 169.861 233.652 170.064 233.91C170.263 234.171 170.508 234.422 170.802 234.664C171.099 234.904 171.429 235.13 171.789 235.344L173.163 236.137C173.533 236.345 173.925 236.535 174.34 236.707C174.76 236.876 175.195 237.018 175.646 237.133C176.092 237.25 176.546 237.335 177.006 237.387C177.47 237.436 177.935 237.444 178.4 237.41C178.86 237.379 179.313 237.302 179.76 237.18C180.206 237.052 180.632 236.871 181.038 236.637C181.512 236.363 181.866 236.073 182.101 235.766C182.335 235.453 182.457 235.135 182.466 234.812C182.475 234.495 182.378 234.176 182.175 233.855C181.967 233.533 181.665 233.223 181.268 232.926ZM190.984 230.738L192.29 229.984L192.182 229.922C191.897 229.852 191.597 229.751 191.282 229.621C190.962 229.488 190.68 229.352 190.436 229.211L187.033 227.246C186.622 227.009 186.189 226.845 185.734 226.754C185.278 226.663 184.818 226.632 184.354 226.66C183.889 226.694 183.429 226.785 182.973 226.934C182.513 227.079 182.076 227.272 181.661 227.512C181.205 227.775 180.86 228.047 180.626 228.328C180.396 228.607 180.258 228.876 180.213 229.137C180.168 229.402 180.206 229.648 180.328 229.875C180.454 230.099 180.648 230.289 180.91 230.445L182.168 229.719C182.015 229.63 181.904 229.525 181.837 229.402C181.769 229.275 181.751 229.142 181.783 229.004C181.814 228.866 181.895 228.723 182.026 228.574C182.161 228.423 182.353 228.276 182.601 228.133C182.867 227.979 183.14 227.861 183.42 227.777C183.704 227.691 183.981 227.641 184.252 227.625C184.527 227.612 184.793 227.633 185.05 227.688C185.308 227.742 185.547 227.833 185.768 227.961L186.343 228.293L184.976 229.082C184.466 229.376 184.054 229.672 183.738 229.969C183.427 230.263 183.224 230.552 183.129 230.836C183.039 231.122 183.064 231.4 183.203 231.668C183.348 231.934 183.621 232.182 184.022 232.414C184.329 232.591 184.674 232.723 185.057 232.809C185.441 232.889 185.838 232.921 186.248 232.902C186.658 232.889 187.076 232.826 187.5 232.711C187.928 232.594 188.336 232.423 188.724 232.199C188.963 232.061 189.164 231.917 189.326 231.766C189.489 231.615 189.622 231.46 189.726 231.301C189.825 231.145 189.895 230.99 189.935 230.836C189.98 230.68 190.003 230.529 190.003 230.383C190.17 230.464 190.339 230.538 190.51 230.605C190.682 230.668 190.84 230.712 190.984 230.738ZM187.818 231.465C187.574 231.605 187.328 231.711 187.08 231.781C186.832 231.852 186.591 231.889 186.356 231.895C186.126 231.902 185.903 231.88 185.686 231.828C185.474 231.773 185.278 231.694 185.098 231.59C184.908 231.48 184.773 231.363 184.692 231.238C184.615 231.111 184.59 230.977 184.617 230.836C184.653 230.638 184.796 230.426 185.044 230.199C185.292 229.967 185.632 229.727 186.065 229.477L187.229 228.805L188.711 229.66C188.783 229.785 188.824 229.923 188.833 230.074C188.837 230.223 188.805 230.376 188.738 230.535C188.666 230.697 188.555 230.857 188.406 231.016C188.257 231.174 188.061 231.324 187.818 231.465ZM191.837 221.637C191.304 221.944 190.946 222.286 190.761 222.664C190.576 223.036 190.535 223.424 190.639 223.828L190.45 223.727L189.414 223.191L188.224 223.879L195.544 228.105L196.803 227.379L192.107 224.668C191.963 224.491 191.861 224.315 191.803 224.141C191.744 223.961 191.735 223.786 191.776 223.617C191.816 223.427 191.925 223.24 192.1 223.055C192.272 222.867 192.511 222.685 192.818 222.508C193.057 222.37 193.298 222.246 193.542 222.137C193.785 222.022 194.056 221.91 194.353 221.801L193.298 220.996C193.118 221.038 192.885 221.122 192.601 221.25C192.321 221.375 192.067 221.504 191.837 221.637ZM196.688 216.945L195.429 217.672L197.202 218.695L195.28 219.805L196.248 220.363L198.169 219.254L202.148 221.551C202.599 221.811 203.043 222 203.481 222.117C203.918 222.229 204.34 222.283 204.746 222.277C205.156 222.275 205.549 222.22 205.923 222.113C206.297 222.001 206.647 221.852 206.972 221.664C207.166 221.552 207.351 221.435 207.526 221.312C207.707 221.188 207.867 221.064 208.007 220.941C208.151 220.822 208.275 220.706 208.379 220.594C208.478 220.479 208.548 220.374 208.589 220.277L207.526 219.867C207.468 219.922 207.391 219.992 207.296 220.078C207.202 220.159 207.098 220.245 206.985 220.336C206.868 220.43 206.746 220.523 206.62 220.617C206.489 220.708 206.356 220.793 206.221 220.871C206.036 220.978 205.837 221.066 205.625 221.137C205.418 221.204 205.195 221.242 204.955 221.25C204.721 221.26 204.475 221.233 204.218 221.168C203.961 221.103 203.69 220.988 203.406 220.824L199.428 218.527L202.215 216.918L201.248 216.359L198.46 217.969L196.688 216.945ZM212.506 217.375C212.768 217.526 213.072 217.608 213.42 217.621C213.767 217.629 214.103 217.539 214.428 217.352C214.748 217.167 214.903 216.973 214.894 216.77C214.885 216.566 214.748 216.388 214.482 216.234C214.211 216.078 213.898 215.996 213.541 215.988C213.185 215.975 212.844 216.062 212.52 216.25C212.19 216.44 212.039 216.637 212.066 216.84C212.093 217.043 212.24 217.221 212.506 217.375ZM224.272 211.52L225.578 210.766L225.469 210.703C225.185 210.633 224.885 210.533 224.57 210.402C224.249 210.27 223.967 210.133 223.724 209.992L220.321 208.027C219.91 207.79 219.477 207.626 219.022 207.535C218.566 207.444 218.106 207.413 217.641 207.441C217.177 207.475 216.717 207.566 216.261 207.715C215.801 207.861 215.364 208.053 214.949 208.293C214.493 208.556 214.148 208.828 213.913 209.109C213.683 209.388 213.546 209.658 213.501 209.918C213.456 210.184 213.494 210.43 213.616 210.656C213.742 210.88 213.936 211.07 214.198 211.227L215.456 210.5C215.303 210.411 215.192 210.306 215.125 210.184C215.057 210.056 215.039 209.923 215.07 209.785C215.102 209.647 215.183 209.504 215.314 209.355C215.449 209.204 215.641 209.057 215.889 208.914C216.155 208.76 216.428 208.642 216.708 208.559C216.992 208.473 217.269 208.422 217.54 208.406C217.815 208.393 218.081 208.414 218.338 208.469C218.595 208.523 218.834 208.615 219.055 208.742L219.631 209.074L218.264 209.863C217.754 210.158 217.341 210.453 217.026 210.75C216.714 211.044 216.512 211.333 216.417 211.617C216.327 211.904 216.351 212.181 216.491 212.449C216.636 212.715 216.908 212.964 217.31 213.195C217.617 213.372 217.962 213.504 218.345 213.59C218.728 213.671 219.125 213.702 219.536 213.684C219.946 213.671 220.364 213.607 220.788 213.492C221.216 213.375 221.624 213.204 222.012 212.98C222.251 212.842 222.452 212.698 222.614 212.547C222.777 212.396 222.91 212.241 223.013 212.082C223.113 211.926 223.183 211.771 223.223 211.617C223.268 211.461 223.291 211.31 223.291 211.164C223.458 211.245 223.627 211.319 223.798 211.387C223.97 211.449 224.128 211.493 224.272 211.52ZM221.106 212.246C220.862 212.387 220.616 212.492 220.368 212.562C220.12 212.633 219.879 212.671 219.644 212.676C219.414 212.684 219.191 212.661 218.974 212.609C218.762 212.555 218.566 212.475 218.386 212.371C218.196 212.262 218.061 212.145 217.98 212.02C217.903 211.892 217.878 211.758 217.905 211.617C217.941 211.419 218.083 211.207 218.332 210.98C218.58 210.749 218.92 210.508 219.353 210.258L220.517 209.586L221.999 210.441C222.071 210.566 222.111 210.704 222.12 210.855C222.125 211.004 222.093 211.158 222.026 211.316C221.953 211.478 221.843 211.638 221.694 211.797C221.545 211.956 221.349 212.105 221.106 212.246ZM223.825 207.48L223.967 207.562C224.491 207.865 225.05 208.107 225.645 208.289C226.236 208.469 226.825 208.582 227.411 208.629C227.998 208.676 228.564 208.651 229.109 208.555C229.66 208.456 230.156 208.279 230.598 208.023C231.049 207.763 231.367 207.491 231.552 207.207C231.737 206.923 231.802 206.625 231.748 206.312L232.574 206.727L233.724 206.062L223.331 200.062L222.08 200.785L225.875 202.977C225.357 202.953 224.861 202.995 224.387 203.102C223.913 203.203 223.458 203.38 223.02 203.633C222.574 203.891 222.262 204.177 222.087 204.492C221.911 204.807 221.861 205.133 221.938 205.469C222.01 205.807 222.206 206.15 222.526 206.496C222.847 206.837 223.28 207.165 223.825 207.48ZM225.219 206.84L225.077 206.758C224.721 206.552 224.421 206.335 224.177 206.105C223.929 205.874 223.762 205.639 223.677 205.402C223.591 205.171 223.6 204.941 223.704 204.715C223.812 204.486 224.042 204.27 224.394 204.066C224.804 203.829 225.244 203.688 225.713 203.641C226.178 203.591 226.64 203.605 227.1 203.684L230.496 205.645C230.654 205.923 230.69 206.197 230.605 206.465C230.519 206.733 230.266 206.988 229.847 207.23C229.5 207.431 229.132 207.562 228.744 207.625C228.352 207.685 227.955 207.69 227.553 207.641C227.147 207.594 226.746 207.5 226.349 207.359C225.952 207.219 225.575 207.046 225.219 206.84ZM232.147 202.676L232.289 202.758C232.813 203.06 233.372 203.302 233.967 203.484C234.558 203.664 235.147 203.777 235.733 203.824C236.32 203.871 236.886 203.846 237.431 203.75C237.982 203.651 238.478 203.474 238.92 203.219C239.371 202.958 239.689 202.686 239.874 202.402C240.059 202.118 240.124 201.82 240.07 201.508L240.896 201.922L242.046 201.258L231.653 195.258L230.402 195.98L234.197 198.172C233.679 198.148 233.182 198.19 232.709 198.297C232.235 198.398 231.78 198.576 231.342 198.828C230.896 199.086 230.584 199.372 230.409 199.688C230.233 200.003 230.183 200.328 230.26 200.664C230.332 201.003 230.528 201.345 230.848 201.691C231.169 202.033 231.602 202.361 232.147 202.676ZM233.541 202.035L233.399 201.953C233.043 201.747 232.743 201.53 232.499 201.301C232.251 201.069 232.084 200.835 231.998 200.598C231.913 200.366 231.922 200.137 232.026 199.91C232.134 199.681 232.364 199.465 232.716 199.262C233.126 199.025 233.566 198.883 234.035 198.836C234.5 198.786 234.962 198.801 235.422 198.879L238.818 200.84C238.976 201.118 239.012 201.392 238.927 201.66C238.841 201.928 238.588 202.184 238.169 202.426C237.822 202.626 237.454 202.758 237.066 202.82C236.674 202.88 236.277 202.885 235.875 202.836C235.469 202.789 235.068 202.695 234.671 202.555C234.274 202.414 233.897 202.241 233.541 202.035ZM241.667 196.859L241.734 196.898C242.38 197.271 243.036 197.592 243.703 197.863C244.375 198.132 245.038 198.355 245.693 198.535C246.347 198.72 246.983 198.863 247.6 198.965C248.227 199.066 248.821 199.135 249.38 199.172C249.939 199.214 250.451 199.225 250.916 199.207C251.389 199.189 251.802 199.151 252.154 199.094L251.653 198.5C251.319 198.521 250.954 198.523 250.557 198.508C250.169 198.492 249.754 198.456 249.312 198.398C248.861 198.331 248.379 198.237 247.864 198.117C247.355 198 246.831 197.854 246.295 197.68C245.771 197.503 245.232 197.29 244.678 197.043C244.123 196.796 243.564 196.509 243 196.184L242.905 196.129C242.319 195.79 241.804 195.454 241.362 195.121C240.92 194.788 240.548 194.464 240.246 194.148C239.903 193.805 239.63 193.465 239.427 193.129C239.22 192.79 239.073 192.477 238.988 192.188C238.938 191.997 238.909 191.816 238.9 191.645C238.895 191.47 238.911 191.31 238.947 191.164L237.858 190.84C237.758 191.043 237.695 191.28 237.668 191.551C237.641 191.822 237.661 192.117 237.729 192.438C237.792 192.76 237.912 193.103 238.088 193.465C238.268 193.824 238.514 194.193 238.825 194.57C239.141 194.951 239.531 195.335 239.996 195.723C240.465 196.108 241.022 196.487 241.667 196.859ZM253.385 190.172L253.318 190.133C252.627 189.734 251.953 189.408 251.295 189.152C250.636 188.892 249.989 188.672 249.353 188.492C248.694 188.305 248.058 188.161 247.445 188.062C246.831 187.964 246.238 187.895 245.665 187.855C245.111 187.816 244.596 187.806 244.123 187.824C243.649 187.842 243.237 187.88 242.885 187.938L243.385 188.531C243.656 188.516 243.958 188.513 244.292 188.523C244.621 188.531 244.975 188.559 245.354 188.605C245.841 188.663 246.376 188.753 246.958 188.875C247.535 188.995 248.137 189.16 248.764 189.371C249.202 189.52 249.705 189.716 250.273 189.961C250.846 190.203 251.437 190.5 252.046 190.852L252.14 190.906C252.677 191.216 253.153 191.525 253.568 191.832C253.983 192.134 254.341 192.432 254.644 192.727C254.982 193.036 255.255 193.342 255.462 193.645C255.679 193.947 255.85 194.23 255.977 194.496C256.089 194.764 256.159 195.018 256.186 195.258C256.213 195.497 256.202 195.712 256.152 195.902L257.181 196.191C257.28 195.988 257.343 195.751 257.37 195.48C257.406 195.21 257.391 194.911 257.323 194.586C257.255 194.266 257.131 193.926 256.951 193.566C256.779 193.207 256.536 192.837 256.22 192.457C255.909 192.079 255.519 191.698 255.05 191.312C254.585 190.924 254.03 190.544 253.385 190.172Z" fill="#FBC59D"/>
<path d="M204.651 246.426L203.399 247.148C203.656 247.344 203.864 247.544 204.022 247.75C204.175 247.953 204.261 248.156 204.279 248.359C204.301 248.565 204.243 248.768 204.103 248.969C203.968 249.167 203.735 249.361 203.406 249.551C203.104 249.725 202.793 249.85 202.472 249.926C202.148 249.999 201.816 250.034 201.478 250.031C201.144 250.031 200.813 249.999 200.483 249.934C200.154 249.868 199.829 249.783 199.509 249.676C199.193 249.572 198.891 249.454 198.602 249.324C198.314 249.189 198.048 249.051 197.804 248.91L196.417 248.109C196.173 247.969 195.937 247.816 195.707 247.652C195.477 247.483 195.271 247.307 195.091 247.125C194.91 246.943 194.764 246.757 194.651 246.566C194.543 246.374 194.489 246.181 194.489 245.988C194.484 245.798 194.547 245.611 194.678 245.426C194.809 245.236 195.023 245.055 195.321 244.883C195.65 244.693 195.991 244.561 196.343 244.488C196.694 244.41 197.051 244.379 197.412 244.395C197.772 244.41 198.131 244.464 198.487 244.555C198.844 244.646 199.191 244.766 199.529 244.914L200.781 244.191C200.258 243.952 199.716 243.77 199.157 243.645C198.602 243.517 198.045 243.453 197.486 243.453C196.931 243.456 196.385 243.526 195.849 243.664C195.307 243.799 194.791 244.009 194.299 244.293C193.889 244.53 193.578 244.777 193.366 245.035C193.149 245.29 193.014 245.551 192.96 245.816C192.901 246.085 192.917 246.354 193.007 246.625C193.097 246.891 193.244 247.152 193.447 247.41C193.645 247.671 193.891 247.922 194.184 248.164C194.482 248.404 194.811 248.63 195.172 248.844L196.546 249.637C196.915 249.845 197.308 250.035 197.723 250.207C198.142 250.376 198.578 250.518 199.029 250.633C199.475 250.75 199.928 250.835 200.389 250.887C200.853 250.936 201.318 250.944 201.782 250.91C202.242 250.879 202.696 250.802 203.142 250.68C203.589 250.552 204.015 250.371 204.421 250.137C204.895 249.863 205.249 249.573 205.483 249.266C205.718 248.953 205.84 248.635 205.849 248.312C205.858 247.995 205.761 247.676 205.558 247.355C205.35 247.033 205.048 246.723 204.651 246.426ZM204.577 242.695L200.416 240.293L199.164 241.016L209.556 247.016L210.808 246.293L205.49 243.223C205.436 243.087 205.407 242.953 205.402 242.82C205.398 242.682 205.418 242.548 205.463 242.418C205.517 242.251 205.614 242.091 205.754 241.938C205.894 241.784 206.076 241.642 206.302 241.512C206.573 241.35 206.854 241.232 207.148 241.156C207.436 241.078 207.729 241.044 208.027 241.055C208.302 241.062 208.584 241.111 208.873 241.199C209.157 241.285 209.443 241.411 209.732 241.578L214.353 244.246L215.605 243.523L210.997 240.863C210.506 240.579 210.021 240.37 209.543 240.234C209.065 240.094 208.598 240.02 208.142 240.012C207.687 240.004 207.247 240.06 206.823 240.18C206.399 240.294 205.995 240.462 205.612 240.684C205.323 240.855 205.089 241.04 204.908 241.238C204.732 241.434 204.615 241.639 204.556 241.855C204.516 241.988 204.498 242.126 204.502 242.27C204.502 242.41 204.527 242.552 204.577 242.695ZM221.248 240.422C221.96 240.01 222.416 239.583 222.614 239.141C222.813 238.693 222.849 238.292 222.723 237.938L221.363 238.035C221.43 238.34 221.381 238.645 221.214 238.949C221.047 239.254 220.74 239.535 220.294 239.793C219.955 239.988 219.583 240.13 219.177 240.219C218.771 240.307 218.359 240.345 217.939 240.332C217.538 240.324 217.145 240.275 216.762 240.184C216.383 240.09 216 239.949 215.612 239.762L215.564 239.734L220.794 236.715L220.233 236.391C219.723 236.096 219.184 235.861 218.616 235.684C218.052 235.504 217.477 235.396 216.89 235.359C216.309 235.326 215.729 235.371 215.152 235.496C214.574 235.616 214.022 235.828 213.494 236.133C213.074 236.375 212.75 236.661 212.52 236.992C212.294 237.32 212.186 237.667 212.195 238.031C212.204 238.401 212.348 238.776 212.628 239.156C212.903 239.534 213.336 239.893 213.927 240.234L214.211 240.398C214.721 240.693 215.278 240.915 215.882 241.066C216.487 241.217 217.1 241.296 217.723 241.301C218.345 241.306 218.958 241.236 219.563 241.09C220.172 240.941 220.733 240.719 221.248 240.422ZM214.522 236.727C214.843 236.542 215.176 236.417 215.524 236.352C215.876 236.284 216.223 236.26 216.566 236.281C216.908 236.302 217.253 236.363 217.601 236.465C217.944 236.564 218.228 236.678 218.453 236.809L218.514 236.844L214.576 239.117C214.288 238.893 214.076 238.672 213.94 238.453C213.805 238.229 213.738 238.013 213.738 237.805C213.742 237.599 213.812 237.405 213.947 237.223C214.078 237.038 214.27 236.872 214.522 236.727ZM228.44 235.098C228.047 235.324 227.641 235.47 227.222 235.535C226.802 235.595 226.387 235.598 225.977 235.543C225.566 235.493 225.17 235.4 224.786 235.262C224.403 235.118 224.051 234.954 223.731 234.77L223.446 234.605C223.131 234.423 222.851 234.223 222.608 234.004C222.368 233.783 222.204 233.552 222.114 233.312C222.028 233.076 222.039 232.837 222.147 232.598C222.256 232.353 222.504 232.118 222.892 231.895C223.144 231.749 223.422 231.638 223.724 231.562C224.031 231.484 224.337 231.443 224.644 231.438C224.951 231.432 225.248 231.461 225.537 231.523C225.826 231.581 226.083 231.672 226.308 231.797L227.492 231.113C227.123 230.9 226.701 230.742 226.227 230.641C225.754 230.539 225.266 230.495 224.766 230.508C224.265 230.526 223.764 230.602 223.264 230.734C222.763 230.862 222.296 231.051 221.863 231.301C221.308 231.621 220.923 231.958 220.706 232.312C220.49 232.667 220.411 233.02 220.47 233.371C220.528 233.728 220.709 234.074 221.011 234.41C221.313 234.746 221.705 235.053 222.188 235.332L222.472 235.496C222.959 235.777 223.494 236.005 224.076 236.18C224.653 236.352 225.248 236.453 225.862 236.484C226.475 236.521 227.089 236.477 227.702 236.352C228.316 236.227 228.9 236.004 229.455 235.684C229.842 235.46 230.149 235.207 230.375 234.926C230.596 234.642 230.731 234.355 230.781 234.066C230.835 233.78 230.796 233.505 230.666 233.242C230.535 232.974 230.309 232.745 229.989 232.555L228.805 233.238C229.003 233.358 229.139 233.499 229.211 233.66C229.283 233.816 229.299 233.979 229.258 234.148C229.222 234.32 229.132 234.49 228.988 234.656C228.848 234.82 228.665 234.967 228.44 235.098ZM233.298 229.363L239.4 229.785L240.99 228.867L233.304 228.375L233.216 224.902L231.694 225.781L231.701 228.559L231.762 229.539L225.402 225.867L224.143 226.594L234.536 232.594L235.794 231.867L233.264 230.406L233.298 229.363ZM238.764 225.848L238.913 225.934C239.441 226.238 240.007 226.477 240.611 226.648C241.216 226.82 241.829 226.919 242.452 226.945C243.07 226.974 243.679 226.924 244.278 226.797C244.883 226.667 245.444 226.452 245.963 226.152C246.477 225.855 246.845 225.534 247.066 225.188C247.287 224.841 247.375 224.488 247.33 224.129C247.28 223.772 247.107 223.419 246.809 223.07C246.511 222.721 246.098 222.395 245.571 222.09L245.422 222.004C244.894 221.699 244.328 221.461 243.724 221.289C243.115 221.115 242.501 221.013 241.883 220.984C241.261 220.958 240.647 221.01 240.043 221.141C239.439 221.266 238.877 221.478 238.358 221.777C237.844 222.074 237.479 222.397 237.262 222.746C237.041 223.092 236.956 223.444 237.005 223.801C237.05 224.16 237.224 224.516 237.526 224.867C237.824 225.216 238.237 225.543 238.764 225.848ZM240.165 225.211L240.016 225.125C239.66 224.919 239.362 224.698 239.123 224.461C238.879 224.221 238.721 223.979 238.649 223.734C238.573 223.492 238.591 223.255 238.703 223.023C238.812 222.789 239.039 222.572 239.387 222.371C239.734 222.171 240.111 222.039 240.517 221.977C240.923 221.909 241.338 221.896 241.762 221.938C242.181 221.982 242.598 222.074 243.013 222.215C243.428 222.35 243.814 222.521 244.17 222.727L244.319 222.812C244.68 223.021 244.982 223.245 245.226 223.484C245.465 223.721 245.623 223.961 245.699 224.203C245.771 224.448 245.749 224.688 245.632 224.922C245.519 225.154 245.291 225.368 244.948 225.566C244.601 225.767 244.224 225.901 243.818 225.969C243.412 226.036 243 226.048 242.58 226.004C242.156 225.962 241.739 225.872 241.329 225.734C240.914 225.594 240.526 225.419 240.165 225.211ZM255.99 220.207L257.127 219.551L249.806 215.324L248.548 216.051L253.798 219.082C253.888 219.212 253.949 219.346 253.981 219.484C254.012 219.617 254.008 219.75 253.967 219.883C253.922 220.044 253.823 220.208 253.669 220.375C253.512 220.539 253.293 220.702 253.013 220.863C252.774 221.001 252.531 221.105 252.282 221.176C252.039 221.243 251.775 221.268 251.491 221.25C251.211 221.234 250.909 221.169 250.584 221.055C250.259 220.94 249.899 220.768 249.502 220.539L245.138 218.02L243.886 218.742L248.236 221.254C248.782 221.569 249.31 221.806 249.82 221.965C250.329 222.118 250.821 222.204 251.295 222.223C251.768 222.241 252.222 222.195 252.655 222.086C253.083 221.974 253.489 221.807 253.872 221.586C254.351 221.31 254.673 221.009 254.84 220.684C255.002 220.355 255.025 220.017 254.908 219.668L255.99 220.207ZM253.358 211.227L252.1 211.953L253.872 212.977L251.951 214.086L252.918 214.645L254.84 213.535L258.818 215.832C259.269 216.092 259.714 216.281 260.151 216.398C260.589 216.51 261.01 216.564 261.416 216.559C261.827 216.556 262.219 216.501 262.594 216.395C262.968 216.283 263.317 216.133 263.642 215.945C263.836 215.833 264.021 215.716 264.197 215.594C264.377 215.469 264.538 215.345 264.677 215.223C264.822 215.103 264.946 214.987 265.05 214.875C265.149 214.76 265.219 214.655 265.259 214.559L264.197 214.148C264.138 214.203 264.062 214.273 263.967 214.359C263.872 214.44 263.769 214.526 263.656 214.617C263.538 214.711 263.417 214.805 263.29 214.898C263.16 214.99 263.027 215.074 262.891 215.152C262.706 215.259 262.508 215.348 262.296 215.418C262.088 215.486 261.865 215.523 261.626 215.531C261.391 215.542 261.146 215.514 260.889 215.449C260.631 215.384 260.361 215.27 260.077 215.105L256.098 212.809L258.886 211.199L257.918 210.641L255.131 212.25L253.358 211.227ZM269.177 211.656C269.438 211.807 269.743 211.889 270.09 211.902C270.437 211.91 270.773 211.82 271.098 211.633C271.418 211.448 271.574 211.254 271.565 211.051C271.556 210.848 271.418 210.669 271.152 210.516C270.882 210.359 270.568 210.277 270.212 210.27C269.856 210.257 269.515 210.344 269.19 210.531C268.861 210.721 268.71 210.918 268.737 211.121C268.764 211.324 268.911 211.503 269.177 211.656ZM278.371 206.27C277.979 206.496 277.573 206.642 277.154 206.707C276.734 206.767 276.319 206.77 275.909 206.715C275.498 206.665 275.101 206.572 274.718 206.434C274.334 206.29 273.983 206.126 273.662 205.941L273.378 205.777C273.063 205.595 272.783 205.395 272.539 205.176C272.3 204.954 272.136 204.724 272.045 204.484C271.96 204.247 271.971 204.009 272.079 203.77C272.187 203.525 272.436 203.29 272.823 203.066C273.076 202.921 273.353 202.81 273.656 202.734C273.962 202.656 274.269 202.615 274.576 202.609C274.883 202.604 275.18 202.633 275.469 202.695C275.758 202.753 276.015 202.844 276.24 202.969L277.424 202.285C277.054 202.072 276.633 201.914 276.159 201.812C275.685 201.711 275.198 201.667 274.698 201.68C274.197 201.698 273.696 201.773 273.196 201.906C272.695 202.034 272.228 202.223 271.795 202.473C271.24 202.793 270.855 203.13 270.638 203.484C270.422 203.839 270.343 204.191 270.401 204.543C270.46 204.9 270.64 205.246 270.943 205.582C271.245 205.918 271.637 206.225 272.12 206.504L272.404 206.668C272.891 206.949 273.426 207.177 274.007 207.352C274.585 207.523 275.18 207.625 275.794 207.656C276.407 207.693 277.021 207.648 277.634 207.523C278.247 207.398 278.832 207.176 279.386 206.855C279.774 206.632 280.081 206.379 280.306 206.098C280.527 205.814 280.663 205.527 280.712 205.238C280.767 204.952 280.728 204.677 280.597 204.414C280.467 204.146 280.241 203.917 279.921 203.727L278.737 204.41C278.935 204.53 279.071 204.671 279.143 204.832C279.215 204.988 279.231 205.151 279.19 205.32C279.154 205.492 279.064 205.661 278.919 205.828C278.78 205.992 278.597 206.139 278.371 206.27ZM289.264 200.996L290.57 200.242L290.462 200.18C290.178 200.109 289.878 200.009 289.562 199.879C289.242 199.746 288.96 199.609 288.716 199.469L285.313 197.504C284.903 197.267 284.47 197.103 284.014 197.012C283.559 196.921 283.098 196.889 282.634 196.918C282.169 196.952 281.709 197.043 281.254 197.191C280.794 197.337 280.356 197.53 279.941 197.77C279.486 198.033 279.14 198.305 278.906 198.586C278.676 198.865 278.538 199.134 278.493 199.395C278.448 199.66 278.486 199.906 278.608 200.133C278.735 200.357 278.928 200.547 279.19 200.703L280.449 199.977C280.295 199.888 280.185 199.783 280.117 199.66C280.049 199.533 280.031 199.4 280.063 199.262C280.094 199.124 280.176 198.98 280.306 198.832C280.442 198.681 280.633 198.534 280.882 198.391C281.148 198.237 281.421 198.118 281.7 198.035C281.984 197.949 282.262 197.898 282.532 197.883C282.808 197.87 283.074 197.891 283.331 197.945C283.588 198 283.827 198.091 284.048 198.219L284.623 198.551L283.256 199.34C282.747 199.634 282.334 199.93 282.018 200.227C281.707 200.521 281.504 200.81 281.409 201.094C281.319 201.38 281.344 201.658 281.484 201.926C281.628 202.191 281.901 202.44 282.302 202.672C282.609 202.849 282.954 202.98 283.338 203.066C283.721 203.147 284.118 203.178 284.528 203.16C284.939 203.147 285.356 203.083 285.78 202.969C286.209 202.852 286.617 202.681 287.005 202.457C287.244 202.319 287.444 202.174 287.607 202.023C287.769 201.872 287.902 201.717 288.006 201.559C288.105 201.402 288.175 201.247 288.216 201.094C288.261 200.938 288.283 200.786 288.283 200.641C288.45 200.721 288.619 200.796 288.791 200.863C288.962 200.926 289.12 200.97 289.264 200.996ZM286.098 201.723C285.854 201.863 285.609 201.969 285.361 202.039C285.112 202.109 284.871 202.147 284.637 202.152C284.407 202.16 284.183 202.138 283.967 202.086C283.755 202.031 283.559 201.952 283.378 201.848C283.189 201.738 283.053 201.621 282.972 201.496C282.896 201.368 282.871 201.234 282.898 201.094C282.934 200.896 283.076 200.684 283.324 200.457C283.572 200.225 283.913 199.984 284.346 199.734L285.509 199.062L286.991 199.918C287.063 200.043 287.104 200.181 287.113 200.332C287.117 200.48 287.086 200.634 287.018 200.793C286.946 200.954 286.835 201.115 286.687 201.273C286.538 201.432 286.342 201.582 286.098 201.723ZM295.584 200.598L296.835 199.875L293.317 197.844C293.507 197.849 293.696 197.846 293.885 197.836C294.07 197.823 294.255 197.802 294.44 197.773C294.742 197.724 295.042 197.647 295.34 197.543C295.642 197.436 295.933 197.302 296.213 197.141C296.673 196.875 296.986 196.585 297.153 196.27C297.325 195.952 297.365 195.626 297.275 195.293C297.185 194.96 296.977 194.626 296.653 194.293C296.323 193.957 295.897 193.638 295.374 193.336L295.232 193.254C294.686 192.939 294.122 192.686 293.54 192.496C292.954 192.303 292.374 192.182 291.802 192.133C291.229 192.083 290.669 192.109 290.124 192.211C289.578 192.312 289.07 192.499 288.601 192.77C288.335 192.923 288.114 193.085 287.938 193.254C287.762 193.418 287.634 193.586 287.553 193.758C287.49 193.878 287.451 194.001 287.438 194.129C287.42 194.254 287.424 194.382 287.451 194.512L286.592 194.086L285.448 194.746L295.584 200.598ZM293.98 193.977L294.122 194.059C294.479 194.264 294.779 194.484 295.022 194.719C295.27 194.951 295.437 195.185 295.523 195.422C295.609 195.659 295.599 195.893 295.496 196.125C295.387 196.354 295.16 196.569 294.812 196.77C294.596 196.895 294.37 196.993 294.136 197.066C293.906 197.137 293.671 197.186 293.432 197.215C293.225 197.241 293.013 197.249 292.796 197.238C292.58 197.228 292.365 197.206 292.153 197.172L288.628 195.137C288.561 194.999 288.52 194.861 288.507 194.723C288.493 194.585 288.516 194.449 288.574 194.316C288.619 194.191 288.701 194.069 288.818 193.949C288.94 193.827 289.098 193.71 289.291 193.598C289.643 193.395 290.018 193.262 290.415 193.199C290.812 193.137 291.215 193.128 291.626 193.172C292.036 193.221 292.442 193.318 292.844 193.461C293.245 193.599 293.624 193.771 293.98 193.977ZM294.968 187.203L293.71 187.93L295.482 188.953L293.561 190.062L294.528 190.621L296.45 189.512L300.428 191.809C300.879 192.069 301.323 192.258 301.761 192.375C302.198 192.487 302.62 192.54 303.026 192.535C303.437 192.533 303.829 192.478 304.203 192.371C304.578 192.259 304.927 192.109 305.252 191.922C305.446 191.81 305.631 191.693 305.807 191.57C305.987 191.445 306.147 191.322 306.287 191.199C306.432 191.079 306.556 190.964 306.659 190.852C306.759 190.737 306.828 190.632 306.869 190.535L305.807 190.125C305.748 190.18 305.672 190.25 305.577 190.336C305.482 190.417 305.378 190.503 305.266 190.594C305.148 190.688 305.027 190.781 304.9 190.875C304.769 190.966 304.636 191.051 304.501 191.129C304.316 191.236 304.118 191.324 303.906 191.395C303.698 191.462 303.475 191.5 303.236 191.508C303.001 191.518 302.755 191.491 302.498 191.426C302.241 191.361 301.971 191.246 301.686 191.082L297.708 188.785L300.496 187.176L299.528 186.617L296.741 188.227L294.968 187.203ZM314.244 186.574L315.38 185.918L308.06 181.691L306.801 182.418L312.052 185.449C312.142 185.579 312.203 185.714 312.234 185.852C312.266 185.984 312.261 186.117 312.221 186.25C312.176 186.411 312.077 186.576 311.923 186.742C311.765 186.906 311.547 187.069 311.267 187.23C311.028 187.368 310.784 187.473 310.536 187.543C310.293 187.611 310.029 187.635 309.745 187.617C309.465 187.602 309.163 187.536 308.838 187.422C308.513 187.307 308.152 187.135 307.755 186.906L303.391 184.387L302.14 185.109L306.49 187.621C307.036 187.936 307.564 188.173 308.073 188.332C308.583 188.486 309.075 188.572 309.548 188.59C310.022 188.608 310.475 188.562 310.908 188.453C311.337 188.341 311.743 188.174 312.126 187.953C312.604 187.677 312.927 187.376 313.094 187.051C313.256 186.723 313.279 186.384 313.161 186.035L314.244 186.574ZM315.083 177.48C314.551 177.788 314.192 178.13 314.007 178.508C313.822 178.88 313.782 179.268 313.885 179.672L313.696 179.57L312.661 179.035L311.47 179.723L318.79 183.949L320.049 183.223L315.353 180.512C315.209 180.335 315.108 180.159 315.049 179.984C314.99 179.805 314.981 179.63 315.022 179.461C315.062 179.271 315.171 179.083 315.347 178.898C315.518 178.711 315.757 178.529 316.064 178.352C316.303 178.214 316.544 178.09 316.788 177.98C317.031 177.866 317.302 177.754 317.6 177.645L316.544 176.84C316.364 176.882 316.132 176.966 315.847 177.094C315.568 177.219 315.313 177.348 315.083 177.48ZM329.433 177.961C330.146 177.549 330.601 177.122 330.8 176.68C330.998 176.232 331.034 175.831 330.908 175.477L329.548 175.574C329.616 175.879 329.566 176.184 329.399 176.488C329.232 176.793 328.926 177.074 328.479 177.332C328.141 177.527 327.769 177.669 327.363 177.758C326.957 177.846 326.544 177.884 326.125 177.871C325.723 177.863 325.331 177.814 324.947 177.723C324.568 177.629 324.185 177.488 323.797 177.301L323.75 177.273L328.98 174.254L328.418 173.93C327.909 173.635 327.37 173.4 326.801 173.223C326.237 173.043 325.662 172.935 325.076 172.898C324.494 172.865 323.914 172.91 323.337 173.035C322.76 173.155 322.207 173.367 321.679 173.672C321.26 173.914 320.935 174.201 320.705 174.531C320.48 174.859 320.371 175.206 320.38 175.57C320.389 175.94 320.534 176.315 320.813 176.695C321.089 177.073 321.522 177.432 322.112 177.773L322.397 177.938C322.906 178.232 323.463 178.454 324.068 178.605C324.672 178.757 325.286 178.835 325.908 178.84C326.531 178.845 327.144 178.775 327.748 178.629C328.357 178.48 328.919 178.258 329.433 177.961ZM322.708 174.266C323.028 174.081 323.362 173.956 323.709 173.891C324.061 173.823 324.408 173.799 324.751 173.82C325.094 173.841 325.439 173.902 325.786 174.004C326.129 174.103 326.413 174.217 326.639 174.348L326.7 174.383L322.762 176.656C322.473 176.432 322.261 176.211 322.126 175.992C321.991 175.768 321.923 175.552 321.923 175.344C321.928 175.138 321.997 174.944 322.133 174.762C322.264 174.577 322.455 174.411 322.708 174.266ZM331.625 171.922L331.693 171.961C332.338 172.333 332.994 172.655 333.662 172.926C334.334 173.194 334.997 173.418 335.651 173.598C336.305 173.783 336.941 173.926 337.559 174.027C338.186 174.129 338.779 174.198 339.338 174.234C339.898 174.276 340.41 174.288 340.874 174.27C341.348 174.251 341.76 174.214 342.112 174.156L341.612 173.562C341.278 173.583 340.912 173.586 340.516 173.57C340.128 173.555 339.713 173.518 339.271 173.461C338.82 173.393 338.337 173.299 337.823 173.18C337.313 173.062 336.79 172.917 336.253 172.742C335.73 172.565 335.191 172.353 334.636 172.105C334.081 171.858 333.522 171.572 332.958 171.246L332.863 171.191C332.277 170.853 331.763 170.517 331.321 170.184C330.879 169.85 330.507 169.526 330.204 169.211C329.862 168.867 329.589 168.527 329.386 168.191C329.178 167.853 329.032 167.539 328.946 167.25C328.896 167.06 328.867 166.879 328.858 166.707C328.854 166.533 328.869 166.372 328.905 166.227L327.816 165.902C327.717 166.105 327.654 166.342 327.627 166.613C327.6 166.884 327.62 167.18 327.688 167.5C327.751 167.823 327.87 168.165 328.046 168.527C328.227 168.887 328.472 169.255 328.784 169.633C329.099 170.013 329.489 170.397 329.954 170.785C330.423 171.171 330.98 171.549 331.625 171.922ZM343.344 165.234L343.276 165.195C342.586 164.797 341.912 164.47 341.253 164.215C340.594 163.954 339.947 163.734 339.311 163.555C338.653 163.367 338.017 163.224 337.403 163.125C336.79 163.026 336.197 162.957 335.624 162.918C335.069 162.879 334.555 162.868 334.081 162.887C333.608 162.905 333.195 162.943 332.843 163L333.344 163.594C333.614 163.578 333.917 163.576 334.25 163.586C334.58 163.594 334.934 163.621 335.313 163.668C335.8 163.725 336.334 163.815 336.916 163.938C337.493 164.057 338.096 164.223 338.723 164.434C339.16 164.582 339.663 164.779 340.231 165.023C340.804 165.266 341.395 165.562 342.004 165.914L342.099 165.969C342.635 166.279 343.111 166.587 343.526 166.895C343.941 167.197 344.3 167.495 344.602 167.789C344.94 168.099 345.213 168.405 345.421 168.707C345.637 169.009 345.809 169.293 345.935 169.559C346.048 169.827 346.118 170.081 346.145 170.32C346.172 170.56 346.16 170.775 346.111 170.965L347.139 171.254C347.239 171.051 347.302 170.814 347.329 170.543C347.365 170.272 347.349 169.974 347.281 169.648C347.214 169.328 347.09 168.988 346.909 168.629C346.738 168.27 346.494 167.9 346.179 167.52C345.867 167.142 345.477 166.76 345.008 166.375C344.543 165.987 343.989 165.607 343.344 165.234Z" fill="#AEEADE"/>
<path d="M226.667 259.105L225.544 258.457C225.188 258.257 224.8 258.069 224.38 257.895C223.965 257.717 223.532 257.566 223.081 257.441C222.626 257.319 222.161 257.228 221.687 257.168C221.214 257.103 220.742 257.081 220.273 257.102C219.804 257.122 219.344 257.193 218.893 257.312C218.438 257.43 218.007 257.605 217.601 257.84C217.195 258.074 216.89 258.323 216.687 258.586C216.484 258.844 216.365 259.108 216.329 259.379C216.297 259.652 216.336 259.927 216.444 260.203C216.552 260.474 216.714 260.74 216.931 261C217.143 261.263 217.4 261.516 217.702 261.758C218.005 261.995 218.329 262.216 218.677 262.422L219.8 263.07C220.156 263.271 220.542 263.457 220.957 263.629C221.372 263.801 221.807 263.948 222.262 264.07C222.714 264.195 223.178 264.289 223.656 264.352C224.13 264.411 224.601 264.431 225.07 264.41C225.539 264.389 225.999 264.322 226.451 264.207C226.902 264.087 227.33 263.91 227.736 263.676C228.142 263.441 228.446 263.195 228.649 262.938C228.852 262.674 228.972 262.408 229.008 262.137C229.044 261.866 229.008 261.595 228.9 261.324C228.796 261.051 228.636 260.784 228.419 260.523C228.203 260.263 227.944 260.014 227.641 259.777C227.339 259.535 227.014 259.311 226.667 259.105ZM224.292 259.164L225.429 259.82C225.659 259.958 225.889 260.109 226.119 260.273C226.354 260.435 226.563 260.605 226.748 260.785C226.933 260.97 227.086 261.16 227.208 261.355C227.33 261.546 227.398 261.736 227.411 261.926C227.425 262.121 227.371 262.314 227.249 262.504C227.132 262.691 226.926 262.87 226.633 263.039C226.34 263.208 226.031 263.327 225.706 263.395C225.382 263.462 225.05 263.492 224.712 263.484C224.378 263.479 224.042 263.441 223.704 263.371C223.365 263.301 223.036 263.212 222.716 263.105C222.4 263.001 222.098 262.884 221.809 262.754C221.525 262.621 221.266 262.49 221.031 262.359L219.894 261.703C219.669 261.568 219.443 261.419 219.218 261.258C218.992 261.091 218.787 260.915 218.602 260.73C218.417 260.551 218.266 260.365 218.149 260.172C218.027 259.977 217.959 259.781 217.946 259.586C217.937 259.393 217.991 259.203 218.108 259.016C218.226 258.828 218.428 258.651 218.717 258.484C219.01 258.315 219.319 258.197 219.644 258.129C219.964 258.059 220.291 258.026 220.625 258.031C220.963 258.039 221.302 258.078 221.64 258.148C221.974 258.216 222.299 258.302 222.614 258.406C222.93 258.516 223.23 258.637 223.514 258.77C223.794 258.9 224.053 259.031 224.292 259.164ZM230.28 253.441C229.748 253.749 229.389 254.091 229.204 254.469C229.019 254.841 228.979 255.229 229.082 255.633L228.893 255.531L227.858 254.996L226.667 255.684L233.988 259.91L235.246 259.184L230.551 256.473C230.406 256.296 230.305 256.12 230.246 255.945C230.187 255.766 230.178 255.591 230.219 255.422C230.26 255.232 230.368 255.044 230.544 254.859C230.715 254.672 230.954 254.49 231.261 254.312C231.5 254.174 231.741 254.051 231.985 253.941C232.229 253.827 232.499 253.715 232.797 253.605L231.741 252.801C231.561 252.842 231.329 252.927 231.045 253.055C230.765 253.18 230.51 253.309 230.28 253.441ZM237.303 253.699L237.445 253.781C237.968 254.083 238.528 254.326 239.123 254.508C239.714 254.688 240.302 254.801 240.889 254.848C241.475 254.895 242.041 254.87 242.587 254.773C243.137 254.674 243.633 254.497 244.075 254.242C244.527 253.982 244.845 253.71 245.029 253.426C245.214 253.142 245.28 252.844 245.226 252.531L246.051 252.945L247.201 252.281L236.809 246.281L235.557 247.004L239.353 249.195C238.834 249.172 238.338 249.214 237.864 249.32C237.391 249.422 236.935 249.599 236.498 249.852C236.051 250.109 235.74 250.396 235.564 250.711C235.388 251.026 235.339 251.352 235.415 251.688C235.487 252.026 235.684 252.368 236.004 252.715C236.324 253.056 236.757 253.384 237.303 253.699ZM238.697 253.059L238.555 252.977C238.198 252.771 237.898 252.553 237.655 252.324C237.407 252.092 237.24 251.858 237.154 251.621C237.068 251.389 237.077 251.16 237.181 250.934C237.289 250.704 237.519 250.488 237.871 250.285C238.282 250.048 238.721 249.906 239.191 249.859C239.655 249.81 240.117 249.824 240.578 249.902L243.974 251.863C244.132 252.142 244.168 252.415 244.082 252.684C243.997 252.952 243.744 253.207 243.324 253.449C242.977 253.65 242.61 253.781 242.222 253.844C241.829 253.904 241.432 253.909 241.031 253.859C240.625 253.812 240.223 253.719 239.827 253.578C239.43 253.438 239.053 253.264 238.697 253.059ZM252.952 249.117C253.665 248.706 254.12 248.279 254.319 247.836C254.517 247.388 254.553 246.987 254.427 246.633L253.067 246.73C253.135 247.035 253.085 247.34 252.918 247.645C252.752 247.949 252.445 248.23 251.998 248.488C251.66 248.684 251.288 248.826 250.882 248.914C250.476 249.003 250.063 249.04 249.644 249.027C249.242 249.02 248.85 248.97 248.466 248.879C248.088 248.785 247.704 248.645 247.316 248.457L247.269 248.43L252.499 245.41L251.937 245.086C251.428 244.792 250.889 244.556 250.32 244.379C249.757 244.199 249.181 244.091 248.595 244.055C248.013 244.021 247.434 244.066 246.856 244.191C246.279 244.311 245.726 244.523 245.199 244.828C244.779 245.07 244.454 245.357 244.224 245.688C243.999 246.016 243.891 246.362 243.9 246.727C243.909 247.096 244.053 247.471 244.333 247.852C244.608 248.229 245.041 248.589 245.632 248.93L245.916 249.094C246.425 249.388 246.983 249.611 247.587 249.762C248.191 249.913 248.805 249.991 249.427 249.996C250.05 250.001 250.663 249.931 251.268 249.785C251.876 249.637 252.438 249.414 252.952 249.117ZM246.227 245.422C246.547 245.237 246.881 245.112 247.228 245.047C247.58 244.979 247.927 244.956 248.27 244.977C248.613 244.997 248.958 245.059 249.305 245.16C249.648 245.259 249.932 245.374 250.158 245.504L250.219 245.539L246.281 247.812C245.992 247.589 245.78 247.367 245.645 247.148C245.51 246.924 245.442 246.708 245.442 246.5C245.447 246.294 245.517 246.1 245.652 245.918C245.783 245.733 245.974 245.568 246.227 245.422ZM255.246 239.027C254.714 239.335 254.355 239.677 254.17 240.055C253.985 240.427 253.945 240.815 254.048 241.219L253.859 241.117L252.824 240.582L251.633 241.27L258.954 245.496L260.212 244.77L255.516 242.059C255.372 241.882 255.271 241.706 255.212 241.531C255.153 241.352 255.144 241.177 255.185 241.008C255.226 240.818 255.334 240.63 255.51 240.445C255.681 240.258 255.92 240.076 256.227 239.898C256.466 239.76 256.707 239.637 256.951 239.527C257.194 239.413 257.465 239.301 257.763 239.191L256.707 238.387C256.527 238.428 256.295 238.513 256.01 238.641C255.731 238.766 255.476 238.895 255.246 239.027ZM267.593 239.57C267.855 239.721 268.16 239.803 268.507 239.816C268.854 239.824 269.19 239.734 269.515 239.547C269.835 239.362 269.991 239.168 269.982 238.965C269.973 238.762 269.835 238.583 269.569 238.43C269.298 238.273 268.985 238.191 268.629 238.184C268.272 238.171 267.932 238.258 267.607 238.445C267.278 238.635 267.127 238.832 267.154 239.035C267.181 239.238 267.327 239.417 267.593 239.57ZM270.598 234.477L270.74 234.559C271.263 234.861 271.82 235.104 272.411 235.289C272.997 235.471 273.583 235.586 274.17 235.633C274.752 235.682 275.318 235.658 275.868 235.559C276.418 235.46 276.917 235.281 277.363 235.023C277.629 234.87 277.848 234.71 278.02 234.543C278.196 234.379 278.326 234.212 278.412 234.043C278.466 233.934 278.5 233.823 278.514 233.711C278.532 233.596 278.534 233.48 278.52 233.363L279.15 233.727C279.465 233.909 279.7 234.096 279.853 234.289C280.007 234.482 280.081 234.673 280.076 234.863C280.072 235.059 279.993 235.25 279.84 235.438C279.686 235.625 279.461 235.805 279.163 235.977C278.996 236.073 278.811 236.159 278.608 236.234C278.41 236.312 278.189 236.378 277.945 236.43C277.702 236.482 277.433 236.517 277.14 236.535C276.851 236.556 276.538 236.557 276.2 236.539L276.301 237.348C276.707 237.389 277.106 237.391 277.499 237.352C277.896 237.31 278.268 237.243 278.615 237.152C278.962 237.066 279.278 236.965 279.562 236.848C279.851 236.733 280.09 236.621 280.279 236.512C280.739 236.246 281.091 235.965 281.335 235.668C281.578 235.371 281.707 235.068 281.721 234.758C281.73 234.451 281.621 234.146 281.396 233.844C281.175 233.539 280.823 233.247 280.34 232.969L273.175 228.832L272.039 229.488L272.776 229.984C272.582 229.971 272.39 229.967 272.201 229.973C272.016 229.975 271.836 229.988 271.66 230.012C271.33 230.051 271.008 230.122 270.692 230.227C270.381 230.328 270.079 230.464 269.786 230.633C269.33 230.896 269.014 231.185 268.838 231.5C268.662 231.815 268.613 232.141 268.69 232.477C268.766 232.812 268.967 233.152 269.292 233.496C269.616 233.835 270.052 234.161 270.598 234.477ZM271.991 233.836L271.849 233.754C271.493 233.548 271.191 233.332 270.943 233.105C270.694 232.874 270.528 232.639 270.442 232.402C270.356 232.171 270.365 231.941 270.469 231.715C270.577 231.486 270.807 231.27 271.159 231.066C271.367 230.947 271.583 230.853 271.809 230.785C272.03 230.715 272.255 230.665 272.485 230.637C272.72 230.611 272.954 230.603 273.189 230.613C273.423 230.624 273.658 230.65 273.892 230.691L277.248 232.629C277.325 232.767 277.375 232.905 277.397 233.043C277.42 233.181 277.411 233.316 277.37 233.449C277.325 233.585 277.242 233.719 277.12 233.852C276.998 233.979 276.829 234.105 276.612 234.23C276.265 234.431 275.897 234.562 275.509 234.625C275.117 234.685 274.72 234.69 274.319 234.641C273.913 234.594 273.511 234.5 273.114 234.359C272.722 234.216 272.348 234.042 271.991 233.836ZM286.24 229.898C286.953 229.487 287.408 229.06 287.607 228.617C287.805 228.169 287.841 227.768 287.715 227.414L286.355 227.512C286.423 227.816 286.373 228.121 286.206 228.426C286.039 228.73 285.733 229.012 285.286 229.27C284.948 229.465 284.576 229.607 284.17 229.695C283.764 229.784 283.351 229.822 282.932 229.809C282.53 229.801 282.138 229.751 281.754 229.66C281.375 229.566 280.992 229.426 280.604 229.238L280.557 229.211L285.787 226.191L285.225 225.867C284.716 225.573 284.177 225.337 283.608 225.16C283.044 224.98 282.469 224.872 281.883 224.836C281.301 224.802 280.721 224.848 280.144 224.973C279.567 225.092 279.014 225.305 278.486 225.609C278.067 225.852 277.742 226.138 277.512 226.469C277.287 226.797 277.178 227.143 277.187 227.508C277.196 227.878 277.341 228.253 277.62 228.633C277.896 229.01 278.329 229.37 278.919 229.711L279.204 229.875C279.713 230.169 280.27 230.392 280.875 230.543C281.479 230.694 282.093 230.772 282.715 230.777C283.338 230.783 283.951 230.712 284.555 230.566C285.164 230.418 285.726 230.195 286.24 229.898ZM279.515 226.203C279.835 226.018 280.169 225.893 280.516 225.828C280.868 225.76 281.215 225.737 281.558 225.758C281.901 225.779 282.246 225.84 282.593 225.941C282.936 226.04 283.22 226.155 283.446 226.285L283.507 226.32L279.569 228.594C279.28 228.37 279.068 228.148 278.933 227.93C278.798 227.706 278.73 227.49 278.73 227.281C278.735 227.076 278.804 226.882 278.94 226.699C279.071 226.514 279.262 226.349 279.515 226.203ZM285.063 219.922L283.804 220.648L285.577 221.672L283.656 222.781L284.623 223.34L286.545 222.23L290.523 224.527C290.974 224.788 291.418 224.977 291.856 225.094C292.293 225.206 292.715 225.259 293.121 225.254C293.531 225.251 293.924 225.197 294.298 225.09C294.673 224.978 295.022 224.828 295.347 224.641C295.541 224.529 295.726 224.411 295.902 224.289C296.082 224.164 296.242 224.04 296.382 223.918C296.526 223.798 296.65 223.682 296.754 223.57C296.853 223.456 296.923 223.35 296.964 223.254L295.902 222.844C295.843 222.898 295.766 222.969 295.672 223.055C295.577 223.135 295.473 223.221 295.36 223.312C295.243 223.406 295.121 223.5 294.995 223.594C294.864 223.685 294.731 223.77 294.596 223.848C294.411 223.954 294.212 224.043 294 224.113C293.793 224.181 293.57 224.219 293.331 224.227C293.096 224.237 292.85 224.21 292.593 224.145C292.336 224.079 292.065 223.965 291.781 223.801L287.803 221.504L290.591 219.895L289.623 219.336L286.835 220.945L285.063 219.922ZM296.754 219.055L296.822 219.094C297.467 219.466 298.123 219.788 298.791 220.059C299.463 220.327 300.126 220.551 300.78 220.73C301.434 220.915 302.07 221.059 302.688 221.16C303.315 221.262 303.908 221.331 304.467 221.367C305.027 221.409 305.538 221.421 306.003 221.402C306.477 221.384 306.889 221.346 307.241 221.289L306.741 220.695C306.407 220.716 306.041 220.719 305.644 220.703C305.257 220.688 304.842 220.651 304.4 220.594C303.949 220.526 303.466 220.432 302.952 220.312C302.442 220.195 301.919 220.049 301.382 219.875C300.859 219.698 300.32 219.486 299.765 219.238C299.21 218.991 298.651 218.704 298.087 218.379L297.992 218.324C297.406 217.986 296.892 217.65 296.45 217.316C296.008 216.983 295.636 216.659 295.333 216.344C294.991 216 294.718 215.66 294.515 215.324C294.307 214.986 294.161 214.672 294.075 214.383C294.025 214.193 293.996 214.012 293.987 213.84C293.982 213.665 293.998 213.505 294.034 213.359L292.945 213.035C292.846 213.238 292.783 213.475 292.756 213.746C292.729 214.017 292.749 214.312 292.816 214.633C292.88 214.956 292.999 215.298 293.175 215.66C293.355 216.02 293.601 216.388 293.913 216.766C294.228 217.146 294.618 217.53 295.083 217.918C295.552 218.303 296.109 218.682 296.754 219.055ZM308.473 212.367L308.405 212.328C307.715 211.93 307.04 211.603 306.382 211.348C305.723 211.087 305.076 210.867 304.44 210.688C303.782 210.5 303.146 210.357 302.532 210.258C301.919 210.159 301.326 210.09 300.753 210.051C300.198 210.012 299.684 210.001 299.21 210.02C298.737 210.038 298.324 210.076 297.972 210.133L298.473 210.727C298.743 210.711 299.046 210.708 299.379 210.719C299.709 210.727 300.063 210.754 300.442 210.801C300.929 210.858 301.463 210.948 302.045 211.07C302.622 211.19 303.225 211.355 303.852 211.566C304.289 211.715 304.792 211.911 305.36 212.156C305.933 212.398 306.524 212.695 307.133 213.047L307.228 213.102C307.764 213.411 308.24 213.72 308.655 214.027C309.07 214.329 309.429 214.628 309.731 214.922C310.069 215.232 310.342 215.538 310.55 215.84C310.766 216.142 310.938 216.426 311.064 216.691C311.177 216.96 311.247 217.214 311.274 217.453C311.301 217.693 311.289 217.908 311.24 218.098L312.268 218.387C312.367 218.184 312.431 217.947 312.458 217.676C312.494 217.405 312.478 217.107 312.41 216.781C312.343 216.461 312.219 216.121 312.038 215.762C311.867 215.402 311.623 215.033 311.307 214.652C310.996 214.275 310.606 213.893 310.137 213.508C309.672 213.12 309.118 212.74 308.473 212.367Z" fill="#A1DAF7"/>
<g clip-path="url(#clip2)">
<rect width="240" height="24" transform="matrix(0.866025 -0.5 0.866025 0.5 97 205)" fill="#41546C"/>
<circle r="3" transform="matrix(0.866025 -0.5 0.866025 0.5 116.919 205.5)" fill="#7187A5"/>
<circle r="3" transform="matrix(0.866025 -0.5 0.866025 0.5 123.847 201.5)" fill="#7187A5"/>
<circle r="3" transform="matrix(0.866025 -0.5 0.866025 0.5 130.775 197.5)" fill="#7187A5"/>
</g>
</g>
<g opacity="0.3" filter="url(#filter2_f)">
<rect width="240" height="180" rx="8" transform="matrix(0.866025 -0.5 0.866025 0.5 97 140)" fill="#151B23"/>
</g>
<g clip-path="url(#clip3)">
<path d="M103.928 124C100.102 121.791 100.102 118.209 103.928 116L297.918 4C301.744 1.79086 307.948 1.79086 311.774 4L453.802 86C457.629 88.2091 457.629 91.7909 453.802 94L259.813 206C255.986 208.209 249.783 208.209 245.956 206L103.928 124Z" fill="#F8FAFD"/>
<g clip-path="url(#clip4)">
<rect width="240" height="24" transform="matrix(0.866025 -0.5 0.866025 0.5 97 120)" fill="white"/>
<circle r="3" transform="matrix(0.866025 -0.5 0.866025 0.5 116.919 120.5)" fill="#ED695E"/>
<circle r="3" transform="matrix(0.866025 -0.5 0.866025 0.5 123.847 116.5)" fill="#F5BD4F"/>
<circle r="3" transform="matrix(0.866025 -0.5 0.866025 0.5 130.775 112.5)" fill="#61C354"/>
<g clip-path="url(#clip5)">
<rect width="120" height="12" rx="4" transform="matrix(0.866025 -0.5 0.866025 0.5 154.158 93)" fill="#F1F6FC"/>
<path d="M164.55 93L199.191 73" stroke="#D6E4F7" stroke-width="4" stroke-linecap="round"/>
</g>
</g>
<g filter="url(#filter3_d)">
<g clip-path="url(#clip6)">
<path d="M185.335 159C183.421 157.895 183.421 156.105 185.335 155L261.545 111C263.458 109.895 266.56 109.895 268.473 111L310.042 135C311.955 136.105 311.955 137.895 310.042 139L233.832 183C231.919 184.105 228.817 184.105 226.904 183L185.335 159Z" fill="url(#paint4_linear)"/>
<path d="M185.335 159C183.421 157.895 183.421 156.105 185.335 155L261.545 111C263.458 109.895 266.56 109.895 268.473 111L310.042 135C311.955 136.105 311.955 137.895 310.042 139L233.832 183C231.919 184.105 228.817 184.105 226.904 183L185.335 159Z" fill="url(#paint5_linear)"/>
<path d="M185.335 159C183.421 157.895 183.421 156.105 185.335 155L261.545 111C263.458 109.895 266.56 109.895 268.473 111L310.042 135C311.955 136.105 311.955 137.895 310.042 139L233.832 183C231.919 184.105 228.817 184.105 226.904 183L185.335 159Z" fill="white" fill-opacity="0.9"/>
<path fill-rule="evenodd" clip-rule="evenodd" d="M207.851 152L206.985 151.5C206.507 151.224 205.731 151.224 205.253 151.5L200.057 154.5L201.789 155.5L202.655 156L204.387 157L205.253 157.5L206.985 158.5L207.851 159L203.521 161.5L204.387 162C204.865 162.276 205.641 162.276 206.119 162L214.779 157C215.258 156.724 215.258 156.276 214.779 156L213.913 155.5L209.583 158L208.717 157.5L206.985 156.5L206.119 156L204.387 155L203.521 154.5L207.851 152ZM206.119 159L204.387 158L200.923 160L202.655 161L206.119 159ZM203.521 157.5L201.789 156.5L198.325 158.5L200.057 159.5L203.521 157.5ZM200.923 156L199.191 155L196.593 156.5C196.115 156.776 196.115 157.224 196.593 157.5L197.459 158L200.923 156ZM213.047 155L209.583 157L207.851 156L211.315 154L213.047 155ZM210.449 153.5L206.985 155.5L205.253 154.5L208.717 152.5L210.449 153.5Z" fill="url(#paint6_linear)"/>
<path fill-rule="evenodd" clip-rule="evenodd" d="M207.851 152L206.985 151.5C206.507 151.224 205.731 151.224 205.253 151.5L200.057 154.5L201.789 155.5L202.655 156L204.387 157L205.253 157.5L206.985 158.5L207.851 159L203.521 161.5L204.387 162C204.865 162.276 205.641 162.276 206.119 162L214.779 157C215.258 156.724 215.258 156.276 214.779 156L213.913 155.5L209.583 158L208.717 157.5L206.985 156.5L206.119 156L204.387 155L203.521 154.5L207.851 152ZM206.119 159L204.387 158L200.923 160L202.655 161L206.119 159ZM203.521 157.5L201.789 156.5L198.325 158.5L200.057 159.5L203.521 157.5ZM200.923 156L199.191 155L196.593 156.5C196.115 156.776 196.115 157.224 196.593 157.5L197.459 158L200.923 156ZM213.047 155L209.583 157L207.851 156L211.315 154L213.047 155ZM210.449 153.5L206.985 155.5L205.253 154.5L208.717 152.5L210.449 153.5Z" fill="white" fill-opacity="0.6"/>
<path d="M223.44 171L278.865 139" stroke="#D6E4F7" stroke-width="4" stroke-linecap="round"/>
<path d="M230.368 175L251.153 163" stroke="#D6E4F7" stroke-width="4" stroke-linecap="round"/>
</g>
<path d="M186.201 155.5L262.411 111.5L260.679 110.5L184.469 154.5L186.201 155.5ZM267.607 111.5L309.176 135.5L310.908 134.5L269.339 110.5L267.607 111.5ZM309.176 138.5L232.966 182.5L234.698 183.5L310.908 139.5L309.176 138.5ZM227.77 182.5L186.201 158.5L184.469 159.5L226.038 183.5L227.77 182.5ZM232.966 182.5C231.531 183.328 229.205 183.328 227.77 182.5L226.038 183.5C228.429 184.881 232.307 184.881 234.698 183.5L232.966 182.5ZM309.176 135.5C310.611 136.328 310.611 137.672 309.176 138.5L310.908 139.5C313.3 138.119 313.3 135.881 310.908 134.5L309.176 135.5ZM262.411 111.5C263.846 110.672 266.172 110.672 267.607 111.5L269.339 110.5C266.948 109.119 263.07 109.119 260.679 110.5L262.411 111.5ZM184.469 154.5C182.077 155.881 182.077 158.119 184.469 159.5L186.201 158.5C184.766 157.672 184.766 156.328 186.201 155.5L184.469 154.5Z" fill="url(#paint7_linear)"/>
<path d="M186.201 155.5L262.411 111.5L260.679 110.5L184.469 154.5L186.201 155.5ZM267.607 111.5L309.176 135.5L310.908 134.5L269.339 110.5L267.607 111.5ZM309.176 138.5L232.966 182.5L234.698 183.5L310.908 139.5L309.176 138.5ZM227.77 182.5L186.201 158.5L184.469 159.5L226.038 183.5L227.77 182.5ZM232.966 182.5C231.531 183.328 229.205 183.328 227.77 182.5L226.038 183.5C228.429 184.881 232.307 184.881 234.698 183.5L232.966 182.5ZM309.176 135.5C310.611 136.328 310.611 137.672 309.176 138.5L310.908 139.5C313.3 138.119 313.3 135.881 310.908 134.5L309.176 135.5ZM262.411 111.5C263.846 110.672 266.172 110.672 267.607 111.5L269.339 110.5C266.948 109.119 263.07 109.119 260.679 110.5L262.411 111.5ZM184.469 154.5C182.077 155.881 182.077 158.119 184.469 159.5L186.201 158.5C184.766 157.672 184.766 156.328 186.201 155.5L184.469 154.5Z" fill="url(#paint8_linear)"/>
</g>
<g filter="url(#filter4_d)">
<rect width="120" height="42" rx="4" transform="matrix(0.866025 -0.5 0.866025 0.5 138.569 132)" fill="white"/>
<path d="M155.89 132L176.674 120" stroke="#7187A5" stroke-width="4" stroke-linecap="round"/>
<path d="M166.282 138L204.387 116" stroke="#D6E4F7" stroke-width="4" stroke-linecap="round"/>
<path d="M171.478 142L235.564 105" stroke="#D6E4F7" stroke-width="2" stroke-linecap="round"/>
<path d="M174.942 144L216.511 120" stroke="#D6E4F7" stroke-width="2" stroke-linecap="round"/>
</g>
<g filter="url(#filter5_d)">
<rect width="84" height="64" rx="4" transform="matrix(0.866025 -0.5 0.866025 0.5 252.885 66)" fill="white"/>
<path d="M270.205 66L290.99 54" stroke="#7187A5" stroke-width="4" stroke-linecap="round"/>
<path d="M301.382 64L330.827 47" stroke="#D6E4F7" stroke-width="4" stroke-linecap="round"/>
<path d="M304.846 67L325.631 55" stroke="#D6E4F7" stroke-width="2" stroke-linecap="round"/>
<rect width="16" height="16" rx="2" transform="matrix(0.866025 -0.5 0.866025 0.5 277.133 72)" fill="#85E0CE"/>
<path d="M318.702 74L339.487 62" stroke="#D6E4F7" stroke-width="4" stroke-linecap="round"/>
<path d="M322.167 77L334.291 70" stroke="#D6E4F7" stroke-width="2" stroke-linecap="round"/>
<rect width="16" height="16" rx="2" transform="matrix(0.866025 -0.5 0.866025 0.5 294.454 82)" fill="#73C8F2"/>
</g>
<path d="M325.631 98L346.415 86" stroke="#D6E4F7" stroke-width="4" stroke-linecap="round"/>
<path d="M329.095 101L367.2 79" stroke="#D6E4F7" stroke-width="2" stroke-linecap="round"/>
<path d="M332.559 103L362.004 86" stroke="#D6E4F7" stroke-width="2" stroke-linecap="round"/>
</g>
<defs>
<filter id="filter0_f" x="77" y="170" width="403.731" height="250" filterUnits="userSpaceOnUse" color-interpolation-filters="sRGB">
<feFlood flood-opacity="0" result="BackgroundImageFix"/>
<feBlend mode="normal" in="SourceGraphic" in2="BackgroundImageFix" result="shape"/>
<feGaussianBlur stdDeviation="10" result="effect1_foregroundBlur"/>
</filter>
<filter id="filter1_f" x="77" y="85" width="403.731" height="250" filterUnits="userSpaceOnUse" color-interpolation-filters="sRGB">
<feFlood flood-opacity="0" result="BackgroundImageFix"/>
<feBlend mode="normal" in="SourceGraphic" in2="BackgroundImageFix" result="shape"/>
<feGaussianBlur stdDeviation="10" result="effect1_foregroundBlur"/>
</filter>
<filter id="filter2_f" x="77" y="0" width="403.731" height="250" filterUnits="userSpaceOnUse" color-interpolation-filters="sRGB">
<feFlood flood-opacity="0" result="BackgroundImageFix"/>
<feBlend mode="normal" in="SourceGraphic" in2="BackgroundImageFix" result="shape"/>
<feGaussianBlur stdDeviation="10" result="effect1_foregroundBlur"/>
</filter>
<filter id="filter3_d" x="179.87" y="108" width="135.636" height="80" filterUnits="userSpaceOnUse" color-interpolation-filters="sRGB">
<feFlood flood-opacity="0" result="BackgroundImageFix"/>
<feColorMatrix in="SourceAlpha" type="matrix" values="0 0 0 0 0 0 0 0 0 0 0 0 0 0 0 0 0 0 127 0"/>
<feOffset dy="1"/>
<feGaussianBlur stdDeviation="1"/>
<feColorMatrix type="matrix" values="0 0 0 0 0.0823529 0 0 0 0 0.105882 0 0 0 0 0.137255 0 0 0 0.2 0"/>
<feBlend mode="normal" in2="BackgroundImageFix" result="effect1_dropShadow"/>
<feBlend mode="normal" in="SourceGraphic" in2="effect1_dropShadow" result="shape"/>
</filter>
<filter id="filter4_d" x="138.598" y="72.1716" width="140.238" height="82.6569" filterUnits="userSpaceOnUse" color-interpolation-filters="sRGB">
<feFlood flood-opacity="0" result="BackgroundImageFix"/>
<feColorMatrix in="SourceAlpha" type="matrix" values="0 0 0 0 0 0 0 0 0 0 0 0 0 0 0 0 0 0 127 0"/>
<feOffset dy="1"/>
<feGaussianBlur stdDeviation="1"/>
<feColorMatrix type="matrix" values="0 0 0 0 0.0823529 0 0 0 0 0.105882 0 0 0 0 0.137255 0 0 0 0.2 0"/>
<feBlend mode="normal" in2="BackgroundImageFix" result="effect1_dropShadow"/>
<feBlend mode="normal" in="SourceGraphic" in2="effect1_dropShadow" result="shape"/>
</filter>
<filter id="filter5_d" x="252.914" y="24.1716" width="128.113" height="75.6569" filterUnits="userSpaceOnUse" color-interpolation-filters="sRGB">
<feFlood flood-opacity="0" result="BackgroundImageFix"/>
<feColorMatrix in="SourceAlpha" type="matrix" values="0 0 0 0 0 0 0 0 0 0 0 0 0 0 0 0 0 0 127 0"/>
<feOffset dy="1"/>
<feGaussianBlur stdDeviation="1"/>
<feColorMatrix type="matrix" values="0 0 0 0 0.0823529 0 0 0 0 0.105882 0 0 0 0 0.137255 0 0 0 0.2 0"/>
<feBlend mode="normal" in2="BackgroundImageFix" result="effect1_dropShadow"/>
<feBlend mode="normal" in="SourceGraphic" in2="effect1_dropShadow" result="shape"/>
</filter>
<linearGradient id="paint0_linear" x1="0" y1="0" x2="216.369" y2="-24.9477" gradientUnits="userSpaceOnUse">
<stop stop-color="#254E81"/>
<stop offset="1" stop-color="#2C7EA1"/>
</linearGradient>
<linearGradient id="paint1_linear" x1="97" y1="290" x2="171.42" y2="127.503" gradientUnits="userSpaceOnUse">
<stop stop-color="#254E81"/>
<stop offset="1" stop-color="#2C7EA1"/>
</linearGradient>
<linearGradient id="paint2_linear" x1="97" y1="290" x2="432.751" y2="373.077" gradientUnits="userSpaceOnUse">
<stop offset="0.104167" stop-color="#ACC9DA"/>
<stop offset="0.203125" stop-color="#E7AED2"/>
<stop offset="0.317708" stop-color="#FF9ECA"/>
<stop offset="0.479167" stop-color="#6EFFFB"/>
<stop offset="0.536458" stop-color="#BCFFDF"/>
<stop offset="0.692708" stop-color="#FF9FB4"/>
<stop offset="0.918609" stop-color="#ACB8DA"/>
</linearGradient>
<linearGradient id="paint3_linear" x1="147.175" y1="285.219" x2="396.7" y2="327.377" gradientUnits="userSpaceOnUse">
<stop stop-color="#D6E4F7" stop-opacity="0.83"/>
<stop offset="1" stop-color="#D6E4F7" stop-opacity="0.46"/>
</linearGradient>
<linearGradient id="paint4_linear" x1="181.87" y1="157" x2="283.315" y2="203.239" gradientUnits="userSpaceOnUse">
<stop offset="0.104167" stop-color="#ACC9DA"/>
<stop offset="0.203125" stop-color="#E7AED2"/>
<stop offset="0.317708" stop-color="#FF9ECA"/>
<stop offset="0.479167" stop-color="#6EFFFB"/>
<stop offset="0.536458" stop-color="#BCFFDF"/>
<stop offset="0.692708" stop-color="#FF9FB4"/>
<stop offset="0.918609" stop-color="#ACB8DA"/>
</linearGradient>
<linearGradient id="paint5_linear" x1="200.079" y1="154.013" x2="277.583" y2="183.528" gradientUnits="userSpaceOnUse">
<stop stop-color="#D6E4F7" stop-opacity="0.83"/>
<stop offset="1" stop-color="#D6E4F7" stop-opacity="0.46"/>
</linearGradient>
<linearGradient id="paint6_linear" x1="206.119" y1="151" x2="205.83" y2="162.514" gradientUnits="userSpaceOnUse">
<stop stop-color="#7187A5"/>
<stop offset="0.317708" stop-color="#D6E4F7"/>
<stop offset="0.640625" stop-color="#7187A5"/>
<stop offset="1" stop-color="#7187A5"/>
</linearGradient>
<linearGradient id="paint7_linear" x1="181.87" y1="157" x2="283.315" y2="203.239" gradientUnits="userSpaceOnUse">
<stop offset="0.104167" stop-color="#ACC9DA"/>
<stop offset="0.203125" stop-color="#E7AED2"/>
<stop offset="0.317708" stop-color="#FF9ECA"/>
<stop offset="0.479167" stop-color="#6EFFFB"/>
<stop offset="0.536458" stop-color="#BCFFDF"/>
<stop offset="0.692708" stop-color="#FF9FB4"/>
<stop offset="0.918609" stop-color="#ACB8DA"/>
</linearGradient>
<linearGradient id="paint8_linear" x1="200.079" y1="154.013" x2="277.583" y2="183.528" gradientUnits="userSpaceOnUse">
<stop stop-color="#D6E4F7" stop-opacity="0.83"/>
<stop offset="1" stop-color="#D6E4F7" stop-opacity="0.46"/>
</linearGradient>
<clipPath id="clip0">
<path d="M103.928 294C100.102 291.791 100.102 288.209 103.928 286L297.918 174C301.744 171.791 307.948 171.791 311.774 174L453.802 256C457.629 258.209 457.629 261.791 453.802 264L259.813 376C255.986 378.209 249.783 378.209 245.956 376L103.928 294Z" fill="white"/>
</clipPath>
<clipPath id="clip1">
<path d="M103.928 209C100.102 206.791 100.102 203.209 103.928 201L297.918 89C301.744 86.7909 307.948 86.7909 311.774 89L453.802 171C457.629 173.209 457.629 176.791 453.802 179L259.813 291C255.986 293.209 249.783 293.209 245.956 291L103.928 209Z" fill="white"/>
</clipPath>
<clipPath id="clip2">
<rect width="240" height="24" fill="white" transform="matrix(0.866025 -0.5 0.866025 0.5 97 205)"/>
</clipPath>
<clipPath id="clip3">
<path d="M103.928 124C100.102 121.791 100.102 118.209 103.928 116L297.918 4C301.744 1.79086 307.948 1.79086 311.774 4L453.802 86C457.629 88.2091 457.629 91.7909 453.802 94L259.813 206C255.986 208.209 249.783 208.209 245.956 206L103.928 124Z" fill="white"/>
</clipPath>
<clipPath id="clip4">
<rect width="240" height="24" fill="white" transform="matrix(0.866025 -0.5 0.866025 0.5 97 120)"/>
</clipPath>
<clipPath id="clip5">
<rect width="120" height="12" rx="4" transform="matrix(0.866025 -0.5 0.866025 0.5 154.158 93)" fill="white"/>
</clipPath>
<clipPath id="clip6">
<path d="M185.335 159C183.421 157.895 183.421 156.105 185.335 155L261.545 111C263.458 109.895 266.56 109.895 268.473 111L310.042 135C311.955 136.105 311.955 137.895 310.042 139L233.832 183C231.919 184.105 228.817 184.105 226.904 183L185.335 159Z" fill="white"/>
</clipPath>
</defs>
</svg>
