<svg width="80" height="80" viewBox="0 0 80 80" fill="none" xmlns="http://www.w3.org/2000/svg">
<path d="M42.1493 45.5152H52.2407C55.1103 45.5152 56.9277 43.937 56.9277 41.4021C56.9277 39.0108 55.1103 37.2891 52.2407 37.2891H42.1493C41.8145 37.2891 41.5276 37.576 41.5276 37.863V44.9413C41.5754 45.2761 41.8145 45.5152 42.1493 45.5152Z" fill="#34313F"/>
<path d="M42.1493 61.8241H52.5755C55.7799 61.8241 57.693 60.198 57.693 57.3285C57.693 54.8415 55.8756 52.8328 52.5755 52.8328H42.1493C41.8145 52.8328 41.5276 53.1197 41.5276 53.4067V61.2024C41.5754 61.585 41.8145 61.8241 42.1493 61.8241Z" fill="#34313F"/>
<path d="M79.0715 0.175726L49.2277 29.9238H54.106C61.7104 29.9238 66.2061 34.7065 66.2061 39.9196C66.2061 44.0327 63.4322 47.0457 60.467 48.3849C59.9887 48.5762 59.9887 49.2458 60.5148 49.4371C63.9583 50.7762 66.3974 54.3632 66.3974 58.5719C66.3974 64.5024 62.4278 69.2372 54.7278 69.2372H33.5884C33.2536 69.2372 32.9667 68.9503 32.9667 68.6633V46.137L0.205513 78.7547C-0.224926 79.1852 0.0620333 79.9504 0.683778 79.9504H79.4541C79.741 79.9504 79.9802 79.7113 79.9802 79.4243V0.606161C80.1237 0.0800695 79.4541 -0.206887 79.0715 0.175726Z" fill="#34313F"/>
</svg>
