<svg width="186" height="30" viewBox="0 0 186 30" fill="none" xmlns="http://www.w3.org/2000/svg">
<path d="M6.07364 25.5021H10.4285C13.7901 25.5021 15.4708 24.1843 15.4708 21.64C15.4708 19.1414 13.6753 17.7782 10.1611 17.7782H6.07364V25.5021ZM6.07364 6.87357V14.0526H9.89371C12.7586 14.0526 14.2484 12.7801 14.2484 10.4631C14.2484 8.1001 12.7205 6.87357 9.85543 6.87357H6.07364ZM0 29.3644V25.5021H2.55938V6.87357H0V3.01127H10.2375C14.9359 3.01127 17.801 5.60118 17.801 10.0995C17.801 13.0528 16.3495 14.8703 14.5159 15.7334C17.1516 16.5969 19.0233 18.8232 19.0233 21.8672C19.0233 26.6834 15.8911 29.3644 10.7721 29.3644H0Z" fill="white"/>
<path d="M37.5893 15.6426C37.2073 14.0979 36.2523 13.1889 34.9917 13.1889C32.0505 13.1889 29.2618 15.7788 29.2618 20.504V25.5021H34.9154V29.3644H22.3096V25.5021H25.9001V13.8705H23.0735V10.0084H29.2236V13.2797C30.2551 11.008 32.356 9.37254 35.1445 9.37254C38.2771 9.37254 40.2249 11.5081 40.798 14.5521L37.5893 15.6426" fill="white"/>
<path d="M54.7799 21.5492C53.7102 21.0948 52.1057 20.7314 50.6161 20.7314C48.4767 20.7314 46.414 21.5492 46.414 23.8666C46.414 25.5928 47.7126 26.4111 49.5081 26.4111C51.9913 26.4111 54.7799 24.8204 54.7799 22.0946V21.5492ZM54.7799 18.0961V17.0058C54.7799 14.2794 52.9461 13.1435 50.9599 13.1435C49.0882 13.1435 47.4836 14.0525 46.1847 15.4605L43.9691 12.5986C45.4974 10.9172 47.6747 9.37249 50.9599 9.37249C55.0471 9.37249 58.2179 11.9623 58.2179 16.8691V25.502H60.5861V29.3643H54.7799V27.3195C53.9013 29.0008 51.533 30 49.2026 30C45.8409 30 42.9377 27.9558 42.9377 23.9119C42.9377 19.1413 46.8726 17.3238 50.4629 17.3238C52.2206 17.3238 53.672 17.7328 54.7799 18.0961" fill="white"/>
<path d="M74.7207 6.14662H70.9389V0.240049H74.7207V6.14662ZM80.9855 25.5021V29.3644H64.5596V25.5021H71.3593V13.8705H66.1641V10.0084H74.7207V25.5021H80.9855Z" fill="white"/>
<path d="M85.0358 25.5021H87.5185V13.8705H85.1881V10.0084H90.842V12.5073C91.8351 10.5992 93.8979 9.37254 96.4189 9.37254C100.048 9.37254 102.645 12.0985 102.645 16.5058V25.5021H105.129V29.3644H96.6865V25.5021H99.2841V17.5961C99.2841 14.2341 97.5651 13.2797 95.9989 13.2797C93.4392 13.2797 90.8803 15.5519 90.8803 19.0501V25.5021H93.4775V29.3644H85.0358V25.5021" fill="white"/>
<path d="M109.751 13.8705H105.511V10.0083H109.751V3.01123H113.113V10.0083H121.02V13.8705H113.113V22.0033C113.113 25.0025 114.87 26.229 116.894 26.229C118.804 26.229 120.409 24.9571 121.593 23.5485L123.847 26.3198C122.357 28.2284 120.065 30 116.894 30C112.807 30 109.751 27.3195 109.751 22.14V13.8705" fill="white"/>
<path d="M142.183 15.6426C141.801 14.0979 140.847 13.1889 139.586 13.1889C136.645 13.1889 133.856 15.7788 133.856 20.504V25.5021H139.51V29.3644H126.904V25.5021H130.494V13.8705H127.668V10.0084H133.818V13.2797C134.849 11.008 136.95 9.37254 139.739 9.37254C142.871 9.37254 144.819 11.5081 145.392 14.5521L142.183 15.6426" fill="white"/>
<path d="M151.238 17.6874H161.246C160.749 14.9156 158.686 13.0527 156.395 13.0527C153.797 13.0527 151.81 14.961 151.238 17.6874V17.6874ZM164.798 26.4111C163.118 28.5007 160.138 30 156.815 30C151.352 30 147.532 25.6382 147.532 19.6862C147.532 13.7343 151.238 9.37249 156.395 9.37249C161.513 9.37249 165.104 14.0525 165.104 20.4132V21.0948H151.085C151.658 24.3209 153.911 26.2744 156.853 26.2744C159.298 26.2744 161.398 25.0932 162.545 23.5939L164.798 26.4111" fill="white"/>
<path d="M172.133 17.6874H182.142C181.645 14.9156 179.582 13.0527 177.29 13.0527C174.693 13.0527 172.707 14.961 172.133 17.6874ZM185.695 26.4111C184.013 28.5007 181.034 30 177.711 30C172.248 30 168.428 25.6382 168.428 19.6862C168.428 13.7343 172.133 9.37249 177.29 9.37249C182.409 9.37249 186 14.0525 186 20.4132V21.0948H171.981C172.554 24.3209 174.808 26.2744 177.749 26.2744C180.194 26.2744 182.294 25.0932 183.441 23.5939L185.695 26.4111" fill="white"/>
</svg>
