<svg width="528" height="400" viewBox="0 0 528 400" fill="none" xmlns="http://www.w3.org/2000/svg">
<g clip-path="url(#clip0)">
<circle opacity="0.2" r="200" transform="matrix(0.866025 0.5 -0.866025 0.5 264 210)" fill="#D6E4F7"/>
<path d="M76.9666 94C71.2271 90.6863 71.2271 85.3137 76.9666 82L111.608 62C117.347 58.6863 126.653 58.6863 132.392 62L167.033 82C172.773 85.3137 172.773 90.6863 167.033 94L132.392 114C126.653 117.314 117.347 117.314 111.608 114L76.9666 94Z" fill="#D6E4F7"/>
<path d="M77.8327 82.5L112.474 62.5L110.742 61.5L76.1006 81.5L77.8327 82.5ZM131.526 62.5L166.167 82.5L167.899 81.5L133.258 61.5L131.526 62.5ZM166.167 93.5L131.526 113.5L133.258 114.5L167.899 94.5L166.167 93.5ZM112.474 113.5L77.8327 93.5L76.1006 94.5L110.742 114.5L112.474 113.5ZM131.526 113.5C126.265 116.538 117.735 116.538 112.474 113.5L110.742 114.5C116.959 118.09 127.04 118.09 133.258 114.5L131.526 113.5ZM166.167 82.5C171.428 85.5376 171.428 90.4624 166.167 93.5L167.899 94.5C174.117 90.9101 174.117 85.0899 167.899 81.5L166.167 82.5ZM112.474 62.5C117.735 59.4624 126.265 59.4624 131.526 62.5L133.258 61.5C127.04 57.9101 116.959 57.9101 110.742 61.5L112.474 62.5ZM76.1006 81.5C69.8828 85.0899 69.8828 90.9101 76.1006 94.5L77.8327 93.5C72.5715 90.4624 72.5715 85.5376 77.8327 82.5L76.1006 81.5Z" fill="white"/>
<g filter="url(#filter0_d)">
<rect width="64" height="64" rx="12" transform="matrix(0.866025 -0.5 0.866025 0.5 208.574 88)" fill="#D6E4F7"/>
</g>
<g filter="url(#filter1_ii)">
<path fill-rule="evenodd" clip-rule="evenodd" d="M214.664 87.8578C214.6 90.0765 216.034 92.3069 218.967 93.9999L253.608 114C259.347 117.314 268.653 117.314 274.392 114L309.033 93.9999C311.903 92.3431 313.338 90.1715 313.338 87.9999H313.34V85.9999H312.926C312.313 84.5341 311.015 83.1443 309.033 81.9999L274.392 61.9999C268.653 58.6862 259.347 58.6862 253.608 61.9999L218.967 81.9999C216.985 83.1443 215.687 84.5341 215.074 85.9999H214.664L214.664 87.8578Z" fill="url(#paint0_linear)"/>
</g>
<path d="M218.967 92C213.227 88.6863 213.227 83.3137 218.967 80L253.608 60C259.347 56.6863 268.653 56.6863 274.392 60L309.033 80C314.773 83.3137 314.773 88.6863 309.033 92L274.392 112C268.653 115.314 259.347 115.314 253.608 112L218.967 92Z" fill="white"/>
<path fill-rule="evenodd" clip-rule="evenodd" d="M240.918 83.3265L259.369 72.6735C260.597 71.9642 262.263 71.5655 264 71.5653C265.737 71.5652 267.404 71.9635 268.632 72.6727L287.082 83.3249C289.64 84.8019 289.64 87.1966 287.082 88.6735L268.631 99.3265C266.072 100.803 261.926 100.802 259.368 99.3257L240.918 88.6735C238.36 87.197 238.36 84.803 240.918 83.3265ZM280.179 86.8415C280.986 86.3755 280.986 85.6199 280.179 85.1538L265.463 76.6621C264.656 76.196 263.347 76.1961 262.54 76.6621L247.829 85.1554C247.441 85.3793 247.223 85.6831 247.223 85.9998C247.224 86.3165 247.442 86.6201 247.83 86.8438L262.541 95.3371C263.348 95.8032 264.657 95.8032 265.464 95.3372L280.179 86.8415Z" fill="black"/>
<path d="M264.817 89.8666C264.353 90.1305 263.607 90.1288 263.146 89.8628L257.273 86.472C257.049 86.3437 256.922 86.1692 256.921 85.9869C256.921 85.8046 257.046 85.6297 257.269 85.5008L263.15 82.1054C263.374 81.9768 263.676 81.9048 263.992 81.9051C264.307 81.9056 264.61 81.9785 264.832 82.1077L270.704 85.4977C270.928 85.6261 271.054 85.8006 271.055 85.9828C271.055 86.165 270.931 86.3398 270.708 86.4689L264.817 89.8666Z" fill="black"/>
<path d="M219.4 80.25L254.041 60.25L253.175 59.75L218.534 79.75L219.4 80.25ZM273.959 60.25L308.6 80.25L309.466 79.75L274.825 59.75L273.959 60.25ZM308.6 91.75L273.959 111.75L274.825 112.25L309.466 92.25L308.6 91.75ZM254.041 111.75L219.4 91.75L218.534 92.25L253.175 112.25L254.041 111.75ZM273.959 111.75C268.459 114.926 259.541 114.926 254.041 111.75L253.175 112.25C259.153 115.702 268.847 115.702 274.825 112.25L273.959 111.75ZM308.6 80.25C314.101 83.4256 314.101 88.5744 308.6 91.75L309.466 92.25C315.445 88.7982 315.445 83.2018 309.466 79.75L308.6 80.25ZM254.041 60.25C259.541 57.0744 268.459 57.0744 273.959 60.25L274.825 59.75C268.847 56.2982 259.153 56.2982 253.175 59.75L254.041 60.25ZM218.534 79.75C212.555 83.2018 212.555 88.7982 218.534 92.25L219.4 91.75C213.899 88.5744 213.899 83.4256 219.4 80.25L218.534 79.75Z" fill="#D6E4F7"/>
<path d="M360.967 94C355.227 90.6863 355.227 85.3137 360.967 82L395.608 62C401.347 58.6863 410.653 58.6863 416.392 62L451.033 82C456.773 85.3137 456.773 90.6863 451.033 94L416.392 114C410.653 117.314 401.347 117.314 395.608 114L360.967 94Z" fill="#D6E4F7"/>
<path d="M361.833 82.5L396.474 62.5L394.742 61.5L360.101 81.5L361.833 82.5ZM415.526 62.5L450.167 82.5L451.899 81.5L417.258 61.5L415.526 62.5ZM450.167 93.5L415.526 113.5L417.258 114.5L451.899 94.5L450.167 93.5ZM396.474 113.5L361.833 93.5L360.101 94.5L394.742 114.5L396.474 113.5ZM415.526 113.5C410.265 116.538 401.735 116.538 396.474 113.5L394.742 114.5C400.959 118.09 411.04 118.09 417.258 114.5L415.526 113.5ZM450.167 82.5C455.428 85.5376 455.428 90.4624 450.167 93.5L451.899 94.5C458.117 90.9101 458.117 85.0899 451.899 81.5L450.167 82.5ZM396.474 62.5C401.735 59.4624 410.265 59.4624 415.526 62.5L417.258 61.5C411.04 57.9101 400.959 57.9101 394.742 61.5L396.474 62.5ZM360.101 81.5C353.883 85.0899 353.883 90.9101 360.101 94.5L361.833 93.5C356.571 90.4624 356.571 85.5376 361.833 82.5L360.101 81.5Z" fill="white"/>
<g filter="url(#filter2_d)">
<rect width="64" height="64" rx="12" transform="matrix(0.866025 -0.5 0.866025 0.5 -4.42566 129)" fill="#D6E4F7"/>
</g>
<g filter="url(#filter3_ii)">
<path fill-rule="evenodd" clip-rule="evenodd" d="M1.66416 128.858C1.60017 131.076 3.03436 133.307 5.96674 135L40.6078 155C46.3473 158.314 55.6529 158.314 61.3924 155L96.0334 135C98.9031 133.343 100.338 131.172 100.338 129H100.34V127H99.9261C99.313 125.534 98.0154 124.144 96.0334 123L61.3924 103C55.6529 99.6862 46.3473 99.6862 40.6078 103L5.96674 123C3.98471 124.144 2.68713 125.534 2.07401 127H1.66416L1.66416 128.858Z" fill="url(#paint1_linear)"/>
</g>
<path d="M5.96665 133C0.227134 129.686 0.227135 124.314 5.96665 121L40.6077 101C46.3472 97.6863 55.6528 97.6863 61.3923 101L96.0333 121C101.773 124.314 101.773 129.686 96.0333 133L61.3923 153C55.6528 156.314 46.3472 156.314 40.6077 153L5.96665 133Z" fill="white"/>
<path d="M56.7744 122.706L60.2297 124.701L59.1274 125.338L55.1311 123.03L56.7744 122.706Z" fill="#F37368"/>
<path d="M43.9885 133.337L45.5418 133.279L47.1926 130.211L45.9593 129.914L43.9885 133.337ZM56.2597 123.682L57.5926 121.216L56.2909 121.013L55.1312 123.03L56.2597 123.682Z" fill="#F7A199"/>
<path d="M47.5177 127.738L51.2435 129.889L50.1872 130.499L44.8768 127.433L47.5177 127.738ZM43.9885 133.337L45.5418 133.28L43.1144 130.04L41.2256 129.541L43.9885 133.337Z" fill="#F37368"/>
<path d="M41.2257 129.541L42.3126 128.914L49.6362 130.818L48.5186 131.463L41.2257 129.541ZM46.0939 126.731L52.0385 127.485L53.7236 128.458L44.8769 127.433L46.0939 126.731ZM50.4033 124.243L51.4979 123.611L56.8083 126.677L55.7137 127.309L50.4033 124.243ZM54.7911 122.834L53.1072 123.806L52.1332 123.244L56.0599 120.977L57.5926 121.217L55.8934 122.198L54.7911 122.834Z" fill="#F04939"/>
<path d="M63.1494 120.686L65.1669 121.851L64.08 122.478L62.0625 121.314" fill="#F7A199"/>
<path d="M60.6066 118.352L62.0625 121.314L63.1494 120.686L61.7624 117.684L60.6066 118.352Z" fill="#F04939"/>
<path d="M62.0626 121.314L56.8713 120.508L58.0654 119.819L61.6008 120.384L62.0626 121.314Z" fill="#F37368"/>
<path d="M35.8583 133.354C36.5926 133.778 37.4848 133.772 38.62 133.384L39.8009 132.961C40.8592 132.582 41.8744 132.567 42.6783 133.032C43.0338 133.228 43.2591 133.491 43.3307 133.771C42.5268 133.307 41.6806 133.295 40.4304 133.714L39.2724 134.132C38.3446 134.472 37.3532 134.571 36.4797 134.067C36.1473 133.875 35.9221 133.621 35.8583 133.354Z" fill="#F04939"/>
<path d="M51.7679 127.329L48.4131 125.392L49.4694 124.782L54.7798 127.848L53.7235 128.458L51.7679 127.329Z" fill="#F37368"/>
<path d="M41.5742 133.437C42.2427 133.355 42.7974 133.463 43.3308 133.771C43.4269 134.224 43.0772 134.703 42.3806 135.105C41.2095 135.781 39.7877 135.923 38.599 135.44L39.7242 134.791C40.3334 134.975 40.9326 134.879 41.4531 134.578C42.0808 134.225 42.1617 133.785 41.5742 133.437ZM35.8506 133.35C35.7469 132.91 36.0505 132.431 36.7394 132.033C37.9411 131.34 39.2716 131.312 40.3443 131.728L39.2574 132.356C38.7794 132.221 38.2026 132.233 37.6591 132.547C37.0774 132.891 37.0195 133.318 37.5376 133.643C36.9235 133.744 36.2836 133.617 35.8506 133.35Z" fill="#F37368"/>
<path d="M6.39966 121.25L41.0407 101.25L40.1747 100.75L5.53363 120.75L6.39966 121.25ZM60.9593 101.25L95.6003 121.25L96.4663 120.75L61.8253 100.75L60.9593 101.25ZM95.6003 132.75L60.9593 152.75L61.8253 153.25L96.4663 133.25L95.6003 132.75ZM41.0407 152.75L6.39966 132.75L5.53363 133.25L40.1746 153.25L41.0407 152.75ZM60.9593 152.75C55.4589 155.926 46.541 155.926 41.0407 152.75L40.1746 153.25C46.1533 156.702 55.8466 156.702 61.8253 153.25L60.9593 152.75ZM95.6003 121.25C101.101 124.426 101.101 129.574 95.6003 132.75L96.4663 133.25C102.445 129.798 102.445 124.202 96.4663 120.75L95.6003 121.25ZM41.0407 101.25C46.541 98.0744 55.4589 98.0744 60.9593 101.25L61.8253 100.75C55.8466 97.2982 46.1533 97.2982 40.1747 100.75L41.0407 101.25ZM5.53363 120.75C-0.445024 124.202 -0.445025 129.798 5.53363 133.25L6.39966 132.75C0.899293 129.574 0.899294 124.426 6.39966 121.25L5.53363 120.75Z" fill="#D6E4F7"/>
<g filter="url(#filter4_d)">
<rect width="64" height="64" rx="12" transform="matrix(0.866025 -0.5 0.866025 0.5 137.574 129)" fill="#D6E4F7"/>
</g>
<g filter="url(#filter5_ii)">
<path fill-rule="evenodd" clip-rule="evenodd" d="M242.34 94H143.664V128.858C143.6 131.077 145.034 133.307 147.967 135L182.608 155C188.347 158.314 197.653 158.314 203.392 155L238.033 135C240.903 133.343 242.338 131.172 242.338 129H242.34V94Z" fill="url(#paint2_linear)"/>
</g>
<path d="M147.967 100C142.227 96.6863 142.227 91.3137 147.967 88L182.608 68C188.347 64.6863 197.653 64.6863 203.392 68L238.033 88C243.773 91.3137 243.773 96.6863 238.033 100L203.392 120C197.653 123.314 188.347 123.314 182.608 120L147.967 100Z" fill="white"/>
<path d="M198.674 89.8089C198.863 89.7 199.051 89.5911 199.24 89.4822C199.103 89.2644 198.726 89.0466 198.177 88.8684C197.422 88.5714 196.805 88.4328 196.479 88.6803C196.171 88.9377 196.668 89.2248 197.422 89.5218C197.851 89.7099 198.297 89.8089 198.674 89.8089Z" fill="black"/>
<path d="M195.913 92.0563C196.291 91.9771 196.548 91.9078 196.531 91.8385C196.531 91.7593 196.411 91.7692 196.205 91.7296C195.828 91.6504 195.313 91.7296 194.953 91.7989C194.062 92.0167 193.444 92.4523 193.324 93.0364C193.256 93.2146 193.256 93.4324 193.461 93.472C193.53 93.5116 193.599 93.472 193.65 93.4423C193.77 93.373 194.079 92.8978 194.662 92.5018C195.022 92.2741 195.536 92.1355 195.913 92.0563Z" fill="black"/>
<path d="M195.656 92.5612C195.348 92.8186 195.279 92.9968 195.279 93.1354C195.279 93.2741 195.279 93.3533 195.348 93.3929L195.416 93.4325L195.485 93.3929C195.553 93.3533 195.673 93.2047 195.673 93.2047C195.982 92.8087 196.308 92.6206 196.685 92.482C196.874 92.3731 197.011 92.3731 196.994 92.3038C196.994 92.3038 196.925 92.2642 196.874 92.2345C196.668 92.1355 196.102 92.2444 195.656 92.5612Z" fill="black"/>
<path d="M196.291 92.7097C196.154 92.4919 195.588 92.1652 195.039 91.987C194.284 91.69 193.719 91.5811 193.273 91.8385C192.964 92.0959 193.461 92.383 194.267 92.7097C194.782 92.9275 195.21 92.9572 195.451 93.0364C196.291 93.1453 196.342 92.9572 196.291 92.7097Z" fill="black"/>
<path d="M199.549 91.6206C199.926 91.5414 200.115 91.3731 200.063 91.185C199.943 91.0365 199.549 90.9672 199.189 91.0365C198.811 91.1157 198.623 91.284 198.674 91.4721C198.726 91.6602 199.172 91.6998 199.549 91.6206Z" fill="black"/>
<path d="M199.737 89.9277C199.549 90.0366 199.549 90.2544 199.858 90.4326C200.115 90.5811 200.475 90.6504 200.732 90.5019C200.921 90.393 200.921 90.1752 200.612 89.997C200.303 89.8782 199.926 89.8188 199.737 89.9277Z" fill="black"/>
<path d="M191.335 100.422C191.198 100.422 191.146 100.452 191.146 100.531C191.078 100.571 191.026 100.6 190.958 100.64C190.838 100.709 190.632 100.749 190.46 100.709C190.289 100.67 190.083 100.57 189.895 100.382L189.843 100.273C189.654 99.9468 189.346 99.4716 188.454 99.333C187.751 99.2241 187.202 99.2637 186.688 99.4815C186.173 99.6993 185.933 100.056 186.002 100.392C186.053 100.937 186.636 101.333 186.928 101.442C186.997 101.481 187.117 101.471 187.168 101.442C187.237 101.402 187.288 101.293 187.168 101.145L187.099 101.105C186.979 101.036 186.911 100.917 186.842 100.739C186.774 100.561 186.842 100.382 187.031 100.273C187.151 100.125 187.477 100.016 187.785 99.9765C188.283 99.9072 188.797 100.046 189.037 100.343C189.037 100.561 189.277 100.778 189.603 100.967C190.237 101.254 190.872 101.184 191.232 101.036C191.541 100.858 191.609 100.6 191.489 100.531C191.455 100.432 191.404 100.462 191.335 100.422Z" fill="black"/>
<path d="M208.517 89.2743C208.448 89.2347 208.14 89.1357 207.642 88.9872L206.819 88.809C206.631 88.1853 206.013 87.8289 205.636 87.6903C205.19 87.5121 204.624 87.4032 203.939 87.3636C203.253 87.324 202.121 87.5418 200.921 87.9378L200.303 88.1556C200.303 88.1556 199.103 87.4626 198.537 87.2151C198.16 86.9973 197.525 86.7102 196.771 86.4923C195.828 86.1656 194.765 85.9874 193.821 86.0171C193.753 84.5321 193.067 83.1857 191.815 82.4629C189.432 81.0868 185.728 82.354 183.533 85.3637L183.087 85.9775C183.087 85.9775 180.343 85.9775 180.275 86.0171C172.575 86.2646 174.084 102.125 181.732 101.768L183.361 101.699C183.739 102.214 184.373 102.64 185.179 103.046C186.242 103.521 187.7 103.768 189.192 103.778C190.632 103.739 192.072 103.422 193.084 102.838C198.486 104.075 204.436 103.234 208.894 100.818C213.661 98.2043 215.41 94.66 213.147 91.4722C213.01 91.2544 212.204 90.2742 211.072 89.6208C210.026 88.8981 208.963 89.0169 208.517 89.2743ZM192.398 101.986C192.278 102.056 192.158 102.204 191.952 102.244C190.512 102.996 187.683 103.184 186.054 102.382C184.304 101.511 183.859 100.323 185.042 99.2637C185.162 99.1151 185.35 99.0062 185.608 98.8577C186.499 98.4221 188.368 98.0558 190.495 98.927C192.45 99.7785 193.719 100.927 192.398 101.986ZM183.807 98.828C183.053 99.4815 182.744 100.234 182.984 100.966C182.418 100.996 181.355 101.036 181.098 100.966C178.766 100.57 177.463 97.8578 177.017 96.2144C175.765 92.1652 177.205 87.7101 179.829 86.829C180.326 86.6804 182.778 86.7894 182.778 86.7894C182.778 86.7894 181.852 88.71 181.527 90.7791C180.841 93.4324 181.784 96.2936 183.807 98.828ZM205.002 93.9769L205.002 93.8977C204.933 93.8581 204.865 93.8977 204.865 93.8977C204.865 93.8977 202.978 95.3432 200.149 96.1055C199.652 95.5214 200.475 95.3432 201.521 94.8778C203.27 94.0066 204.539 92.9968 205.276 92.1949C205.962 91.5019 206.648 90.4524 206.854 89.4822C207.848 89.7 208.809 90.096 208.809 90.096C208.809 90.096 208.997 89.9079 209.323 89.8782C209.632 89.8386 210.009 89.9178 210.592 90.3138C211.655 91.1455 212.032 92.0167 212.169 93.0265C212.238 93.6403 212.032 94.3333 211.672 94.9768C211.484 95.3036 211.226 95.6699 210.918 95.9867C208.586 98.5607 204.076 99.8577 200.44 98.9864C200.183 98.9171 199.875 98.8775 199.617 98.729C197.474 98.0063 195.845 96.6302 195.862 95.1749C195.862 95.0957 195.793 94.9967 195.673 94.9274C195.553 94.858 195.416 94.858 195.296 94.8481C194.216 94.7392 191.661 94.9868 189.895 93.6106C188.574 92.6305 188.9 91.294 190.135 90.6405L190.443 90.4623C190.941 90.1752 191.575 89.9475 191.935 89.7396C192.621 89.3436 193.238 88.908 193.376 88.116C193.444 87.8586 193.444 87.6408 193.753 87.3834C193.821 87.3438 193.804 87.2745 194.062 87.2052C194.25 87.0963 194.507 87.027 194.747 87.027C195.828 86.9181 196.805 87.423 197.628 87.819C198.074 88.0764 199.137 88.611 199.394 88.7595C200.097 89.0862 200.338 89.0862 200.835 88.9377C201.092 88.8684 201.332 88.7892 201.658 88.6803C202.738 88.3536 203.424 88.1754 204.041 88.1754C204.419 88.1754 204.676 88.2447 204.916 88.3239C205.722 88.6506 205.911 89.5515 205.036 91.0069C204.024 92.6008 202.018 93.9769 200.269 94.7689L199.635 95.0561C198.194 95.6699 199.137 97.0064 200.938 97.1945C202.121 97.3034 203.956 96.8381 205.208 96.1154C208.226 94.3729 209.289 92.3137 208.98 91.1851L208.929 91.0762C208.929 90.997 208.809 91.0069 208.791 91.0762C208.603 91.7593 207.351 94.66 203.458 96.254C203.458 96.254 203.013 96.4322 202.515 96.5807C202.087 96.6896 201.264 96.8678 200.492 96.5807C204.127 95.4323 205.002 93.9769 205.002 93.9769ZM183.55 92.4622C183.361 91.1851 183.601 89.8188 184.167 88.8387C184.236 88.7991 184.236 88.7991 184.304 88.8387C184.424 88.9872 184.545 89.2743 184.75 89.4525C184.819 89.4921 184.887 89.4525 184.887 89.4525C185.076 88.7694 185.813 87.7497 186.842 87.0963C186.911 87.0567 186.979 87.0963 186.979 87.0963C186.911 87.2745 186.979 87.4527 186.979 87.6705C186.979 87.6705 187.048 87.7101 187.117 87.6705C187.871 87.2349 189.192 86.7696 190.306 86.621C190.375 86.5814 190.426 86.6903 190.358 86.73C189.037 87.1953 187.151 88.0665 185.779 89.3733C184.527 90.5316 183.961 91.591 183.704 92.4523C183.601 92.4919 183.55 92.5216 183.55 92.4622Z" fill="black"/>
<path d="M148.4 88.25L183.041 68.25L182.175 67.75L147.534 87.75L148.4 88.25ZM202.959 68.25L237.6 88.25L238.466 87.75L203.825 67.75L202.959 68.25ZM237.6 99.75L202.959 119.75L203.825 120.25L238.466 100.25L237.6 99.75ZM183.041 119.75L148.4 99.75L147.534 100.25L182.175 120.25L183.041 119.75ZM202.959 119.75C197.459 122.926 188.541 122.926 183.041 119.75L182.175 120.25C188.153 123.702 197.847 123.702 203.825 120.25L202.959 119.75ZM237.6 88.25C243.101 91.4256 243.101 96.5744 237.6 99.75L238.466 100.25C244.445 96.7982 244.445 91.2018 238.466 87.75L237.6 88.25ZM183.041 68.25C188.541 65.0744 197.459 65.0744 202.959 68.25L203.825 67.75C197.847 64.2982 188.153 64.2982 182.175 67.75L183.041 68.25ZM147.534 87.75C141.555 91.2018 141.555 96.7982 147.534 100.25L148.4 99.75C142.899 96.5744 142.899 91.4256 148.4 88.25L147.534 87.75Z" fill="#D6E4F7"/>
<path d="M289.967 135C284.227 131.686 284.227 126.314 289.967 123L324.608 103C330.347 99.6863 339.653 99.6863 345.392 103L380.033 123C385.773 126.314 385.773 131.686 380.033 135L345.392 155C339.653 158.314 330.347 158.314 324.608 155L289.967 135Z" fill="#D6E4F7"/>
<path d="M290.833 123.5L325.474 103.5L323.742 102.5L289.101 122.5L290.833 123.5ZM344.526 103.5L379.167 123.5L380.899 122.5L346.258 102.5L344.526 103.5ZM379.167 134.5L344.526 154.5L346.258 155.5L380.899 135.5L379.167 134.5ZM325.474 154.5L290.833 134.5L289.101 135.5L323.742 155.5L325.474 154.5ZM344.526 154.5C339.265 157.538 330.735 157.538 325.474 154.5L323.742 155.5C329.959 159.09 340.04 159.09 346.258 155.5L344.526 154.5ZM379.167 123.5C384.428 126.538 384.428 131.462 379.167 134.5L380.899 135.5C387.117 131.91 387.117 126.09 380.899 122.5L379.167 123.5ZM325.474 103.5C330.735 100.462 339.265 100.462 344.526 103.5L346.258 102.5C340.04 98.9101 329.959 98.9101 323.742 102.5L325.474 103.5ZM289.101 122.5C282.883 126.09 282.883 131.91 289.101 135.5L290.833 134.5C285.571 131.462 285.571 126.538 290.833 123.5L289.101 122.5Z" fill="white"/>
<g filter="url(#filter6_d)">
<rect width="64" height="64" rx="12" transform="matrix(0.866025 -0.5 0.866025 0.5 421.574 129)" fill="#D6E4F7"/>
</g>
<g filter="url(#filter7_ii)">
<path fill-rule="evenodd" clip-rule="evenodd" d="M427.664 128.858C427.6 131.076 429.034 133.307 431.967 135L466.608 155C472.347 158.314 481.653 158.314 487.392 155L522.033 135C524.903 133.343 526.338 131.172 526.338 129H526.34V127H525.926C525.313 125.534 524.015 124.144 522.033 123L487.392 103C481.653 99.6862 472.347 99.6862 466.608 103L431.967 123C429.985 124.144 428.687 125.534 428.074 127H427.664L427.664 128.858Z" fill="url(#paint3_linear)"/>
</g>
<path d="M431.967 133C426.227 129.686 426.227 124.314 431.967 121L466.608 101C472.347 97.6863 481.653 97.6863 487.392 101L522.033 121C527.773 124.314 527.773 129.686 522.033 133L487.392 153C481.653 156.314 472.347 156.314 466.608 153L431.967 133Z" fill="white"/>
<path d="M488.135 117.429C485.154 115.708 480.275 115.708 477.294 117.429C474.719 118.915 474.922 119.972 472.551 121.732C471.128 122.788 470.315 122.241 468.485 123.297C467.13 124.079 466.453 125.253 466.453 125.253C466.453 125.253 463.607 125.096 463.065 125.644C462.387 126.426 466.453 127.6 466.453 127.6C466.453 127.6 467.13 128.774 467.13 130.338C467.13 131.512 465.301 133.194 464.42 134.094C458.254 130.456 458.254 124.588 464.488 120.989C467.198 119.424 470.654 118.524 474.245 118.329C474.583 117.977 475.126 117.585 475.668 117.194C471.128 117.233 466.588 118.211 463.065 120.245C456.086 124.275 456.086 130.925 463.132 134.994C470.179 139.062 481.63 139.023 488.677 134.955C494.843 131.395 495.656 125.918 490.981 121.889C490.71 122.358 490.439 122.827 490.168 123.297C493.217 126.7 492.471 130.964 487.728 133.937C487.254 132.881 486.644 130.73 486.712 128.422C486.915 123.297 493.285 120.402 488.135 117.429ZM473.567 125.057C473.025 125.37 472.076 125.37 471.534 125.057C470.992 124.744 470.992 124.197 471.534 123.884C472.076 123.571 473.025 123.571 473.567 123.884C474.109 124.197 474.109 124.744 473.567 125.057Z" fill="#3B474F"/>
<path d="M432.4 121.25L467.041 101.25L466.175 100.75L431.534 120.75L432.4 121.25ZM486.959 101.25L521.6 121.25L522.466 120.75L487.825 100.75L486.959 101.25ZM521.6 132.75L486.959 152.75L487.825 153.25L522.466 133.25L521.6 132.75ZM467.041 152.75L432.4 132.75L431.534 133.25L466.175 153.25L467.041 152.75ZM486.959 152.75C481.459 155.926 472.541 155.926 467.041 152.75L466.175 153.25C472.153 156.702 481.847 156.702 487.825 153.25L486.959 152.75ZM521.6 121.25C527.101 124.426 527.101 129.574 521.6 132.75L522.466 133.25C528.445 129.798 528.445 124.202 522.466 120.75L521.6 121.25ZM467.041 101.25C472.541 98.0744 481.459 98.0744 486.959 101.25L487.825 100.75C481.847 97.2982 472.153 97.2982 466.175 100.75L467.041 101.25ZM431.534 120.75C425.555 124.202 425.555 129.798 431.534 133.25L432.4 132.75C426.899 129.574 426.899 124.426 432.4 121.25L431.534 120.75Z" fill="#D6E4F7"/>
<g filter="url(#filter8_d)">
<rect width="64" height="64" rx="12" transform="matrix(0.866025 -0.5 0.866025 0.5 66.5743 170)" fill="#D6E4F7"/>
</g>
<g filter="url(#filter9_ii)">
<path fill-rule="evenodd" clip-rule="evenodd" d="M72.6642 169.858C72.6002 172.076 74.0344 174.307 76.9667 176L111.608 196C117.347 199.314 126.653 199.314 132.392 196L167.033 176C169.903 174.343 171.338 172.172 171.338 170H171.34V148H139.321L132.392 144C126.653 140.686 117.347 140.686 111.608 144L104.68 148H72.6642L72.6642 169.858Z" fill="url(#paint4_linear)"/>
</g>
<path d="M76.9666 154C71.2271 150.686 71.2271 145.314 76.9666 142L111.608 122C117.347 118.686 126.653 118.686 132.392 122L167.033 142C172.773 145.314 172.773 150.686 167.033 154L132.392 174C126.653 177.314 117.347 177.314 111.608 174L76.9666 154Z" fill="white"/>
<path d="M123.732 153.333C120.916 153.326 118.112 152.717 115.965 151.477C113.817 150.237 112.763 148.619 112.75 146.993C112.75 145.612 110.821 144.498 108.442 144.505C106.05 144.505 104.121 145.619 104.121 147C104.134 149.903 106.05 152.791 109.882 155.004C113.714 157.216 118.729 158.315 123.745 158.315C126.137 158.315 128.066 157.201 128.066 155.82C128.053 154.447 126.124 153.333 123.732 153.333Z" fill="#FFD75F"/>
<path d="M112.763 147C112.776 145.374 113.843 143.748 115.978 142.516C118.125 141.276 120.941 140.659 123.745 140.659C126.137 140.659 128.066 139.546 128.066 138.165C128.066 136.784 126.137 135.67 123.758 135.677C118.742 135.677 113.714 136.784 109.882 138.996C106.05 141.209 104.134 144.112 104.134 147.007C104.134 148.388 106.063 149.502 108.442 149.495C110.834 149.495 112.776 148.374 112.763 147Z" fill="#4FB5E1"/>
<path d="M134.727 146.985C134.714 148.611 133.647 150.237 131.512 151.47C129.365 152.709 126.548 153.326 123.745 153.326C121.353 153.326 119.424 154.439 119.424 155.82C119.424 157.201 121.353 158.315 123.732 158.308C128.747 158.308 133.775 157.201 137.608 154.989C141.44 152.776 143.356 149.873 143.356 146.978C143.356 145.597 141.427 144.483 139.048 144.49C136.669 144.498 134.74 145.612 134.727 146.985Z" fill="#F05751"/>
<path d="M112.763 147C112.763 148.381 110.834 149.495 108.442 149.495C106.05 149.495 104.121 148.381 104.134 147.007C104.134 145.626 106.063 144.513 108.455 144.513C110.834 144.505 112.763 145.619 112.763 147Z" fill="#0681B6"/>
<path d="M128.053 155.828C128.053 157.209 126.124 158.322 123.732 158.322C121.353 158.33 119.411 157.209 119.424 155.835C119.424 154.454 121.353 153.341 123.745 153.341C126.124 153.333 128.053 154.447 128.053 155.828Z" fill="#CD4739"/>
<path d="M77.3997 142.25L112.041 122.25L111.175 121.75L76.5336 141.75L77.3997 142.25ZM131.959 122.25L166.6 142.25L167.466 141.75L132.825 121.75L131.959 122.25ZM166.6 153.75L131.959 173.75L132.825 174.25L167.466 154.25L166.6 153.75ZM112.041 173.75L77.3997 153.75L76.5336 154.25L111.175 174.25L112.041 173.75ZM131.959 173.75C126.459 176.926 117.541 176.926 112.041 173.75L111.175 174.25C117.153 177.702 126.847 177.702 132.825 174.25L131.959 173.75ZM166.6 142.25C172.101 145.426 172.101 150.574 166.6 153.75L167.466 154.25C173.445 150.798 173.445 145.202 167.466 141.75L166.6 142.25ZM112.041 122.25C117.541 119.074 126.459 119.074 131.959 122.25L132.825 121.75C126.847 118.298 117.153 118.298 111.175 121.75L112.041 122.25ZM76.5336 141.75C70.555 145.202 70.555 150.798 76.5336 154.25L77.3997 153.75C71.8993 150.574 71.8993 145.426 77.3997 142.25L76.5336 141.75Z" fill="#D6E4F7"/>
<g filter="url(#filter10_d)">
<rect width="64" height="64" rx="12" transform="matrix(0.866025 -0.5 0.866025 0.5 350.574 170)" fill="#D6E4F7"/>
</g>
<g filter="url(#filter11_ii)">
<path fill-rule="evenodd" clip-rule="evenodd" d="M455.34 108H356.664V169.858C356.6 172.077 358.034 174.307 360.967 176L395.608 196C401.347 199.314 410.653 199.314 416.392 196L451.033 176C453.903 174.343 455.338 172.172 455.338 170H455.34V108Z" fill="url(#paint5_linear)"/>
</g>
<path d="M360.967 114C355.227 110.686 355.227 105.314 360.967 102L395.608 82C401.347 78.6863 410.653 78.6863 416.392 82L451.033 102C456.773 105.314 456.773 110.686 451.033 114L416.392 134C410.653 137.314 401.347 137.314 395.608 134L360.967 114Z" fill="white"/>
<path fill-rule="evenodd" clip-rule="evenodd" d="M420.198 100.197C418.252 99.0734 415.773 98.7311 413.972 99.7713C412.163 100.816 412.603 102.334 414.534 103.449C416.822 104.77 419.27 104.691 421.125 103.62C422.03 103.098 422.509 102.585 422.737 102.119L421.216 101.242C420.958 101.689 420.524 102.124 419.772 102.558C419.035 102.984 418.122 103.212 417.142 102.743L420.859 100.596C420.76 100.539 420.38 100.302 420.198 100.197ZM415.72 101.948C414.861 101.452 415.028 100.943 415.507 100.667C415.971 100.399 416.822 100.32 417.681 100.816L415.72 101.948Z" fill="#635BFF"/>
<path fill-rule="evenodd" clip-rule="evenodd" d="M408.133 103.142C407.389 103.572 407.259 104.05 407.236 104.345L406.666 104.129L404.994 105.095L413.858 110.212L415.355 108.883L413.211 107.636C413.683 107.592 414.367 107.522 415.036 107.136C416.397 106.35 416.541 105.003 414.131 103.612C411.919 102.343 409.464 102.374 408.133 103.142ZM412.915 106.429C412.466 106.688 412.041 106.75 411.661 106.741L408.833 105.117C408.81 104.876 408.932 104.63 409.365 104.38C410.057 103.98 411.311 104.151 412.307 104.726C413.325 105.314 413.614 106.025 412.915 106.429Z" fill="#635BFF"/>
<path fill-rule="evenodd" clip-rule="evenodd" d="M401.809 106.276L403.306 104.937L401.763 104.046L400.258 105.38L401.809 106.276Z" fill="#635BFF"/>
<path d="M404.295 105.508L402.387 106.609L409.038 110.449L410.946 109.348L404.295 105.508Z" fill="#635BFF"/>
<path fill-rule="evenodd" clip-rule="evenodd" d="M400.904 108.115L400.22 107.86L398.578 108.808L405.23 112.648L407.13 111.551L402.622 108.948C402.485 108.352 403.352 107.974 403.671 107.886L401.923 106.877C401.588 106.965 400.532 107.382 400.904 108.115Z" fill="#635BFF"/>
<path fill-rule="evenodd" clip-rule="evenodd" d="M394.891 109.032L393.432 110.331L399.513 113.851C400.638 114.5 402.311 114.492 403.436 113.842C404.059 113.482 404.401 113.153 404.515 112.929L402.972 112.038C402.828 112.236 401.976 113.131 400.851 112.481L398.153 110.923L399.597 110.09L397.978 109.155L396.533 109.989L394.891 109.032Z" fill="#635BFF"/>
<path fill-rule="evenodd" clip-rule="evenodd" d="M393.333 114.066C393.036 113.895 393.166 113.688 393.568 113.456C394.146 113.122 395.051 112.802 395.94 112.648L394.154 111.617C393.272 111.836 392.55 112.139 391.919 112.503C390.376 113.394 390.155 114.452 391.501 115.229C393.599 116.44 396.153 114.579 397.058 115.102C397.407 115.304 397.217 115.545 396.792 115.791C396.161 116.155 395.096 116.471 394.108 116.638L395.917 117.682C396.928 117.45 397.772 117.112 398.426 116.734C400.007 115.821 400.311 114.742 398.951 113.956C396.678 112.653 394.184 114.557 393.333 114.066Z" fill="#635BFF"/>
<path d="M361.4 102.25L396.041 82.25L395.175 81.75L360.534 101.75L361.4 102.25ZM415.959 82.25L450.6 102.25L451.466 101.75L416.825 81.75L415.959 82.25ZM450.6 113.75L415.959 133.75L416.825 134.25L451.466 114.25L450.6 113.75ZM396.041 133.75L361.4 113.75L360.534 114.25L395.175 134.25L396.041 133.75ZM415.959 133.75C410.459 136.926 401.541 136.926 396.041 133.75L395.175 134.25C401.153 137.702 410.847 137.702 416.825 134.25L415.959 133.75ZM450.6 102.25C456.101 105.426 456.101 110.574 450.6 113.75L451.466 114.25C457.445 110.798 457.445 105.202 451.466 101.75L450.6 102.25ZM396.041 82.25C401.541 79.0744 410.459 79.0744 415.959 82.25L416.825 81.75C410.847 78.2982 401.153 78.2982 395.175 81.75L396.041 82.25ZM360.534 101.75C354.555 105.202 354.555 110.798 360.534 114.25L361.4 113.75C355.899 110.574 355.899 105.426 361.4 102.25L360.534 101.75Z" fill="#D6E4F7"/>
<path d="M5.96665 217C0.227134 213.686 0.227135 208.314 5.96665 205L40.6077 185C46.3472 181.686 55.6528 181.686 61.3923 185L96.0333 205C101.773 208.314 101.773 213.686 96.0333 217L61.3923 237C55.6528 240.314 46.3472 240.314 40.6077 237L5.96665 217Z" fill="#D6E4F7"/>
<path d="M6.83267 205.5L41.4737 185.5L39.7416 184.5L5.10062 204.5L6.83267 205.5ZM60.5262 185.5L95.1673 205.5L96.8993 204.5L62.2583 184.5L60.5262 185.5ZM95.1673 216.5L60.5262 236.5L62.2583 237.5L96.8993 217.5L95.1673 216.5ZM41.4737 236.5L6.83267 216.5L5.10062 217.5L39.7416 237.5L41.4737 236.5ZM60.5262 236.5C55.265 239.538 46.7349 239.538 41.4737 236.5L39.7416 237.5C45.9594 241.09 56.0405 241.09 62.2583 237.5L60.5262 236.5ZM95.1673 205.5C100.428 208.538 100.428 213.462 95.1673 216.5L96.8993 217.5C103.117 213.91 103.117 208.09 96.8993 204.5L95.1673 205.5ZM41.4737 185.5C46.7349 182.462 55.265 182.462 60.5262 185.5L62.2583 184.5C56.0405 180.91 45.9594 180.91 39.7416 184.5L41.4737 185.5ZM5.10062 204.5C-1.11718 208.09 -1.11718 213.91 5.10062 217.5L6.83267 216.5C1.57145 213.462 1.57145 208.538 6.83267 205.5L5.10062 204.5Z" fill="white"/>
<g filter="url(#filter12_d)">
<rect width="64" height="64" rx="12" transform="matrix(0.866025 -0.5 0.866025 0.5 421.574 211)" fill="#D6E4F7"/>
</g>
<g filter="url(#filter13_ii)">
<path fill-rule="evenodd" clip-rule="evenodd" d="M427.664 210.858C427.6 213.076 429.034 215.307 431.967 217L466.608 237C472.347 240.314 481.653 240.314 487.392 237L522.033 217C524.903 215.343 526.338 213.172 526.338 211H526.34V209H525.926C525.313 207.534 524.015 206.144 522.033 205L487.392 185C481.653 181.686 472.347 181.686 466.608 185L431.967 205C429.985 206.144 428.687 207.534 428.074 209H427.664L427.664 210.858Z" fill="url(#paint6_linear)"/>
</g>
<path d="M431.967 215C426.227 211.686 426.227 206.314 431.967 203L466.608 183C472.347 179.686 481.653 179.686 487.392 183L522.033 203C527.773 206.314 527.773 211.686 522.033 215L487.392 235C481.653 238.314 472.347 238.314 466.608 235L431.967 215Z" fill="white"/>
<path d="M452.936 206.893L473.351 195.107C475.36 193.947 478.632 193.942 480.649 195.107L501.064 206.894C503.074 208.054 503.081 209.942 501.064 211.107L480.649 222.893C478.64 224.053 475.369 224.058 473.352 222.894L452.926 211.101C450.919 209.942 450.917 208.059 452.936 206.893Z" fill="#5468FF"/>
<path d="M472.218 202.905L471.268 202.356C470.603 201.973 469.526 201.973 468.862 202.357L466.058 203.976C465.739 204.161 465.559 204.411 465.559 204.671C465.559 204.932 465.738 205.181 466.056 205.365L467.032 205.928C467.141 205.991 467.317 205.976 467.402 205.898C467.966 205.308 468.672 204.767 469.499 204.291C470.299 203.829 471.199 203.434 472.175 203.113C472.205 203.103 472.231 203.089 472.25 203.071C472.269 203.054 472.281 203.035 472.285 203.015C472.289 202.995 472.285 202.974 472.274 202.955C472.262 202.936 472.243 202.919 472.218 202.905V202.905ZM465.775 208.06L464.817 208.061C464.594 208.061 464.373 208.086 464.166 208.135C463.96 208.185 463.773 208.257 463.615 208.348C463.457 208.44 463.331 208.548 463.246 208.667C463.16 208.786 463.116 208.914 463.116 209.042L463.114 209.703C463.114 209.832 463.157 209.96 463.242 210.079C463.327 210.198 463.452 210.307 463.61 210.398C463.768 210.489 463.955 210.561 464.162 210.61C464.368 210.659 464.59 210.684 464.813 210.684L465.756 210.684C465.907 210.683 465.999 210.61 465.991 210.528C465.887 210.147 465.834 209.762 465.832 209.377C465.831 208.988 465.885 208.6 465.994 208.216C466.028 208.139 465.918 208.066 465.775 208.06V208.06ZM473.91 206.848L478.021 209.221C478.138 209.289 478.35 209.264 478.399 209.167L480.163 205.965C480.205 205.893 480.128 205.82 480.004 205.796C478.949 205.628 477.836 205.619 476.771 205.77C475.705 205.921 474.724 206.227 473.92 206.658C473.836 206.707 473.818 206.794 473.911 206.847L473.91 206.848ZM483.813 212.565C480.766 214.324 475.818 214.326 472.775 212.569C469.733 210.813 469.737 207.957 472.785 206.197C475.833 204.437 480.779 204.435 483.822 206.192C486.864 207.948 486.87 210.8 483.813 212.565ZM470.465 204.858C466.137 207.357 466.132 211.407 470.46 213.906C474.789 216.405 481.797 216.398 486.125 213.899C490.453 211.401 490.457 207.35 486.129 204.851C481.8 202.351 474.802 202.355 470.465 204.858" fill="white"/>
<path d="M432.4 203.25L467.041 183.25L466.175 182.75L431.534 202.75L432.4 203.25ZM486.959 183.25L521.6 203.25L522.466 202.75L487.825 182.75L486.959 183.25ZM521.6 214.75L486.959 234.75L487.825 235.25L522.466 215.25L521.6 214.75ZM467.041 234.75L432.4 214.75L431.534 215.25L466.175 235.25L467.041 234.75ZM486.959 234.75C481.459 237.926 472.541 237.926 467.041 234.75L466.175 235.25C472.153 238.702 481.847 238.702 487.825 235.25L486.959 234.75ZM521.6 203.25C527.101 206.426 527.101 211.574 521.6 214.75L522.466 215.25C528.445 211.798 528.445 206.202 522.466 202.75L521.6 203.25ZM467.041 183.25C472.541 180.074 481.459 180.074 486.959 183.25L487.825 182.75C481.847 179.298 472.153 179.298 466.175 182.75L467.041 183.25ZM431.534 202.75C425.555 206.202 425.555 211.798 431.534 215.25L432.4 214.75C426.899 211.574 426.899 206.426 432.4 203.25L431.534 202.75Z" fill="#D6E4F7"/>
<g filter="url(#filter14_d)">
<rect width="128" height="128" rx="24" transform="matrix(0.866025 -0.5 0.866025 0.5 153.149 213)" fill="#D6E4F7"/>
</g>
<g filter="url(#filter15_ii)">
<path fill-rule="evenodd" clip-rule="evenodd" d="M165.328 212.716C165.2 217.153 168.069 221.614 173.933 225L243.216 265C254.695 271.627 273.306 271.627 284.785 265L354.067 225C359.806 221.686 362.676 217.343 362.676 213H362.68V209H361.852C360.626 206.068 358.031 203.289 354.067 201L284.785 161C273.306 154.373 254.695 154.373 243.216 161L173.933 201C169.969 203.289 167.374 206.068 166.148 209H165.328L165.328 212.716Z" fill="url(#paint7_linear)"/>
</g>
<path d="M173.784 221C162.305 214.373 162.305 203.627 173.784 197L243.215 156.914C254.694 150.287 273.306 150.287 284.785 156.914L354.215 197C365.694 203.627 365.694 214.373 354.215 221L284.785 261.086C273.306 267.713 254.694 267.713 243.215 261.086L173.784 221Z" fill="url(#paint8_linear)"/>
<path d="M173.784 221C162.305 214.373 162.305 203.627 173.784 197L243.215 156.914C254.694 150.287 273.306 150.287 284.785 156.914L354.215 197C365.694 203.627 365.694 214.373 354.215 221L284.785 261.086C273.306 267.713 254.694 267.713 243.215 261.086L173.784 221Z" fill="url(#paint9_linear)"/>
<path d="M173.784 221C162.305 214.373 162.305 203.627 173.784 197L243.215 156.914C254.694 150.287 273.306 150.287 284.785 156.914L354.215 197C365.694 203.627 365.694 214.373 354.215 221L284.785 261.086C273.306 267.713 254.694 267.713 243.215 261.086L173.784 221Z" fill="white" fill-opacity="0.9"/>
<g clip-path="url(#clip1)">
<path fill-rule="evenodd" clip-rule="evenodd" d="M250.347 196.523C250.347 195.821 251.332 195.253 252.548 195.252L294.557 195.254C295.773 195.254 296.758 195.824 296.759 196.526L296.759 198.743L250.348 198.741L250.347 196.523ZM267.741 201.467L242.167 201.469C240.952 201.469 239.965 202.039 239.967 202.741L239.979 226.691C239.98 227.394 240.965 227.963 242.182 227.962L265.556 227.96C266.771 227.96 267.756 227.392 267.757 226.69L267.783 211.298L294.489 211.265C295.7 211.264 296.681 210.698 296.685 209.999L296.74 201.591L267.741 201.467ZM257.82 217.41C255.412 218.8 251.578 218.75 249.257 217.41C246.935 216.069 246.849 213.856 249.257 212.466C251.665 211.076 255.498 211.126 257.82 212.466C260.141 213.807 260.227 216.02 257.82 217.41ZM254.66 214.095C254.977 214.095 255.239 214.152 255.444 214.265C255.649 214.379 255.773 214.537 255.817 214.739C255.825 214.751 255.837 214.757 255.853 214.757L256.252 214.754C256.272 214.754 256.288 214.758 256.3 214.768C256.317 214.775 256.324 214.784 256.324 214.796L256.324 215.067C256.324 215.079 256.316 215.089 256.3 215.099C256.288 215.106 256.271 215.109 256.252 215.109L255.847 215.106C255.831 215.106 255.819 215.111 255.811 215.123L255.772 215.563L255.249 215.551L255.27 214.891C255.27 214.754 255.185 214.65 255.081 214.583C254.977 214.514 254.841 214.478 254.677 214.479C254.564 214.478 254.47 214.497 254.393 214.534C254.313 214.571 254.243 214.626 254.182 214.698C254.118 214.767 254.036 214.872 253.935 215.011C253.831 215.167 253.732 215.294 253.64 215.391C253.547 215.488 253.422 215.57 253.265 215.634C253.105 215.7 252.906 215.732 252.669 215.732C252.363 215.732 252.112 215.679 251.915 215.572C251.718 215.463 251.595 215.315 251.547 215.13C251.539 215.118 251.527 215.112 251.511 215.112L251.064 215.119C251.044 215.119 251.028 215.115 251.016 215.108C251 215.099 250.992 215.089 250.992 215.077L250.992 214.805C250.992 214.794 251 214.785 251.016 214.778C251.029 214.768 251.045 214.764 251.065 214.764L251.517 214.771C251.533 214.77 251.545 214.765 251.553 214.753L251.553 214.415H252.084L252.084 214.876C252.084 215.108 252.172 215.187 252.265 215.254C252.357 215.322 252.488 215.355 252.657 215.355C252.778 215.355 252.876 215.338 252.953 215.303C253.029 215.266 253.099 215.212 253.164 215.143C253.224 215.071 253.302 214.962 253.399 214.816C253.507 214.658 253.606 214.533 253.694 214.44C253.783 214.344 253.908 214.263 254.068 214.196C254.225 214.129 254.422 214.095 254.66 214.095Z" fill="url(#paint10_linear)"/>
<path fill-rule="evenodd" clip-rule="evenodd" d="M250.347 196.523C250.347 195.821 251.332 195.253 252.548 195.252L294.557 195.254C295.773 195.254 296.758 195.824 296.759 196.526L296.759 198.743L250.348 198.741L250.347 196.523ZM267.741 201.467L242.167 201.469C240.952 201.469 239.965 202.039 239.967 202.741L239.979 226.691C239.98 227.394 240.965 227.963 242.182 227.962L265.556 227.96C266.771 227.96 267.756 227.392 267.757 226.69L267.783 211.298L294.489 211.265C295.7 211.264 296.681 210.698 296.685 209.999L296.74 201.591L267.741 201.467ZM257.82 217.41C255.412 218.8 251.578 218.75 249.257 217.41C246.935 216.069 246.849 213.856 249.257 212.466C251.665 211.076 255.498 211.126 257.82 212.466C260.141 213.807 260.227 216.02 257.82 217.41ZM254.66 214.095C254.977 214.095 255.239 214.152 255.444 214.265C255.649 214.379 255.773 214.537 255.817 214.739C255.825 214.751 255.837 214.757 255.853 214.757L256.252 214.754C256.272 214.754 256.288 214.758 256.3 214.768C256.317 214.775 256.324 214.784 256.324 214.796L256.324 215.067C256.324 215.079 256.316 215.089 256.3 215.099C256.288 215.106 256.271 215.109 256.252 215.109L255.847 215.106C255.831 215.106 255.819 215.111 255.811 215.123L255.772 215.563L255.249 215.551L255.27 214.891C255.27 214.754 255.185 214.65 255.081 214.583C254.977 214.514 254.841 214.478 254.677 214.479C254.564 214.478 254.47 214.497 254.393 214.534C254.313 214.571 254.243 214.626 254.182 214.698C254.118 214.767 254.036 214.872 253.935 215.011C253.831 215.167 253.732 215.294 253.64 215.391C253.547 215.488 253.422 215.57 253.265 215.634C253.105 215.7 252.906 215.732 252.669 215.732C252.363 215.732 252.112 215.679 251.915 215.572C251.718 215.463 251.595 215.315 251.547 215.13C251.539 215.118 251.527 215.112 251.511 215.112L251.064 215.119C251.044 215.119 251.028 215.115 251.016 215.108C251 215.099 250.992 215.089 250.992 215.077L250.992 214.805C250.992 214.794 251 214.785 251.016 214.778C251.029 214.768 251.045 214.764 251.065 214.764L251.517 214.771C251.533 214.77 251.545 214.765 251.553 214.753L251.553 214.415H252.084L252.084 214.876C252.084 215.108 252.172 215.187 252.265 215.254C252.357 215.322 252.488 215.355 252.657 215.355C252.778 215.355 252.876 215.338 252.953 215.303C253.029 215.266 253.099 215.212 253.164 215.143C253.224 215.071 253.302 214.962 253.399 214.816C253.507 214.658 253.606 214.533 253.694 214.44C253.783 214.344 253.908 214.263 254.068 214.196C254.225 214.129 254.422 214.095 254.66 214.095Z" fill="url(#paint11_linear)"/>
<path fill-rule="evenodd" clip-rule="evenodd" d="M250.347 196.523C250.347 195.821 251.332 195.253 252.548 195.252L294.557 195.254C295.773 195.254 296.758 195.824 296.759 196.526L296.759 198.743L250.348 198.741L250.347 196.523ZM267.741 201.467L242.167 201.469C240.952 201.469 239.965 202.039 239.967 202.741L239.979 226.691C239.98 227.394 240.965 227.963 242.182 227.962L265.556 227.96C266.771 227.96 267.756 227.392 267.757 226.69L267.783 211.298L294.489 211.265C295.7 211.264 296.681 210.698 296.685 209.999L296.74 201.591L267.741 201.467ZM257.82 217.41C255.412 218.8 251.578 218.75 249.257 217.41C246.935 216.069 246.849 213.856 249.257 212.466C251.665 211.076 255.498 211.126 257.82 212.466C260.141 213.807 260.227 216.02 257.82 217.41ZM254.66 214.095C254.977 214.095 255.239 214.152 255.444 214.265C255.649 214.379 255.773 214.537 255.817 214.739C255.825 214.751 255.837 214.757 255.853 214.757L256.252 214.754C256.272 214.754 256.288 214.758 256.3 214.768C256.317 214.775 256.324 214.784 256.324 214.796L256.324 215.067C256.324 215.079 256.316 215.089 256.3 215.099C256.288 215.106 256.271 215.109 256.252 215.109L255.847 215.106C255.831 215.106 255.819 215.111 255.811 215.123L255.772 215.563L255.249 215.551L255.27 214.891C255.27 214.754 255.185 214.65 255.081 214.583C254.977 214.514 254.841 214.478 254.677 214.479C254.564 214.478 254.47 214.497 254.393 214.534C254.313 214.571 254.243 214.626 254.182 214.698C254.118 214.767 254.036 214.872 253.935 215.011C253.831 215.167 253.732 215.294 253.64 215.391C253.547 215.488 253.422 215.57 253.265 215.634C253.105 215.7 252.906 215.732 252.669 215.732C252.363 215.732 252.112 215.679 251.915 215.572C251.718 215.463 251.595 215.315 251.547 215.13C251.539 215.118 251.527 215.112 251.511 215.112L251.064 215.119C251.044 215.119 251.028 215.115 251.016 215.108C251 215.099 250.992 215.089 250.992 215.077L250.992 214.805C250.992 214.794 251 214.785 251.016 214.778C251.029 214.768 251.045 214.764 251.065 214.764L251.517 214.771C251.533 214.77 251.545 214.765 251.553 214.753L251.553 214.415H252.084L252.084 214.876C252.084 215.108 252.172 215.187 252.265 215.254C252.357 215.322 252.488 215.355 252.657 215.355C252.778 215.355 252.876 215.338 252.953 215.303C253.029 215.266 253.099 215.212 253.164 215.143C253.224 215.071 253.302 214.962 253.399 214.816C253.507 214.658 253.606 214.533 253.694 214.44C253.783 214.344 253.908 214.263 254.068 214.196C254.225 214.129 254.422 214.095 254.66 214.095Z" fill="#41546C" fill-opacity="0.8"/>
</g>
<path d="M174.651 197.5L244.081 157.414L242.349 156.414L172.918 196.5L174.651 197.5ZM283.919 157.414L353.349 197.5L355.081 196.5L285.651 156.414L283.919 157.414ZM353.349 220.5L283.919 260.586L285.651 261.586L355.081 221.5L353.349 220.5ZM244.081 260.586L174.651 220.5L172.918 221.5L242.349 261.586L244.081 260.586ZM283.919 260.586C272.918 266.937 255.082 266.937 244.081 260.586L242.349 261.586C254.307 268.489 273.693 268.489 285.651 261.586L283.919 260.586ZM353.349 197.5C364.35 203.851 364.35 214.149 353.349 220.5L355.081 221.5C367.039 214.596 367.039 203.404 355.081 196.5L353.349 197.5ZM244.081 157.414C255.082 151.063 272.918 151.063 283.919 157.414L285.651 156.414C273.693 149.511 254.307 149.511 242.349 156.414L244.081 157.414ZM172.918 196.5C160.961 203.404 160.961 214.596 172.918 221.5L174.651 220.5C163.65 214.149 163.65 203.851 174.651 197.5L172.918 196.5Z" fill="url(#paint12_linear)"/>
<path d="M174.651 197.5L244.081 157.414L242.349 156.414L172.918 196.5L174.651 197.5ZM283.919 157.414L353.349 197.5L355.081 196.5L285.651 156.414L283.919 157.414ZM353.349 220.5L283.919 260.586L285.651 261.586L355.081 221.5L353.349 220.5ZM244.081 260.586L174.651 220.5L172.918 221.5L242.349 261.586L244.081 260.586ZM283.919 260.586C272.918 266.937 255.082 266.937 244.081 260.586L242.349 261.586C254.307 268.489 273.693 268.489 285.651 261.586L283.919 260.586ZM353.349 197.5C364.35 203.851 364.35 214.149 353.349 220.5L355.081 221.5C367.039 214.596 367.039 203.404 355.081 196.5L353.349 197.5ZM244.081 157.414C255.082 151.063 272.918 151.063 283.919 157.414L285.651 156.414C273.693 149.511 254.307 149.511 242.349 156.414L244.081 157.414ZM172.918 196.5C160.961 203.404 160.961 214.596 172.918 221.5L174.651 220.5C163.65 214.149 163.65 203.851 174.651 197.5L172.918 196.5Z" fill="url(#paint13_linear)"/>
<g filter="url(#filter16_d)">
<rect width="64" height="64" rx="12" transform="matrix(0.866025 -0.5 0.866025 0.5 66.5743 252)" fill="#D6E4F7"/>
</g>
<g filter="url(#filter17_ii)">
<path fill-rule="evenodd" clip-rule="evenodd" d="M72.6642 251.858C72.6002 254.076 74.0344 256.307 76.9667 258L111.608 278C117.347 281.314 126.653 281.314 132.392 278L167.033 258C169.903 256.343 171.338 254.172 171.338 252H171.34V250H170.926C170.313 248.534 169.015 247.144 167.033 246L132.392 226C126.653 222.686 117.347 222.686 111.608 226L76.9667 246C74.9847 247.144 73.6871 248.534 73.074 250H72.6642L72.6642 251.858Z" fill="url(#paint14_linear)"/>
</g>
<path d="M76.9666 256C71.2271 252.686 71.2271 247.314 76.9666 244L111.608 224C117.347 220.686 126.653 220.686 132.392 224L167.033 244C172.773 247.314 172.773 252.686 167.033 256L132.392 276C126.653 279.314 117.347 279.314 111.608 276L76.9666 256Z" fill="white"/>
<path d="M108.144 242L127.196 239L141.052 247L135.856 258L116.804 261L102.947 253L108.144 242Z" fill="#38393A"/>
<path d="M108.144 242L129.967 245.4L114.033 254.6L108.144 242Z" fill="#B5B5B5"/>
<path d="M108.144 242L127.196 239L129.876 245.453L108.144 242Z" fill="#8F8F8F"/>
<path d="M108.144 242L114.125 254.546L102.947 253L108.144 242Z" fill="#CDCDCD"/>
<path d="M129.869 245.457L141.052 247L135.856 258L129.869 245.457Z" fill="#5C5C5C"/>
<path d="M116.804 261L114.124 254.547L135.856 258L116.804 261Z" fill="#B0B0B0"/>
<path d="M135.856 258L114.032 254.6L129.967 245.4L135.856 258Z" fill="#9B9B9B"/>
<path d="M114.033 254.6L116.804 261L102.947 253L114.033 254.6Z" fill="#E0E0E0"/>
<path d="M77.3997 244.25L112.041 224.25L111.175 223.75L76.5336 243.75L77.3997 244.25ZM131.959 224.25L166.6 244.25L167.466 243.75L132.825 223.75L131.959 224.25ZM166.6 255.75L131.959 275.75L132.825 276.25L167.466 256.25L166.6 255.75ZM112.041 275.75L77.3997 255.75L76.5336 256.25L111.175 276.25L112.041 275.75ZM131.959 275.75C126.459 278.926 117.541 278.926 112.041 275.75L111.175 276.25C117.153 279.702 126.847 279.702 132.825 276.25L131.959 275.75ZM166.6 244.25C172.101 247.426 172.101 252.574 166.6 255.75L167.466 256.25C173.445 252.798 173.445 247.202 167.466 243.75L166.6 244.25ZM112.041 224.25C117.541 221.074 126.459 221.074 131.959 224.25L132.825 223.75C126.847 220.298 117.153 220.298 111.175 223.75L112.041 224.25ZM76.5336 243.75C70.555 247.202 70.555 252.798 76.5336 256.25L77.3997 255.75C71.8993 252.574 71.8993 247.426 77.3997 244.25L76.5336 243.75Z" fill="#D6E4F7"/>
<g filter="url(#filter18_d)">
<rect width="64" height="64" rx="12" transform="matrix(0.866025 -0.5 0.866025 0.5 350.574 252)" fill="#D6E4F7"/>
</g>
<g filter="url(#filter19_ii)">
<path fill-rule="evenodd" clip-rule="evenodd" d="M356.664 251.858C356.6 254.076 358.034 256.307 360.967 258L395.608 278C401.347 281.314 410.653 281.314 416.392 278L451.033 258C453.903 256.343 455.338 254.172 455.338 252H455.34V250H454.926C454.313 248.534 453.015 247.144 451.033 246L416.392 226C410.653 222.686 401.347 222.686 395.608 226L360.967 246C358.985 247.144 357.687 248.534 357.074 250H356.664L356.664 251.858Z" fill="url(#paint15_linear)"/>
</g>
<path d="M360.967 256C355.227 252.686 355.227 247.314 360.967 244L395.608 224C401.347 220.686 410.653 220.686 416.392 224L451.033 244C456.773 247.314 456.773 252.686 451.033 256L416.392 276C410.653 279.314 401.347 279.314 395.608 276L360.967 256Z" fill="white"/>
<path d="M418.233 243.875L410.059 248.594C408.716 249.369 408.716 250.631 410.059 251.406C411.403 252.182 413.588 252.182 414.931 251.406L423.104 246.688C424.447 245.912 424.447 244.65 423.104 243.875C421.761 243.1 419.576 243.1 418.233 243.875Z" fill="#ECB22E"/>
<path d="M397.069 248.594L388.896 253.312C387.553 254.088 387.553 255.35 388.896 256.125C390.239 256.9 392.424 256.9 393.767 256.125L401.94 251.406C403.283 250.631 403.283 249.369 401.94 248.594C400.597 247.818 398.412 247.818 397.069 248.594Z" fill="#36C5F0"/>
<path d="M408.436 247.656C409.779 246.881 409.779 245.619 408.436 244.844L400.263 240.125C398.919 239.35 396.734 239.35 395.391 240.125C394.048 240.9 394.048 242.162 395.391 242.938L403.564 247.656C404.907 248.432 407.093 248.432 408.436 247.656Z" fill="#2EB67D"/>
<path d="M403.564 252.344C402.221 253.119 402.221 254.381 403.564 255.156L411.737 259.875C413.08 260.65 415.266 260.65 416.609 259.875C417.952 259.1 417.952 257.838 416.609 257.062L408.436 252.344C407.093 251.568 404.907 251.568 403.564 252.344Z" fill="#E01E5A"/>
<path d="M413.361 244.812L415.797 243.406C417.588 242.372 417.588 240.69 415.797 239.656C414.006 238.622 411.092 238.622 409.302 239.656C407.511 240.69 407.511 242.372 409.302 243.406L411.737 244.812C412.186 245.071 412.913 245.071 413.361 244.812Z" fill="#2EB67D"/>
<path d="M398.639 255.188L396.203 256.594C394.412 257.628 394.412 259.31 396.203 260.344C397.994 261.378 400.908 261.378 402.698 260.344C404.489 259.31 404.489 257.628 402.698 256.594L400.263 255.188C399.814 254.929 399.087 254.929 398.639 255.188Z" fill="#E01E5A"/>
<path d="M388.084 244.344C386.293 245.378 386.293 247.06 388.084 248.094C389.875 249.128 392.788 249.128 394.579 248.094L397.015 246.688C397.463 246.429 397.463 246.009 397.015 245.75L394.579 244.344C392.788 243.31 389.875 243.31 388.084 244.344Z" fill="#36C5F0"/>
<path d="M417.421 251.906L414.985 253.312C414.537 253.571 414.537 253.991 414.985 254.25L417.421 255.656C419.211 256.69 422.125 256.69 423.916 255.656C425.707 254.622 425.707 252.94 423.916 251.906C422.125 250.872 419.211 250.872 417.421 251.906Z" fill="#ECB22E"/>
<path d="M361.4 244.25L396.041 224.25L395.175 223.75L360.534 243.75L361.4 244.25ZM415.959 224.25L450.6 244.25L451.466 243.75L416.825 223.75L415.959 224.25ZM450.6 255.75L415.959 275.75L416.825 276.25L451.466 256.25L450.6 255.75ZM396.041 275.75L361.4 255.75L360.534 256.25L395.175 276.25L396.041 275.75ZM415.959 275.75C410.459 278.926 401.541 278.926 396.041 275.75L395.175 276.25C401.153 279.702 410.847 279.702 416.825 276.25L415.959 275.75ZM450.6 244.25C456.101 247.426 456.101 252.574 450.6 255.75L451.466 256.25C457.445 252.798 457.445 247.202 451.466 243.75L450.6 244.25ZM396.041 224.25C401.541 221.074 410.459 221.074 415.959 224.25L416.825 223.75C410.847 220.298 401.153 220.298 395.175 223.75L396.041 224.25ZM360.534 243.75C354.555 247.202 354.555 252.798 360.534 256.25L361.4 255.75C355.899 252.574 355.899 247.426 361.4 244.25L360.534 243.75Z" fill="#D6E4F7"/>
<g filter="url(#filter20_d)">
<rect width="64" height="64" rx="12" transform="matrix(0.866025 -0.5 0.866025 0.5 -4.42566 293)" fill="#D6E4F7"/>
</g>
<g filter="url(#filter21_ii)">
<path fill-rule="evenodd" clip-rule="evenodd" d="M1.66416 292.858C1.60017 295.076 3.03436 297.307 5.96674 299L40.6078 319C46.3473 322.314 55.6529 322.314 61.3924 319L96.0334 299C98.9031 297.343 100.338 295.172 100.338 293H100.34V291H99.9261C99.313 289.534 98.0154 288.144 96.0334 287L61.3924 267C55.6529 263.686 46.3473 263.686 40.6078 267L5.96674 287C3.98471 288.144 2.68713 289.534 2.07401 291H1.66416L1.66416 292.858Z" fill="url(#paint16_linear)"/>
</g>
<path d="M5.96665 297C0.227134 293.686 0.227135 288.314 5.96665 285L40.6077 265C46.3472 261.686 55.6528 261.686 61.3923 265L96.0333 285C101.773 288.314 101.773 293.686 96.0333 297L61.3923 317C55.6528 320.314 46.3472 320.314 40.6077 317L5.96665 297Z" fill="white"/>
<path d="M72.262 293.98C72.7075 294.114 73.0165 294.191 73.1367 294.219C73.1544 294.209 73.119 294.23 73.1367 294.219C65.3784 290.353 66.8819 286.174 63.671 282.543C63.6208 282.493 63.5537 282.434 63.4865 282.375C63.4201 282.296 63.3191 282.217 63.235 282.148C62.1594 281.241 60.0853 280.636 57.448 280.278C57.431 280.268 57.4133 280.278 57.3964 280.269C57.1722 280.241 56.9479 280.214 56.7237 280.187C56.31 280.132 55.8609 280.097 55.4294 280.052C55.3948 280.053 55.3431 280.043 55.2915 280.034C55.1706 280.026 55.0496 280.017 54.9287 280.009C54.8077 280 54.6868 279.991 54.5488 279.973C54.4279 279.965 54.3069 279.956 54.1683 279.958C54.0474 279.949 53.9087 279.951 53.7708 279.933C53.6845 279.924 53.5805 279.925 53.4942 279.916C49.9491 279.749 45.9255 279.878 42.0163 280.195C42.0163 280.195 41.9816 280.196 42.0163 280.195C44.9432 281.64 47.6216 283.248 49.4223 284.696C51.6281 286.44 53.5339 288.807 54.7975 291.212C51.2737 292.835 47.2735 294.223 43.6587 295.018C40.6375 295.684 36.8243 296.221 32.8804 296.539C33.1186 296.656 33.3738 296.783 33.6121 296.9C33.68 296.939 33.7655 296.968 33.8334 297.007C34.0207 297.095 34.1911 297.173 34.3615 297.251C34.4294 297.29 34.5319 297.329 34.5998 297.368C34.7871 297.456 34.9575 297.534 35.1279 297.612C35.1957 297.651 35.2813 297.68 35.3492 297.719C35.5882 297.816 35.8094 297.923 36.0484 298.02C36.0654 298.03 36.0824 298.04 36.1163 298.06C36.3892 298.176 36.6621 298.293 36.9181 298.4C36.935 298.41 36.952 298.419 36.9866 298.419C37.2256 298.516 37.4646 298.613 37.7206 298.72C37.7715 298.75 37.8231 298.759 37.857 298.779C38.079 298.866 38.301 298.953 38.5231 299.04C38.5747 299.05 38.6086 299.069 38.6426 299.089C38.9162 299.186 39.1552 299.283 39.4288 299.38C40.2667 299.679 41.123 299.949 41.9454 300.199C41.9624 300.209 41.9624 300.209 41.9624 300.209C43.3505 300.622 44.7415 300.955 46.0491 301.199C46.2387 301.227 46.4452 301.265 46.617 301.302L46.634 301.312C46.7889 301.34 46.9784 301.368 47.151 301.386C47.151 301.386 47.151 301.386 47.168 301.396C47.3575 301.423 47.5301 301.441 47.7027 301.459C47.7373 301.459 47.7543 301.469 47.772 301.458C47.9962 301.486 48.2381 301.503 48.4453 301.52C48.48 301.52 48.5146 301.519 48.5663 301.529L48.6009 301.528C48.8428 301.545 49.1024 301.552 49.3443 301.569C49.5176 301.567 49.6732 301.575 49.8465 301.573C49.9159 301.572 49.9852 301.572 50.0545 301.571C50.1585 301.569 50.2625 301.568 50.3665 301.567C50.4358 301.566 50.5051 301.565 50.5921 301.554C50.6961 301.553 50.7831 301.542 50.8701 301.531C50.9395 301.53 51.0265 301.519 51.0788 301.508C51.1659 301.497 51.2698 301.496 51.3569 301.485C51.4262 301.484 51.4962 301.463 51.5656 301.462C51.6526 301.451 51.7396 301.44 51.8443 301.419C51.8967 301.408 51.9837 301.397 52.036 301.387C52.1407 301.365 52.2278 301.354 52.3155 301.323C52.3679 301.313 52.4202 301.302 52.4726 301.291C52.6296 301.259 52.7697 301.218 52.8922 301.186C52.9799 301.155 53.0669 301.144 53.137 301.123C59.5345 299.075 62.6399 295.147 73.0151 294.231" fill="url(#paint17_linear)"/>
<g opacity="0.7">
<path opacity="0.51" d="M49.4224 284.696C51.6282 286.44 53.534 288.807 54.7975 291.212C61.0347 288.336 65.6705 284.719 63.4696 282.365C61.0689 279.794 51.1733 279.434 42.0163 280.195C44.9595 281.67 47.587 283.248 49.4224 284.696Z" fill="url(#paint18_linear)"/>
<path opacity="0.51" d="M43.6587 295.018C40.6375 295.684 36.8243 296.221 32.8804 296.539C39.738 299.926 48.3543 302.592 52.9792 301.175C57.2014 299.874 57.05 295.475 54.7975 291.212C51.2907 292.844 47.2735 294.223 43.6587 295.018Z" fill="url(#paint19_linear)"/>
<path opacity="0.7" d="M54.1408 295.92C42.942 298.997 32.8804 296.539 32.8804 296.539C37.0833 298.618 41.9374 300.419 46.1538 301.178C46.3434 301.206 46.5152 301.244 46.7048 301.271C46.7217 301.281 46.7394 301.271 46.7564 301.281C46.929 301.299 47.1008 301.337 47.2734 301.354C47.2904 301.364 47.325 301.364 47.3427 301.354C47.5153 301.372 47.6702 301.4 47.8428 301.418C47.8774 301.417 47.8944 301.427 47.9121 301.417C48.0847 301.435 48.2226 301.453 48.3952 301.471C48.5161 301.479 48.6024 301.488 48.6887 301.497C48.7233 301.497 48.7403 301.507 48.775 301.506C48.8443 301.505 48.9306 301.514 48.9822 301.524C49.1548 301.542 49.3281 301.54 49.4837 301.548C50.7986 301.592 52.0154 301.477 53.0138 301.175C53.1016 301.144 53.1886 301.133 53.2587 301.112C59.6562 299.064 62.7616 295.135 73.1367 294.219C72.0829 294.142 62.6444 293.597 54.1408 295.92Z" fill="url(#paint20_linear)"/>
<path opacity="0.7" d="M63.4697 282.365C61.0689 279.794 51.1733 279.434 42.0164 280.195C42.0164 280.195 52.8761 281.194 59.0696 287.119C63.8399 291.692 72.4679 294.037 73.1368 294.219C73.1545 294.209 73.1191 294.23 73.1368 294.219C65.3785 290.353 66.882 286.174 63.6711 282.543C63.5862 282.494 63.5191 282.434 63.4697 282.365Z" fill="url(#paint21_linear)"/>
</g>
<path d="M6.39966 285.25L41.0407 265.25L40.1747 264.75L5.53363 284.75L6.39966 285.25ZM60.9593 265.25L95.6003 285.25L96.4663 284.75L61.8253 264.75L60.9593 265.25ZM95.6003 296.75L60.9593 316.75L61.8253 317.25L96.4663 297.25L95.6003 296.75ZM41.0407 316.75L6.39966 296.75L5.53363 297.25L40.1746 317.25L41.0407 316.75ZM60.9593 316.75C55.4589 319.926 46.541 319.926 41.0407 316.75L40.1746 317.25C46.1533 320.702 55.8466 320.702 61.8253 317.25L60.9593 316.75ZM95.6003 285.25C101.101 288.426 101.101 293.574 95.6003 296.75L96.4663 297.25C102.445 293.798 102.445 288.202 96.4663 284.75L95.6003 285.25ZM41.0407 265.25C46.541 262.074 55.4589 262.074 60.9593 265.25L61.8253 264.75C55.8466 261.298 46.1533 261.298 40.1747 264.75L41.0407 265.25ZM5.53363 284.75C-0.445024 288.202 -0.445025 293.798 5.53363 297.25L6.39966 296.75C0.899293 293.574 0.899294 288.426 6.39966 285.25L5.53363 284.75Z" fill="#D6E4F7"/>
<g filter="url(#filter22_d)">
<rect width="64" height="64" rx="12" transform="matrix(0.866025 -0.5 0.866025 0.5 137.574 293)" fill="#D6E4F7"/>
</g>
<g filter="url(#filter23_ii)">
<path fill-rule="evenodd" clip-rule="evenodd" d="M143.664 292.858C143.6 295.076 145.034 297.307 147.967 299L182.608 319C188.347 322.314 197.653 322.314 203.392 319L238.033 299C240.903 297.343 242.338 295.172 242.338 293H242.34V291H241.926C241.313 289.534 240.015 288.144 238.033 287L203.392 267C197.653 263.686 188.347 263.686 182.608 267L147.967 287C145.985 288.144 144.687 289.534 144.074 291H143.664L143.664 292.858Z" fill="url(#paint22_linear)"/>
</g>
<path d="M147.967 297C142.227 293.686 142.227 288.314 147.967 285L182.608 265C188.347 261.686 197.653 261.686 203.392 265L238.033 285C243.773 288.314 243.773 293.686 238.033 297L203.392 317C197.653 320.314 188.347 320.314 182.608 317L147.967 297Z" fill="white"/>
<path fill-rule="evenodd" clip-rule="evenodd" d="M186.926 282.773L185.587 285.68L184.247 288.587L182.908 291.493L186.603 293.627L188.45 294.693L190.298 295.76L192.145 296.827L193.993 297.893L195.332 294.987L196.672 292.08L194.824 291.013L192.977 289.947L191.637 292.853L187.943 290.72L189.282 287.813L190.621 284.907L192.469 285.973L194.316 287.04L196.164 288.107L198.011 289.173L199.859 290.24L201.706 291.307L200.367 294.213L199.027 297.12L197.688 300.027L196.348 302.933L201.383 302.16L202.722 299.253L204.062 296.347L205.401 293.44L206.741 290.533L203.046 288.4L199.351 286.267L195.656 284.133L194.239 283.315L191.961 282L188.266 279.867L183.231 280.64L186.926 282.773Z" fill="#060917"/>
<path d="M148.4 285.25L183.041 265.25L182.175 264.75L147.534 284.75L148.4 285.25ZM202.959 265.25L237.6 285.25L238.466 284.75L203.825 264.75L202.959 265.25ZM237.6 296.75L202.959 316.75L203.825 317.25L238.466 297.25L237.6 296.75ZM183.041 316.75L148.4 296.75L147.534 297.25L182.175 317.25L183.041 316.75ZM202.959 316.75C197.459 319.926 188.541 319.926 183.041 316.75L182.175 317.25C188.153 320.702 197.847 320.702 203.825 317.25L202.959 316.75ZM237.6 285.25C243.101 288.426 243.101 293.574 237.6 296.75L238.466 297.25C244.445 293.798 244.445 288.202 238.466 284.75L237.6 285.25ZM183.041 265.25C188.541 262.074 197.459 262.074 202.959 265.25L203.825 264.75C197.847 261.298 188.153 261.298 182.175 264.75L183.041 265.25ZM147.534 284.75C141.555 288.202 141.555 293.798 147.534 297.25L148.4 296.75C142.899 293.574 142.899 288.426 148.4 285.25L147.534 284.75Z" fill="#D6E4F7"/>
<path d="M289.967 299C284.227 295.686 284.227 290.314 289.967 287L324.608 267C330.347 263.686 339.653 263.686 345.392 267L380.033 287C385.773 290.314 385.773 295.686 380.033 299L345.392 319C339.653 322.314 330.347 322.314 324.608 319L289.967 299Z" fill="#D6E4F7"/>
<path d="M290.4 287.25L325.041 267.25L324.175 266.75L289.534 286.75L290.4 287.25ZM344.959 267.25L379.6 287.25L380.466 286.75L345.825 266.75L344.959 267.25ZM379.6 298.75L344.959 318.75L345.825 319.25L380.466 299.25L379.6 298.75ZM325.041 318.75L290.4 298.75L289.534 299.25L324.175 319.25L325.041 318.75ZM344.959 318.75C339.459 321.926 330.541 321.926 325.041 318.75L324.175 319.25C330.153 322.702 339.847 322.702 345.825 319.25L344.959 318.75ZM379.6 287.25C385.101 290.426 385.101 295.574 379.6 298.75L380.466 299.25C386.445 295.798 386.445 290.202 380.466 286.75L379.6 287.25ZM325.041 267.25C330.541 264.074 339.459 264.074 344.959 267.25L345.825 266.75C339.847 263.298 330.153 263.298 324.175 266.75L325.041 267.25ZM289.534 286.75C283.555 290.202 283.555 295.798 289.534 299.25L290.4 298.75C284.899 295.574 284.899 290.426 290.4 287.25L289.534 286.75Z" fill="#D6E4F7"/>
<path d="M431.967 299C426.227 295.686 426.227 290.314 431.967 287L466.608 267C472.347 263.686 481.653 263.686 487.392 267L522.033 287C527.773 290.314 527.773 295.686 522.033 299L487.392 319C481.653 322.314 472.347 322.314 466.608 319L431.967 299Z" fill="#D6E4F7"/>
<path d="M432.833 287.5L467.474 267.5L465.742 266.5L431.101 286.5L432.833 287.5ZM486.526 267.5L521.167 287.5L522.899 286.5L488.258 266.5L486.526 267.5ZM521.167 298.5L486.526 318.5L488.258 319.5L522.899 299.5L521.167 298.5ZM467.474 318.5L432.833 298.5L431.101 299.5L465.742 319.5L467.474 318.5ZM486.526 318.5C481.265 321.538 472.735 321.538 467.474 318.5L465.742 319.5C471.959 323.09 482.04 323.09 488.258 319.5L486.526 318.5ZM521.167 287.5C526.428 290.538 526.428 295.462 521.167 298.5L522.899 299.5C529.117 295.91 529.117 290.09 522.899 286.5L521.167 287.5ZM467.474 267.5C472.735 264.462 481.265 264.462 486.526 267.5L488.258 266.5C482.04 262.91 471.959 262.91 465.742 266.5L467.474 267.5ZM431.101 286.5C424.883 290.09 424.883 295.91 431.101 299.5L432.833 298.5C427.571 295.462 427.571 290.538 432.833 287.5L431.101 286.5Z" fill="white"/>
<path d="M76.9666 340C71.2271 336.686 71.2271 331.314 76.9666 328L111.608 308C117.347 304.686 126.653 304.686 132.392 308L167.033 328C172.773 331.314 172.773 336.686 167.033 340L132.392 360C126.653 363.314 117.347 363.314 111.608 360L76.9666 340Z" fill="#D6E4F7"/>
<path d="M77.8327 328.5L112.474 308.5L110.742 307.5L76.1006 327.5L77.8327 328.5ZM131.526 308.5L166.167 328.5L167.899 327.5L133.258 307.5L131.526 308.5ZM166.167 339.5L131.526 359.5L133.258 360.5L167.899 340.5L166.167 339.5ZM112.474 359.5L77.8327 339.5L76.1006 340.5L110.742 360.5L112.474 359.5ZM131.526 359.5C126.265 362.538 117.735 362.538 112.474 359.5L110.742 360.5C116.959 364.09 127.04 364.09 133.258 360.5L131.526 359.5ZM166.167 328.5C171.428 331.538 171.428 336.462 166.167 339.5L167.899 340.5C174.117 336.91 174.117 331.09 167.899 327.5L166.167 328.5ZM112.474 308.5C117.735 305.462 126.265 305.462 131.526 308.5L133.258 307.5C127.04 303.91 116.959 303.91 110.742 307.5L112.474 308.5ZM76.1006 327.5C69.8828 331.09 69.8828 336.91 76.1006 340.5L77.8327 339.5C72.5715 336.462 72.5715 331.538 77.8327 328.5L76.1006 327.5Z" fill="white"/>
<path d="M218.967 340C213.227 336.686 213.227 331.314 218.967 328L253.608 308C259.347 304.686 268.653 304.686 274.392 308L309.033 328C314.773 331.314 314.773 336.686 309.033 340L274.392 360C268.653 363.314 259.347 363.314 253.608 360L218.967 340Z" fill="#D6E4F7"/>
<path d="M219.833 328.5L254.474 308.5L252.742 307.5L218.101 327.5L219.833 328.5ZM273.526 308.5L308.167 328.5L309.899 327.5L275.258 307.5L273.526 308.5ZM308.167 339.5L273.526 359.5L275.258 360.5L309.899 340.5L308.167 339.5ZM254.474 359.5L219.833 339.5L218.101 340.5L252.742 360.5L254.474 359.5ZM273.526 359.5C268.265 362.538 259.735 362.538 254.474 359.5L252.742 360.5C258.959 364.09 269.04 364.09 275.258 360.5L273.526 359.5ZM308.167 328.5C313.428 331.538 313.428 336.462 308.167 339.5L309.899 340.5C316.117 336.91 316.117 331.09 309.899 327.5L308.167 328.5ZM254.474 308.5C259.735 305.462 268.265 305.462 273.526 308.5L275.258 307.5C269.04 303.91 258.959 303.91 252.742 307.5L254.474 308.5ZM218.101 327.5C211.883 331.09 211.883 336.91 218.101 340.5L219.833 339.5C214.571 336.462 214.571 331.538 219.833 328.5L218.101 327.5Z" fill="white"/>
<g filter="url(#filter24_d)">
<rect width="64" height="64" rx="12" transform="matrix(0.866025 -0.5 0.866025 0.5 350.574 334)" fill="#D6E4F7"/>
</g>
<g filter="url(#filter25_ii)">
<path fill-rule="evenodd" clip-rule="evenodd" d="M356.664 333.858C356.6 336.076 358.034 338.307 360.967 340L395.608 360C401.347 363.314 410.653 363.314 416.392 360L451.033 340C453.903 338.343 455.338 336.172 455.338 334H455.34V332H454.926C454.313 330.534 453.015 329.144 451.033 328L416.392 308C410.653 304.686 401.347 304.686 395.608 308L360.967 328C358.985 329.144 357.687 330.534 357.074 332H356.664L356.664 333.858Z" fill="url(#paint23_linear)"/>
</g>
<path d="M360.967 338C355.227 334.686 355.227 329.314 360.967 326L395.608 306C401.347 302.686 410.653 302.686 416.392 306L451.033 326C456.773 329.314 456.773 334.686 451.033 338L416.392 358C410.653 361.314 401.347 361.314 395.608 358L360.967 338Z" fill="white"/>
<path d="M408.513 322.816C408.179 322.569 407.815 322.331 407.421 322.103C404.11 320.191 398.733 320.196 395.412 322.113L385.363 327.915C384.731 328.28 384.647 328.854 385.163 329.273L403.408 344.082C404.062 344.614 405.389 344.676 406.189 344.214L409.865 342.092C410.497 341.727 410.592 341.147 410.075 340.728C410.075 340.728 410.045 340.703 409.99 340.659L409.99 340.659L412.514 342.707C413.091 343.176 414.26 343.231 414.966 342.824L418.181 340.967C418.738 340.646 418.812 340.139 418.357 339.77L413.857 336.117C413.081 335.487 413.208 334.625 414.157 334.077L415.001 333.589C419.589 330.94 419.599 326.652 415.024 324.01C413.254 322.988 410.811 322.591 408.513 322.816Z" fill="#002987"/>
<path d="M408.646 322.872C412.715 325.879 412.352 330.236 407.559 333.003L404.778 334.609C404.15 334.972 404.026 335.526 404.447 335.965L412.664 342.629C413.238 343.095 414.399 343.151 415.099 342.746L418.288 340.905C418.841 340.586 418.914 340.084 418.46 339.716L413.983 336.085C413.211 335.459 413.335 334.603 414.276 334.059L415.114 333.576C419.664 330.948 419.665 326.689 415.115 324.063C413.354 323.046 410.928 322.65 408.646 322.872Z" fill="#0085CC"/>
<path d="M404.275 334.649L407.071 333.035C411.89 330.252 412.33 325.917 408.338 322.95C406.879 323.1 405.475 323.503 404.339 324.159L397.042 328.372C396.211 328.852 396.089 329.6 396.753 330.143L403.922 336C403.511 335.565 403.644 335.013 404.275 334.649Z" fill="#00186A"/>
<path d="M361.4 326.25L396.041 306.25L395.175 305.75L360.534 325.75L361.4 326.25ZM415.959 306.25L450.6 326.25L451.466 325.75L416.825 305.75L415.959 306.25ZM450.6 337.75L415.959 357.75L416.825 358.25L451.466 338.25L450.6 337.75ZM396.041 357.75L361.4 337.75L360.534 338.25L395.175 358.25L396.041 357.75ZM415.959 357.75C410.459 360.926 401.541 360.926 396.041 357.75L395.175 358.25C401.153 361.702 410.847 361.702 416.825 358.25L415.959 357.75ZM450.6 326.25C456.101 329.426 456.101 334.574 450.6 337.75L451.466 338.25C457.445 334.798 457.445 329.202 451.466 325.75L450.6 326.25ZM396.041 306.25C401.541 303.074 410.459 303.074 415.959 306.25L416.825 305.75C410.847 302.298 401.153 302.298 395.175 305.75L396.041 306.25ZM360.534 325.75C354.555 329.202 354.555 334.798 360.534 338.25L361.4 337.75C355.899 334.574 355.899 329.426 361.4 326.25L360.534 325.75Z" fill="#D6E4F7"/>
</g>
<defs>
<filter id="filter0_d" x="204.574" y="54" width="118.851" height="72" filterUnits="userSpaceOnUse" color-interpolation-filters="sRGB">
<feFlood flood-opacity="0" result="BackgroundImageFix"/>
<feColorMatrix in="SourceAlpha" type="matrix" values="0 0 0 0 0 0 0 0 0 0 0 0 0 0 0 0 0 0 127 0"/>
<feOffset dy="2"/>
<feGaussianBlur stdDeviation="2"/>
<feColorMatrix type="matrix" values="0 0 0 0 0.443137 0 0 0 0 0.529412 0 0 0 0 0.647059 0 0 0 1 0"/>
<feBlend mode="normal" in2="BackgroundImageFix" result="effect1_dropShadow"/>
<feBlend mode="normal" in="SourceGraphic" in2="effect1_dropShadow" result="shape"/>
</filter>
<filter id="filter1_ii" x="184.662" y="29.5146" width="128.678" height="86.9706" filterUnits="userSpaceOnUse" color-interpolation-filters="sRGB">
<feFlood flood-opacity="0" result="BackgroundImageFix"/>
<feBlend mode="normal" in="SourceGraphic" in2="BackgroundImageFix" result="shape"/>
<feColorMatrix in="SourceAlpha" type="matrix" values="0 0 0 0 0 0 0 0 0 0 0 0 0 0 0 0 0 0 127 0" result="hardAlpha"/>
<feOffset dx="-30" dy="-40"/>
<feGaussianBlur stdDeviation="15"/>
<feComposite in2="hardAlpha" operator="arithmetic" k2="-1" k3="1"/>
<feColorMatrix type="matrix" values="0 0 0 0 0.439216 0 0 0 0 0.529412 0 0 0 0 0.647059 0 0 0 0.3 0"/>
<feBlend mode="normal" in2="shape" result="effect1_innerShadow"/>
<feColorMatrix in="SourceAlpha" type="matrix" values="0 0 0 0 0 0 0 0 0 0 0 0 0 0 0 0 0 0 127 0" result="hardAlpha"/>
<feOffset dy="-10"/>
<feGaussianBlur stdDeviation="10"/>
<feComposite in2="hardAlpha" operator="arithmetic" k2="-1" k3="1"/>
<feColorMatrix type="matrix" values="0 0 0 0 1 0 0 0 0 1 0 0 0 0 1 0 0 0 0.55 0"/>
<feBlend mode="normal" in2="effect1_innerShadow" result="effect2_innerShadow"/>
</filter>
<filter id="filter2_d" x="-8.42566" y="95" width="118.851" height="72" filterUnits="userSpaceOnUse" color-interpolation-filters="sRGB">
<feFlood flood-opacity="0" result="BackgroundImageFix"/>
<feColorMatrix in="SourceAlpha" type="matrix" values="0 0 0 0 0 0 0 0 0 0 0 0 0 0 0 0 0 0 127 0"/>
<feOffset dy="2"/>
<feGaussianBlur stdDeviation="2"/>
<feColorMatrix type="matrix" values="0 0 0 0 0.443137 0 0 0 0 0.529412 0 0 0 0 0.647059 0 0 0 1 0"/>
<feBlend mode="normal" in2="BackgroundImageFix" result="effect1_dropShadow"/>
<feBlend mode="normal" in="SourceGraphic" in2="effect1_dropShadow" result="shape"/>
</filter>
<filter id="filter3_ii" x="-28.3379" y="70.5146" width="128.678" height="86.9706" filterUnits="userSpaceOnUse" color-interpolation-filters="sRGB">
<feFlood flood-opacity="0" result="BackgroundImageFix"/>
<feBlend mode="normal" in="SourceGraphic" in2="BackgroundImageFix" result="shape"/>
<feColorMatrix in="SourceAlpha" type="matrix" values="0 0 0 0 0 0 0 0 0 0 0 0 0 0 0 0 0 0 127 0" result="hardAlpha"/>
<feOffset dx="-30" dy="-40"/>
<feGaussianBlur stdDeviation="15"/>
<feComposite in2="hardAlpha" operator="arithmetic" k2="-1" k3="1"/>
<feColorMatrix type="matrix" values="0 0 0 0 0.439216 0 0 0 0 0.529412 0 0 0 0 0.647059 0 0 0 0.3 0"/>
<feBlend mode="normal" in2="shape" result="effect1_innerShadow"/>
<feColorMatrix in="SourceAlpha" type="matrix" values="0 0 0 0 0 0 0 0 0 0 0 0 0 0 0 0 0 0 127 0" result="hardAlpha"/>
<feOffset dy="-10"/>
<feGaussianBlur stdDeviation="10"/>
<feComposite in2="hardAlpha" operator="arithmetic" k2="-1" k3="1"/>
<feColorMatrix type="matrix" values="0 0 0 0 1 0 0 0 0 1 0 0 0 0 1 0 0 0 0.55 0"/>
<feBlend mode="normal" in2="effect1_innerShadow" result="effect2_innerShadow"/>
</filter>
<filter id="filter4_d" x="133.574" y="95" width="118.851" height="72" filterUnits="userSpaceOnUse" color-interpolation-filters="sRGB">
<feFlood flood-opacity="0" result="BackgroundImageFix"/>
<feColorMatrix in="SourceAlpha" type="matrix" values="0 0 0 0 0 0 0 0 0 0 0 0 0 0 0 0 0 0 127 0"/>
<feOffset dy="2"/>
<feGaussianBlur stdDeviation="2"/>
<feColorMatrix type="matrix" values="0 0 0 0 0.443137 0 0 0 0 0.529412 0 0 0 0 0.647059 0 0 0 1 0"/>
<feBlend mode="normal" in2="BackgroundImageFix" result="effect1_dropShadow"/>
<feBlend mode="normal" in="SourceGraphic" in2="effect1_dropShadow" result="shape"/>
</filter>
<filter id="filter5_ii" x="113.662" y="64" width="128.678" height="93.4853" filterUnits="userSpaceOnUse" color-interpolation-filters="sRGB">
<feFlood flood-opacity="0" result="BackgroundImageFix"/>
<feBlend mode="normal" in="SourceGraphic" in2="BackgroundImageFix" result="shape"/>
<feColorMatrix in="SourceAlpha" type="matrix" values="0 0 0 0 0 0 0 0 0 0 0 0 0 0 0 0 0 0 127 0" result="hardAlpha"/>
<feOffset dx="-30" dy="-40"/>
<feGaussianBlur stdDeviation="15"/>
<feComposite in2="hardAlpha" operator="arithmetic" k2="-1" k3="1"/>
<feColorMatrix type="matrix" values="0 0 0 0 0.439216 0 0 0 0 0.529412 0 0 0 0 0.647059 0 0 0 0.3 0"/>
<feBlend mode="normal" in2="shape" result="effect1_innerShadow"/>
<feColorMatrix in="SourceAlpha" type="matrix" values="0 0 0 0 0 0 0 0 0 0 0 0 0 0 0 0 0 0 127 0" result="hardAlpha"/>
<feOffset dy="-10"/>
<feGaussianBlur stdDeviation="10"/>
<feComposite in2="hardAlpha" operator="arithmetic" k2="-1" k3="1"/>
<feColorMatrix type="matrix" values="0 0 0 0 1 0 0 0 0 1 0 0 0 0 1 0 0 0 0.55 0"/>
<feBlend mode="normal" in2="effect1_innerShadow" result="effect2_innerShadow"/>
</filter>
<filter id="filter6_d" x="417.574" y="95" width="118.851" height="72" filterUnits="userSpaceOnUse" color-interpolation-filters="sRGB">
<feFlood flood-opacity="0" result="BackgroundImageFix"/>
<feColorMatrix in="SourceAlpha" type="matrix" values="0 0 0 0 0 0 0 0 0 0 0 0 0 0 0 0 0 0 127 0"/>
<feOffset dy="2"/>
<feGaussianBlur stdDeviation="2"/>
<feColorMatrix type="matrix" values="0 0 0 0 0.443137 0 0 0 0 0.529412 0 0 0 0 0.647059 0 0 0 1 0"/>
<feBlend mode="normal" in2="BackgroundImageFix" result="effect1_dropShadow"/>
<feBlend mode="normal" in="SourceGraphic" in2="effect1_dropShadow" result="shape"/>
</filter>
<filter id="filter7_ii" x="397.662" y="70.5146" width="128.678" height="86.9706" filterUnits="userSpaceOnUse" color-interpolation-filters="sRGB">
<feFlood flood-opacity="0" result="BackgroundImageFix"/>
<feBlend mode="normal" in="SourceGraphic" in2="BackgroundImageFix" result="shape"/>
<feColorMatrix in="SourceAlpha" type="matrix" values="0 0 0 0 0 0 0 0 0 0 0 0 0 0 0 0 0 0 127 0" result="hardAlpha"/>
<feOffset dx="-30" dy="-40"/>
<feGaussianBlur stdDeviation="15"/>
<feComposite in2="hardAlpha" operator="arithmetic" k2="-1" k3="1"/>
<feColorMatrix type="matrix" values="0 0 0 0 0.439216 0 0 0 0 0.529412 0 0 0 0 0.647059 0 0 0 0.3 0"/>
<feBlend mode="normal" in2="shape" result="effect1_innerShadow"/>
<feColorMatrix in="SourceAlpha" type="matrix" values="0 0 0 0 0 0 0 0 0 0 0 0 0 0 0 0 0 0 127 0" result="hardAlpha"/>
<feOffset dy="-10"/>
<feGaussianBlur stdDeviation="10"/>
<feComposite in2="hardAlpha" operator="arithmetic" k2="-1" k3="1"/>
<feColorMatrix type="matrix" values="0 0 0 0 1 0 0 0 0 1 0 0 0 0 1 0 0 0 0.55 0"/>
<feBlend mode="normal" in2="effect1_innerShadow" result="effect2_innerShadow"/>
</filter>
<filter id="filter8_d" x="62.5743" y="136" width="118.851" height="72" filterUnits="userSpaceOnUse" color-interpolation-filters="sRGB">
<feFlood flood-opacity="0" result="BackgroundImageFix"/>
<feColorMatrix in="SourceAlpha" type="matrix" values="0 0 0 0 0 0 0 0 0 0 0 0 0 0 0 0 0 0 127 0"/>
<feOffset dy="2"/>
<feGaussianBlur stdDeviation="2"/>
<feColorMatrix type="matrix" values="0 0 0 0 0.443137 0 0 0 0 0.529412 0 0 0 0 0.647059 0 0 0 1 0"/>
<feBlend mode="normal" in2="BackgroundImageFix" result="effect1_dropShadow"/>
<feBlend mode="normal" in="SourceGraphic" in2="effect1_dropShadow" result="shape"/>
</filter>
<filter id="filter9_ii" x="42.6621" y="111.515" width="128.678" height="86.9706" filterUnits="userSpaceOnUse" color-interpolation-filters="sRGB">
<feFlood flood-opacity="0" result="BackgroundImageFix"/>
<feBlend mode="normal" in="SourceGraphic" in2="BackgroundImageFix" result="shape"/>
<feColorMatrix in="SourceAlpha" type="matrix" values="0 0 0 0 0 0 0 0 0 0 0 0 0 0 0 0 0 0 127 0" result="hardAlpha"/>
<feOffset dx="-30" dy="-40"/>
<feGaussianBlur stdDeviation="15"/>
<feComposite in2="hardAlpha" operator="arithmetic" k2="-1" k3="1"/>
<feColorMatrix type="matrix" values="0 0 0 0 0.439216 0 0 0 0 0.529412 0 0 0 0 0.647059 0 0 0 0.3 0"/>
<feBlend mode="normal" in2="shape" result="effect1_innerShadow"/>
<feColorMatrix in="SourceAlpha" type="matrix" values="0 0 0 0 0 0 0 0 0 0 0 0 0 0 0 0 0 0 127 0" result="hardAlpha"/>
<feOffset dy="-10"/>
<feGaussianBlur stdDeviation="10"/>
<feComposite in2="hardAlpha" operator="arithmetic" k2="-1" k3="1"/>
<feColorMatrix type="matrix" values="0 0 0 0 1 0 0 0 0 1 0 0 0 0 1 0 0 0 0.55 0"/>
<feBlend mode="normal" in2="effect1_innerShadow" result="effect2_innerShadow"/>
</filter>
<filter id="filter10_d" x="346.574" y="136" width="118.851" height="72" filterUnits="userSpaceOnUse" color-interpolation-filters="sRGB">
<feFlood flood-opacity="0" result="BackgroundImageFix"/>
<feColorMatrix in="SourceAlpha" type="matrix" values="0 0 0 0 0 0 0 0 0 0 0 0 0 0 0 0 0 0 127 0"/>
<feOffset dy="2"/>
<feGaussianBlur stdDeviation="2"/>
<feColorMatrix type="matrix" values="0 0 0 0 0.443137 0 0 0 0 0.529412 0 0 0 0 0.647059 0 0 0 1 0"/>
<feBlend mode="normal" in2="BackgroundImageFix" result="effect1_dropShadow"/>
<feBlend mode="normal" in="SourceGraphic" in2="effect1_dropShadow" result="shape"/>
</filter>
<filter id="filter11_ii" x="326.662" y="78" width="128.678" height="120.485" filterUnits="userSpaceOnUse" color-interpolation-filters="sRGB">
<feFlood flood-opacity="0" result="BackgroundImageFix"/>
<feBlend mode="normal" in="SourceGraphic" in2="BackgroundImageFix" result="shape"/>
<feColorMatrix in="SourceAlpha" type="matrix" values="0 0 0 0 0 0 0 0 0 0 0 0 0 0 0 0 0 0 127 0" result="hardAlpha"/>
<feOffset dx="-30" dy="-40"/>
<feGaussianBlur stdDeviation="15"/>
<feComposite in2="hardAlpha" operator="arithmetic" k2="-1" k3="1"/>
<feColorMatrix type="matrix" values="0 0 0 0 0.439216 0 0 0 0 0.529412 0 0 0 0 0.647059 0 0 0 0.3 0"/>
<feBlend mode="normal" in2="shape" result="effect1_innerShadow"/>
<feColorMatrix in="SourceAlpha" type="matrix" values="0 0 0 0 0 0 0 0 0 0 0 0 0 0 0 0 0 0 127 0" result="hardAlpha"/>
<feOffset dy="-10"/>
<feGaussianBlur stdDeviation="10"/>
<feComposite in2="hardAlpha" operator="arithmetic" k2="-1" k3="1"/>
<feColorMatrix type="matrix" values="0 0 0 0 1 0 0 0 0 1 0 0 0 0 1 0 0 0 0.55 0"/>
<feBlend mode="normal" in2="effect1_innerShadow" result="effect2_innerShadow"/>
</filter>
<filter id="filter12_d" x="417.574" y="177" width="118.851" height="72" filterUnits="userSpaceOnUse" color-interpolation-filters="sRGB">
<feFlood flood-opacity="0" result="BackgroundImageFix"/>
<feColorMatrix in="SourceAlpha" type="matrix" values="0 0 0 0 0 0 0 0 0 0 0 0 0 0 0 0 0 0 127 0"/>
<feOffset dy="2"/>
<feGaussianBlur stdDeviation="2"/>
<feColorMatrix type="matrix" values="0 0 0 0 0.443137 0 0 0 0 0.529412 0 0 0 0 0.647059 0 0 0 1 0"/>
<feBlend mode="normal" in2="BackgroundImageFix" result="effect1_dropShadow"/>
<feBlend mode="normal" in="SourceGraphic" in2="effect1_dropShadow" result="shape"/>
</filter>
<filter id="filter13_ii" x="397.662" y="152.515" width="128.678" height="86.9706" filterUnits="userSpaceOnUse" color-interpolation-filters="sRGB">
<feFlood flood-opacity="0" result="BackgroundImageFix"/>
<feBlend mode="normal" in="SourceGraphic" in2="BackgroundImageFix" result="shape"/>
<feColorMatrix in="SourceAlpha" type="matrix" values="0 0 0 0 0 0 0 0 0 0 0 0 0 0 0 0 0 0 127 0" result="hardAlpha"/>
<feOffset dx="-30" dy="-40"/>
<feGaussianBlur stdDeviation="15"/>
<feComposite in2="hardAlpha" operator="arithmetic" k2="-1" k3="1"/>
<feColorMatrix type="matrix" values="0 0 0 0 0.439216 0 0 0 0 0.529412 0 0 0 0 0.647059 0 0 0 0.3 0"/>
<feBlend mode="normal" in2="shape" result="effect1_innerShadow"/>
<feColorMatrix in="SourceAlpha" type="matrix" values="0 0 0 0 0 0 0 0 0 0 0 0 0 0 0 0 0 0 127 0" result="hardAlpha"/>
<feOffset dy="-10"/>
<feGaussianBlur stdDeviation="10"/>
<feComposite in2="hardAlpha" operator="arithmetic" k2="-1" k3="1"/>
<feColorMatrix type="matrix" values="0 0 0 0 1 0 0 0 0 1 0 0 0 0 1 0 0 0 0.55 0"/>
<feBlend mode="normal" in2="effect1_innerShadow" result="effect2_innerShadow"/>
</filter>
<filter id="filter14_d" x="149.149" y="147" width="229.703" height="136" filterUnits="userSpaceOnUse" color-interpolation-filters="sRGB">
<feFlood flood-opacity="0" result="BackgroundImageFix"/>
<feColorMatrix in="SourceAlpha" type="matrix" values="0 0 0 0 0 0 0 0 0 0 0 0 0 0 0 0 0 0 127 0"/>
<feOffset dy="2"/>
<feGaussianBlur stdDeviation="2"/>
<feColorMatrix type="matrix" values="0 0 0 0 0.443137 0 0 0 0 0.529412 0 0 0 0 0.647059 0 0 0 1 0"/>
<feBlend mode="normal" in2="BackgroundImageFix" result="effect1_dropShadow"/>
<feBlend mode="normal" in="SourceGraphic" in2="effect1_dropShadow" result="shape"/>
</filter>
<filter id="filter15_ii" x="135.324" y="126.029" width="227.356" height="143.941" filterUnits="userSpaceOnUse" color-interpolation-filters="sRGB">
<feFlood flood-opacity="0" result="BackgroundImageFix"/>
<feBlend mode="normal" in="SourceGraphic" in2="BackgroundImageFix" result="shape"/>
<feColorMatrix in="SourceAlpha" type="matrix" values="0 0 0 0 0 0 0 0 0 0 0 0 0 0 0 0 0 0 127 0" result="hardAlpha"/>
<feOffset dx="-30" dy="-40"/>
<feGaussianBlur stdDeviation="15"/>
<feComposite in2="hardAlpha" operator="arithmetic" k2="-1" k3="1"/>
<feColorMatrix type="matrix" values="0 0 0 0 0.439216 0 0 0 0 0.529412 0 0 0 0 0.647059 0 0 0 0.3 0"/>
<feBlend mode="normal" in2="shape" result="effect1_innerShadow"/>
<feColorMatrix in="SourceAlpha" type="matrix" values="0 0 0 0 0 0 0 0 0 0 0 0 0 0 0 0 0 0 127 0" result="hardAlpha"/>
<feOffset dy="-10"/>
<feGaussianBlur stdDeviation="10"/>
<feComposite in2="hardAlpha" operator="arithmetic" k2="-1" k3="1"/>
<feColorMatrix type="matrix" values="0 0 0 0 1 0 0 0 0 1 0 0 0 0 1 0 0 0 0.55 0"/>
<feBlend mode="normal" in2="effect1_innerShadow" result="effect2_innerShadow"/>
</filter>
<filter id="filter16_d" x="62.5743" y="218" width="118.851" height="72" filterUnits="userSpaceOnUse" color-interpolation-filters="sRGB">
<feFlood flood-opacity="0" result="BackgroundImageFix"/>
<feColorMatrix in="SourceAlpha" type="matrix" values="0 0 0 0 0 0 0 0 0 0 0 0 0 0 0 0 0 0 127 0"/>
<feOffset dy="2"/>
<feGaussianBlur stdDeviation="2"/>
<feColorMatrix type="matrix" values="0 0 0 0 0.443137 0 0 0 0 0.529412 0 0 0 0 0.647059 0 0 0 1 0"/>
<feBlend mode="normal" in2="BackgroundImageFix" result="effect1_dropShadow"/>
<feBlend mode="normal" in="SourceGraphic" in2="effect1_dropShadow" result="shape"/>
</filter>
<filter id="filter17_ii" x="42.6621" y="193.515" width="128.678" height="86.9706" filterUnits="userSpaceOnUse" color-interpolation-filters="sRGB">
<feFlood flood-opacity="0" result="BackgroundImageFix"/>
<feBlend mode="normal" in="SourceGraphic" in2="BackgroundImageFix" result="shape"/>
<feColorMatrix in="SourceAlpha" type="matrix" values="0 0 0 0 0 0 0 0 0 0 0 0 0 0 0 0 0 0 127 0" result="hardAlpha"/>
<feOffset dx="-30" dy="-40"/>
<feGaussianBlur stdDeviation="15"/>
<feComposite in2="hardAlpha" operator="arithmetic" k2="-1" k3="1"/>
<feColorMatrix type="matrix" values="0 0 0 0 0.439216 0 0 0 0 0.529412 0 0 0 0 0.647059 0 0 0 0.3 0"/>
<feBlend mode="normal" in2="shape" result="effect1_innerShadow"/>
<feColorMatrix in="SourceAlpha" type="matrix" values="0 0 0 0 0 0 0 0 0 0 0 0 0 0 0 0 0 0 127 0" result="hardAlpha"/>
<feOffset dy="-10"/>
<feGaussianBlur stdDeviation="10"/>
<feComposite in2="hardAlpha" operator="arithmetic" k2="-1" k3="1"/>
<feColorMatrix type="matrix" values="0 0 0 0 1 0 0 0 0 1 0 0 0 0 1 0 0 0 0.55 0"/>
<feBlend mode="normal" in2="effect1_innerShadow" result="effect2_innerShadow"/>
</filter>
<filter id="filter18_d" x="346.574" y="218" width="118.851" height="72" filterUnits="userSpaceOnUse" color-interpolation-filters="sRGB">
<feFlood flood-opacity="0" result="BackgroundImageFix"/>
<feColorMatrix in="SourceAlpha" type="matrix" values="0 0 0 0 0 0 0 0 0 0 0 0 0 0 0 0 0 0 127 0"/>
<feOffset dy="2"/>
<feGaussianBlur stdDeviation="2"/>
<feColorMatrix type="matrix" values="0 0 0 0 0.443137 0 0 0 0 0.529412 0 0 0 0 0.647059 0 0 0 1 0"/>
<feBlend mode="normal" in2="BackgroundImageFix" result="effect1_dropShadow"/>
<feBlend mode="normal" in="SourceGraphic" in2="effect1_dropShadow" result="shape"/>
</filter>
<filter id="filter19_ii" x="326.662" y="193.515" width="128.678" height="86.9706" filterUnits="userSpaceOnUse" color-interpolation-filters="sRGB">
<feFlood flood-opacity="0" result="BackgroundImageFix"/>
<feBlend mode="normal" in="SourceGraphic" in2="BackgroundImageFix" result="shape"/>
<feColorMatrix in="SourceAlpha" type="matrix" values="0 0 0 0 0 0 0 0 0 0 0 0 0 0 0 0 0 0 127 0" result="hardAlpha"/>
<feOffset dx="-30" dy="-40"/>
<feGaussianBlur stdDeviation="15"/>
<feComposite in2="hardAlpha" operator="arithmetic" k2="-1" k3="1"/>
<feColorMatrix type="matrix" values="0 0 0 0 0.439216 0 0 0 0 0.529412 0 0 0 0 0.647059 0 0 0 0.3 0"/>
<feBlend mode="normal" in2="shape" result="effect1_innerShadow"/>
<feColorMatrix in="SourceAlpha" type="matrix" values="0 0 0 0 0 0 0 0 0 0 0 0 0 0 0 0 0 0 127 0" result="hardAlpha"/>
<feOffset dy="-10"/>
<feGaussianBlur stdDeviation="10"/>
<feComposite in2="hardAlpha" operator="arithmetic" k2="-1" k3="1"/>
<feColorMatrix type="matrix" values="0 0 0 0 1 0 0 0 0 1 0 0 0 0 1 0 0 0 0.55 0"/>
<feBlend mode="normal" in2="effect1_innerShadow" result="effect2_innerShadow"/>
</filter>
<filter id="filter20_d" x="-8.42566" y="259" width="118.851" height="72" filterUnits="userSpaceOnUse" color-interpolation-filters="sRGB">
<feFlood flood-opacity="0" result="BackgroundImageFix"/>
<feColorMatrix in="SourceAlpha" type="matrix" values="0 0 0 0 0 0 0 0 0 0 0 0 0 0 0 0 0 0 127 0"/>
<feOffset dy="2"/>
<feGaussianBlur stdDeviation="2"/>
<feColorMatrix type="matrix" values="0 0 0 0 0.443137 0 0 0 0 0.529412 0 0 0 0 0.647059 0 0 0 1 0"/>
<feBlend mode="normal" in2="BackgroundImageFix" result="effect1_dropShadow"/>
<feBlend mode="normal" in="SourceGraphic" in2="effect1_dropShadow" result="shape"/>
</filter>
<filter id="filter21_ii" x="-28.3379" y="234.515" width="128.678" height="86.9706" filterUnits="userSpaceOnUse" color-interpolation-filters="sRGB">
<feFlood flood-opacity="0" result="BackgroundImageFix"/>
<feBlend mode="normal" in="SourceGraphic" in2="BackgroundImageFix" result="shape"/>
<feColorMatrix in="SourceAlpha" type="matrix" values="0 0 0 0 0 0 0 0 0 0 0 0 0 0 0 0 0 0 127 0" result="hardAlpha"/>
<feOffset dx="-30" dy="-40"/>
<feGaussianBlur stdDeviation="15"/>
<feComposite in2="hardAlpha" operator="arithmetic" k2="-1" k3="1"/>
<feColorMatrix type="matrix" values="0 0 0 0 0.439216 0 0 0 0 0.529412 0 0 0 0 0.647059 0 0 0 0.3 0"/>
<feBlend mode="normal" in2="shape" result="effect1_innerShadow"/>
<feColorMatrix in="SourceAlpha" type="matrix" values="0 0 0 0 0 0 0 0 0 0 0 0 0 0 0 0 0 0 127 0" result="hardAlpha"/>
<feOffset dy="-10"/>
<feGaussianBlur stdDeviation="10"/>
<feComposite in2="hardAlpha" operator="arithmetic" k2="-1" k3="1"/>
<feColorMatrix type="matrix" values="0 0 0 0 1 0 0 0 0 1 0 0 0 0 1 0 0 0 0.55 0"/>
<feBlend mode="normal" in2="effect1_innerShadow" result="effect2_innerShadow"/>
</filter>
<filter id="filter22_d" x="133.574" y="259" width="118.851" height="72" filterUnits="userSpaceOnUse" color-interpolation-filters="sRGB">
<feFlood flood-opacity="0" result="BackgroundImageFix"/>
<feColorMatrix in="SourceAlpha" type="matrix" values="0 0 0 0 0 0 0 0 0 0 0 0 0 0 0 0 0 0 127 0"/>
<feOffset dy="2"/>
<feGaussianBlur stdDeviation="2"/>
<feColorMatrix type="matrix" values="0 0 0 0 0.443137 0 0 0 0 0.529412 0 0 0 0 0.647059 0 0 0 1 0"/>
<feBlend mode="normal" in2="BackgroundImageFix" result="effect1_dropShadow"/>
<feBlend mode="normal" in="SourceGraphic" in2="effect1_dropShadow" result="shape"/>
</filter>
<filter id="filter23_ii" x="113.662" y="234.515" width="128.678" height="86.9706" filterUnits="userSpaceOnUse" color-interpolation-filters="sRGB">
<feFlood flood-opacity="0" result="BackgroundImageFix"/>
<feBlend mode="normal" in="SourceGraphic" in2="BackgroundImageFix" result="shape"/>
<feColorMatrix in="SourceAlpha" type="matrix" values="0 0 0 0 0 0 0 0 0 0 0 0 0 0 0 0 0 0 127 0" result="hardAlpha"/>
<feOffset dx="-30" dy="-40"/>
<feGaussianBlur stdDeviation="15"/>
<feComposite in2="hardAlpha" operator="arithmetic" k2="-1" k3="1"/>
<feColorMatrix type="matrix" values="0 0 0 0 0.439216 0 0 0 0 0.529412 0 0 0 0 0.647059 0 0 0 0.3 0"/>
<feBlend mode="normal" in2="shape" result="effect1_innerShadow"/>
<feColorMatrix in="SourceAlpha" type="matrix" values="0 0 0 0 0 0 0 0 0 0 0 0 0 0 0 0 0 0 127 0" result="hardAlpha"/>
<feOffset dy="-10"/>
<feGaussianBlur stdDeviation="10"/>
<feComposite in2="hardAlpha" operator="arithmetic" k2="-1" k3="1"/>
<feColorMatrix type="matrix" values="0 0 0 0 1 0 0 0 0 1 0 0 0 0 1 0 0 0 0.55 0"/>
<feBlend mode="normal" in2="effect1_innerShadow" result="effect2_innerShadow"/>
</filter>
<filter id="filter24_d" x="346.574" y="300" width="118.851" height="72" filterUnits="userSpaceOnUse" color-interpolation-filters="sRGB">
<feFlood flood-opacity="0" result="BackgroundImageFix"/>
<feColorMatrix in="SourceAlpha" type="matrix" values="0 0 0 0 0 0 0 0 0 0 0 0 0 0 0 0 0 0 127 0"/>
<feOffset dy="2"/>
<feGaussianBlur stdDeviation="2"/>
<feColorMatrix type="matrix" values="0 0 0 0 0.443137 0 0 0 0 0.529412 0 0 0 0 0.647059 0 0 0 1 0"/>
<feBlend mode="normal" in2="BackgroundImageFix" result="effect1_dropShadow"/>
<feBlend mode="normal" in="SourceGraphic" in2="effect1_dropShadow" result="shape"/>
</filter>
<filter id="filter25_ii" x="326.662" y="275.515" width="128.678" height="86.9706" filterUnits="userSpaceOnUse" color-interpolation-filters="sRGB">
<feFlood flood-opacity="0" result="BackgroundImageFix"/>
<feBlend mode="normal" in="SourceGraphic" in2="BackgroundImageFix" result="shape"/>
<feColorMatrix in="SourceAlpha" type="matrix" values="0 0 0 0 0 0 0 0 0 0 0 0 0 0 0 0 0 0 127 0" result="hardAlpha"/>
<feOffset dx="-30" dy="-40"/>
<feGaussianBlur stdDeviation="15"/>
<feComposite in2="hardAlpha" operator="arithmetic" k2="-1" k3="1"/>
<feColorMatrix type="matrix" values="0 0 0 0 0.439216 0 0 0 0 0.529412 0 0 0 0 0.647059 0 0 0 0.3 0"/>
<feBlend mode="normal" in2="shape" result="effect1_innerShadow"/>
<feColorMatrix in="SourceAlpha" type="matrix" values="0 0 0 0 0 0 0 0 0 0 0 0 0 0 0 0 0 0 127 0" result="hardAlpha"/>
<feOffset dy="-10"/>
<feGaussianBlur stdDeviation="10"/>
<feComposite in2="hardAlpha" operator="arithmetic" k2="-1" k3="1"/>
<feColorMatrix type="matrix" values="0 0 0 0 1 0 0 0 0 1 0 0 0 0 1 0 0 0 0.55 0"/>
<feBlend mode="normal" in2="effect1_innerShadow" result="effect2_innerShadow"/>
</filter>
<linearGradient id="paint0_linear" x1="264" y1="116.028" x2="215" y2="116.028" gradientUnits="userSpaceOnUse">
<stop stop-color="#D6E4F7"/>
<stop offset="1" stop-color="#F1F6FC"/>
</linearGradient>
<linearGradient id="paint1_linear" x1="51" y1="157.028" x2="2" y2="157.028" gradientUnits="userSpaceOnUse">
<stop stop-color="#D6E4F7"/>
<stop offset="1" stop-color="#F1F6FC"/>
</linearGradient>
<linearGradient id="paint2_linear" x1="193" y1="156.976" x2="144" y2="156.976" gradientUnits="userSpaceOnUse">
<stop stop-color="#D6E4F7"/>
<stop offset="1" stop-color="#F1F6FC"/>
</linearGradient>
<linearGradient id="paint3_linear" x1="477" y1="157.028" x2="428" y2="157.028" gradientUnits="userSpaceOnUse">
<stop stop-color="#D6E4F7"/>
<stop offset="1" stop-color="#F1F6FC"/>
</linearGradient>
<linearGradient id="paint4_linear" x1="122" y1="198.028" x2="73" y2="198.028" gradientUnits="userSpaceOnUse">
<stop stop-color="#D6E4F7"/>
<stop offset="1" stop-color="#F1F6FC"/>
</linearGradient>
<linearGradient id="paint5_linear" x1="406" y1="197.759" x2="357" y2="197.759" gradientUnits="userSpaceOnUse">
<stop stop-color="#D6E4F7"/>
<stop offset="1" stop-color="#F1F6FC"/>
</linearGradient>
<linearGradient id="paint6_linear" x1="477" y1="239.028" x2="428" y2="239.028" gradientUnits="userSpaceOnUse">
<stop stop-color="#D6E4F7"/>
<stop offset="1" stop-color="#F1F6FC"/>
</linearGradient>
<linearGradient id="paint7_linear" x1="264" y1="269.056" x2="166" y2="269.056" gradientUnits="userSpaceOnUse">
<stop stop-color="#D6E4F7"/>
<stop offset="1" stop-color="#F1F6FC"/>
</linearGradient>
<linearGradient id="paint8_linear" x1="153" y1="209" x2="375" y2="209" gradientUnits="userSpaceOnUse">
<stop offset="0.104167" stop-color="#ACC9DA"/>
<stop offset="0.203125" stop-color="#E7AED2"/>
<stop offset="0.317708" stop-color="#FF9ECA"/>
<stop offset="0.479167" stop-color="#6EFFFB"/>
<stop offset="0.536458" stop-color="#BCFFDF"/>
<stop offset="0.692708" stop-color="#FF9FB4"/>
<stop offset="0.918609" stop-color="#ACB8DA"/>
</linearGradient>
<linearGradient id="paint9_linear" x1="183.525" y1="208.599" x2="341.382" y2="196.036" gradientUnits="userSpaceOnUse">
<stop stop-color="#D6E4F7" stop-opacity="0.83"/>
<stop offset="1" stop-color="#D6E4F7" stop-opacity="0.46"/>
</linearGradient>
<linearGradient id="paint10_linear" x1="218.125" y1="214.6" x2="294.392" y2="243.112" gradientUnits="userSpaceOnUse">
<stop offset="0.104167" stop-color="#ACC9DA"/>
<stop offset="0.203125" stop-color="#E7AED2"/>
<stop offset="0.317708" stop-color="#FF9ECA"/>
<stop offset="0.479167" stop-color="#6EFFFB"/>
<stop offset="0.536458" stop-color="#BCFFDF"/>
<stop offset="0.692708" stop-color="#FF9FB4"/>
<stop offset="0.918609" stop-color="#ACB8DA"/>
</linearGradient>
<linearGradient id="paint11_linear" x1="230.723" y1="212.873" x2="288.449" y2="230.029" gradientUnits="userSpaceOnUse">
<stop stop-color="#D6E4F7" stop-opacity="0.83"/>
<stop offset="1" stop-color="#D6E4F7" stop-opacity="0.46"/>
</linearGradient>
<linearGradient id="paint12_linear" x1="153" y1="209" x2="375" y2="209" gradientUnits="userSpaceOnUse">
<stop offset="0.104167" stop-color="#ACC9DA"/>
<stop offset="0.203125" stop-color="#E7AED2"/>
<stop offset="0.317708" stop-color="#FF9ECA"/>
<stop offset="0.479167" stop-color="#6EFFFB"/>
<stop offset="0.536458" stop-color="#BCFFDF"/>
<stop offset="0.692708" stop-color="#FF9FB4"/>
<stop offset="0.918609" stop-color="#ACB8DA"/>
</linearGradient>
<linearGradient id="paint13_linear" x1="183.525" y1="208.599" x2="341.382" y2="196.036" gradientUnits="userSpaceOnUse">
<stop stop-color="#D6E4F7" stop-opacity="0.83"/>
<stop offset="1" stop-color="#D6E4F7" stop-opacity="0.46"/>
</linearGradient>
<linearGradient id="paint14_linear" x1="122" y1="280.028" x2="73" y2="280.028" gradientUnits="userSpaceOnUse">
<stop stop-color="#D6E4F7"/>
<stop offset="1" stop-color="#F1F6FC"/>
</linearGradient>
<linearGradient id="paint15_linear" x1="406" y1="280.028" x2="357" y2="280.028" gradientUnits="userSpaceOnUse">
<stop stop-color="#D6E4F7"/>
<stop offset="1" stop-color="#F1F6FC"/>
</linearGradient>
<linearGradient id="paint16_linear" x1="51" y1="321.028" x2="2" y2="321.028" gradientUnits="userSpaceOnUse">
<stop stop-color="#D6E4F7"/>
<stop offset="1" stop-color="#F1F6FC"/>
</linearGradient>
<linearGradient id="paint17_linear" x1="49.4768" y1="301.733" x2="53.1107" y2="279.551" gradientUnits="userSpaceOnUse">
<stop offset="0.0429448" stop-color="#5C257E"/>
<stop offset="0.9693" stop-color="#8C509A"/>
</linearGradient>
<linearGradient id="paint18_linear" x1="74.5869" y1="288.759" x2="46.1129" y2="272.879" gradientUnits="userSpaceOnUse">
<stop offset="0.0429448" stop-color="#5C257E"/>
<stop offset="1" stop-color="white"/>
</linearGradient>
<linearGradient id="paint19_linear" x1="68.7636" y1="299.198" x2="40.2896" y2="283.318" gradientUnits="userSpaceOnUse">
<stop offset="0.0429448" stop-color="#5C257E"/>
<stop offset="1" stop-color="white"/>
</linearGradient>
<linearGradient id="paint20_linear" x1="40.7128" y1="294.603" x2="62.8809" y2="306.966" gradientUnits="userSpaceOnUse">
<stop offset="0.2331" stop-color="#4F256F"/>
<stop offset="0.8405" stop-color="#5C257E"/>
</linearGradient>
<linearGradient id="paint21_linear" x1="46.5347" y1="284.166" x2="68.7025" y2="296.529" gradientUnits="userSpaceOnUse">
<stop offset="0.2331" stop-color="#4F256F"/>
<stop offset="0.8405" stop-color="#5C257E"/>
</linearGradient>
<linearGradient id="paint22_linear" x1="193" y1="321.028" x2="144" y2="321.028" gradientUnits="userSpaceOnUse">
<stop stop-color="#D6E4F7"/>
<stop offset="1" stop-color="#F1F6FC"/>
</linearGradient>
<linearGradient id="paint23_linear" x1="406" y1="362.028" x2="357" y2="362.028" gradientUnits="userSpaceOnUse">
<stop stop-color="#D6E4F7"/>
<stop offset="1" stop-color="#F1F6FC"/>
</linearGradient>
<clipPath id="clip0">
<rect width="528" height="400" fill="white"/>
</clipPath>
<clipPath id="clip1">
<rect width="64" height="64" fill="white" transform="matrix(0.866025 -0.5 0.866025 0.5 208.426 209)"/>
</clipPath>
</defs>
</svg>
