<svg width="80" height="80" viewBox="0 0 80 80" fill="none" xmlns="http://www.w3.org/2000/svg">
<path d="M72.9688 42.3438H49.375C45.498 42.3438 42.3438 45.498 42.3438 49.375C42.3438 53.252 45.498 56.4062 49.375 56.4062H72.9688C76.8458 56.4062 80 53.252 80 49.375C80 45.498 76.8458 42.3438 72.9688 42.3438Z" fill="#ECB22E"/>
<path d="M30.625 23.5938H7.03125C3.15422 23.5938 0 26.748 0 30.625C0 34.502 3.15422 37.6562 7.03125 37.6562H30.625C34.502 37.6562 37.6562 34.502 37.6562 30.625C37.6562 26.748 34.502 23.5938 30.625 23.5938Z" fill="#36C5F0"/>
<path d="M49.375 37.6562C53.252 37.6562 56.4062 34.502 56.4062 30.625V7.03125C56.4062 3.15422 53.252 0 49.375 0C45.498 0 42.3438 3.15422 42.3438 7.03125V30.625C42.3438 34.502 45.498 37.6562 49.375 37.6562Z" fill="#2EB67D"/>
<path d="M30.625 42.3438C26.748 42.3438 23.5938 45.498 23.5938 49.375V72.9688C23.5938 76.8458 26.748 80 30.625 80C34.502 80 37.6562 76.8458 37.6562 72.9688V49.375C37.6562 45.498 34.502 42.3438 30.625 42.3438Z" fill="#E01E5A"/>
<path d="M63.5938 37.6562H70.625C75.7944 37.6562 80 33.4506 80 28.2812C80 23.1119 75.7944 18.9062 70.625 18.9062C65.4556 18.9062 61.25 23.1119 61.25 28.2812V35.3125C61.25 36.6069 62.2994 37.6562 63.5938 37.6562Z" fill="#2EB67D"/>
<path d="M16.4062 42.3438H9.375C4.20563 42.3438 0 46.5494 0 51.7188C0 56.8881 4.20563 61.0938 9.375 61.0938C14.5444 61.0938 18.75 56.8881 18.75 51.7188V44.6875C18.75 43.3931 17.7006 42.3438 16.4062 42.3438Z" fill="#E01E5A"/>
<path d="M28.2812 0C23.1119 0 18.9062 4.20563 18.9062 9.375C18.9062 14.5444 23.1119 18.75 28.2812 18.75H35.3125C36.6069 18.75 37.6562 17.7006 37.6562 16.4062V9.375C37.6562 4.20563 33.4506 0 28.2812 0Z" fill="#36C5F0"/>
<path d="M51.7188 61.25H44.6875C43.3931 61.25 42.3438 62.2994 42.3438 63.5938V70.625C42.3438 75.7944 46.5494 80 51.7188 80C56.8881 80 61.0938 75.7944 61.0938 70.625C61.0938 65.4556 56.8881 61.25 51.7188 61.25Z" fill="#ECB22E"/>
</svg>
