<svg width="80" height="80" viewBox="0 0 80 80" fill="none" xmlns="http://www.w3.org/2000/svg">
<path d="M71.988 49.3498C74.7561 49.3498 77 47.1059 77 44.3379C77 41.5699 74.7561 39.3259 71.988 39.3259C69.22 39.3259 66.9761 41.5699 66.9761 44.3379C66.9761 47.1059 69.22 49.3498 71.988 49.3498Z" fill="#2396FB"/>
<path d="M35.7787 36.1365H11.5766C13.1043 40.2372 16.6958 42.167 20.1532 42.167C23.7447 42.167 26.7465 40.4517 28.7834 38.7095L33.715 44.6595C29.1586 48.6262 24.1735 50.0467 20.0192 50.0467C10.3169 50.0199 3 42.3546 3 33.1883C3 24.1025 10.2365 17 19.4564 17C28.8102 17 35.7787 24.4241 35.7787 36.1365ZM11.657 29.7309H26.6929C26.0496 26.5951 23.2354 23.9149 19.2687 23.9149C15.4361 23.9149 12.3003 26.3539 11.657 29.7309Z" fill="#303F9F"/>
<path d="M67.0297 33.4028C67.0297 42.4886 60.3292 49.8591 52.0475 49.8591C48.4024 49.8591 45.2934 48.653 42.908 46.2141V62.6168C42.908 62.9116 42.6668 63.1528 42.372 63.1528H34.8138V33.4028C34.8138 24.3705 41.4607 17 50.9486 17C60.3828 17 67.0297 24.3705 67.0297 33.4028ZM58.9891 33.4028C58.9891 28.3372 55.3977 24.5581 50.9486 24.5581C46.4995 24.5581 42.908 28.5248 42.908 33.4028C42.908 38.3879 46.4995 42.435 50.9486 42.435C55.3977 42.435 58.9891 38.5219 58.9891 33.4028Z" fill="#303F9F"/>
</svg>
