<svg width="80" height="80" viewBox="0 0 80 80" fill="none" xmlns="http://www.w3.org/2000/svg">
<path d="M29.1671 55.8329C25.1207 51.7494 22.5963 46.1809 22.5963 39.9814C22.5963 33.7819 25.1207 28.2134 29.1671 24.1299C32.6195 20.6775 32.6195 15.109 29.1671 11.6937C25.7146 8.24126 20.1462 8.24126 16.6937 11.6937C9.45476 18.9698 5 28.9559 5 40.0185C5 51.0812 9.49188 61.0673 16.7309 68.3062C20.1833 71.7587 25.7517 71.7587 29.2042 68.3062C32.6195 64.8538 32.6195 59.2854 29.1671 55.8329Z" fill="#FFD75F"/>
<path d="M29.1673 24.1671C33.2508 20.1207 38.8564 17.5963 45.0188 17.5963C51.2183 17.5963 56.8239 20.1207 60.8703 24.1671C64.3227 27.6195 69.8912 27.6195 73.3436 24.1671C76.7961 20.7146 76.7961 15.1462 73.3436 11.7309C66.1046 4.49188 56.0814 0 45.0188 0C33.9561 0 23.9329 4.49188 16.6939 11.7309C13.2415 15.1833 13.2415 20.7517 16.6939 24.1671C20.1464 27.6195 25.752 27.6195 29.1673 24.1671Z" fill="#4FB5E1"/>
<path d="M60.9073 55.8327C56.8237 59.8791 51.2182 62.4035 45.0558 62.4035C38.8562 62.4035 33.2507 59.8791 29.2042 55.8327C25.7518 52.3803 20.1834 52.3803 16.7309 55.8327C13.2785 59.2852 13.2785 64.8536 16.7309 68.2689C23.9699 75.5079 33.9931 79.9998 45.0558 79.9998C56.1184 79.9998 66.1416 75.5079 73.3806 68.2689C76.833 64.8165 76.833 59.2481 73.3806 55.8327C69.9282 52.4174 64.3597 52.4174 60.9073 55.8327Z" fill="#F05751"/>
<path d="M29.1673 24.1671C25.7148 27.6196 20.1464 27.6196 16.6939 24.1671C13.2415 20.7147 13.2415 15.1462 16.6939 11.7309C20.1464 8.27849 25.7148 8.27849 29.1673 11.7309C32.6197 15.1462 32.6197 20.7147 29.1673 24.1671Z" fill="#0681B6"/>
<path d="M29.1673 68.3061C25.7148 71.7586 20.1464 71.7586 16.6939 68.3061C13.2415 64.8908 13.2415 59.2853 16.6939 55.87C20.1464 52.4175 25.7148 52.4175 29.1673 55.87C32.6197 59.2853 32.6197 64.8537 29.1673 68.3061Z" fill="#CD4739"/>
</svg>
