<svg width="80" height="80" viewBox="0 0 80 80" fill="none" xmlns="http://www.w3.org/2000/svg">
<path d="M0 40C0 17.9086 17.9086 0 40 0V0C62.0914 0 80 17.9086 80 40V40C80 62.0914 62.0914 80 40 80V80C17.9086 80 0 62.0914 0 40V40Z" fill="#283341"/>
<rect x="27" y="28" width="26" height="24" rx="2" fill="#F1F6FC" stroke="#151B23"/>
<rect x="31" y="32" width="4" height="4" rx="2" fill="white" stroke="white"/>
<path d="M32 34L33 35L35.5 32.5" stroke="#151B23" stroke-linecap="round" stroke-linejoin="round"/>
<rect x="31" y="38" width="4" height="4" rx="2" fill="#7187A5" stroke="white"/>
<rect x="31" y="44" width="4" height="4" rx="2" fill="#7187A5" stroke="white"/>
<path d="M38 34L49 34" stroke="#151B23" stroke-linecap="round"/>
<path d="M38 40H45" stroke="#7187A5" stroke-linecap="round"/>
<path d="M38 46L49 46" stroke="#7187A5" stroke-linecap="round"/>
</svg>
