<svg width="500" height="116" viewBox="0 0 500 116" fill="none" xmlns="http://www.w3.org/2000/svg">
<path d="M489.148 88.4109C494.842 88.4109 499.458 83.7966 499.458 78.1046C499.458 72.4125 494.842 67.7982 489.148 67.7982C483.454 67.7982 478.838 72.4125 478.838 78.1046C478.838 83.7966 483.454 88.4109 489.148 88.4109Z" fill="#2396FB"/>
<path d="M456.935 87.1288H468.906V69.9023H457.461C452.726 69.9023 449 66.3517 449 61.6177V36H469V21H453.995C451.236 21 449 18.7526 449 15.9967V0H432.072V61.4862C432.072 78.4498 441.675 87.1288 456.935 87.1288Z" fill="#303F9F"/>
<path d="M183.774 26.3757L176.539 38.6052C172.855 36.7642 168.646 34.3972 164.699 34.3972C161.147 34.3972 158.516 36.1067 158.516 38.7367C158.516 41.7612 162.068 42.9447 168.646 45.4432C178.775 49.1252 187.72 56.0947 187.72 67.1407C187.72 78.3183 178.38 88.1808 163.778 88.1808C154.175 88.1808 146.151 84.1043 141.152 80.8168L147.598 67.2722C150.887 69.2448 158.516 72.2692 163.647 72.2692C168.12 72.2692 170.093 69.7708 170.093 67.2722C170.093 64.1162 166.936 62.2752 158.78 58.9877C153.254 56.7522 141.678 52.0182 141.678 39.3942C141.678 27.8222 151.544 20.3267 164.041 20.3267C171.014 20.3267 177.196 22.6937 183.774 26.3757Z" fill="#303F9F"/>
<path d="M349.065 20.3267C367.745 20.3267 383.005 35.5807 383.005 54.2537C383.005 72.9268 367.745 88.1808 349.065 88.1808C330.385 88.1808 315.125 72.9268 315.125 54.2537C315.125 35.5807 330.385 20.3267 349.065 20.3267ZM349.065 37.6847C339.857 37.6847 332.358 45.0487 332.358 54.2537C332.358 63.4587 339.857 70.9543 349.065 70.9543C358.274 70.9543 365.64 63.4587 365.64 54.2537C365.64 45.0487 358.274 37.6847 349.065 37.6847Z" fill="#303F9F"/>
<path d="M312.192 54.1431C312.192 72.8013 298.427 87.9532 281.409 87.9532C273.901 87.9532 267.519 85.4488 262.639 80.4399V113.255C262.639 114.358 261.744 115.252 260.632 115.252H245.996V54.1431C245.996 35.6101 259.636 20.4582 279.157 20.4582C298.552 20.4582 312.192 35.6101 312.192 54.1431ZM295.674 54.1431C295.674 43.7496 288.291 35.9858 279.157 35.9858C270.022 35.9858 262.639 44.1253 262.639 54.1431C262.639 64.4114 270.022 72.6761 279.157 72.6761C288.291 72.6761 295.674 64.6618 295.674 54.1431Z" fill="#303F9F"/>
<path d="M250.93 21L223.699 87.3918C217.253 102.777 206.335 111.851 192.39 114.612L186.865 99.2268C196.995 97.2543 204.624 90.5478 208.439 79.7648L184.366 21H203.177L215.763 51.9822C216.804 54.544 218.481 54.5516 219.515 51.9822L231.987 21H250.93Z" fill="#303F9F"/>
<path d="M426.087 26.3757L418.852 38.6052C415.168 36.7642 410.959 34.3972 407.012 34.3972C403.461 34.3972 400.83 36.1067 400.83 38.7367C400.83 41.7612 404.381 42.9447 410.959 45.4432C421.088 49.1252 430.033 56.0947 430.033 67.1407C430.033 78.3183 420.693 88.1808 406.091 88.1808C396.488 88.1808 388.464 84.1043 383.465 80.8168L389.911 67.2722C393.2 69.2448 400.83 72.2692 405.96 72.2692C410.433 72.2692 412.406 69.7708 412.406 67.2722C412.406 64.1162 409.249 62.2752 401.093 58.9877C395.568 56.7522 383.991 52.0182 383.991 39.3942C383.991 27.8222 393.857 20.3267 406.355 20.3267C413.327 20.3267 419.509 22.6937 426.087 26.3757Z" fill="#303F9F"/>
<path d="M138 21V87H123.064V81.4743C117.67 85.5508 111.093 88.1808 103.595 88.1808C84.9148 88.1808 69.6552 72.9268 69.6552 54.1222C69.6552 35.4492 84.9148 20.3267 103.595 20.3267C110.962 20.3267 117.539 22.8252 122.932 27.0332V21H138ZM103.989 70.9543C113.198 70.9543 120.565 63.4587 120.565 54.1222C120.565 44.9172 113.198 37.5532 103.989 37.5532C94.781 37.5532 87.4143 44.9172 87.4143 54.1222C87.4143 63.4587 94.781 70.9543 103.989 70.9543Z" fill="#303F9F"/>
<path d="M67.353 60H17.6276C20.7847 68.416 28.1515 72.0062 35.2551 72.0062C42.6218 72.0062 48.8046 68.4557 53.0142 64.9052L63.1435 77.1348C53.8035 85.2878 43.5427 88.1808 34.992 88.1808C14.9966 88.1808 0 72.4008 0 53.5962C0 34.9232 14.865 20.3267 33.8081 20.3267C53.0142 20.3267 67.353 35.9355 67.353 60ZM17.7591 46.4952H48.6731C47.3576 40.0517 41.5695 34.5287 33.4134 34.5287C25.5205 34.5287 19.0746 39.5257 17.7591 46.4952Z" fill="#303F9F"/>
</svg>
