<svg width="80" height="32" viewBox="0 0 80 32" fill="none" xmlns="http://www.w3.org/2000/svg">
<path d="M10.3643 6.99667C4.72547 6.99667 0.0266113 9.38251 0.0266113 16.5805C0.0266113 22.2829 3.18625 25.8739 10.5099 25.8739C19.1302 25.8739 19.6828 20.2107 19.6828 20.2107H15.5059C15.5059 20.2107 14.6103 23.2601 10.2551 23.2601C6.70795 23.2601 4.15668 20.8704 4.15668 17.5207H20.1196V15.4188C20.1196 12.105 18.0103 6.99667 10.3643 6.99667V6.99667ZM10.2187 9.68304C13.5953 9.68304 15.8972 11.746 15.8972 14.838H4.24906C4.24906 11.5555 7.25365 9.68304 10.2187 9.68304V9.68304Z" fill="#E53238"/>
<path d="M20.1167 0.0266171V22.2591C20.1167 23.5211 20.0264 25.2931 20.0264 25.2931H24.0103C24.0103 25.2931 24.1533 24.0204 24.1533 22.8573C24.1533 22.8573 26.1216 25.9284 31.4736 25.9284C37.1095 25.9284 40.9377 22.0261 40.9377 16.4353C40.9377 11.2342 37.4214 7.05112 31.4827 7.05112C25.9216 7.05112 24.1935 10.0461 24.1935 10.0461V0.0266171H20.1167ZM30.4544 9.80103C34.2816 9.80103 36.7153 12.6338 36.7153 16.4353C36.7153 20.5117 33.9045 23.1784 30.4817 23.1784C26.3969 23.1784 24.1935 19.9977 24.1935 16.4716C24.1935 13.186 26.1707 9.80103 30.4544 9.80103Z" fill="#0064D2"/>
<path d="M50.8387 6.99667C42.3555 6.99667 41.8114 11.6292 41.8114 12.3694H46.0338C46.0338 12.3694 46.2553 9.66489 50.5475 9.66489C53.3367 9.66489 55.498 10.9381 55.498 13.3859V14.2571H50.5475C43.9754 14.2571 40.501 16.1746 40.501 20.0655C40.501 23.8948 43.7112 25.9783 48.0495 25.9783C53.9619 25.9783 55.8665 22.7201 55.8665 22.7201C55.8665 24.016 55.9667 25.2931 55.9667 25.2931H59.7204C59.7204 25.2931 59.5748 23.7102 59.5748 22.6974V13.944C59.5748 8.20454 54.9328 6.99667 50.8387 6.99667V6.99667ZM55.498 16.8709V18.0326C55.498 19.5477 54.5605 23.3146 49.0414 23.3146C46.0192 23.3146 44.7234 21.8103 44.7234 20.0655C44.7234 16.8914 49.0871 16.8709 55.498 16.8709V16.8709Z" fill="#F5AF02"/>
<path d="M57.3013 7.72345H62.0515L68.8688 21.3446L75.6705 7.72345H79.9736L67.5844 31.9734H63.0707L66.6458 25.2134L57.3013 7.72345Z" fill="#86B817"/>
</svg>
