<svg width="80" height="80" viewBox="0 0 80 80" fill="none" xmlns="http://www.w3.org/2000/svg">
<rect width="80" height="80" rx="40" fill="#283341"/>
<path d="M40 24C31.2 24 24 31.2 24 40C24 48.8 31.2 56 40 56C48.8 56 56 48.8 56 40C56 31.2 48.8 24 40 24ZM31.0857 48.9143C28.6857 46.5143 27.4286 43.3143 27.4286 40.2286L39.8857 52.5714C36.6857 52.4571 33.4857 51.3143 31.0857 48.9143ZM42.7429 52.2286L27.7714 37.2571C29.0286 31.6571 34.0571 27.4286 40 27.4286C44.2286 27.4286 47.8857 29.4857 50.1714 32.5714L48.4571 34.0571C46.5143 31.4286 43.4286 29.7143 40 29.7143C35.5429 29.7143 31.7714 32.5714 30.2857 36.5714L43.4286 49.7143C46.7429 48.5714 49.2571 45.7143 50.0571 42.2857H44.5714V40H52.5714C52.5714 45.9429 48.3429 50.9714 42.7429 52.2286Z" fill="white"/>
</svg>
