<svg width="80" height="80" viewBox="0 0 80 80" fill="none" xmlns="http://www.w3.org/2000/svg">
<rect width="80" height="80" rx="40" fill="#283341"/>
<path d="M36.8065 33.9994L32.2555 34.4438C31.8969 34.4786 31.5659 34.6515 31.3324 34.9259L27.5956 39.3186C27.5184 39.4099 27.4673 39.5204 27.4476 39.6383C27.4279 39.7562 27.4404 39.8773 27.4838 39.9887C27.5271 40.1001 27.5997 40.1977 27.694 40.2713C27.7882 40.3449 27.9005 40.3917 28.0191 40.4068L33.2363 41.1366" fill="#7187A5" stroke="#151B23" stroke-miterlimit="10" stroke-linecap="round" stroke-linejoin="round"/>
<path d="M46.7027 42.2305V46.5755C46.701 46.7521 46.6645 46.9266 46.5953 47.089C46.5261 47.2515 46.4255 47.3987 46.2993 47.5222L42.1868 51.5643C42.1009 51.6484 41.9944 51.7083 41.878 51.7381C41.7616 51.7678 41.6394 51.7664 41.5237 51.734C41.408 51.7015 41.303 51.6391 41.219 51.5532C41.1351 51.4672 41.0754 51.3606 41.0457 51.2442L39.8325 46.34" fill="#7187A5" stroke="#151B23" stroke-miterlimit="10" stroke-linecap="round" stroke-linejoin="round"/>
<path d="M53.102 32.765L54.0228 28.4156C54.0885 28.0866 54.0712 27.7463 53.9724 27.4256C53.8737 27.1049 53.6966 26.8139 53.4571 26.5788C53.2177 26.3436 52.9235 26.1719 52.601 26.079C52.2786 25.9861 51.9381 25.9749 51.6103 26.0466L47.1831 26.9517C44.5513 27.4872 42.1306 28.7728 40.213 30.6533L36.8038 34.0005C34.9144 35.8518 33.6798 38.2685 33.2873 40.8845L33.2364 41.2306C33.1449 41.8498 33.2015 42.4818 33.4014 43.0749C33.6013 43.668 33.939 44.2052 34.3867 44.6426L35.0983 45.3422C35.5513 45.785 36.1003 46.1173 36.7027 46.3132C37.3051 46.5092 37.9445 46.5636 38.5713 46.4721L38.9239 46.4221C41.567 46.0447 44.0208 44.8339 45.9283 42.9658L49.3375 39.6158C51.2395 37.7537 52.5494 35.3714 53.1029 32.7678L53.102 32.765Z" fill="#D6E4F7" stroke="#151B23" stroke-miterlimit="10" stroke-linecap="round" stroke-linejoin="round"/>
<path d="M54.0228 28.4156L53.102 32.765C53.102 32.765 50.4831 31.9169 49.2771 30.7304C48.0744 29.5472 47.1831 26.9517 47.1831 26.9517L51.6102 26.0466C51.9381 25.9749 52.2786 25.9861 52.601 26.079C52.9235 26.1719 53.2177 26.3436 53.4571 26.5788C53.6965 26.8139 53.8736 27.1049 53.9724 27.4256C54.0711 27.7463 54.0885 28.0866 54.0228 28.4156Z" fill="#7187A5"/>
<path d="M53.102 32.765L54.0228 28.4156C54.0885 28.0866 54.0711 27.7463 53.9724 27.4256C53.8736 27.1049 53.6965 26.8139 53.4571 26.5788C53.2177 26.3436 52.9235 26.1719 52.601 26.079C52.2786 25.9861 51.9381 25.9749 51.6102 26.0466L47.1831 26.9517C47.1831 26.9517 48.0744 29.5472 49.2771 30.7304C50.4831 31.9169 53.102 32.765 53.102 32.765ZM53.102 32.765L53.1029 32.7678" stroke="#151B23" stroke-miterlimit="10" stroke-linecap="round" stroke-linejoin="round"/>
<path d="M43.5241 36.4062L33.1938 46.5588" stroke="#7187A5" stroke-miterlimit="10" stroke-linecap="round" stroke-linejoin="round"/>
<path d="M30.4776 49.5195L25.9976 53.9995" stroke="#D6E4F7" stroke-miterlimit="10" stroke-linecap="round" stroke-linejoin="round"/>
<path d="M34.9575 49.5195L30.4775 53.9995" stroke="#D6E4F7" stroke-miterlimit="10" stroke-linecap="round" stroke-linejoin="round"/>
<path d="M30.4776 45.0391L25.9976 49.5191" stroke="#D6E4F7" stroke-miterlimit="10" stroke-linecap="round" stroke-linejoin="round"/>
</svg>
