<svg width="538" height="400" viewBox="0 0 538 400" fill="none" xmlns="http://www.w3.org/2000/svg">
<rect width="528" height="400" transform="translate(5)" fill="#151B23"/>
<circle opacity="0.2" r="200" transform="matrix(0.866025 0.5 -0.866025 0.5 269 210)" fill="#41546C"/>
<rect x="0.866025" width="63" height="63" rx="11.5" transform="matrix(0.866025 -0.5 0.866025 0.5 71.6904 88.433)" fill="#151B23"/>
<rect x="0.866025" width="63" height="63" rx="11.5" transform="matrix(0.866025 -0.5 0.866025 0.5 71.6904 88.433)" stroke="#85E0CE"/>
<g filter="url(#filter0_d)">
<rect width="64" height="64" rx="12" transform="matrix(0.866025 -0.5 0.866025 0.5 213.574 88)" fill="#D6E4F7"/>
</g>
<g filter="url(#filter1_ii)">
<path fill-rule="evenodd" clip-rule="evenodd" d="M318.34 57.9999H219.664V87.8578C219.6 90.0765 221.034 92.3069 223.967 93.9999L258.608 114C264.347 117.314 273.653 117.314 279.392 114L314.033 93.9999C316.903 92.3431 318.338 90.1715 318.338 87.9999H318.34V57.9999Z" fill="url(#paint0_linear)"/>
<path fill-rule="evenodd" clip-rule="evenodd" d="M318.34 57.9999H219.664V87.8578C219.6 90.0765 221.034 92.3069 223.967 93.9999L258.608 114C264.347 117.314 273.653 117.314 279.392 114L314.033 93.9999C316.903 92.3431 318.338 90.1715 318.338 87.9999H318.34V57.9999Z" fill="#41546C" fill-opacity="0.6"/>
</g>
<rect x="0.433013" width="63.5" height="63.5" rx="11.75" transform="matrix(0.866025 -0.5 0.866025 0.5 213.632 58.2165)" fill="#41546C"/>
<g clip-path="url(#clip0)">
<path d="M256.876 51L294.492 56.882L267.064 72.7179L256.876 51Z" fill="white"/>
</g>
<rect x="0.433013" width="63.5" height="63.5" rx="11.75" transform="matrix(0.866025 -0.5 0.866025 0.5 213.632 58.2165)" stroke="#7187A5" stroke-width="0.5"/>
<rect x="0.866025" width="63" height="63" rx="11.5" transform="matrix(0.866025 -0.5 0.866025 0.5 355.69 88.433)" fill="#151B23"/>
<rect x="0.866025" width="63" height="63" rx="11.5" transform="matrix(0.866025 -0.5 0.866025 0.5 355.69 88.433)" stroke="#85E0CE"/>
<g filter="url(#filter2_d)">
<rect width="64" height="64" rx="12" transform="matrix(0.866025 -0.5 0.866025 0.5 0.574341 129)" fill="#D6E4F7"/>
</g>
<g filter="url(#filter3_ii)">
<path fill-rule="evenodd" clip-rule="evenodd" d="M6.66416 128.858C6.60017 131.076 8.03436 133.307 10.9667 135L45.6078 155C51.3473 158.314 60.6529 158.314 66.3924 155L101.033 135C103.903 133.343 105.338 131.172 105.338 129H105.34V127H104.926C104.313 125.534 103.015 124.144 101.033 123L66.3924 103C60.6529 99.6862 51.3473 99.6862 45.6078 103L10.9667 123C8.98471 124.144 7.68713 125.534 7.07401 127H6.66416L6.66416 128.858Z" fill="url(#paint1_linear)"/>
<path fill-rule="evenodd" clip-rule="evenodd" d="M6.66416 128.858C6.60017 131.076 8.03436 133.307 10.9667 135L45.6078 155C51.3473 158.314 60.6529 158.314 66.3924 155L101.033 135C103.903 133.343 105.338 131.172 105.338 129H105.34V127H104.926C104.313 125.534 103.015 124.144 101.033 123L66.3924 103C60.6529 99.6862 51.3473 99.6862 45.6078 103L10.9667 123C8.98471 124.144 7.68713 125.534 7.07401 127H6.66416L6.66416 128.858Z" fill="#41546C" fill-opacity="0.6"/>
</g>
<rect x="0.433013" width="63.5" height="63.5" rx="11.75" transform="matrix(0.866025 -0.5 0.866025 0.5 0.632354 127.217)" fill="#41546C"/>
<path d="M61.7745 122.706L65.2298 124.701L64.1275 125.338L60.1312 123.03L61.7745 122.706Z" fill="white"/>
<path d="M48.9886 133.337L50.5419 133.279L52.1927 130.211L50.9594 129.914L48.9886 133.337ZM61.2598 123.682L62.5927 121.216L61.291 121.013L60.1313 123.03L61.2598 123.682Z" fill="#F1F6FC"/>
<path d="M52.5178 127.738L56.2436 129.889L55.1873 130.499L49.8769 127.433L52.5178 127.738ZM48.9887 133.337L50.5419 133.279L48.1145 130.04L46.2258 129.541L48.9887 133.337Z" fill="white"/>
<path d="M46.2257 129.541L47.3126 128.914L54.6362 130.818L53.5186 131.463L46.2257 129.541ZM51.0939 126.731L57.0385 127.485L58.7236 128.458L49.8769 127.433L51.0939 126.731ZM55.4033 124.243L56.4979 123.611L61.8083 126.677L60.7138 127.309L55.4033 124.243ZM59.7912 122.834L58.1072 123.806L57.1332 123.244L61.0599 120.977L62.5927 121.217L60.8934 122.198L59.7912 122.834Z" fill="white"/>
<path d="M68.1495 120.686L70.167 121.851L69.0801 122.478L67.0626 121.314" fill="white"/>
<path d="M65.6067 118.352L67.0626 121.314L68.1495 120.686L66.7625 117.684L65.6067 118.352Z" fill="white"/>
<path d="M67.0626 121.314L61.8714 120.508L63.0655 119.819L66.6009 120.384L67.0626 121.314Z" fill="white"/>
<path d="M40.8584 133.354C41.5927 133.778 42.485 133.772 43.6201 133.384L44.801 132.961C45.8593 132.582 46.8745 132.567 47.6784 133.032C48.0339 133.228 48.2592 133.491 48.3308 133.771C47.5269 133.306 46.6807 133.295 45.4305 133.714L44.2725 134.132C43.3447 134.471 42.3533 134.571 41.4798 134.067C41.1474 133.875 40.9222 133.621 40.8584 133.354Z" fill="white"/>
<path d="M56.7679 127.329L53.4132 125.392L54.4695 124.782L59.7799 127.848L58.7236 128.458L56.7679 127.329Z" fill="white"/>
<path d="M46.5742 133.437C47.2427 133.355 47.7975 133.463 48.3308 133.771C48.427 134.224 48.0772 134.703 47.3807 135.105C46.2096 135.781 44.7878 135.923 43.5991 135.44L44.7243 134.791C45.3335 134.975 45.9327 134.879 46.4532 134.578C47.0809 134.225 47.1618 133.785 46.5742 133.437ZM40.8507 133.35C40.7469 132.91 41.0506 132.431 41.7394 132.033C42.9412 131.339 44.2717 131.312 45.3444 131.728L44.2575 132.356C43.7794 132.221 43.2026 132.233 42.6592 132.547C42.0775 132.891 42.0196 133.318 42.5377 133.643C41.9236 133.744 41.2837 133.617 40.8507 133.35Z" fill="white"/>
<rect x="0.433013" width="63.5" height="63.5" rx="11.75" transform="matrix(0.866025 -0.5 0.866025 0.5 0.632354 127.217)" stroke="#7187A5" stroke-width="0.5"/>
<g filter="url(#filter4_d)">
<rect width="64" height="64" rx="12" transform="matrix(0.866025 -0.5 0.866025 0.5 142.574 129)" fill="#D6E4F7"/>
</g>
<g filter="url(#filter5_ii)">
<path fill-rule="evenodd" clip-rule="evenodd" d="M148.664 128.858C148.6 131.077 150.034 133.307 152.967 135L187.608 155C193.347 158.314 202.653 158.314 208.392 155L243.033 135C245.903 133.343 247.338 131.172 247.338 129H247.34V101H202.909C199.739 100.353 196.261 100.353 193.091 101H148.664V128.858Z" fill="url(#paint2_linear)"/>
<path fill-rule="evenodd" clip-rule="evenodd" d="M148.664 128.858C148.6 131.077 150.034 133.307 152.967 135L187.608 155C193.347 158.314 202.653 158.314 208.392 155L243.033 135C245.903 133.343 247.338 131.172 247.338 129H247.34V101H202.909C199.739 100.353 196.261 100.353 193.091 101H148.664V128.858Z" fill="#41546C" fill-opacity="0.6"/>
</g>
<rect x="0.433013" width="63.5" height="63.5" rx="11.75" transform="matrix(0.866025 -0.5 0.866025 0.5 142.632 101.217)" fill="#41546C"/>
<g clip-path="url(#clip1)">
<path d="M199.887 95.2184L199.873 95.2216C199.866 95.2236 199.858 95.2256 199.848 95.2256C199.832 95.2253 199.816 95.2227 199.801 95.2182C199.787 95.2137 199.774 95.2074 199.765 95.1996L197.026 93L202.049 93.0004L200.549 95.15C200.545 95.1559 200.538 95.1612 200.53 95.1656L200.52 95.1716C200.514 95.1724 200.508 95.1728 200.494 95.1728C200.289 95.1664 200.083 95.1819 199.887 95.2184ZM203.331 93H208.701C209.817 93.0004 210.375 93 210.8 93.1276C210.863 93.1464 210.923 93.1668 210.982 93.1896L201.846 95.3256C201.842 95.3268 201.837 95.328 201.832 95.3292C201.796 95.338 201.754 95.3484 201.728 95.3332C201.702 95.318 201.72 95.2932 201.735 95.2724L201.74 95.2656L203.331 93ZM211.734 93.7504C211.856 93.9808 211.856 94.2928 211.857 94.8212L211.856 98.3168L207.125 100.107L207.1 100.116C207.06 100.133 207.017 100.151 206.986 100.133C206.809 100.048 206.605 99.9853 206.384 99.9483C206.164 99.9113 205.933 99.9008 205.706 99.9176C205.674 99.9176 205.653 99.9008 205.635 99.8848C205.631 99.8828 205.628 99.8808 205.627 99.8784L201.842 96.8428L201.829 96.8324C201.799 96.81 201.765 96.7832 201.796 96.7652C201.934 96.6627 202.036 96.5454 202.094 96.4201C202.153 96.2948 202.168 96.1639 202.139 96.0352C202.138 96.0276 202.135 96.0208 202.139 96.0136C202.151 95.9948 202.187 95.9856 202.22 95.978L211.734 93.7508L211.734 93.7504ZM211.856 99.1208L211.856 104.87L207.471 101.354L207.465 101.349C207.459 101.344 207.453 101.34 207.449 101.335C207.44 101.321 207.451 101.307 207.461 101.293L207.466 101.286C207.573 101.132 207.615 100.966 207.589 100.801C207.587 100.78 207.588 100.758 207.61 100.741C207.616 100.737 207.622 100.733 207.63 100.73L211.856 99.1216L211.856 99.1208ZM211.856 106.086L211.856 106.734L196.686 105.14C196.68 105.139 196.675 105.138 196.669 105.138C196.646 105.136 196.623 105.134 196.609 105.124C196.599 105.118 196.596 105.108 196.596 105.099L196.594 105.09C196.585 105.063 196.573 105.038 196.56 105.01L196.55 104.988L196.55 104.986C196.543 104.971 196.536 104.956 196.544 104.942C196.551 104.929 196.574 104.919 196.594 104.912L204.885 101.762C204.907 101.753 204.933 101.747 204.96 101.745C204.978 101.745 204.99 101.749 205.003 101.754C205.232 101.831 205.489 101.877 205.754 101.887C206.019 101.897 206.284 101.872 206.529 101.813C206.558 101.808 206.572 101.825 206.585 101.843C206.591 101.852 206.598 101.86 206.606 101.867C207.046 102.221 210.833 105.265 211.856 106.086ZM211.856 107.44C211.852 107.915 211.824 108.181 211.636 108.39C211.45 108.597 211.158 108.765 210.801 108.873C210.375 109 209.817 109 208.701 109L196.24 109L195.344 106.603C195.339 106.592 195.335 106.581 195.339 106.568C195.344 106.551 195.374 106.54 195.402 106.532C195.888 106.381 196.269 106.138 196.479 105.844C196.491 105.829 196.505 105.815 196.533 105.814C196.546 105.814 196.56 105.815 196.574 105.816L211.856 107.44L211.856 107.44ZM195.039 109L192.18 109L193.799 106.675C193.803 106.669 193.809 106.664 193.817 106.659C193.84 106.646 193.878 106.651 193.912 106.656C193.984 106.665 194.056 106.672 194.129 106.678L194.149 106.679C194.169 106.681 194.176 106.691 194.178 106.702L195.04 109L195.039 109ZM190.915 109L187.299 109C186.683 109 186.237 109 185.89 108.979L192.529 106.463C192.537 106.46 192.545 106.456 192.553 106.453C192.592 106.436 192.636 106.418 192.668 106.437C192.703 106.457 192.678 106.49 192.656 106.517L192.647 106.53L190.915 109ZM184.644 108.624C184.534 108.554 184.44 108.475 184.364 108.39C184.144 108.145 184.144 107.823 184.144 107.178L184.144 104.506C186.755 104.784 189.368 105.059 191.981 105.331C192.025 105.334 192.074 105.338 192.073 105.363C192.083 105.486 192.104 105.614 192.165 105.732C192.174 105.746 192.177 105.762 192.173 105.777C192.17 105.785 192.158 105.79 192.146 105.794L192.144 105.795L184.644 108.624L184.644 108.624ZM184.144 103.791L184.144 100.198C184.564 100.104 186.078 99.7488 187.432 99.4312C188.457 99.1912 189.391 98.972 189.688 98.9048C189.717 98.8976 189.744 98.8916 189.773 98.8984C189.791 98.9024 189.805 98.9132 189.815 98.9224C189.99 99.0805 190.231 99.211 190.515 99.3021C190.8 99.3932 191.119 99.4421 191.444 99.4444C191.485 99.4444 191.494 99.4736 191.502 99.4988L191.507 99.5128L193.241 104.162C193.247 104.175 193.251 104.186 193.246 104.199C193.24 104.215 193.211 104.226 193.187 104.234C193.032 104.286 192.888 104.349 192.759 104.422C192.646 104.487 192.543 104.57 192.441 104.656L192.441 104.656C192.429 104.665 192.419 104.674 192.4 104.676C192.378 104.677 192.355 104.676 192.333 104.673L184.144 103.791ZM184.144 99.4728L184.144 94.8216C184.144 94.1776 184.144 93.8552 184.365 93.61C184.55 93.4034 184.842 93.2349 185.2 93.1276C185.625 93 186.183 93 187.299 93L189.045 93L190.617 97.2156C190.622 97.2272 190.624 97.2393 190.621 97.2512C190.616 97.268 190.587 97.2792 190.559 97.2872C190.265 97.378 190.013 97.5089 189.826 97.6685C189.639 97.8281 189.522 98.0116 189.485 98.2032C189.486 98.2252 189.447 98.2348 189.413 98.2424C188.876 98.3644 184.737 99.3344 184.144 99.4728ZM190.261 93L195.552 93L198.862 95.6472L198.872 95.6532C198.881 95.6587 198.888 95.6649 198.893 95.6716C198.9 95.6836 198.889 95.6932 198.879 95.7036C198.784 95.8061 198.72 95.9171 198.689 96.032C198.687 96.0369 198.687 96.0418 198.687 96.0468C198.687 96.056 198.687 96.0648 198.676 96.0728C198.666 96.0788 198.655 96.0837 198.642 96.0872L192.898 97.4256L192.887 97.428C192.851 97.4368 192.808 97.4472 192.782 97.432C192.533 97.316 192.243 97.2333 191.933 97.19C191.882 97.1828 191.827 97.176 191.811 97.1476L190.261 93ZM193.499 98.0152L198.878 96.7576C198.909 96.7512 198.941 96.7432 198.971 96.7504C198.988 96.7558 199.001 96.7637 199.011 96.7732C199.055 96.8116 199.108 96.8536 199.172 96.8904L199.278 96.9516C199.305 96.9668 199.289 96.9888 199.274 97.0092L199.269 97.0152C198.926 97.5084 194.449 103.936 194.437 103.943C194.426 103.95 194.413 103.957 194.39 103.957C194.348 103.957 194.34 103.928 194.332 103.902C194.331 103.898 194.33 103.893 194.328 103.889L192.625 99.32L192.622 99.312C192.611 99.2848 192.599 99.254 192.633 99.2348L192.669 99.2196C192.749 99.1844 192.82 99.1536 192.883 99.1172C193.355 98.8452 193.562 98.4608 193.433 98.0824C193.429 98.0727 193.427 98.0627 193.429 98.0528C193.434 98.034 193.468 98.022 193.499 98.0152ZM195.536 104.188L200.415 97.1808C200.415 97.1808 200.428 97.1736 200.451 97.1736C200.544 97.1736 200.615 97.1688 200.682 97.1636L200.712 97.1596C200.739 97.1552 200.768 97.1516 200.787 97.1612C200.794 97.1652 200.798 97.1676 200.803 97.172L204.551 100.178L204.567 100.19C204.596 100.212 204.631 100.238 204.598 100.257C204.417 100.377 204.289 100.52 204.226 100.675C204.162 100.829 204.165 100.991 204.234 101.145L204.236 101.15C204.242 101.165 204.249 101.179 204.241 101.193C204.233 101.205 204.212 101.214 204.193 101.221L196.009 104.33C196 104.334 195.544 104.184 195.536 104.188Z" fill="white"/>
</g>
<rect x="0.433013" width="63.5" height="63.5" rx="11.75" transform="matrix(0.866025 -0.5 0.866025 0.5 142.632 101.217)" stroke="#7187A5" stroke-width="0.5"/>
<rect x="0.866025" width="63" height="63" rx="11.5" transform="matrix(0.866025 -0.5 0.866025 0.5 284.69 129.433)" fill="#151B23"/>
<rect x="0.866025" width="63" height="63" rx="11.5" transform="matrix(0.866025 -0.5 0.866025 0.5 284.69 129.433)" stroke="#F9A86C"/>
<g filter="url(#filter6_d)">
<rect width="64" height="64" rx="12" transform="matrix(0.866025 -0.5 0.866025 0.5 426.574 129)" fill="#D6E4F7"/>
</g>
<g filter="url(#filter7_ii)">
<path fill-rule="evenodd" clip-rule="evenodd" d="M432.664 128.858C432.6 131.077 434.034 133.307 436.967 135L471.608 155C477.347 158.314 486.653 158.314 492.392 155L527.033 135C529.903 133.343 531.338 131.172 531.338 129H531.34V101H486.909C483.739 100.353 480.261 100.353 477.091 101H432.664V128.858Z" fill="url(#paint3_linear)"/>
<path fill-rule="evenodd" clip-rule="evenodd" d="M432.664 128.858C432.6 131.077 434.034 133.307 436.967 135L471.608 155C477.347 158.314 486.653 158.314 492.392 155L527.033 135C529.903 133.343 531.338 131.172 531.338 129H531.34V101H486.909C483.739 100.353 480.261 100.353 477.091 101H432.664V128.858Z" fill="#41546C" fill-opacity="0.6"/>
</g>
<rect x="0.433013" width="63.5" height="63.5" rx="11.75" transform="matrix(0.866025 -0.5 0.866025 0.5 426.632 101.217)" fill="#41546C"/>
<path d="M503.262 103.98C503.708 104.114 504.017 104.191 504.137 104.219C504.154 104.209 504.119 104.23 504.137 104.219C496.378 100.353 497.882 96.1742 494.671 92.5427C494.621 92.4933 494.554 92.4341 494.487 92.3749C494.42 92.2957 494.319 92.2169 494.235 92.1479C493.159 91.2409 491.085 90.636 488.448 90.278C488.431 90.2682 488.413 90.2784 488.396 90.2686C488.172 90.2413 487.948 90.214 487.724 90.1867C487.31 90.1318 486.861 90.0972 486.429 90.0524C486.395 90.0529 486.343 90.0435 486.292 90.0341C486.171 90.0256 486.05 90.0171 485.929 90.0085C485.808 90 485.687 89.9915 485.549 89.9731C485.428 89.9646 485.307 89.9561 485.168 89.9578C485.047 89.9492 484.909 89.9509 484.771 89.9326C484.685 89.9236 484.581 89.9249 484.494 89.9159C480.949 89.749 476.926 89.8779 473.016 90.1954C473.016 90.1954 472.982 90.1958 473.016 90.1954C475.943 91.6401 478.622 93.2477 480.422 94.6961C482.628 96.4395 484.534 98.8067 485.797 101.212C482.274 102.835 478.274 104.223 474.659 105.018C471.638 105.684 467.824 106.221 463.88 106.539C464.119 106.656 464.374 106.783 464.612 106.9C464.68 106.939 464.766 106.968 464.833 107.007C465.021 107.095 465.191 107.173 465.362 107.251C465.429 107.29 465.532 107.329 465.6 107.368C465.787 107.456 465.958 107.534 466.128 107.612C466.196 107.651 466.281 107.68 466.349 107.719C466.588 107.816 466.809 107.923 467.048 108.02C467.065 108.03 467.082 108.04 467.116 108.06C467.389 108.176 467.662 108.293 467.918 108.4C467.935 108.41 467.952 108.419 467.987 108.419C468.226 108.516 468.465 108.613 468.721 108.72C468.771 108.75 468.823 108.759 468.857 108.779C469.079 108.866 469.301 108.953 469.523 109.04C469.575 109.05 469.609 109.069 469.643 109.089C469.916 109.186 470.155 109.283 470.429 109.38C471.267 109.679 472.123 109.949 472.945 110.199C472.962 110.209 472.962 110.209 472.962 110.209C474.351 110.622 475.742 110.955 477.049 111.199C477.239 111.227 477.445 111.265 477.617 111.302L477.634 111.312C477.789 111.34 477.978 111.368 478.151 111.386C478.151 111.386 478.151 111.386 478.168 111.396C478.358 111.423 478.53 111.441 478.703 111.459C478.737 111.459 478.754 111.469 478.772 111.458C478.996 111.486 479.238 111.503 479.445 111.52C479.48 111.52 479.515 111.519 479.566 111.529L479.601 111.528C479.843 111.545 480.102 111.552 480.344 111.569C480.518 111.567 480.673 111.575 480.847 111.573C480.916 111.572 480.985 111.572 481.055 111.571C481.159 111.569 481.263 111.568 481.366 111.567C481.436 111.566 481.505 111.565 481.592 111.554C481.696 111.553 481.783 111.542 481.87 111.531C481.939 111.53 482.027 111.519 482.079 111.508C482.166 111.497 482.27 111.496 482.357 111.485C482.426 111.484 482.496 111.463 482.566 111.462C482.653 111.451 482.74 111.44 482.844 111.419C482.897 111.408 482.984 111.397 483.036 111.387C483.141 111.365 483.228 111.354 483.316 111.323C483.368 111.313 483.42 111.302 483.473 111.291C483.63 111.259 483.77 111.218 483.892 111.186C483.98 111.155 484.067 111.144 484.137 111.123C490.535 109.075 493.64 105.147 504.015 104.231" fill="white"/>
<g opacity="0.7">
<path opacity="0.51" d="M480.422 94.6961C482.628 96.4395 484.534 98.8067 485.797 101.212C492.035 98.3355 496.67 94.7187 494.47 92.3651C492.069 89.7939 482.173 89.4341 473.016 90.1954C475.959 91.6699 478.587 93.2482 480.422 94.6961Z" fill="url(#paint4_linear)"/>
<path opacity="0.51" d="M474.659 105.018C471.638 105.684 467.824 106.221 463.88 106.539C470.738 109.926 479.354 112.592 483.979 111.175C488.201 109.874 488.05 105.475 485.798 101.212C482.291 102.845 478.274 104.223 474.659 105.018Z" fill="url(#paint5_linear)"/>
<path opacity="0.7" d="M485.141 105.92C473.942 108.997 463.88 106.539 463.88 106.539C468.083 108.618 472.937 110.419 477.154 111.178C477.343 111.206 477.515 111.244 477.705 111.271C477.722 111.281 477.739 111.271 477.756 111.281C477.929 111.299 478.101 111.337 478.273 111.354C478.29 111.364 478.325 111.364 478.343 111.354C478.515 111.372 478.67 111.4 478.843 111.418C478.877 111.417 478.894 111.427 478.912 111.417C479.085 111.435 479.223 111.453 479.395 111.471C479.516 111.479 479.602 111.488 479.689 111.497C479.723 111.497 479.74 111.507 479.775 111.506C479.844 111.505 479.931 111.514 479.982 111.524C480.155 111.542 480.328 111.54 480.484 111.548C481.799 111.592 483.015 111.477 484.014 111.175C484.102 111.144 484.189 111.133 484.259 111.112C490.656 109.064 493.762 105.135 504.137 104.219C503.083 104.142 493.644 103.597 485.141 105.92Z" fill="url(#paint6_linear)"/>
<path opacity="0.7" d="M494.47 92.3651C492.069 89.7939 482.173 89.4341 473.016 90.1954C473.016 90.1954 483.876 91.1936 490.07 97.1192C494.84 101.692 503.468 104.037 504.137 104.219C504.154 104.209 504.119 104.23 504.137 104.219C496.378 100.353 497.882 96.1742 494.671 92.5427C494.586 92.4937 494.519 92.4345 494.47 92.3651Z" fill="url(#paint7_linear)"/>
</g>
<rect x="0.433013" width="63.5" height="63.5" rx="11.75" transform="matrix(0.866025 -0.5 0.866025 0.5 426.632 101.217)" stroke="#7187A5" stroke-width="0.5"/>
<g filter="url(#filter8_d)">
<rect width="64" height="64" rx="12" transform="matrix(0.866025 -0.5 0.866025 0.5 71.5743 170)" fill="#D6E4F7"/>
</g>
<g filter="url(#filter9_ii)">
<path fill-rule="evenodd" clip-rule="evenodd" d="M77.6642 169.858C77.6002 172.076 79.0343 174.307 81.9667 176L116.608 196C122.347 199.314 131.653 199.314 137.392 196L172.033 176C174.903 174.343 176.338 172.172 176.338 170H176.34V148H144.321L137.392 144C131.653 140.686 122.347 140.686 116.608 144L109.68 148H77.6642L77.6642 169.858Z" fill="url(#paint8_linear)"/>
<path fill-rule="evenodd" clip-rule="evenodd" d="M77.6642 169.858C77.6002 172.076 79.0343 174.307 81.9667 176L116.608 196C122.347 199.314 131.653 199.314 137.392 196L172.033 176C174.903 174.343 176.338 172.172 176.338 170H176.34V148H144.321L137.392 144C131.653 140.686 122.347 140.686 116.608 144L109.68 148H77.6642L77.6642 169.858Z" fill="#41546C" fill-opacity="0.6"/>
</g>
<rect x="0.433013" width="63.5" height="63.5" rx="11.75" transform="matrix(0.866025 -0.5 0.866025 0.5 71.6323 148.217)" fill="#41546C"/>
<path d="M128.732 153.333C125.916 153.326 123.112 152.717 120.965 151.477C118.817 150.237 117.763 148.619 117.75 146.993C117.75 145.612 115.821 144.498 113.442 144.505C111.05 144.505 109.121 145.619 109.121 147C109.134 149.903 111.05 152.791 114.882 155.004C118.714 157.216 123.73 158.315 128.745 158.315C131.137 158.315 133.066 157.201 133.066 155.82C133.053 154.447 131.124 153.333 128.732 153.333Z" fill="#7187A5"/>
<path d="M117.763 147C117.776 145.374 118.843 143.748 120.978 142.515C123.125 141.276 125.942 140.659 128.745 140.659C131.137 140.659 133.066 139.546 133.066 138.165C133.066 136.784 131.137 135.67 128.758 135.677C123.743 135.677 118.714 136.784 114.882 138.996C111.05 141.209 109.134 144.112 109.134 147.007C109.134 148.388 111.063 149.502 113.442 149.495C115.834 149.495 117.776 148.374 117.763 147Z" fill="white"/>
<path d="M139.727 146.985C139.714 148.611 138.647 150.237 136.512 151.47C134.365 152.709 131.548 153.326 128.745 153.326C126.353 153.326 124.424 154.439 124.424 155.82C124.424 157.201 126.353 158.315 128.732 158.308C133.747 158.308 138.775 157.201 142.608 154.989C146.44 152.776 148.356 149.873 148.356 146.978C148.356 145.597 146.427 144.483 144.048 144.49C141.669 144.498 139.74 145.612 139.727 146.985Z" fill="white"/>
<path d="M117.763 147C117.763 148.381 115.834 149.495 113.442 149.495C111.05 149.495 109.121 148.381 109.134 147.007C109.134 145.626 111.063 144.513 113.455 144.513C115.834 144.505 117.763 145.619 117.763 147Z" fill="#D6E4F7"/>
<path d="M133.053 155.828C133.053 157.209 131.124 158.322 128.732 158.322C126.353 158.33 124.411 157.209 124.424 155.835C124.424 154.454 126.353 153.341 128.745 153.341C131.124 153.333 133.053 154.447 133.053 155.828Z" fill="#D6E4F7"/>
<rect x="0.433013" width="63.5" height="63.5" rx="11.75" transform="matrix(0.866025 -0.5 0.866025 0.5 71.6323 148.217)" stroke="#7187A5" stroke-width="0.5"/>
<g filter="url(#filter10_d)">
<rect width="64" height="64" rx="12" transform="matrix(0.866025 -0.5 0.866025 0.5 355.574 170)" fill="#D6E4F7"/>
</g>
<g filter="url(#filter11_ii)">
<path fill-rule="evenodd" clip-rule="evenodd" d="M460.34 132H361.664V169.858C361.6 172.077 363.034 174.307 365.967 176L400.608 196C406.347 199.314 415.653 199.314 421.392 196L456.033 176C458.903 174.343 460.338 172.172 460.338 170H460.34V132Z" fill="url(#paint9_linear)"/>
<path fill-rule="evenodd" clip-rule="evenodd" d="M460.34 132H361.664V169.858C361.6 172.077 363.034 174.307 365.967 176L400.608 196C406.347 199.314 415.653 199.314 421.392 196L456.033 176C458.903 174.343 460.338 172.172 460.338 170H460.34V132Z" fill="#41546C" fill-opacity="0.6"/>
</g>
<rect x="0.433013" width="63.5" height="63.5" rx="11.75" transform="matrix(0.866025 -0.5 0.866025 0.5 355.632 132.217)" fill="#41546C"/>
<path fill-rule="evenodd" clip-rule="evenodd" d="M425.198 124.197C423.252 123.073 420.773 122.731 418.972 123.771C417.162 124.816 417.603 126.334 419.534 127.449C421.822 128.77 424.27 128.691 426.125 127.62C427.03 127.098 427.509 126.585 427.737 126.119L426.216 125.242C425.958 125.689 425.524 126.124 424.772 126.558C424.035 126.984 423.122 127.212 422.142 126.743L425.859 124.596C425.76 124.539 425.38 124.302 425.198 124.197ZM420.72 125.948C419.861 125.452 420.028 124.943 420.507 124.667C420.971 124.399 421.822 124.32 422.681 124.816L420.72 125.948Z" fill="white"/>
<path fill-rule="evenodd" clip-rule="evenodd" d="M413.134 127.142C412.389 127.572 412.259 128.05 412.237 128.344L411.666 128.129L409.994 129.095L418.858 134.212L420.355 132.883L418.212 131.636C418.683 131.592 419.367 131.522 420.036 131.136C421.397 130.35 421.541 129.003 419.131 127.612C416.919 126.343 414.464 126.374 413.134 127.142ZM417.915 130.429C417.467 130.688 417.041 130.75 416.661 130.741L413.833 129.117C413.81 128.876 413.932 128.63 414.365 128.38C415.057 127.98 416.311 128.151 417.307 128.726C418.326 129.314 418.614 130.025 417.915 130.429Z" fill="white"/>
<path fill-rule="evenodd" clip-rule="evenodd" d="M406.809 130.276L408.306 128.937L406.763 128.046L405.258 129.38L406.809 130.276Z" fill="white"/>
<path d="M409.295 129.508L407.387 130.609L414.038 134.449L415.946 133.348L409.295 129.508Z" fill="white"/>
<path fill-rule="evenodd" clip-rule="evenodd" d="M405.904 132.115L405.22 131.86L403.578 132.808L410.23 136.648L412.13 135.551L407.622 132.948C407.485 132.352 408.352 131.974 408.671 131.886L406.923 130.877C406.588 130.965 405.532 131.382 405.904 132.115Z" fill="white"/>
<path fill-rule="evenodd" clip-rule="evenodd" d="M399.891 133.032L398.432 134.331L404.513 137.851C405.638 138.5 407.311 138.492 408.436 137.842C409.059 137.482 409.401 137.153 409.515 136.929L407.972 136.038C407.828 136.236 406.976 137.131 405.851 136.481L403.152 134.923L404.597 134.09L402.978 133.155L401.533 133.989L399.891 133.032Z" fill="white"/>
<path fill-rule="evenodd" clip-rule="evenodd" d="M398.333 138.066C398.036 137.895 398.166 137.688 398.569 137.456C399.146 137.122 400.051 136.802 400.94 136.648L399.154 135.617C398.272 135.836 397.55 136.139 396.919 136.503C395.376 137.394 395.155 138.452 396.501 139.229C398.599 140.44 401.153 138.579 402.058 139.102C402.407 139.304 402.217 139.545 401.792 139.791C401.161 140.155 400.096 140.471 399.108 140.638L400.917 141.682C401.928 141.45 402.772 141.112 403.426 140.734C405.007 139.821 405.311 138.742 403.951 137.956C401.678 136.653 399.184 138.557 398.333 138.066Z" fill="white"/>
<rect x="0.433013" width="63.5" height="63.5" rx="11.75" transform="matrix(0.866025 -0.5 0.866025 0.5 355.632 132.217)" stroke="#7187A5" stroke-width="0.5"/>
<rect x="0.866025" width="63" height="63" rx="11.5" transform="matrix(0.866025 -0.5 0.866025 0.5 0.690359 211.433)" fill="#151B23"/>
<rect x="0.866025" width="63" height="63" rx="11.5" transform="matrix(0.866025 -0.5 0.866025 0.5 0.690359 211.433)" stroke="#85E0CE"/>
<g filter="url(#filter12_d)">
<rect width="64" height="64" rx="12" transform="matrix(0.866025 -0.5 0.866025 0.5 426.574 211)" fill="#D6E4F7"/>
</g>
<g filter="url(#filter13_ii)">
<path fill-rule="evenodd" clip-rule="evenodd" d="M432.664 210.858C432.6 213.076 434.034 215.307 436.967 217L471.608 237C477.347 240.314 486.653 240.314 492.392 237L527.033 217C529.903 215.343 531.338 213.172 531.338 211H531.34V209H530.926C530.313 207.534 529.015 206.144 527.033 205L492.392 185C486.653 181.686 477.347 181.686 471.608 185L436.967 205C434.985 206.144 433.687 207.534 433.074 209H432.664L432.664 210.858Z" fill="url(#paint10_linear)"/>
<path fill-rule="evenodd" clip-rule="evenodd" d="M432.664 210.858C432.6 213.076 434.034 215.307 436.967 217L471.608 237C477.347 240.314 486.653 240.314 492.392 237L527.033 217C529.903 215.343 531.338 213.172 531.338 211H531.34V209H530.926C530.313 207.534 529.015 206.144 527.033 205L492.392 185C486.653 181.686 477.347 181.686 471.608 185L436.967 205C434.985 206.144 433.687 207.534 433.074 209H432.664L432.664 210.858Z" fill="#41546C" fill-opacity="0.6"/>
</g>
<rect x="0.433013" width="63.5" height="63.5" rx="11.75" transform="matrix(0.866025 -0.5 0.866025 0.5 426.632 209.217)" fill="#41546C"/>
<g clip-path="url(#clip2)">
<path d="M472.978 200.096L475.32 205.143L466.578 203.791L455.921 209.943L493.778 215.8L483.634 193.943L472.978 200.096Z" fill="white"/>
<path d="M472.978 200.096L475.32 205.143L466.578 203.791L461.464 206.743L484.177 210.257L478.091 197.143L472.978 200.096Z" fill="#7087A5"/>
</g>
<rect x="0.433013" width="63.5" height="63.5" rx="11.75" transform="matrix(0.866025 -0.5 0.866025 0.5 426.632 209.217)" stroke="#7187A5" stroke-width="0.5"/>
<g filter="url(#filter14_d)">
<rect width="128" height="128" rx="24" transform="matrix(0.866025 -0.5 0.866025 0.5 158.149 212)" fill="#D6E4F7"/>
</g>
<g filter="url(#filter15_ii)">
<path fill-rule="evenodd" clip-rule="evenodd" d="M170.328 211.716C170.2 216.153 173.069 220.614 178.934 224L248.216 264C259.695 270.627 278.306 270.627 289.785 264L359.067 224C364.806 220.686 367.676 216.343 367.676 212H367.68V208H366.852C365.626 205.068 363.031 202.289 359.067 200L289.785 160C278.306 153.373 259.695 153.373 248.216 160L178.934 200C174.969 202.289 172.374 205.068 171.148 208H170.328L170.328 211.716Z" fill="url(#paint11_linear)"/>
<path fill-rule="evenodd" clip-rule="evenodd" d="M170.328 211.716C170.2 216.153 173.069 220.614 178.934 224L248.216 264C259.695 270.627 278.306 270.627 289.785 264L359.067 224C364.806 220.686 367.676 216.343 367.676 212H367.68V208H366.852C365.626 205.068 363.031 202.289 359.067 200L289.785 160C278.306 153.373 259.695 153.373 248.216 160L178.934 200C174.969 202.289 172.374 205.068 171.148 208H170.328L170.328 211.716Z" fill="#41546C" fill-opacity="0.6"/>
</g>
<rect x="0.866025" width="127.172" height="127.172" rx="23.5" transform="matrix(0.866025 -0.5 0.866025 0.5 158.116 208.433)" fill="url(#paint12_linear)"/>
<rect x="0.866025" width="127.172" height="127.172" rx="23.5" transform="matrix(0.866025 -0.5 0.866025 0.5 158.116 208.433)" fill="url(#paint13_linear)"/>
<rect x="0.866025" width="127.172" height="127.172" rx="23.5" transform="matrix(0.866025 -0.5 0.866025 0.5 158.116 208.433)" fill="#41546C" fill-opacity="0.8"/>
<g clip-path="url(#clip3)">
<path fill-rule="evenodd" clip-rule="evenodd" d="M255.346 195.523C255.346 194.821 256.332 194.252 257.548 194.252L299.557 194.254C300.773 194.254 301.758 194.823 301.759 195.526L301.759 197.743L255.348 197.741L255.346 195.523ZM272.741 200.467L247.167 200.469C245.952 200.469 244.965 201.038 244.967 201.74L244.979 225.691C244.98 226.393 245.965 226.962 247.182 226.962L270.556 226.96C271.771 226.959 272.756 226.392 272.757 225.689L272.783 210.298L299.489 210.265C300.7 210.264 301.681 209.698 301.685 208.998L301.74 200.591L272.741 200.467ZM262.82 216.41C260.412 217.8 256.578 217.75 254.257 216.41C251.935 215.069 251.849 212.856 254.257 211.466C256.665 210.076 260.498 210.126 262.82 211.466C265.141 212.807 265.227 215.02 262.82 216.41ZM259.66 213.095C259.977 213.095 260.238 213.152 260.444 213.266C260.649 213.379 260.773 213.537 260.817 213.74C260.825 213.751 260.837 213.757 260.853 213.757L261.252 213.754C261.272 213.754 261.288 213.759 261.3 213.768C261.317 213.775 261.324 213.784 261.324 213.796L261.324 214.067C261.324 214.079 261.316 214.089 261.3 214.099C261.288 214.106 261.271 214.109 261.252 214.109L260.847 214.106C260.831 214.106 260.819 214.111 260.811 214.123L260.772 214.563L260.249 214.551L260.27 213.891C260.27 213.754 260.185 213.65 260.081 213.583C259.976 213.514 259.841 213.478 259.677 213.479C259.564 213.478 259.47 213.497 259.393 213.534C259.313 213.572 259.243 213.626 259.182 213.698C259.118 213.768 259.036 213.872 258.935 214.011C258.83 214.167 258.732 214.294 258.64 214.391C258.547 214.488 258.422 214.57 258.265 214.635C258.105 214.7 257.906 214.732 257.669 214.732C257.363 214.732 257.112 214.679 256.915 214.572C256.718 214.463 256.595 214.315 256.547 214.13C256.539 214.118 256.527 214.112 256.511 214.112L256.064 214.119C256.044 214.119 256.028 214.115 256.016 214.108C256 214.099 255.992 214.089 255.992 214.077L255.992 213.805C255.992 213.794 256 213.785 256.016 213.778C256.029 213.768 256.045 213.764 256.065 213.764L256.517 213.771C256.533 213.77 256.545 213.765 256.553 213.753L256.553 213.415H257.084L257.084 213.876C257.084 214.108 257.172 214.187 257.265 214.254C257.357 214.322 257.488 214.355 257.657 214.355C257.778 214.355 257.876 214.338 257.953 214.303C258.029 214.266 258.099 214.213 258.164 214.143C258.224 214.071 258.302 213.962 258.399 213.816C258.507 213.658 258.606 213.533 258.694 213.44C258.783 213.345 258.908 213.263 259.068 213.196C259.225 213.129 259.422 213.095 259.66 213.095Z" fill="url(#paint14_linear)"/>
<path fill-rule="evenodd" clip-rule="evenodd" d="M255.346 195.523C255.346 194.821 256.332 194.252 257.548 194.252L299.557 194.254C300.773 194.254 301.758 194.823 301.759 195.526L301.759 197.743L255.348 197.741L255.346 195.523ZM272.741 200.467L247.167 200.469C245.952 200.469 244.965 201.038 244.967 201.74L244.979 225.691C244.98 226.393 245.965 226.962 247.182 226.962L270.556 226.96C271.771 226.959 272.756 226.392 272.757 225.689L272.783 210.298L299.489 210.265C300.7 210.264 301.681 209.698 301.685 208.998L301.74 200.591L272.741 200.467ZM262.82 216.41C260.412 217.8 256.578 217.75 254.257 216.41C251.935 215.069 251.849 212.856 254.257 211.466C256.665 210.076 260.498 210.126 262.82 211.466C265.141 212.807 265.227 215.02 262.82 216.41ZM259.66 213.095C259.977 213.095 260.238 213.152 260.444 213.266C260.649 213.379 260.773 213.537 260.817 213.74C260.825 213.751 260.837 213.757 260.853 213.757L261.252 213.754C261.272 213.754 261.288 213.759 261.3 213.768C261.317 213.775 261.324 213.784 261.324 213.796L261.324 214.067C261.324 214.079 261.316 214.089 261.3 214.099C261.288 214.106 261.271 214.109 261.252 214.109L260.847 214.106C260.831 214.106 260.819 214.111 260.811 214.123L260.772 214.563L260.249 214.551L260.27 213.891C260.27 213.754 260.185 213.65 260.081 213.583C259.976 213.514 259.841 213.478 259.677 213.479C259.564 213.478 259.47 213.497 259.393 213.534C259.313 213.572 259.243 213.626 259.182 213.698C259.118 213.768 259.036 213.872 258.935 214.011C258.83 214.167 258.732 214.294 258.64 214.391C258.547 214.488 258.422 214.57 258.265 214.635C258.105 214.7 257.906 214.732 257.669 214.732C257.363 214.732 257.112 214.679 256.915 214.572C256.718 214.463 256.595 214.315 256.547 214.13C256.539 214.118 256.527 214.112 256.511 214.112L256.064 214.119C256.044 214.119 256.028 214.115 256.016 214.108C256 214.099 255.992 214.089 255.992 214.077L255.992 213.805C255.992 213.794 256 213.785 256.016 213.778C256.029 213.768 256.045 213.764 256.065 213.764L256.517 213.771C256.533 213.77 256.545 213.765 256.553 213.753L256.553 213.415H257.084L257.084 213.876C257.084 214.108 257.172 214.187 257.265 214.254C257.357 214.322 257.488 214.355 257.657 214.355C257.778 214.355 257.876 214.338 257.953 214.303C258.029 214.266 258.099 214.213 258.164 214.143C258.224 214.071 258.302 213.962 258.399 213.816C258.507 213.658 258.606 213.533 258.694 213.44C258.783 213.345 258.908 213.263 259.068 213.196C259.225 213.129 259.422 213.095 259.66 213.095Z" fill="url(#paint15_linear)"/>
<path fill-rule="evenodd" clip-rule="evenodd" d="M255.346 195.523C255.346 194.821 256.332 194.252 257.548 194.252L299.557 194.254C300.773 194.254 301.758 194.823 301.759 195.526L301.759 197.743L255.348 197.741L255.346 195.523ZM272.741 200.467L247.167 200.469C245.952 200.469 244.965 201.038 244.967 201.74L244.979 225.691C244.98 226.393 245.965 226.962 247.182 226.962L270.556 226.96C271.771 226.959 272.756 226.392 272.757 225.689L272.783 210.298L299.489 210.265C300.7 210.264 301.681 209.698 301.685 208.998L301.74 200.591L272.741 200.467ZM262.82 216.41C260.412 217.8 256.578 217.75 254.257 216.41C251.935 215.069 251.849 212.856 254.257 211.466C256.665 210.076 260.498 210.126 262.82 211.466C265.141 212.807 265.227 215.02 262.82 216.41ZM259.66 213.095C259.977 213.095 260.238 213.152 260.444 213.266C260.649 213.379 260.773 213.537 260.817 213.74C260.825 213.751 260.837 213.757 260.853 213.757L261.252 213.754C261.272 213.754 261.288 213.759 261.3 213.768C261.317 213.775 261.324 213.784 261.324 213.796L261.324 214.067C261.324 214.079 261.316 214.089 261.3 214.099C261.288 214.106 261.271 214.109 261.252 214.109L260.847 214.106C260.831 214.106 260.819 214.111 260.811 214.123L260.772 214.563L260.249 214.551L260.27 213.891C260.27 213.754 260.185 213.65 260.081 213.583C259.976 213.514 259.841 213.478 259.677 213.479C259.564 213.478 259.47 213.497 259.393 213.534C259.313 213.572 259.243 213.626 259.182 213.698C259.118 213.768 259.036 213.872 258.935 214.011C258.83 214.167 258.732 214.294 258.64 214.391C258.547 214.488 258.422 214.57 258.265 214.635C258.105 214.7 257.906 214.732 257.669 214.732C257.363 214.732 257.112 214.679 256.915 214.572C256.718 214.463 256.595 214.315 256.547 214.13C256.539 214.118 256.527 214.112 256.511 214.112L256.064 214.119C256.044 214.119 256.028 214.115 256.016 214.108C256 214.099 255.992 214.089 255.992 214.077L255.992 213.805C255.992 213.794 256 213.785 256.016 213.778C256.029 213.768 256.045 213.764 256.065 213.764L256.517 213.771C256.533 213.77 256.545 213.765 256.553 213.753L256.553 213.415H257.084L257.084 213.876C257.084 214.108 257.172 214.187 257.265 214.254C257.357 214.322 257.488 214.355 257.657 214.355C257.778 214.355 257.876 214.338 257.953 214.303C258.029 214.266 258.099 214.213 258.164 214.143C258.224 214.071 258.302 213.962 258.399 213.816C258.507 213.658 258.606 213.533 258.694 213.44C258.783 213.345 258.908 213.263 259.068 213.196C259.225 213.129 259.422 213.095 259.66 213.095Z" fill="white" fill-opacity="0.9"/>
</g>
<rect x="0.866025" width="127.172" height="127.172" rx="23.5" transform="matrix(0.866025 -0.5 0.866025 0.5 158.116 208.433)" stroke="url(#paint16_linear)"/>
<rect x="0.866025" width="127.172" height="127.172" rx="23.5" transform="matrix(0.866025 -0.5 0.866025 0.5 158.116 208.433)" stroke="url(#paint17_linear)"/>
<g filter="url(#filter16_d)">
<rect width="64" height="64" rx="12" transform="matrix(0.866025 -0.5 0.866025 0.5 71.5743 252)" fill="#D6E4F7"/>
</g>
<g filter="url(#filter17_ii)">
<path fill-rule="evenodd" clip-rule="evenodd" d="M77.6642 251.858C77.6002 254.076 79.0344 256.307 81.9667 258L116.608 278C122.347 281.314 131.653 281.314 137.392 278L172.033 258C174.903 256.343 176.338 254.172 176.338 252H176.34V250H175.926C175.313 248.534 174.015 247.144 172.033 246L137.392 226C131.653 222.686 122.347 222.686 116.608 226L81.9667 246C79.9847 247.144 78.6871 248.534 78.074 250H77.6642L77.6642 251.858Z" fill="url(#paint18_linear)"/>
<path fill-rule="evenodd" clip-rule="evenodd" d="M77.6642 251.858C77.6002 254.076 79.0344 256.307 81.9667 258L116.608 278C122.347 281.314 131.653 281.314 137.392 278L172.033 258C174.903 256.343 176.338 254.172 176.338 252H176.34V250H175.926C175.313 248.534 174.015 247.144 172.033 246L137.392 226C131.653 222.686 122.347 222.686 116.608 226L81.9667 246C79.9847 247.144 78.6871 248.534 78.074 250H77.6642L77.6642 251.858Z" fill="#41546C" fill-opacity="0.6"/>
</g>
<rect x="0.433013" width="63.5" height="63.5" rx="11.75" transform="matrix(0.866025 -0.5 0.866025 0.5 71.6323 250.217)" fill="#41546C"/>
<g clip-path="url(#clip4)">
<path d="M140.728 241.926C138.892 240.866 134.853 241.189 130.25 242.601C127.471 240.057 124.251 238.616 121.743 239.007C121.161 239.095 120.63 239.284 120.161 239.555L121.421 240.282C121.681 240.132 121.94 240.041 122.212 239.995C123.42 239.806 125.431 240.582 127.329 241.978C127.798 242.321 128.256 242.702 128.702 243.103C127.324 243.586 125.906 244.163 124.499 244.819C122.692 244.656 120.952 244.564 119.325 244.545C119.455 242.493 120.246 240.954 121.421 240.276L120.161 239.548C118.608 240.445 117.681 242.259 117.546 244.555C113.58 244.639 110.451 245.181 108.897 246.078L110.157 246.805C111.326 246.13 113.993 245.667 117.534 245.585C117.574 246.521 117.726 247.522 118.02 248.559C116.879 249.375 115.879 250.193 115.049 250.992C114.354 250.741 113.71 250.48 113.117 250.216C110.694 249.124 109.344 247.966 109.66 247.268C109.728 247.111 109.903 246.958 110.163 246.808L108.903 246.081C108.429 246.355 108.101 246.661 107.943 247.001C107.271 248.445 109.767 250.298 114.168 251.893C111.739 254.547 111.185 256.869 113.015 257.926C114.851 258.986 118.89 258.663 123.494 257.251C126.273 259.795 129.493 261.236 132.001 260.845C132.583 260.757 133.114 260.568 133.588 260.294C135.142 259.397 136.068 257.584 136.203 255.288C140.169 255.203 143.298 254.661 144.852 253.765C145.326 253.491 145.654 253.184 145.812 252.845C146.484 251.4 143.987 249.548 139.587 247.953C142.01 245.308 142.558 242.983 140.728 241.926ZM129.606 243.997C130.125 244.538 130.617 245.122 131.074 245.725C130.391 245.598 129.696 245.478 128.979 245.37C128.267 245.259 127.55 245.164 126.843 245.076C127.764 244.682 128.685 244.32 129.606 243.997ZM133.035 248.964C133.357 249.659 133.628 250.337 133.831 250.996C133.063 251.524 132.249 252.039 131.391 252.535C130.538 253.027 129.645 253.497 128.741 253.941C127.6 253.823 126.425 253.673 125.228 253.491C124.059 253.311 122.918 253.102 121.805 252.871C121.398 252.232 121.037 251.566 120.72 250.895C120.398 250.2 120.127 249.522 119.924 248.863C120.692 248.334 121.505 247.819 122.364 247.323C123.217 246.831 124.109 246.361 125.013 245.918C126.154 246.035 127.329 246.185 128.527 246.368C129.696 246.547 130.837 246.756 131.95 246.988C132.351 247.63 132.718 248.292 133.035 248.964ZM134.125 247.487C135.187 247.747 136.203 248.034 137.152 248.334C136.593 248.866 135.966 249.404 135.277 249.939C135.119 249.528 134.949 249.111 134.752 248.696C134.56 248.286 134.345 247.881 134.125 247.487ZM134.424 254.273C133.357 254.264 132.227 254.218 131.046 254.136C131.577 253.856 132.114 253.566 132.639 253.262C133.17 252.956 133.684 252.646 134.17 252.333C134.322 253.008 134.402 253.66 134.424 254.273ZM126.894 254.779C125.974 255.173 125.053 255.535 124.132 255.858C123.612 255.317 123.121 254.733 122.663 254.13C123.347 254.257 124.042 254.378 124.759 254.485C125.476 254.593 126.188 254.691 126.894 254.779ZM119.314 245.582C120.381 245.592 121.511 245.637 122.692 245.719C122.161 245.999 121.624 246.29 121.099 246.593C120.568 246.899 120.054 247.209 119.568 247.522C119.415 246.847 119.336 246.195 119.314 245.582ZM118.461 249.916C118.619 250.327 118.788 250.745 118.986 251.159C119.178 251.57 119.387 251.971 119.607 252.365C118.545 252.105 117.529 251.818 116.58 251.517C117.145 250.989 117.772 250.451 118.461 249.916ZM120.421 256.951C117.568 257.613 115.156 257.714 114.269 257.202C113.382 256.69 113.552 255.294 114.704 253.65C114.981 253.249 115.326 252.835 115.698 252.418C117.128 252.871 118.704 253.292 120.41 253.67C121.065 254.648 121.794 255.552 122.579 256.37C121.844 256.592 121.121 256.788 120.421 256.951ZM131.532 259.857C130.323 260.046 128.312 259.27 126.414 257.874C125.945 257.531 125.488 257.15 125.042 256.749C126.42 256.266 127.838 255.689 129.244 255.033C131.052 255.196 132.792 255.288 134.418 255.307C134.289 257.358 133.498 258.898 132.323 259.576C132.063 259.72 131.797 259.814 131.532 259.857ZM140.626 249.636C143.05 250.728 144.4 251.886 144.084 252.584C144.016 252.74 143.841 252.894 143.581 253.044C142.411 253.719 139.745 254.182 136.203 254.264C136.164 253.328 136.011 252.326 135.718 251.289C136.859 250.474 137.859 249.655 138.689 248.856C139.389 249.111 140.039 249.368 140.626 249.636ZM139.034 246.205C138.757 246.606 138.412 247.02 138.039 247.438C136.61 246.984 135.034 246.564 133.328 246.185C132.673 245.207 131.944 244.303 131.159 243.485C131.893 243.263 132.617 243.067 133.323 242.901C136.175 242.239 138.587 242.138 139.474 242.65C140.355 243.165 140.186 244.561 139.034 246.205Z" fill="white"/>
<path d="M129.447 251.42C130.873 250.596 130.873 249.262 129.447 248.439C128.022 247.616 125.71 247.616 124.285 248.439C122.859 249.262 122.859 250.596 124.285 251.42C125.71 252.243 128.022 252.243 129.447 251.42Z" fill="white"/>
</g>
<rect x="0.433013" width="63.5" height="63.5" rx="11.75" transform="matrix(0.866025 -0.5 0.866025 0.5 71.6323 250.217)" stroke="#7187A5" stroke-width="0.5"/>
<g filter="url(#filter18_d)">
<rect width="64" height="64" rx="12" transform="matrix(0.866025 -0.5 0.866025 0.5 355.574 252)" fill="#D6E4F7"/>
</g>
<g filter="url(#filter19_ii)">
<path fill-rule="evenodd" clip-rule="evenodd" d="M361.664 251.858C361.6 254.076 363.034 256.307 365.967 258L400.608 278C406.347 281.314 415.653 281.314 421.392 278L456.033 258C458.903 256.343 460.338 254.172 460.338 252H460.34V250H459.926C459.313 248.534 458.015 247.144 456.033 246L421.392 226C415.653 222.686 406.347 222.686 400.608 226L365.967 246C363.985 247.144 362.687 248.534 362.074 250H361.664L361.664 251.858Z" fill="url(#paint19_linear)"/>
<path fill-rule="evenodd" clip-rule="evenodd" d="M361.664 251.858C361.6 254.076 363.034 256.307 365.967 258L400.608 278C406.347 281.314 415.653 281.314 421.392 278L456.033 258C458.903 256.343 460.338 254.172 460.338 252H460.34V250H459.926C459.313 248.534 458.015 247.144 456.033 246L421.392 226C415.653 222.686 406.347 222.686 400.608 226L365.967 246C363.985 247.144 362.687 248.534 362.074 250H361.664L361.664 251.858Z" fill="#41546C" fill-opacity="0.6"/>
</g>
<rect x="0.433013" width="63.5" height="63.5" rx="11.75" transform="matrix(0.866025 -0.5 0.866025 0.5 355.632 250.217)" fill="#41546C"/>
<g clip-path="url(#clip5)">
<path d="M410.968 238.252C404.712 237.611 398.538 239.915 397.204 243.389L394.864 249.49C394.541 250.31 394.517 251.16 394.795 251.985C395.073 252.811 395.646 253.594 396.478 254.284C397.878 255.448 399.91 256.309 402.253 256.731C402.539 257.533 403.103 258.294 403.913 258.968C404.763 259.671 405.848 260.269 407.104 260.727C408.36 261.185 409.762 261.493 411.228 261.635C417.485 262.275 423.659 259.971 424.992 256.498L427.332 250.397C427.656 249.577 427.679 248.727 427.401 247.901C427.123 247.076 426.55 246.293 425.718 245.602C424.318 244.439 422.286 243.578 419.943 243.156C419.658 242.353 419.093 241.592 418.283 240.919C417.433 240.216 416.348 239.618 415.092 239.16C413.836 238.702 412.434 238.393 410.968 238.252" fill="white" fill-opacity="0.2"/>
<path d="M419.733 257.124C418.982 257.863 417.856 258.451 416.507 258.808C415.158 259.166 413.652 259.276 412.192 259.123C411.31 259.038 410.467 258.853 409.712 258.577C408.956 258.302 408.304 257.942 407.792 257.519C407.626 257.38 407.476 257.234 407.344 257.082L407.095 256.798L407.668 256.748C408.993 256.631 410.273 256.384 411.454 256.018L411.767 255.922L411.984 256.073C412.296 256.286 412.728 256.429 413.204 256.476C413.644 256.523 414.098 256.49 414.504 256.382C414.91 256.274 415.249 256.097 415.476 255.875C415.578 255.772 415.653 255.661 415.698 255.546L418.039 249.445C418.097 249.296 418.102 249.142 418.051 248.993C418.001 248.843 417.897 248.701 417.747 248.576C417.593 248.449 417.396 248.34 417.168 248.257C416.941 248.174 416.687 248.118 416.421 248.093C415.981 248.047 415.527 248.08 415.121 248.187C414.715 248.295 414.375 248.472 414.149 248.694C414.046 248.797 413.971 248.908 413.927 249.023L413.034 251.352C412.886 251.734 412.639 252.101 412.299 252.441C411.547 253.179 410.421 253.767 409.072 254.125C407.724 254.482 406.217 254.592 404.757 254.44C403.876 254.355 403.033 254.17 402.277 253.894C401.522 253.619 400.869 253.259 400.358 252.836C399.858 252.421 399.513 251.95 399.346 251.454C399.179 250.957 399.193 250.446 399.388 249.953L401.728 243.852C401.875 243.47 402.123 243.102 402.463 242.763C403.215 242.024 404.341 241.436 405.69 241.078C407.038 240.721 408.544 240.611 410.005 240.763C410.886 240.848 411.729 241.034 412.485 241.309C413.24 241.584 413.893 241.944 414.404 242.367C414.571 242.507 414.72 242.653 414.852 242.804L415.102 243.088L414.529 243.139C413.204 243.256 411.923 243.502 410.742 243.868L410.429 243.965L410.212 243.814C409.9 243.6 409.468 243.457 408.992 243.41C408.552 243.364 408.099 243.397 407.692 243.504C407.286 243.612 406.947 243.789 406.721 244.011C406.618 244.114 406.543 244.225 406.498 244.341L404.157 250.442C404.099 250.59 404.095 250.744 404.145 250.894C404.195 251.043 404.299 251.185 404.45 251.31C404.604 251.438 404.8 251.546 405.028 251.629C405.256 251.712 405.51 251.768 405.775 251.794C406.215 251.84 406.669 251.807 407.075 251.699C407.482 251.592 407.821 251.415 408.048 251.192C408.15 251.09 408.225 250.978 408.27 250.863L409.163 248.535C409.31 248.152 409.558 247.785 409.897 247.446C410.649 246.707 411.775 246.119 413.124 245.762C414.473 245.404 415.979 245.294 417.439 245.447C418.32 245.531 419.164 245.717 419.919 245.992C420.674 246.268 421.327 246.627 421.838 247.05C422.339 247.466 422.683 247.936 422.85 248.433C423.018 248.929 423.003 249.441 422.809 249.934L420.468 256.034C420.321 256.417 420.073 256.784 419.733 257.124" fill="white"/>
</g>
<rect x="0.433013" width="63.5" height="63.5" rx="11.75" transform="matrix(0.866025 -0.5 0.866025 0.5 355.632 250.217)" stroke="#7187A5" stroke-width="0.5"/>
<g filter="url(#filter20_d)">
<rect width="64" height="64" rx="12" transform="matrix(0.866025 -0.5 0.866025 0.5 0.574326 293)" fill="#D6E4F7"/>
</g>
<g filter="url(#filter21_ii)">
<path fill-rule="evenodd" clip-rule="evenodd" d="M6.66414 292.858C6.60015 295.076 8.03435 297.307 10.9667 299L45.6077 319C51.3473 322.314 60.6528 322.314 66.3924 319L101.033 299C103.903 297.343 105.338 295.172 105.338 293H105.34V291H104.926C104.313 289.534 103.015 288.144 101.033 287L66.3924 267C60.6528 263.686 51.3473 263.686 45.6077 267L10.9667 287C8.98469 288.144 7.68711 289.534 7.074 291H6.66414L6.66414 292.858Z" fill="url(#paint20_linear)"/>
<path fill-rule="evenodd" clip-rule="evenodd" d="M6.66414 292.858C6.60015 295.076 8.03435 297.307 10.9667 299L45.6077 319C51.3473 322.314 60.6528 322.314 66.3924 319L101.033 299C103.903 297.343 105.338 295.172 105.338 293H105.34V291H104.926C104.313 289.534 103.015 288.144 101.033 287L66.3924 267C60.6528 263.686 51.3473 263.686 45.6077 267L10.9667 287C8.98469 288.144 7.68711 289.534 7.074 291H6.66414L6.66414 292.858Z" fill="#41546C" fill-opacity="0.6"/>
</g>
<rect x="0.433013" width="63.5" height="63.5" rx="11.75" transform="matrix(0.866025 -0.5 0.866025 0.5 0.632338 291.217)" fill="#41546C"/>
<path fill-rule="evenodd" clip-rule="evenodd" d="M49.926 282.773L48.5868 285.68L47.2473 288.587L45.9078 291.493L49.6028 293.627L51.4504 294.693L53.2977 295.76L55.1454 296.827L56.993 297.893L58.3325 294.987L59.6717 292.08L57.8244 291.013L55.9768 289.947L54.6375 292.853L50.9425 290.72L52.2818 287.813L53.621 284.907L55.4686 285.973L57.3163 287.04L59.1636 288.107L61.0112 289.173L62.8586 290.24L64.7063 291.307L63.367 294.213L62.0275 297.12L60.688 300.027L59.3485 302.933L64.383 302.16L65.7225 299.253L67.062 296.347L68.4012 293.44L69.741 290.533L66.0457 288.4L62.3508 286.267L58.6558 284.133L57.2386 283.315L54.9608 282L51.2658 279.867L46.231 280.64L49.926 282.773Z" fill="white"/>
<rect x="0.433013" width="63.5" height="63.5" rx="11.75" transform="matrix(0.866025 -0.5 0.866025 0.5 0.632338 291.217)" stroke="#7187A5" stroke-width="0.5"/>
<g filter="url(#filter22_d)">
<rect width="64" height="64" rx="12" transform="matrix(0.866025 -0.5 0.866025 0.5 142.574 293)" fill="#D6E4F7"/>
</g>
<g filter="url(#filter23_ii)">
<path fill-rule="evenodd" clip-rule="evenodd" d="M148.664 292.858C148.6 295.077 150.034 297.307 152.967 299L187.608 319C193.347 322.314 202.653 322.314 208.392 319L243.033 299C245.903 297.343 247.338 295.172 247.338 293H247.34V272H217.053L208.392 267C202.653 263.686 193.347 263.686 187.608 267L178.947 272H148.664V292.858Z" fill="url(#paint21_linear)"/>
<path fill-rule="evenodd" clip-rule="evenodd" d="M148.664 292.858C148.6 295.077 150.034 297.307 152.967 299L187.608 319C193.347 322.314 202.653 322.314 208.392 319L243.033 299C245.903 297.343 247.338 295.172 247.338 293H247.34V272H217.053L208.392 267C202.653 263.686 193.347 263.686 187.608 267L178.947 272H148.664V292.858Z" fill="#41546C" fill-opacity="0.6"/>
</g>
<rect x="0.433013" width="63.5" height="63.5" rx="11.75" transform="matrix(0.866025 -0.5 0.866025 0.5 142.632 272.217)" fill="#41546C"/>
<path d="M186.708 273.93L191.935 270.912L192.349 271.151L187.601 273.892L190.713 275.689L195.177 273.111L195.591 273.35L191.126 275.927L194.542 277.9L199.345 275.127L199.758 275.366L194.477 278.415L186.708 273.93ZM192.403 270.642L192.959 270.321L198.836 270.873L197.935 267.448L197.017 262.967L199.511 270.898L206.401 271.531L205.823 271.864L199.554 271.288L200.542 274.913L199.976 275.24L198.901 271.25L192.403 270.642ZM199.252 267.165L198.839 266.926L204.796 263.487L205.209 263.726L202.465 265.31L209.82 269.557L209.341 269.834L201.986 265.587L199.252 267.165Z" fill="white"/>
<path d="M180.169 277.705L180.768 277.36L201.326 279.692L193.382 279.047L181.258 277.755L188.417 281.914L187.938 282.191L180.169 277.705Z" fill="white"/>
<path d="M211.977 267.69C212.077 267.632 212.073 267.547 211.976 267.491C211.878 267.435 211.73 267.433 211.631 267.49C211.534 267.546 211.536 267.632 211.633 267.689C211.731 267.745 211.88 267.746 211.977 267.69ZM211.993 267.155C212.281 267.321 212.678 267.309 212.982 267.134C213.306 266.947 213.308 266.722 212.971 266.527L211.785 265.843L211.524 265.994L212.709 266.677C212.896 266.785 212.901 266.898 212.735 266.994C212.585 267.08 212.391 267.085 212.249 267.007L211.993 267.155ZM213.352 266.353C213.67 266.515 214.112 266.481 214.485 266.266C214.884 266.036 214.932 265.776 214.612 265.591C214.36 265.445 214.078 265.447 213.653 265.6L213.423 265.681C213.152 265.778 212.995 265.789 212.876 265.72C212.725 265.633 212.764 265.497 212.97 265.378C213.166 265.265 213.397 265.242 213.576 265.317L213.83 265.17C213.533 265.016 213.085 265.046 212.743 265.243C212.376 265.455 212.33 265.711 212.629 265.883C212.875 266.025 213.16 266.03 213.535 265.895L213.804 265.8C214.079 265.702 214.253 265.689 214.381 265.763C214.53 265.849 214.484 266 214.274 266.121C214.049 266.251 213.792 266.283 213.611 266.204L213.352 266.353Z" fill="white"/>
<rect x="0.433013" width="63.5" height="63.5" rx="11.75" transform="matrix(0.866025 -0.5 0.866025 0.5 142.632 272.217)" stroke="#7187A5" stroke-width="0.5"/>
<rect x="0.866025" width="63" height="63" rx="11.5" transform="matrix(0.866025 -0.5 0.866025 0.5 284.69 293.433)" fill="#151B23"/>
<rect x="0.866025" width="63" height="63" rx="11.5" transform="matrix(0.866025 -0.5 0.866025 0.5 284.69 293.433)" stroke="#9C8BDA"/>
<rect x="0.866025" width="63" height="63" rx="11.5" transform="matrix(0.866025 -0.5 0.866025 0.5 426.69 293.433)" fill="#151B23"/>
<rect x="0.866025" width="63" height="63" rx="11.5" transform="matrix(0.866025 -0.5 0.866025 0.5 426.69 293.433)" stroke="#E77E90"/>
<rect x="0.866025" width="63" height="63" rx="11.5" transform="matrix(0.866025 -0.5 0.866025 0.5 71.6904 334.433)" fill="#151B23"/>
<rect x="0.866025" width="63" height="63" rx="11.5" transform="matrix(0.866025 -0.5 0.866025 0.5 71.6904 334.433)" stroke="#73C8F2"/>
<rect x="0.866025" width="63" height="63" rx="11.5" transform="matrix(0.866025 -0.5 0.866025 0.5 213.69 334.433)" fill="#151B23"/>
<rect x="0.866025" width="63" height="63" rx="11.5" transform="matrix(0.866025 -0.5 0.866025 0.5 213.69 334.433)" stroke="#F9A86C"/>
<g filter="url(#filter24_d)">
<rect width="64" height="64" rx="12" transform="matrix(0.866025 -0.5 0.866025 0.5 355.574 334)" fill="#D6E4F7"/>
</g>
<g filter="url(#filter25_ii)">
<path fill-rule="evenodd" clip-rule="evenodd" d="M361.664 333.858C361.6 336.076 363.034 338.307 365.967 340L400.608 360C406.347 363.314 415.653 363.314 421.392 360L456.033 340C458.903 338.343 460.338 336.172 460.338 334H460.34V332H459.926C459.313 330.534 458.015 329.144 456.033 328L421.392 308C415.653 304.686 406.347 304.686 400.608 308L365.967 328C363.985 329.144 362.687 330.534 362.074 332H361.664L361.664 333.858Z" fill="url(#paint22_linear)"/>
<path fill-rule="evenodd" clip-rule="evenodd" d="M361.664 333.858C361.6 336.076 363.034 338.307 365.967 340L400.608 360C406.347 363.314 415.653 363.314 421.392 360L456.033 340C458.903 338.343 460.338 336.172 460.338 334H460.34V332H459.926C459.313 330.534 458.015 329.144 456.033 328L421.392 308C415.653 304.686 406.347 304.686 400.608 308L365.967 328C363.985 329.144 362.687 330.534 362.074 332H361.664L361.664 333.858Z" fill="#41546C" fill-opacity="0.6"/>
</g>
<rect x="0.433013" width="63.5" height="63.5" rx="11.75" transform="matrix(0.866025 -0.5 0.866025 0.5 355.632 332.217)" fill="#41546C"/>
<path d="M409.476 333.744L411.831 332.384L414.187 331.024L406.164 329.112L409.476 333.744Z" fill="white"/>
<path d="M397.227 323.952L388.927 334.056L407.952 342.768L424.94 339.952L429.817 330.144L414.727 319.16L397.227 323.952ZM426.422 331.512L423.415 333.248L417.748 331.848L414.326 333.824L410.903 335.8L413.328 339.072L410.321 340.808L400.289 325.72L426.422 331.512Z" fill="white"/>
<rect x="0.433013" width="63.5" height="63.5" rx="11.75" transform="matrix(0.866025 -0.5 0.866025 0.5 355.632 332.217)" stroke="#7187A5" stroke-width="0.5"/>
<defs>
<filter id="filter0_d" x="209.574" y="54" width="118.851" height="72" filterUnits="userSpaceOnUse" color-interpolation-filters="sRGB">
<feFlood flood-opacity="0" result="BackgroundImageFix"/>
<feColorMatrix in="SourceAlpha" type="matrix" values="0 0 0 0 0 0 0 0 0 0 0 0 0 0 0 0 0 0 127 0"/>
<feOffset dy="2"/>
<feGaussianBlur stdDeviation="2"/>
<feColorMatrix type="matrix" values="0 0 0 0 0.156863 0 0 0 0 0.2 0 0 0 0 0.254902 0 0 0 1 0"/>
<feBlend mode="normal" in2="BackgroundImageFix" result="effect1_dropShadow"/>
<feBlend mode="normal" in="SourceGraphic" in2="effect1_dropShadow" result="shape"/>
</filter>
<filter id="filter1_ii" x="189.662" y="27.9999" width="128.678" height="88.4853" filterUnits="userSpaceOnUse" color-interpolation-filters="sRGB">
<feFlood flood-opacity="0" result="BackgroundImageFix"/>
<feBlend mode="normal" in="SourceGraphic" in2="BackgroundImageFix" result="shape"/>
<feColorMatrix in="SourceAlpha" type="matrix" values="0 0 0 0 0 0 0 0 0 0 0 0 0 0 0 0 0 0 127 0" result="hardAlpha"/>
<feOffset dx="-30" dy="-40"/>
<feGaussianBlur stdDeviation="15"/>
<feComposite in2="hardAlpha" operator="arithmetic" k2="-1" k3="1"/>
<feColorMatrix type="matrix" values="0 0 0 0 0.156863 0 0 0 0 0.2 0 0 0 0 0.254902 0 0 0 0.3 0"/>
<feBlend mode="normal" in2="shape" result="effect1_innerShadow"/>
<feColorMatrix in="SourceAlpha" type="matrix" values="0 0 0 0 0 0 0 0 0 0 0 0 0 0 0 0 0 0 127 0" result="hardAlpha"/>
<feOffset dy="-10"/>
<feGaussianBlur stdDeviation="10"/>
<feComposite in2="hardAlpha" operator="arithmetic" k2="-1" k3="1"/>
<feColorMatrix type="matrix" values="0 0 0 0 1 0 0 0 0 1 0 0 0 0 1 0 0 0 0.1 0"/>
<feBlend mode="normal" in2="effect1_innerShadow" result="effect2_innerShadow"/>
</filter>
<filter id="filter2_d" x="-3.42566" y="95" width="118.851" height="72" filterUnits="userSpaceOnUse" color-interpolation-filters="sRGB">
<feFlood flood-opacity="0" result="BackgroundImageFix"/>
<feColorMatrix in="SourceAlpha" type="matrix" values="0 0 0 0 0 0 0 0 0 0 0 0 0 0 0 0 0 0 127 0"/>
<feOffset dy="2"/>
<feGaussianBlur stdDeviation="2"/>
<feColorMatrix type="matrix" values="0 0 0 0 0.156863 0 0 0 0 0.2 0 0 0 0 0.254902 0 0 0 1 0"/>
<feBlend mode="normal" in2="BackgroundImageFix" result="effect1_dropShadow"/>
<feBlend mode="normal" in="SourceGraphic" in2="effect1_dropShadow" result="shape"/>
</filter>
<filter id="filter3_ii" x="-23.3379" y="70.5146" width="128.678" height="86.9706" filterUnits="userSpaceOnUse" color-interpolation-filters="sRGB">
<feFlood flood-opacity="0" result="BackgroundImageFix"/>
<feBlend mode="normal" in="SourceGraphic" in2="BackgroundImageFix" result="shape"/>
<feColorMatrix in="SourceAlpha" type="matrix" values="0 0 0 0 0 0 0 0 0 0 0 0 0 0 0 0 0 0 127 0" result="hardAlpha"/>
<feOffset dx="-30" dy="-40"/>
<feGaussianBlur stdDeviation="15"/>
<feComposite in2="hardAlpha" operator="arithmetic" k2="-1" k3="1"/>
<feColorMatrix type="matrix" values="0 0 0 0 0.156863 0 0 0 0 0.2 0 0 0 0 0.254902 0 0 0 0.3 0"/>
<feBlend mode="normal" in2="shape" result="effect1_innerShadow"/>
<feColorMatrix in="SourceAlpha" type="matrix" values="0 0 0 0 0 0 0 0 0 0 0 0 0 0 0 0 0 0 127 0" result="hardAlpha"/>
<feOffset dy="-10"/>
<feGaussianBlur stdDeviation="10"/>
<feComposite in2="hardAlpha" operator="arithmetic" k2="-1" k3="1"/>
<feColorMatrix type="matrix" values="0 0 0 0 1 0 0 0 0 1 0 0 0 0 1 0 0 0 0.1 0"/>
<feBlend mode="normal" in2="effect1_innerShadow" result="effect2_innerShadow"/>
</filter>
<filter id="filter4_d" x="138.574" y="95" width="118.851" height="72" filterUnits="userSpaceOnUse" color-interpolation-filters="sRGB">
<feFlood flood-opacity="0" result="BackgroundImageFix"/>
<feColorMatrix in="SourceAlpha" type="matrix" values="0 0 0 0 0 0 0 0 0 0 0 0 0 0 0 0 0 0 127 0"/>
<feOffset dy="2"/>
<feGaussianBlur stdDeviation="2"/>
<feColorMatrix type="matrix" values="0 0 0 0 0.156863 0 0 0 0 0.2 0 0 0 0 0.254902 0 0 0 1 0"/>
<feBlend mode="normal" in2="BackgroundImageFix" result="effect1_dropShadow"/>
<feBlend mode="normal" in="SourceGraphic" in2="effect1_dropShadow" result="shape"/>
</filter>
<filter id="filter5_ii" x="118.662" y="70.5147" width="128.678" height="86.9706" filterUnits="userSpaceOnUse" color-interpolation-filters="sRGB">
<feFlood flood-opacity="0" result="BackgroundImageFix"/>
<feBlend mode="normal" in="SourceGraphic" in2="BackgroundImageFix" result="shape"/>
<feColorMatrix in="SourceAlpha" type="matrix" values="0 0 0 0 0 0 0 0 0 0 0 0 0 0 0 0 0 0 127 0" result="hardAlpha"/>
<feOffset dx="-30" dy="-40"/>
<feGaussianBlur stdDeviation="15"/>
<feComposite in2="hardAlpha" operator="arithmetic" k2="-1" k3="1"/>
<feColorMatrix type="matrix" values="0 0 0 0 0.156863 0 0 0 0 0.2 0 0 0 0 0.254902 0 0 0 0.3 0"/>
<feBlend mode="normal" in2="shape" result="effect1_innerShadow"/>
<feColorMatrix in="SourceAlpha" type="matrix" values="0 0 0 0 0 0 0 0 0 0 0 0 0 0 0 0 0 0 127 0" result="hardAlpha"/>
<feOffset dy="-10"/>
<feGaussianBlur stdDeviation="10"/>
<feComposite in2="hardAlpha" operator="arithmetic" k2="-1" k3="1"/>
<feColorMatrix type="matrix" values="0 0 0 0 1 0 0 0 0 1 0 0 0 0 1 0 0 0 0.1 0"/>
<feBlend mode="normal" in2="effect1_innerShadow" result="effect2_innerShadow"/>
</filter>
<filter id="filter6_d" x="422.574" y="95" width="118.851" height="72" filterUnits="userSpaceOnUse" color-interpolation-filters="sRGB">
<feFlood flood-opacity="0" result="BackgroundImageFix"/>
<feColorMatrix in="SourceAlpha" type="matrix" values="0 0 0 0 0 0 0 0 0 0 0 0 0 0 0 0 0 0 127 0"/>
<feOffset dy="2"/>
<feGaussianBlur stdDeviation="2"/>
<feColorMatrix type="matrix" values="0 0 0 0 0.156863 0 0 0 0 0.2 0 0 0 0 0.254902 0 0 0 1 0"/>
<feBlend mode="normal" in2="BackgroundImageFix" result="effect1_dropShadow"/>
<feBlend mode="normal" in="SourceGraphic" in2="effect1_dropShadow" result="shape"/>
</filter>
<filter id="filter7_ii" x="402.662" y="70.5146" width="128.678" height="86.9706" filterUnits="userSpaceOnUse" color-interpolation-filters="sRGB">
<feFlood flood-opacity="0" result="BackgroundImageFix"/>
<feBlend mode="normal" in="SourceGraphic" in2="BackgroundImageFix" result="shape"/>
<feColorMatrix in="SourceAlpha" type="matrix" values="0 0 0 0 0 0 0 0 0 0 0 0 0 0 0 0 0 0 127 0" result="hardAlpha"/>
<feOffset dx="-30" dy="-40"/>
<feGaussianBlur stdDeviation="15"/>
<feComposite in2="hardAlpha" operator="arithmetic" k2="-1" k3="1"/>
<feColorMatrix type="matrix" values="0 0 0 0 0.156863 0 0 0 0 0.2 0 0 0 0 0.254902 0 0 0 0.3 0"/>
<feBlend mode="normal" in2="shape" result="effect1_innerShadow"/>
<feColorMatrix in="SourceAlpha" type="matrix" values="0 0 0 0 0 0 0 0 0 0 0 0 0 0 0 0 0 0 127 0" result="hardAlpha"/>
<feOffset dy="-10"/>
<feGaussianBlur stdDeviation="10"/>
<feComposite in2="hardAlpha" operator="arithmetic" k2="-1" k3="1"/>
<feColorMatrix type="matrix" values="0 0 0 0 1 0 0 0 0 1 0 0 0 0 1 0 0 0 0.1 0"/>
<feBlend mode="normal" in2="effect1_innerShadow" result="effect2_innerShadow"/>
</filter>
<filter id="filter8_d" x="67.5743" y="136" width="118.851" height="72" filterUnits="userSpaceOnUse" color-interpolation-filters="sRGB">
<feFlood flood-opacity="0" result="BackgroundImageFix"/>
<feColorMatrix in="SourceAlpha" type="matrix" values="0 0 0 0 0 0 0 0 0 0 0 0 0 0 0 0 0 0 127 0"/>
<feOffset dy="2"/>
<feGaussianBlur stdDeviation="2"/>
<feColorMatrix type="matrix" values="0 0 0 0 0.156863 0 0 0 0 0.2 0 0 0 0 0.254902 0 0 0 1 0"/>
<feBlend mode="normal" in2="BackgroundImageFix" result="effect1_dropShadow"/>
<feBlend mode="normal" in="SourceGraphic" in2="effect1_dropShadow" result="shape"/>
</filter>
<filter id="filter9_ii" x="47.6621" y="111.515" width="128.678" height="86.9706" filterUnits="userSpaceOnUse" color-interpolation-filters="sRGB">
<feFlood flood-opacity="0" result="BackgroundImageFix"/>
<feBlend mode="normal" in="SourceGraphic" in2="BackgroundImageFix" result="shape"/>
<feColorMatrix in="SourceAlpha" type="matrix" values="0 0 0 0 0 0 0 0 0 0 0 0 0 0 0 0 0 0 127 0" result="hardAlpha"/>
<feOffset dx="-30" dy="-40"/>
<feGaussianBlur stdDeviation="15"/>
<feComposite in2="hardAlpha" operator="arithmetic" k2="-1" k3="1"/>
<feColorMatrix type="matrix" values="0 0 0 0 0.156863 0 0 0 0 0.2 0 0 0 0 0.254902 0 0 0 0.3 0"/>
<feBlend mode="normal" in2="shape" result="effect1_innerShadow"/>
<feColorMatrix in="SourceAlpha" type="matrix" values="0 0 0 0 0 0 0 0 0 0 0 0 0 0 0 0 0 0 127 0" result="hardAlpha"/>
<feOffset dy="-10"/>
<feGaussianBlur stdDeviation="10"/>
<feComposite in2="hardAlpha" operator="arithmetic" k2="-1" k3="1"/>
<feColorMatrix type="matrix" values="0 0 0 0 1 0 0 0 0 1 0 0 0 0 1 0 0 0 0.1 0"/>
<feBlend mode="normal" in2="effect1_innerShadow" result="effect2_innerShadow"/>
</filter>
<filter id="filter10_d" x="351.574" y="136" width="118.851" height="72" filterUnits="userSpaceOnUse" color-interpolation-filters="sRGB">
<feFlood flood-opacity="0" result="BackgroundImageFix"/>
<feColorMatrix in="SourceAlpha" type="matrix" values="0 0 0 0 0 0 0 0 0 0 0 0 0 0 0 0 0 0 127 0"/>
<feOffset dy="2"/>
<feGaussianBlur stdDeviation="2"/>
<feColorMatrix type="matrix" values="0 0 0 0 0.156863 0 0 0 0 0.2 0 0 0 0 0.254902 0 0 0 1 0"/>
<feBlend mode="normal" in2="BackgroundImageFix" result="effect1_dropShadow"/>
<feBlend mode="normal" in="SourceGraphic" in2="effect1_dropShadow" result="shape"/>
</filter>
<filter id="filter11_ii" x="331.662" y="102" width="128.678" height="96.4853" filterUnits="userSpaceOnUse" color-interpolation-filters="sRGB">
<feFlood flood-opacity="0" result="BackgroundImageFix"/>
<feBlend mode="normal" in="SourceGraphic" in2="BackgroundImageFix" result="shape"/>
<feColorMatrix in="SourceAlpha" type="matrix" values="0 0 0 0 0 0 0 0 0 0 0 0 0 0 0 0 0 0 127 0" result="hardAlpha"/>
<feOffset dx="-30" dy="-40"/>
<feGaussianBlur stdDeviation="15"/>
<feComposite in2="hardAlpha" operator="arithmetic" k2="-1" k3="1"/>
<feColorMatrix type="matrix" values="0 0 0 0 0.156863 0 0 0 0 0.2 0 0 0 0 0.254902 0 0 0 0.3 0"/>
<feBlend mode="normal" in2="shape" result="effect1_innerShadow"/>
<feColorMatrix in="SourceAlpha" type="matrix" values="0 0 0 0 0 0 0 0 0 0 0 0 0 0 0 0 0 0 127 0" result="hardAlpha"/>
<feOffset dy="-10"/>
<feGaussianBlur stdDeviation="10"/>
<feComposite in2="hardAlpha" operator="arithmetic" k2="-1" k3="1"/>
<feColorMatrix type="matrix" values="0 0 0 0 1 0 0 0 0 1 0 0 0 0 1 0 0 0 0.1 0"/>
<feBlend mode="normal" in2="effect1_innerShadow" result="effect2_innerShadow"/>
</filter>
<filter id="filter12_d" x="422.574" y="177" width="118.851" height="72" filterUnits="userSpaceOnUse" color-interpolation-filters="sRGB">
<feFlood flood-opacity="0" result="BackgroundImageFix"/>
<feColorMatrix in="SourceAlpha" type="matrix" values="0 0 0 0 0 0 0 0 0 0 0 0 0 0 0 0 0 0 127 0"/>
<feOffset dy="2"/>
<feGaussianBlur stdDeviation="2"/>
<feColorMatrix type="matrix" values="0 0 0 0 0.156863 0 0 0 0 0.2 0 0 0 0 0.254902 0 0 0 1 0"/>
<feBlend mode="normal" in2="BackgroundImageFix" result="effect1_dropShadow"/>
<feBlend mode="normal" in="SourceGraphic" in2="effect1_dropShadow" result="shape"/>
</filter>
<filter id="filter13_ii" x="402.662" y="152.515" width="128.678" height="86.9706" filterUnits="userSpaceOnUse" color-interpolation-filters="sRGB">
<feFlood flood-opacity="0" result="BackgroundImageFix"/>
<feBlend mode="normal" in="SourceGraphic" in2="BackgroundImageFix" result="shape"/>
<feColorMatrix in="SourceAlpha" type="matrix" values="0 0 0 0 0 0 0 0 0 0 0 0 0 0 0 0 0 0 127 0" result="hardAlpha"/>
<feOffset dx="-30" dy="-40"/>
<feGaussianBlur stdDeviation="15"/>
<feComposite in2="hardAlpha" operator="arithmetic" k2="-1" k3="1"/>
<feColorMatrix type="matrix" values="0 0 0 0 0.156863 0 0 0 0 0.2 0 0 0 0 0.254902 0 0 0 0.3 0"/>
<feBlend mode="normal" in2="shape" result="effect1_innerShadow"/>
<feColorMatrix in="SourceAlpha" type="matrix" values="0 0 0 0 0 0 0 0 0 0 0 0 0 0 0 0 0 0 127 0" result="hardAlpha"/>
<feOffset dy="-10"/>
<feGaussianBlur stdDeviation="10"/>
<feComposite in2="hardAlpha" operator="arithmetic" k2="-1" k3="1"/>
<feColorMatrix type="matrix" values="0 0 0 0 1 0 0 0 0 1 0 0 0 0 1 0 0 0 0.1 0"/>
<feBlend mode="normal" in2="effect1_innerShadow" result="effect2_innerShadow"/>
</filter>
<filter id="filter14_d" x="154.149" y="146" width="229.703" height="136" filterUnits="userSpaceOnUse" color-interpolation-filters="sRGB">
<feFlood flood-opacity="0" result="BackgroundImageFix"/>
<feColorMatrix in="SourceAlpha" type="matrix" values="0 0 0 0 0 0 0 0 0 0 0 0 0 0 0 0 0 0 127 0"/>
<feOffset dy="2"/>
<feGaussianBlur stdDeviation="2"/>
<feColorMatrix type="matrix" values="0 0 0 0 0.156863 0 0 0 0 0.2 0 0 0 0 0.254902 0 0 0 1 0"/>
<feBlend mode="normal" in2="BackgroundImageFix" result="effect1_dropShadow"/>
<feBlend mode="normal" in="SourceGraphic" in2="effect1_dropShadow" result="shape"/>
</filter>
<filter id="filter15_ii" x="140.324" y="125.029" width="227.356" height="143.941" filterUnits="userSpaceOnUse" color-interpolation-filters="sRGB">
<feFlood flood-opacity="0" result="BackgroundImageFix"/>
<feBlend mode="normal" in="SourceGraphic" in2="BackgroundImageFix" result="shape"/>
<feColorMatrix in="SourceAlpha" type="matrix" values="0 0 0 0 0 0 0 0 0 0 0 0 0 0 0 0 0 0 127 0" result="hardAlpha"/>
<feOffset dx="-30" dy="-40"/>
<feGaussianBlur stdDeviation="15"/>
<feComposite in2="hardAlpha" operator="arithmetic" k2="-1" k3="1"/>
<feColorMatrix type="matrix" values="0 0 0 0 0.156863 0 0 0 0 0.2 0 0 0 0 0.254902 0 0 0 0.3 0"/>
<feBlend mode="normal" in2="shape" result="effect1_innerShadow"/>
<feColorMatrix in="SourceAlpha" type="matrix" values="0 0 0 0 0 0 0 0 0 0 0 0 0 0 0 0 0 0 127 0" result="hardAlpha"/>
<feOffset dy="-10"/>
<feGaussianBlur stdDeviation="10"/>
<feComposite in2="hardAlpha" operator="arithmetic" k2="-1" k3="1"/>
<feColorMatrix type="matrix" values="0 0 0 0 1 0 0 0 0 1 0 0 0 0 1 0 0 0 0.1 0"/>
<feBlend mode="normal" in2="effect1_innerShadow" result="effect2_innerShadow"/>
</filter>
<filter id="filter16_d" x="67.5743" y="218" width="118.851" height="72" filterUnits="userSpaceOnUse" color-interpolation-filters="sRGB">
<feFlood flood-opacity="0" result="BackgroundImageFix"/>
<feColorMatrix in="SourceAlpha" type="matrix" values="0 0 0 0 0 0 0 0 0 0 0 0 0 0 0 0 0 0 127 0"/>
<feOffset dy="2"/>
<feGaussianBlur stdDeviation="2"/>
<feColorMatrix type="matrix" values="0 0 0 0 0.156863 0 0 0 0 0.2 0 0 0 0 0.254902 0 0 0 1 0"/>
<feBlend mode="normal" in2="BackgroundImageFix" result="effect1_dropShadow"/>
<feBlend mode="normal" in="SourceGraphic" in2="effect1_dropShadow" result="shape"/>
</filter>
<filter id="filter17_ii" x="47.6621" y="193.515" width="128.678" height="86.9706" filterUnits="userSpaceOnUse" color-interpolation-filters="sRGB">
<feFlood flood-opacity="0" result="BackgroundImageFix"/>
<feBlend mode="normal" in="SourceGraphic" in2="BackgroundImageFix" result="shape"/>
<feColorMatrix in="SourceAlpha" type="matrix" values="0 0 0 0 0 0 0 0 0 0 0 0 0 0 0 0 0 0 127 0" result="hardAlpha"/>
<feOffset dx="-30" dy="-40"/>
<feGaussianBlur stdDeviation="15"/>
<feComposite in2="hardAlpha" operator="arithmetic" k2="-1" k3="1"/>
<feColorMatrix type="matrix" values="0 0 0 0 0.156863 0 0 0 0 0.2 0 0 0 0 0.254902 0 0 0 0.3 0"/>
<feBlend mode="normal" in2="shape" result="effect1_innerShadow"/>
<feColorMatrix in="SourceAlpha" type="matrix" values="0 0 0 0 0 0 0 0 0 0 0 0 0 0 0 0 0 0 127 0" result="hardAlpha"/>
<feOffset dy="-10"/>
<feGaussianBlur stdDeviation="10"/>
<feComposite in2="hardAlpha" operator="arithmetic" k2="-1" k3="1"/>
<feColorMatrix type="matrix" values="0 0 0 0 1 0 0 0 0 1 0 0 0 0 1 0 0 0 0.1 0"/>
<feBlend mode="normal" in2="effect1_innerShadow" result="effect2_innerShadow"/>
</filter>
<filter id="filter18_d" x="351.574" y="218" width="118.851" height="72" filterUnits="userSpaceOnUse" color-interpolation-filters="sRGB">
<feFlood flood-opacity="0" result="BackgroundImageFix"/>
<feColorMatrix in="SourceAlpha" type="matrix" values="0 0 0 0 0 0 0 0 0 0 0 0 0 0 0 0 0 0 127 0"/>
<feOffset dy="2"/>
<feGaussianBlur stdDeviation="2"/>
<feColorMatrix type="matrix" values="0 0 0 0 0.156863 0 0 0 0 0.2 0 0 0 0 0.254902 0 0 0 1 0"/>
<feBlend mode="normal" in2="BackgroundImageFix" result="effect1_dropShadow"/>
<feBlend mode="normal" in="SourceGraphic" in2="effect1_dropShadow" result="shape"/>
</filter>
<filter id="filter19_ii" x="331.662" y="193.515" width="128.678" height="86.9706" filterUnits="userSpaceOnUse" color-interpolation-filters="sRGB">
<feFlood flood-opacity="0" result="BackgroundImageFix"/>
<feBlend mode="normal" in="SourceGraphic" in2="BackgroundImageFix" result="shape"/>
<feColorMatrix in="SourceAlpha" type="matrix" values="0 0 0 0 0 0 0 0 0 0 0 0 0 0 0 0 0 0 127 0" result="hardAlpha"/>
<feOffset dx="-30" dy="-40"/>
<feGaussianBlur stdDeviation="15"/>
<feComposite in2="hardAlpha" operator="arithmetic" k2="-1" k3="1"/>
<feColorMatrix type="matrix" values="0 0 0 0 0.156863 0 0 0 0 0.2 0 0 0 0 0.254902 0 0 0 0.3 0"/>
<feBlend mode="normal" in2="shape" result="effect1_innerShadow"/>
<feColorMatrix in="SourceAlpha" type="matrix" values="0 0 0 0 0 0 0 0 0 0 0 0 0 0 0 0 0 0 127 0" result="hardAlpha"/>
<feOffset dy="-10"/>
<feGaussianBlur stdDeviation="10"/>
<feComposite in2="hardAlpha" operator="arithmetic" k2="-1" k3="1"/>
<feColorMatrix type="matrix" values="0 0 0 0 1 0 0 0 0 1 0 0 0 0 1 0 0 0 0.1 0"/>
<feBlend mode="normal" in2="effect1_innerShadow" result="effect2_innerShadow"/>
</filter>
<filter id="filter20_d" x="-3.42567" y="259" width="118.851" height="72" filterUnits="userSpaceOnUse" color-interpolation-filters="sRGB">
<feFlood flood-opacity="0" result="BackgroundImageFix"/>
<feColorMatrix in="SourceAlpha" type="matrix" values="0 0 0 0 0 0 0 0 0 0 0 0 0 0 0 0 0 0 127 0"/>
<feOffset dy="2"/>
<feGaussianBlur stdDeviation="2"/>
<feColorMatrix type="matrix" values="0 0 0 0 0.156863 0 0 0 0 0.2 0 0 0 0 0.254902 0 0 0 1 0"/>
<feBlend mode="normal" in2="BackgroundImageFix" result="effect1_dropShadow"/>
<feBlend mode="normal" in="SourceGraphic" in2="effect1_dropShadow" result="shape"/>
</filter>
<filter id="filter21_ii" x="-23.3379" y="234.515" width="128.678" height="86.9706" filterUnits="userSpaceOnUse" color-interpolation-filters="sRGB">
<feFlood flood-opacity="0" result="BackgroundImageFix"/>
<feBlend mode="normal" in="SourceGraphic" in2="BackgroundImageFix" result="shape"/>
<feColorMatrix in="SourceAlpha" type="matrix" values="0 0 0 0 0 0 0 0 0 0 0 0 0 0 0 0 0 0 127 0" result="hardAlpha"/>
<feOffset dx="-30" dy="-40"/>
<feGaussianBlur stdDeviation="15"/>
<feComposite in2="hardAlpha" operator="arithmetic" k2="-1" k3="1"/>
<feColorMatrix type="matrix" values="0 0 0 0 0.156863 0 0 0 0 0.2 0 0 0 0 0.254902 0 0 0 0.3 0"/>
<feBlend mode="normal" in2="shape" result="effect1_innerShadow"/>
<feColorMatrix in="SourceAlpha" type="matrix" values="0 0 0 0 0 0 0 0 0 0 0 0 0 0 0 0 0 0 127 0" result="hardAlpha"/>
<feOffset dy="-10"/>
<feGaussianBlur stdDeviation="10"/>
<feComposite in2="hardAlpha" operator="arithmetic" k2="-1" k3="1"/>
<feColorMatrix type="matrix" values="0 0 0 0 1 0 0 0 0 1 0 0 0 0 1 0 0 0 0.1 0"/>
<feBlend mode="normal" in2="effect1_innerShadow" result="effect2_innerShadow"/>
</filter>
<filter id="filter22_d" x="138.574" y="259" width="118.851" height="72" filterUnits="userSpaceOnUse" color-interpolation-filters="sRGB">
<feFlood flood-opacity="0" result="BackgroundImageFix"/>
<feColorMatrix in="SourceAlpha" type="matrix" values="0 0 0 0 0 0 0 0 0 0 0 0 0 0 0 0 0 0 127 0"/>
<feOffset dy="2"/>
<feGaussianBlur stdDeviation="2"/>
<feColorMatrix type="matrix" values="0 0 0 0 0.156863 0 0 0 0 0.2 0 0 0 0 0.254902 0 0 0 1 0"/>
<feBlend mode="normal" in2="BackgroundImageFix" result="effect1_dropShadow"/>
<feBlend mode="normal" in="SourceGraphic" in2="effect1_dropShadow" result="shape"/>
</filter>
<filter id="filter23_ii" x="118.662" y="234.515" width="128.678" height="86.9706" filterUnits="userSpaceOnUse" color-interpolation-filters="sRGB">
<feFlood flood-opacity="0" result="BackgroundImageFix"/>
<feBlend mode="normal" in="SourceGraphic" in2="BackgroundImageFix" result="shape"/>
<feColorMatrix in="SourceAlpha" type="matrix" values="0 0 0 0 0 0 0 0 0 0 0 0 0 0 0 0 0 0 127 0" result="hardAlpha"/>
<feOffset dx="-30" dy="-40"/>
<feGaussianBlur stdDeviation="15"/>
<feComposite in2="hardAlpha" operator="arithmetic" k2="-1" k3="1"/>
<feColorMatrix type="matrix" values="0 0 0 0 0.156863 0 0 0 0 0.2 0 0 0 0 0.254902 0 0 0 0.3 0"/>
<feBlend mode="normal" in2="shape" result="effect1_innerShadow"/>
<feColorMatrix in="SourceAlpha" type="matrix" values="0 0 0 0 0 0 0 0 0 0 0 0 0 0 0 0 0 0 127 0" result="hardAlpha"/>
<feOffset dy="-10"/>
<feGaussianBlur stdDeviation="10"/>
<feComposite in2="hardAlpha" operator="arithmetic" k2="-1" k3="1"/>
<feColorMatrix type="matrix" values="0 0 0 0 1 0 0 0 0 1 0 0 0 0 1 0 0 0 0.1 0"/>
<feBlend mode="normal" in2="effect1_innerShadow" result="effect2_innerShadow"/>
</filter>
<filter id="filter24_d" x="351.574" y="300" width="118.851" height="72" filterUnits="userSpaceOnUse" color-interpolation-filters="sRGB">
<feFlood flood-opacity="0" result="BackgroundImageFix"/>
<feColorMatrix in="SourceAlpha" type="matrix" values="0 0 0 0 0 0 0 0 0 0 0 0 0 0 0 0 0 0 127 0"/>
<feOffset dy="2"/>
<feGaussianBlur stdDeviation="2"/>
<feColorMatrix type="matrix" values="0 0 0 0 0.156863 0 0 0 0 0.2 0 0 0 0 0.254902 0 0 0 1 0"/>
<feBlend mode="normal" in2="BackgroundImageFix" result="effect1_dropShadow"/>
<feBlend mode="normal" in="SourceGraphic" in2="effect1_dropShadow" result="shape"/>
</filter>
<filter id="filter25_ii" x="331.662" y="275.515" width="128.678" height="86.9706" filterUnits="userSpaceOnUse" color-interpolation-filters="sRGB">
<feFlood flood-opacity="0" result="BackgroundImageFix"/>
<feBlend mode="normal" in="SourceGraphic" in2="BackgroundImageFix" result="shape"/>
<feColorMatrix in="SourceAlpha" type="matrix" values="0 0 0 0 0 0 0 0 0 0 0 0 0 0 0 0 0 0 127 0" result="hardAlpha"/>
<feOffset dx="-30" dy="-40"/>
<feGaussianBlur stdDeviation="15"/>
<feComposite in2="hardAlpha" operator="arithmetic" k2="-1" k3="1"/>
<feColorMatrix type="matrix" values="0 0 0 0 0.156863 0 0 0 0 0.2 0 0 0 0 0.254902 0 0 0 0.3 0"/>
<feBlend mode="normal" in2="shape" result="effect1_innerShadow"/>
<feColorMatrix in="SourceAlpha" type="matrix" values="0 0 0 0 0 0 0 0 0 0 0 0 0 0 0 0 0 0 127 0" result="hardAlpha"/>
<feOffset dy="-10"/>
<feGaussianBlur stdDeviation="10"/>
<feComposite in2="hardAlpha" operator="arithmetic" k2="-1" k3="1"/>
<feColorMatrix type="matrix" values="0 0 0 0 1 0 0 0 0 1 0 0 0 0 1 0 0 0 0.1 0"/>
<feBlend mode="normal" in2="effect1_innerShadow" result="effect2_innerShadow"/>
</filter>
<linearGradient id="paint0_linear" x1="269" y1="116.016" x2="220" y2="116.016" gradientUnits="userSpaceOnUse">
<stop stop-color="#7087A5"/>
<stop offset="1" stop-color="#D6E4F7"/>
</linearGradient>
<linearGradient id="paint1_linear" x1="56" y1="157.028" x2="7" y2="157.028" gradientUnits="userSpaceOnUse">
<stop stop-color="#7087A5"/>
<stop offset="1" stop-color="#D6E4F7"/>
</linearGradient>
<linearGradient id="paint2_linear" x1="198" y1="157.028" x2="149" y2="157.028" gradientUnits="userSpaceOnUse">
<stop stop-color="#7087A5"/>
<stop offset="1" stop-color="#D6E4F7"/>
</linearGradient>
<linearGradient id="paint3_linear" x1="482" y1="157.028" x2="433" y2="157.028" gradientUnits="userSpaceOnUse">
<stop stop-color="#7087A5"/>
<stop offset="1" stop-color="#D6E4F7"/>
</linearGradient>
<linearGradient id="paint4_linear" x1="505.587" y1="98.7588" x2="477.113" y2="82.879" gradientUnits="userSpaceOnUse">
<stop offset="0.0429448"/>
<stop offset="1" stop-color="white"/>
</linearGradient>
<linearGradient id="paint5_linear" x1="499.764" y1="109.198" x2="471.29" y2="93.3178" gradientUnits="userSpaceOnUse">
<stop offset="0.0429448" stop-color="#5C257E"/>
<stop offset="1" stop-color="white"/>
</linearGradient>
<linearGradient id="paint6_linear" x1="471.713" y1="104.603" x2="493.881" y2="116.966" gradientUnits="userSpaceOnUse">
<stop offset="0.2331" stop-color="#F9F9F9"/>
<stop offset="0.8405"/>
</linearGradient>
<linearGradient id="paint7_linear" x1="477.535" y1="94.1665" x2="499.702" y2="106.529" gradientUnits="userSpaceOnUse">
<stop offset="0.2331" stop-color="white"/>
<stop offset="0.8405"/>
</linearGradient>
<linearGradient id="paint8_linear" x1="127" y1="198.028" x2="78" y2="198.028" gradientUnits="userSpaceOnUse">
<stop stop-color="#7087A5"/>
<stop offset="1" stop-color="#D6E4F7"/>
</linearGradient>
<linearGradient id="paint9_linear" x1="411" y1="197.952" x2="362" y2="197.952" gradientUnits="userSpaceOnUse">
<stop stop-color="#7087A5"/>
<stop offset="1" stop-color="#D6E4F7"/>
</linearGradient>
<linearGradient id="paint10_linear" x1="482" y1="239.028" x2="433" y2="239.028" gradientUnits="userSpaceOnUse">
<stop stop-color="#7087A5"/>
<stop offset="1" stop-color="#D6E4F7"/>
</linearGradient>
<linearGradient id="paint11_linear" x1="269" y1="268.056" x2="171" y2="268.056" gradientUnits="userSpaceOnUse">
<stop stop-color="#7087A5"/>
<stop offset="1" stop-color="#D6E4F7"/>
</linearGradient>
<linearGradient id="paint12_linear" x1="0" y1="0" x2="128.172" y2="128.172" gradientUnits="userSpaceOnUse">
<stop offset="0.104167" stop-color="#ACC9DA"/>
<stop offset="0.203125" stop-color="#E7AED2"/>
<stop offset="0.317708" stop-color="#FF9ECA"/>
<stop offset="0.479167" stop-color="#6EFFFB"/>
<stop offset="0.536458" stop-color="#BCFFDF"/>
<stop offset="0.692708" stop-color="#FF9FB4"/>
<stop offset="0.918609" stop-color="#ACB8DA"/>
</linearGradient>
<linearGradient id="paint13_linear" x1="18.0242" y1="17.2231" x2="113.752" y2="104.54" gradientUnits="userSpaceOnUse">
<stop stop-color="#D6E4F7" stop-opacity="0.83"/>
<stop offset="1" stop-color="#D6E4F7" stop-opacity="0.46"/>
</linearGradient>
<linearGradient id="paint14_linear" x1="223.125" y1="213.6" x2="299.392" y2="242.111" gradientUnits="userSpaceOnUse">
<stop offset="0.104167" stop-color="#ACC9DA"/>
<stop offset="0.203125" stop-color="#E7AED2"/>
<stop offset="0.317708" stop-color="#FF9ECA"/>
<stop offset="0.479167" stop-color="#6EFFFB"/>
<stop offset="0.536458" stop-color="#BCFFDF"/>
<stop offset="0.692708" stop-color="#FF9FB4"/>
<stop offset="0.918609" stop-color="#ACB8DA"/>
</linearGradient>
<linearGradient id="paint15_linear" x1="235.723" y1="211.873" x2="293.449" y2="229.029" gradientUnits="userSpaceOnUse">
<stop stop-color="#D6E4F7" stop-opacity="0.83"/>
<stop offset="1" stop-color="#D6E4F7" stop-opacity="0.46"/>
</linearGradient>
<linearGradient id="paint16_linear" x1="0" y1="0" x2="128.172" y2="128.172" gradientUnits="userSpaceOnUse">
<stop offset="0.104167" stop-color="#ACC9DA"/>
<stop offset="0.203125" stop-color="#E7AED2"/>
<stop offset="0.317708" stop-color="#FF9ECA"/>
<stop offset="0.479167" stop-color="#6EFFFB"/>
<stop offset="0.536458" stop-color="#BCFFDF"/>
<stop offset="0.692708" stop-color="#FF9FB4"/>
<stop offset="0.918609" stop-color="#ACB8DA"/>
</linearGradient>
<linearGradient id="paint17_linear" x1="18.0242" y1="17.2231" x2="113.752" y2="104.54" gradientUnits="userSpaceOnUse">
<stop stop-color="#D6E4F7" stop-opacity="0.83"/>
<stop offset="1" stop-color="#D6E4F7" stop-opacity="0.46"/>
</linearGradient>
<linearGradient id="paint18_linear" x1="127" y1="280.028" x2="78" y2="280.028" gradientUnits="userSpaceOnUse">
<stop stop-color="#7087A5"/>
<stop offset="1" stop-color="#D6E4F7"/>
</linearGradient>
<linearGradient id="paint19_linear" x1="411" y1="280.028" x2="362" y2="280.028" gradientUnits="userSpaceOnUse">
<stop stop-color="#7087A5"/>
<stop offset="1" stop-color="#D6E4F7"/>
</linearGradient>
<linearGradient id="paint20_linear" x1="56" y1="321.028" x2="6.99999" y2="321.028" gradientUnits="userSpaceOnUse">
<stop stop-color="#7087A5"/>
<stop offset="1" stop-color="#D6E4F7"/>
</linearGradient>
<linearGradient id="paint21_linear" x1="198" y1="321.028" x2="149" y2="321.028" gradientUnits="userSpaceOnUse">
<stop stop-color="#7087A5"/>
<stop offset="1" stop-color="#D6E4F7"/>
</linearGradient>
<linearGradient id="paint22_linear" x1="411" y1="362.028" x2="362" y2="362.028" gradientUnits="userSpaceOnUse">
<stop stop-color="#7087A5"/>
<stop offset="1" stop-color="#D6E4F7"/>
</linearGradient>
<clipPath id="clip0">
<rect width="32" height="27.6" fill="white" transform="matrix(0.866025 -0.5 0.866025 0.5 243.019 59)"/>
</clipPath>
<clipPath id="clip1">
<rect width="32" height="32" fill="white" transform="matrix(0.866025 -0.5 0.866025 0.5 170.287 101)"/>
</clipPath>
<clipPath id="clip2">
<rect width="32" height="32" fill="white" transform="matrix(0.866025 -0.5 0.866025 0.5 454.287 209)"/>
</clipPath>
<clipPath id="clip3">
<rect width="64" height="64" fill="white" transform="matrix(0.866025 -0.5 0.866025 0.5 213.425 208)"/>
</clipPath>
<clipPath id="clip4">
<rect width="32" height="32" fill="white" transform="matrix(0.866025 -0.5 0.866025 0.5 99.2871 250)"/>
</clipPath>
<clipPath id="clip5">
<rect width="32" height="32" fill="white" transform="matrix(0.866025 -0.5 0.866025 0.5 383.287 250)"/>
</clipPath>
</defs>
</svg>
