<svg width="536" height="416" viewBox="0 0 536 416" fill="none" xmlns="http://www.w3.org/2000/svg">
<circle opacity="0.2" cx="272" cy="208" r="200" fill="#7187A5"/>
<circle opacity="0.2" cx="272" cy="208" r="133.333" fill="#7187A5"/>
<circle opacity="0.2" cx="272" cy="208" r="66.6667" fill="#7187A5"/>
<g filter="url(#filter0_d)">
<rect x="8" y="8" width="268" height="128" rx="12" fill="#283341"/>
<path d="M46.9721 45.9325C46.9271 46.0075 46.8771 46.065 46.8221 46.105C46.7721 46.14 46.7096 46.1575 46.6346 46.1575C46.5496 46.1575 46.4496 46.115 46.3346 46.03C46.2196 45.945 46.0746 45.8525 45.8996 45.7525C45.7296 45.6475 45.5221 45.5525 45.2771 45.4675C45.0371 45.3825 44.7446 45.34 44.3996 45.34C44.0746 45.34 43.7871 45.385 43.5371 45.475C43.2921 45.56 43.0846 45.6775 42.9146 45.8275C42.7496 45.9775 42.6246 46.155 42.5396 46.36C42.4546 46.56 42.4121 46.7775 42.4121 47.0125C42.4121 47.3125 42.4846 47.5625 42.6296 47.7625C42.7796 47.9575 42.9746 48.125 43.2146 48.265C43.4596 48.405 43.7346 48.5275 44.0396 48.6325C44.3496 48.7325 44.6646 48.8375 44.9846 48.9475C45.3096 49.0575 45.6246 49.1825 45.9296 49.3225C46.2396 49.4575 46.5146 49.63 46.7546 49.84C46.9996 50.05 47.1946 50.3075 47.3396 50.6125C47.4896 50.9175 47.5646 51.2925 47.5646 51.7375C47.5646 52.2075 47.4846 52.65 47.3246 53.065C47.1646 53.475 46.9296 53.8325 46.6196 54.1375C46.3146 54.4425 45.9371 54.6825 45.4871 54.8575C45.0421 55.0325 44.5346 55.12 43.9646 55.12C43.2646 55.12 42.6296 54.995 42.0596 54.745C41.4896 54.49 41.0021 54.1475 40.5971 53.7175L41.0171 53.0275C41.0571 52.9725 41.1046 52.9275 41.1596 52.8925C41.2196 52.8525 41.2846 52.8325 41.3546 52.8325C41.4196 52.8325 41.4921 52.86 41.5721 52.915C41.6571 52.965 41.7521 53.03 41.8571 53.11C41.9621 53.19 42.0821 53.2775 42.2171 53.3725C42.3521 53.4675 42.5046 53.555 42.6746 53.635C42.8496 53.715 43.0471 53.7825 43.2671 53.8375C43.4871 53.8875 43.7346 53.9125 44.0096 53.9125C44.3546 53.9125 44.6621 53.865 44.9321 53.77C45.2021 53.675 45.4296 53.5425 45.6146 53.3725C45.8046 53.1975 45.9496 52.99 46.0496 52.75C46.1496 52.51 46.1996 52.2425 46.1996 51.9475C46.1996 51.6225 46.1246 51.3575 45.9746 51.1525C45.8296 50.9425 45.6371 50.7675 45.3971 50.6275C45.1571 50.4875 44.8821 50.37 44.5721 50.275C44.2621 50.175 43.9471 50.075 43.6271 49.975C43.3071 49.87 42.9921 49.75 42.6821 49.615C42.3721 49.48 42.0971 49.305 41.8571 49.09C41.6171 48.875 41.4221 48.6075 41.2721 48.2875C41.1271 47.9625 41.0546 47.5625 41.0546 47.0875C41.0546 46.7075 41.1271 46.34 41.2721 45.985C41.4221 45.63 41.6371 45.315 41.9171 45.04C42.2021 44.765 42.5496 44.545 42.9596 44.38C43.3746 44.215 43.8496 44.1325 44.3846 44.1325C44.9846 44.1325 45.5296 44.2275 46.0196 44.4175C46.5146 44.6075 46.9496 44.8825 47.3246 45.2425L46.9721 45.9325ZM53.319 51.58C52.704 51.6 52.179 51.65 51.744 51.73C51.314 51.805 50.9615 51.905 50.6865 52.03C50.4165 52.155 50.219 52.3025 50.094 52.4725C49.974 52.6425 49.914 52.8325 49.914 53.0425C49.914 53.2425 49.9465 53.415 50.0115 53.56C50.0765 53.705 50.164 53.825 50.274 53.92C50.389 54.01 50.5215 54.0775 50.6715 54.1225C50.8265 54.1625 50.9915 54.1825 51.1665 54.1825C51.4015 54.1825 51.6165 54.16 51.8115 54.115C52.0065 54.065 52.189 53.995 52.359 53.905C52.534 53.815 52.699 53.7075 52.854 53.5825C53.014 53.4575 53.169 53.315 53.319 53.155V51.58ZM49.0065 48.475C49.4265 48.07 49.879 47.7675 50.364 47.5675C50.849 47.3675 51.3865 47.2675 51.9765 47.2675C52.4015 47.2675 52.779 47.3375 53.109 47.4775C53.439 47.6175 53.7165 47.8125 53.9415 48.0625C54.1665 48.3125 54.3365 48.615 54.4515 48.97C54.5665 49.325 54.624 49.715 54.624 50.14V55H54.0315C53.9015 55 53.8015 54.98 53.7315 54.94C53.6615 54.895 53.6065 54.81 53.5665 54.685L53.4165 53.965C53.2165 54.15 53.0215 54.315 52.8315 54.46C52.6415 54.6 52.4415 54.72 52.2315 54.82C52.0215 54.915 51.7965 54.9875 51.5565 55.0375C51.3215 55.0925 51.059 55.12 50.769 55.12C50.474 55.12 50.1965 55.08 49.9365 55C49.6765 54.915 49.449 54.79 49.254 54.625C49.064 54.46 48.9115 54.2525 48.7965 54.0025C48.6865 53.7475 48.6315 53.4475 48.6315 53.1025C48.6315 52.8025 48.714 52.515 48.879 52.24C49.044 51.96 49.3115 51.7125 49.6815 51.4975C50.0515 51.2825 50.534 51.1075 51.129 50.9725C51.724 50.8325 52.454 50.7525 53.319 50.7325V50.14C53.319 49.55 53.1915 49.105 52.9365 48.805C52.6815 48.5 52.309 48.3475 51.819 48.3475C51.489 48.3475 51.2115 48.39 50.9865 48.475C50.7665 48.555 50.574 48.6475 50.409 48.7525C50.249 48.8525 50.109 48.945 49.989 49.03C49.874 49.11 49.759 49.15 49.644 49.15C49.554 49.15 49.4765 49.1275 49.4115 49.0825C49.3465 49.0325 49.2915 48.9725 49.2465 48.9025L49.0065 48.475ZM58.0376 43.9525V55H56.7026V43.9525H58.0376ZM65.2875 50.3725C65.2875 50.0625 65.2425 49.78 65.1525 49.525C65.0675 49.265 64.94 49.0425 64.77 48.8575C64.605 48.6675 64.4025 48.5225 64.1625 48.4225C63.9225 48.3175 63.65 48.265 63.345 48.265C62.705 48.265 62.1975 48.4525 61.8225 48.8275C61.4525 49.1975 61.2225 49.7125 61.1325 50.3725H65.2875ZM66.3675 53.935C66.2025 54.135 66.005 54.31 65.775 54.46C65.545 54.605 65.2975 54.725 65.0325 54.82C64.7725 54.915 64.5025 54.985 64.2225 55.03C63.9425 55.08 63.665 55.105 63.39 55.105C62.865 55.105 62.38 55.0175 61.935 54.8425C61.495 54.6625 61.1125 54.4025 60.7875 54.0625C60.4675 53.7175 60.2175 53.2925 60.0375 52.7875C59.8575 52.2825 59.7675 51.7025 59.7675 51.0475C59.7675 50.5175 59.8475 50.0225 60.0075 49.5625C60.1725 49.1025 60.4075 48.705 60.7125 48.37C61.0175 48.03 61.39 47.765 61.83 47.575C62.27 47.38 62.765 47.2825 63.315 47.2825C63.77 47.2825 64.19 47.36 64.575 47.515C64.965 47.665 65.3 47.885 65.58 48.175C65.865 48.46 66.0875 48.815 66.2475 49.24C66.4075 49.66 66.4875 50.14 66.4875 50.68C66.4875 50.89 66.465 51.03 66.42 51.1C66.375 51.17 66.29 51.205 66.165 51.205H61.0875C61.1025 51.685 61.1675 52.1025 61.2825 52.4575C61.4025 52.8125 61.5675 53.11 61.7775 53.35C61.9875 53.585 62.2375 53.7625 62.5275 53.8825C62.8175 53.9975 63.1425 54.055 63.5025 54.055C63.8375 54.055 64.125 54.0175 64.365 53.9425C64.61 53.8625 64.82 53.7775 64.995 53.6875C65.17 53.5975 65.315 53.515 65.43 53.44C65.55 53.36 65.6525 53.32 65.7375 53.32C65.8475 53.32 65.9325 53.3625 65.9925 53.4475L66.3675 53.935ZM72.5523 48.655C72.4923 48.765 72.3998 48.82 72.2748 48.82C72.1998 48.82 72.1148 48.7925 72.0198 48.7375C71.9248 48.6825 71.8073 48.6225 71.6673 48.5575C71.5323 48.4875 71.3698 48.425 71.1798 48.37C70.9898 48.31 70.7648 48.28 70.5048 48.28C70.2798 48.28 70.0773 48.31 69.8973 48.37C69.7173 48.425 69.5623 48.5025 69.4323 48.6025C69.3073 48.7025 69.2098 48.82 69.1398 48.955C69.0748 49.085 69.0423 49.2275 69.0423 49.3825C69.0423 49.5775 69.0973 49.74 69.2073 49.87C69.3223 50 69.4723 50.1125 69.6573 50.2075C69.8423 50.3025 70.0523 50.3875 70.2873 50.4625C70.5223 50.5325 70.7623 50.61 71.0073 50.695C71.2573 50.775 71.4998 50.865 71.7348 50.965C71.9698 51.065 72.1798 51.19 72.3648 51.34C72.5498 51.49 72.6973 51.675 72.8073 51.895C72.9223 52.11 72.9798 52.37 72.9798 52.675C72.9798 53.025 72.9173 53.35 72.7923 53.65C72.6673 53.945 72.4823 54.2025 72.2373 54.4225C71.9923 54.6375 71.6923 54.8075 71.3373 54.9325C70.9823 55.0575 70.5723 55.12 70.1073 55.12C69.5773 55.12 69.0973 55.035 68.6673 54.865C68.2373 54.69 67.8723 54.4675 67.5723 54.1975L67.8873 53.6875C67.9273 53.6225 67.9748 53.5725 68.0298 53.5375C68.0848 53.5025 68.1548 53.485 68.2398 53.485C68.3298 53.485 68.4248 53.52 68.5248 53.59C68.6248 53.66 68.7448 53.7375 68.8848 53.8225C69.0298 53.9075 69.2048 53.985 69.4098 54.055C69.6148 54.125 69.8698 54.16 70.1748 54.16C70.4348 54.16 70.6623 54.1275 70.8573 54.0625C71.0523 53.9925 71.2148 53.9 71.3448 53.785C71.4748 53.67 71.5698 53.5375 71.6298 53.3875C71.6948 53.2375 71.7273 53.0775 71.7273 52.9075C71.7273 52.6975 71.6698 52.525 71.5548 52.39C71.4448 52.25 71.2973 52.1325 71.1123 52.0375C70.9273 51.9375 70.7148 51.8525 70.4748 51.7825C70.2398 51.7075 69.9973 51.63 69.7473 51.55C69.5023 51.47 69.2598 51.38 69.0198 51.28C68.7848 51.175 68.5748 51.045 68.3898 50.89C68.2048 50.735 68.0548 50.545 67.9398 50.32C67.8298 50.09 67.7748 49.8125 67.7748 49.4875C67.7748 49.1975 67.8348 48.92 67.9548 48.655C68.0748 48.385 68.2498 48.15 68.4798 47.95C68.7098 47.745 68.9923 47.5825 69.3273 47.4625C69.6623 47.3425 70.0448 47.2825 70.4748 47.2825C70.9748 47.2825 71.4223 47.3625 71.8173 47.5225C72.2173 47.6775 72.5623 47.8925 72.8523 48.1675L72.5523 48.655ZM78.3345 49.9375H82.0395V51.07H78.3345V49.9375ZM96.8813 44.2525V55H96.1538C96.0388 55 95.9413 54.98 95.8613 54.94C95.7863 54.9 95.7113 54.8325 95.6363 54.7375L89.4188 46.6375C89.4288 46.7625 89.4363 46.885 89.4413 47.005C89.4463 47.125 89.4488 47.2375 89.4488 47.3425V55H88.1738V44.2525H88.9238C88.9888 44.2525 89.0438 44.2575 89.0888 44.2675C89.1338 44.2725 89.1738 44.285 89.2088 44.305C89.2438 44.32 89.2788 44.345 89.3138 44.38C89.3488 44.41 89.3863 44.45 89.4263 44.5L95.6438 52.5925C95.6338 52.4625 95.6238 52.3375 95.6138 52.2175C95.6088 52.0925 95.6063 51.975 95.6063 51.865V44.2525H96.8813ZM102.282 47.2825C102.837 47.2825 103.337 47.375 103.782 47.56C104.227 47.745 104.607 48.0075 104.922 48.3475C105.237 48.6875 105.477 49.1 105.642 49.585C105.812 50.065 105.897 50.6025 105.897 51.1975C105.897 51.7975 105.812 52.3375 105.642 52.8175C105.477 53.2975 105.237 53.7075 104.922 54.0475C104.607 54.3875 104.227 54.65 103.782 54.835C103.337 55.015 102.837 55.105 102.282 55.105C101.722 55.105 101.217 55.015 100.767 54.835C100.322 54.65 99.942 54.3875 99.627 54.0475C99.312 53.7075 99.0695 53.2975 98.8995 52.8175C98.7345 52.3375 98.652 51.7975 98.652 51.1975C98.652 50.6025 98.7345 50.065 98.8995 49.585C99.0695 49.1 99.312 48.6875 99.627 48.3475C99.942 48.0075 100.322 47.745 100.767 47.56C101.217 47.375 101.722 47.2825 102.282 47.2825ZM102.282 54.0625C103.032 54.0625 103.592 53.8125 103.962 53.3125C104.332 52.8075 104.517 52.105 104.517 51.205C104.517 50.3 104.332 49.595 103.962 49.09C103.592 48.585 103.032 48.3325 102.282 48.3325C101.902 48.3325 101.569 48.3975 101.284 48.5275C101.004 48.6575 100.769 48.845 100.579 49.09C100.394 49.335 100.254 49.6375 100.159 49.9975C100.069 50.3525 100.024 50.755 100.024 51.205C100.024 52.105 100.209 52.8075 100.579 53.3125C100.954 53.8125 101.522 54.0625 102.282 54.0625ZM113.895 47.4025L110.798 55H109.598L106.5 47.4025H107.588C107.698 47.4025 107.788 47.43 107.858 47.485C107.928 47.54 107.975 47.605 108 47.68L109.928 52.57C109.988 52.755 110.04 52.935 110.085 53.11C110.13 53.285 110.173 53.46 110.213 53.635C110.253 53.46 110.295 53.285 110.34 53.11C110.385 52.935 110.44 52.755 110.505 52.57L112.455 47.68C112.485 47.6 112.535 47.535 112.605 47.485C112.675 47.43 112.758 47.4025 112.853 47.4025H113.895ZM119.999 50.3725C119.999 50.0625 119.954 49.78 119.864 49.525C119.779 49.265 119.652 49.0425 119.482 48.8575C119.317 48.6675 119.114 48.5225 118.874 48.4225C118.634 48.3175 118.362 48.265 118.057 48.265C117.417 48.265 116.909 48.4525 116.534 48.8275C116.164 49.1975 115.934 49.7125 115.844 50.3725H119.999ZM121.079 53.935C120.914 54.135 120.717 54.31 120.487 54.46C120.257 54.605 120.009 54.725 119.744 54.82C119.484 54.915 119.214 54.985 118.934 55.03C118.654 55.08 118.377 55.105 118.102 55.105C117.577 55.105 117.092 55.0175 116.647 54.8425C116.207 54.6625 115.824 54.4025 115.499 54.0625C115.179 53.7175 114.929 53.2925 114.749 52.7875C114.569 52.2825 114.479 51.7025 114.479 51.0475C114.479 50.5175 114.559 50.0225 114.719 49.5625C114.884 49.1025 115.119 48.705 115.424 48.37C115.729 48.03 116.102 47.765 116.542 47.575C116.982 47.38 117.477 47.2825 118.027 47.2825C118.482 47.2825 118.902 47.36 119.287 47.515C119.677 47.665 120.012 47.885 120.292 48.175C120.577 48.46 120.799 48.815 120.959 49.24C121.119 49.66 121.199 50.14 121.199 50.68C121.199 50.89 121.177 51.03 121.132 51.1C121.087 51.17 121.002 51.205 120.877 51.205H115.799C115.814 51.685 115.879 52.1025 115.994 52.4575C116.114 52.8125 116.279 53.11 116.489 53.35C116.699 53.585 116.949 53.7625 117.239 53.8825C117.529 53.9975 117.854 54.055 118.214 54.055C118.549 54.055 118.837 54.0175 119.077 53.9425C119.322 53.8625 119.532 53.7775 119.707 53.6875C119.882 53.5975 120.027 53.515 120.142 53.44C120.262 53.36 120.364 53.32 120.449 53.32C120.559 53.32 120.644 53.3625 120.704 53.4475L121.079 53.935ZM122.839 55V47.4025H123.642C123.832 47.4025 123.949 47.495 123.994 47.68L124.092 48.46C124.372 48.115 124.687 47.8325 125.037 47.6125C125.387 47.3925 125.792 47.2825 126.252 47.2825C126.762 47.2825 127.174 47.425 127.489 47.71C127.809 47.995 128.039 48.38 128.179 48.865C128.289 48.59 128.429 48.3525 128.599 48.1525C128.774 47.9525 128.969 47.7875 129.184 47.6575C129.399 47.5275 129.627 47.4325 129.867 47.3725C130.112 47.3125 130.359 47.2825 130.609 47.2825C131.009 47.2825 131.364 47.3475 131.674 47.4775C131.989 47.6025 132.254 47.7875 132.469 48.0325C132.689 48.2775 132.857 48.58 132.972 48.94C133.087 49.295 133.144 49.7025 133.144 50.1625V55H131.802V50.1625C131.802 49.5675 131.672 49.1175 131.412 48.8125C131.152 48.5025 130.777 48.3475 130.287 48.3475C130.067 48.3475 129.857 48.3875 129.657 48.4675C129.462 48.5425 129.289 48.655 129.139 48.805C128.989 48.955 128.869 49.145 128.779 49.375C128.694 49.6 128.652 49.8625 128.652 50.1625V55H127.309V50.1625C127.309 49.5525 127.187 49.0975 126.942 48.7975C126.697 48.4975 126.339 48.3475 125.869 48.3475C125.539 48.3475 125.234 48.4375 124.954 48.6175C124.674 48.7925 124.417 49.0325 124.182 49.3375V55H122.839ZM136.516 53.17C136.761 53.5 137.028 53.7325 137.318 53.8675C137.613 54.0025 137.936 54.07 138.286 54.07C139.001 54.07 139.548 53.8175 139.928 53.3125C140.308 52.8075 140.498 52.055 140.498 51.055C140.498 50.125 140.328 49.4425 139.988 49.0075C139.653 48.5675 139.173 48.3475 138.548 48.3475C138.113 48.3475 137.733 48.4475 137.408 48.6475C137.088 48.8475 136.791 49.13 136.516 49.495V53.17ZM136.516 48.4975C136.836 48.1275 137.196 47.8325 137.596 47.6125C138.001 47.3925 138.466 47.2825 138.991 47.2825C139.436 47.2825 139.836 47.3675 140.191 47.5375C140.551 47.7075 140.856 47.955 141.106 48.28C141.356 48.6 141.546 48.99 141.676 49.45C141.811 49.91 141.878 50.4275 141.878 51.0025C141.878 51.6175 141.803 52.1775 141.653 52.6825C141.503 53.1875 141.286 53.62 141.001 53.98C140.721 54.335 140.378 54.6125 139.973 54.8125C139.568 55.0075 139.113 55.105 138.608 55.105C138.108 55.105 137.686 55.0125 137.341 54.8275C137.001 54.6375 136.703 54.37 136.448 54.025L136.381 54.715C136.341 54.905 136.226 55 136.036 55H135.173V43.9525H136.516V48.4975ZM148.652 50.3725C148.652 50.0625 148.607 49.78 148.517 49.525C148.432 49.265 148.304 49.0425 148.134 48.8575C147.969 48.6675 147.767 48.5225 147.527 48.4225C147.287 48.3175 147.014 48.265 146.709 48.265C146.069 48.265 145.562 48.4525 145.187 48.8275C144.817 49.1975 144.587 49.7125 144.497 50.3725H148.652ZM149.732 53.935C149.567 54.135 149.369 54.31 149.139 54.46C148.909 54.605 148.662 54.725 148.397 54.82C148.137 54.915 147.867 54.985 147.587 55.03C147.307 55.08 147.029 55.105 146.754 55.105C146.229 55.105 145.744 55.0175 145.299 54.8425C144.859 54.6625 144.477 54.4025 144.152 54.0625C143.832 53.7175 143.582 53.2925 143.402 52.7875C143.222 52.2825 143.132 51.7025 143.132 51.0475C143.132 50.5175 143.212 50.0225 143.372 49.5625C143.537 49.1025 143.772 48.705 144.077 48.37C144.382 48.03 144.754 47.765 145.194 47.575C145.634 47.38 146.129 47.2825 146.679 47.2825C147.134 47.2825 147.554 47.36 147.939 47.515C148.329 47.665 148.664 47.885 148.944 48.175C149.229 48.46 149.452 48.815 149.612 49.24C149.772 49.66 149.852 50.14 149.852 50.68C149.852 50.89 149.829 51.03 149.784 51.1C149.739 51.17 149.654 51.205 149.529 51.205H144.452C144.467 51.685 144.532 52.1025 144.647 52.4575C144.767 52.8125 144.932 53.11 145.142 53.35C145.352 53.585 145.602 53.7625 145.892 53.8825C146.182 53.9975 146.507 54.055 146.867 54.055C147.202 54.055 147.489 54.0175 147.729 53.9425C147.974 53.8625 148.184 53.7775 148.359 53.6875C148.534 53.5975 148.679 53.515 148.794 53.44C148.914 53.36 149.017 53.32 149.102 53.32C149.212 53.32 149.297 53.3625 149.357 53.4475L149.732 53.935ZM152.759 48.925C152.999 48.405 153.294 48 153.644 47.71C153.994 47.415 154.422 47.2675 154.927 47.2675C155.087 47.2675 155.239 47.285 155.384 47.32C155.534 47.355 155.667 47.41 155.782 47.485L155.684 48.4825C155.654 48.6075 155.579 48.67 155.459 48.67C155.389 48.67 155.287 48.655 155.152 48.625C155.017 48.595 154.864 48.58 154.694 48.58C154.454 48.58 154.239 48.615 154.049 48.685C153.864 48.755 153.697 48.86 153.547 49C153.402 49.135 153.269 49.305 153.149 49.51C153.034 49.71 152.929 49.94 152.834 50.2V55H151.492V47.4025H152.257C152.402 47.4025 152.502 47.43 152.557 47.485C152.612 47.54 152.649 47.635 152.669 47.77L152.759 48.925Z" fill="white"/>
<path d="M48.7657 93.1505C49.3597 93.0965 49.8817 92.9705 50.3317 92.7725C50.7817 92.5655 51.1597 92.3045 51.4657 91.9895C51.7807 91.6745 52.0147 91.31 52.1677 90.896C52.3297 90.473 52.4107 90.0095 52.4107 89.5055C52.4107 89.0555 52.3252 88.6685 52.1542 88.3445C51.9922 88.0205 51.7672 87.7415 51.4792 87.5075C51.1912 87.2645 50.8537 87.062 50.4667 86.9C50.0797 86.729 49.6657 86.5715 49.2247 86.4275L48.7657 93.1505ZM48.3202 77.5445C47.7352 77.5985 47.2267 77.7155 46.7947 77.8955C46.3717 78.0755 46.0207 78.3005 45.7417 78.5705C45.4627 78.8405 45.2557 79.1465 45.1207 79.4885C44.9857 79.8215 44.9182 80.1725 44.9182 80.5415C44.9182 80.9735 44.9947 81.3515 45.1477 81.6755C45.3007 81.9905 45.5122 82.2695 45.7822 82.5125C46.0522 82.7555 46.3672 82.967 46.7272 83.147C47.0872 83.327 47.4787 83.489 47.9017 83.633L48.3202 77.5445ZM49.3867 84.1055C50.0347 84.3125 50.6737 84.533 51.3037 84.767C51.9337 85.001 52.5007 85.3025 53.0047 85.6715C53.5087 86.0405 53.9137 86.504 54.2197 87.062C54.5347 87.611 54.6922 88.2995 54.6922 89.1275C54.6922 89.9375 54.5572 90.698 54.2872 91.409C54.0172 92.12 53.6212 92.7455 53.0992 93.2855C52.5862 93.8255 51.9517 94.2665 51.1957 94.6085C50.4487 94.9415 49.5937 95.1395 48.6307 95.2025L48.4687 97.565C48.4597 97.736 48.3922 97.8845 48.2662 98.0105C48.1402 98.1455 47.9827 98.213 47.7937 98.213H46.9027L47.1052 95.1755C46.0162 95.0675 45.0217 94.7975 44.1217 94.3655C43.2307 93.9245 42.4612 93.3665 41.8132 92.6915L42.5422 91.5845C42.6142 91.4855 42.7042 91.4045 42.8122 91.3415C42.9202 91.2785 43.0372 91.247 43.1632 91.247C43.3342 91.247 43.5277 91.3325 43.7437 91.5035C43.9597 91.6745 44.2252 91.868 44.5402 92.084C44.8642 92.3 45.2422 92.5115 45.6742 92.7185C46.1152 92.9255 46.6417 93.065 47.2537 93.137L47.7397 85.9685C47.1097 85.7795 46.4887 85.568 45.8767 85.334C45.2737 85.1 44.7292 84.7895 44.2432 84.4025C43.7662 84.0155 43.3792 83.534 43.0822 82.958C42.7942 82.382 42.6502 81.6575 42.6502 80.7845C42.6502 80.1275 42.7762 79.4885 43.0282 78.8675C43.2892 78.2375 43.6672 77.6795 44.1622 77.1935C44.6572 76.7075 45.2647 76.3115 45.9847 76.0055C46.7047 75.6905 47.5282 75.515 48.4552 75.479L48.5902 73.535C48.5992 73.364 48.6622 73.211 48.7792 73.076C48.9052 72.941 49.0672 72.8735 49.2652 72.8735H50.1562L49.9807 75.533C50.9167 75.65 51.7267 75.893 52.4107 76.262C53.1037 76.631 53.7157 77.081 54.2467 77.612L53.6662 78.503C53.4862 78.773 53.2792 78.908 53.0452 78.908C52.9192 78.908 52.7617 78.854 52.5727 78.746C52.3927 78.629 52.1722 78.494 51.9112 78.341C51.6592 78.188 51.3577 78.0395 51.0067 77.8955C50.6647 77.7515 50.2732 77.6435 49.8322 77.5715L49.3867 84.1055ZM69.8953 93.164V95H59.5273V93.164H63.6718V79.9745C63.6718 79.5785 63.6853 79.178 63.7123 78.773L60.2698 81.7295C60.1528 81.8285 60.0358 81.8915 59.9188 81.9185C59.8018 81.9365 59.6938 81.9365 59.5948 81.9185C59.4958 81.9005 59.4013 81.8645 59.3113 81.8105C59.2303 81.7565 59.1673 81.698 59.1223 81.635L58.3663 80.5955L64.1308 75.614H66.0883V93.164H69.8953ZM85.139 92.7185C85.4 92.7185 85.607 92.795 85.76 92.948C85.913 93.101 85.9895 93.299 85.9895 93.542V95H73.0835V94.1765C73.0835 94.0055 73.1195 93.83 73.1915 93.65C73.2635 93.47 73.376 93.3035 73.529 93.1505L79.7255 86.927C80.2385 86.405 80.7065 85.9055 81.1295 85.4285C81.5525 84.9425 81.9125 84.4565 82.2095 83.9705C82.5065 83.4845 82.736 82.994 82.898 82.499C83.06 81.995 83.141 81.4595 83.141 80.8925C83.141 80.3255 83.051 79.8305 82.871 79.4075C82.691 78.9755 82.4435 78.62 82.1285 78.341C81.8225 78.062 81.458 77.855 81.035 77.72C80.612 77.576 80.1575 77.504 79.6715 77.504C79.1765 77.504 78.722 77.576 78.308 77.72C77.894 77.864 77.525 78.0665 77.201 78.3275C76.886 78.5795 76.6205 78.881 76.4045 79.232C76.1885 79.583 76.0355 79.97 75.9455 80.393C75.8375 80.708 75.689 80.9195 75.5 81.0275C75.32 81.1265 75.0635 81.1535 74.7305 81.1085L73.475 80.8925C73.601 80.0105 73.844 79.232 74.204 78.557C74.573 77.873 75.032 77.3015 75.581 76.8425C76.139 76.3835 76.7735 76.037 77.4845 75.803C78.1955 75.56 78.965 75.4385 79.793 75.4385C80.612 75.4385 81.377 75.56 82.088 75.803C82.799 76.046 83.4155 76.4015 83.9375 76.8695C84.4595 77.3285 84.869 77.891 85.166 78.557C85.463 79.223 85.6115 79.979 85.6115 80.825C85.6115 81.545 85.5035 82.2155 85.2875 82.8365C85.0715 83.4485 84.779 84.0335 84.41 84.5915C84.041 85.1495 83.6135 85.694 83.1275 86.225C82.6505 86.756 82.142 87.2915 81.602 87.8315L76.499 93.0425C76.859 92.9435 77.2235 92.867 77.5925 92.813C77.9615 92.75 78.317 92.7185 78.659 92.7185H85.139ZM89.2316 98.267C89.1596 98.204 89.1101 98.1455 89.0831 98.0915C89.0561 98.0375 89.0426 97.97 89.0426 97.889C89.0426 97.826 89.0606 97.763 89.0966 97.7C89.1416 97.637 89.1911 97.5785 89.2451 97.5245C89.3351 97.4255 89.4476 97.295 89.5826 97.133C89.7266 96.971 89.8706 96.7775 90.0146 96.5525C90.1586 96.3365 90.2891 96.0935 90.4061 95.8235C90.5321 95.5625 90.6221 95.2835 90.6761 94.9865C90.6491 94.9955 90.6176 95 90.5816 95C90.5546 95 90.5276 95 90.5006 95C90.0326 95 89.6501 94.847 89.3531 94.541C89.0651 94.226 88.9211 93.8255 88.9211 93.3395C88.9211 92.9165 89.0651 92.5565 89.3531 92.2595C89.6501 91.9625 90.0416 91.814 90.5276 91.814C90.7976 91.814 91.0361 91.8635 91.2431 91.9625C91.4501 92.0615 91.6211 92.201 91.7561 92.381C91.9001 92.552 92.0081 92.7545 92.0801 92.9885C92.1521 93.2135 92.1881 93.461 92.1881 93.731C92.1881 94.136 92.1296 94.559 92.0126 95C91.9046 95.432 91.7381 95.8595 91.5131 96.2825C91.2971 96.7145 91.0316 97.133 90.7166 97.538C90.4016 97.943 90.0416 98.3165 89.6366 98.6585L89.2316 98.267ZM98.4808 82.958C99.4888 82.742 100.416 82.634 101.262 82.634C102.27 82.634 103.161 82.7825 103.935 83.0795C104.709 83.3765 105.352 83.786 105.865 84.308C106.387 84.83 106.779 85.4465 107.04 86.1575C107.31 86.8685 107.445 87.6425 107.445 88.4795C107.445 89.5055 107.265 90.4325 106.905 91.2605C106.554 92.0885 106.063 92.7995 105.433 93.3935C104.812 93.9785 104.079 94.4285 103.233 94.7435C102.387 95.0585 101.473 95.216 100.492 95.216C99.9253 95.216 99.3808 95.1575 98.8588 95.0405C98.3368 94.9325 97.8463 94.784 97.3873 94.595C96.9373 94.406 96.5188 94.19 96.1318 93.947C95.7448 93.704 95.4028 93.4475 95.1058 93.1775L95.8483 92.1515C96.0103 91.9175 96.2218 91.8005 96.4828 91.8005C96.6628 91.8005 96.8653 91.8725 97.0903 92.0165C97.3153 92.1515 97.5898 92.3045 97.9138 92.4755C98.2378 92.6465 98.6158 92.804 99.0478 92.948C99.4888 93.083 100.011 93.1505 100.614 93.1505C101.289 93.1505 101.896 93.0425 102.436 92.8265C102.976 92.6105 103.44 92.3045 103.827 91.9085C104.214 91.5035 104.511 91.022 104.718 90.464C104.925 89.906 105.028 89.2805 105.028 88.5875C105.028 87.9845 104.938 87.44 104.758 86.954C104.587 86.468 104.322 86.054 103.962 85.712C103.611 85.37 103.17 85.1045 102.639 84.9155C102.108 84.7265 101.487 84.632 100.776 84.632C100.29 84.632 99.7813 84.6725 99.2503 84.7535C98.7283 84.8345 98.1928 84.965 97.6438 85.145L96.1318 84.6995L97.6843 75.6545H106.851V76.7075C106.851 77.0495 106.743 77.333 106.527 77.558C106.32 77.774 105.96 77.882 105.447 77.882H99.3718L98.4808 82.958ZM117.059 93.218C117.707 93.218 118.292 93.1145 118.814 92.9075C119.345 92.7005 119.795 92.4125 120.164 92.0435C120.542 91.6745 120.83 91.238 121.028 90.734C121.235 90.23 121.338 89.681 121.338 89.087C121.338 88.457 121.239 87.89 121.041 87.386C120.843 86.873 120.56 86.441 120.191 86.09C119.831 85.73 119.399 85.4555 118.895 85.2665C118.391 85.0775 117.837 84.983 117.234 84.983C116.586 84.983 116.001 85.0955 115.479 85.3205C114.957 85.5365 114.512 85.8335 114.143 86.2115C113.783 86.5805 113.504 87.0125 113.306 87.5075C113.117 87.9935 113.022 88.502 113.022 89.033C113.022 89.654 113.112 90.221 113.292 90.734C113.472 91.247 113.733 91.688 114.075 92.057C114.426 92.426 114.849 92.714 115.344 92.921C115.848 93.119 116.42 93.218 117.059 93.218ZM115.655 82.904C115.484 83.12 115.317 83.3315 115.155 83.5385C115.002 83.7365 114.854 83.9345 114.71 84.1325C115.169 83.8175 115.673 83.5745 116.222 83.4035C116.771 83.2325 117.369 83.147 118.017 83.147C118.8 83.147 119.538 83.2775 120.231 83.5385C120.924 83.7905 121.527 84.164 122.04 84.659C122.562 85.145 122.976 85.748 123.282 86.468C123.588 87.179 123.741 87.9935 123.741 88.9115C123.741 89.8025 123.579 90.6305 123.255 91.3955C122.931 92.1605 122.477 92.8265 121.892 93.3935C121.316 93.9605 120.618 94.406 119.799 94.73C118.989 95.054 118.094 95.216 117.113 95.216C116.141 95.216 115.259 95.063 114.467 94.757C113.675 94.442 113 94.001 112.442 93.434C111.893 92.858 111.465 92.165 111.159 91.355C110.862 90.536 110.714 89.6225 110.714 88.6145C110.714 87.7685 110.898 86.8685 111.267 85.9145C111.645 84.9515 112.244 83.9255 113.063 82.8365L117.977 76.235C118.103 76.073 118.274 75.938 118.49 75.83C118.715 75.713 118.971 75.6545 119.259 75.6545H121.392L115.655 82.904ZM139.511 75.6545V76.7345C139.511 77.0405 139.475 77.2925 139.403 77.4905C139.34 77.6885 139.277 77.855 139.214 77.99L131.195 94.1495C131.078 94.3835 130.916 94.586 130.709 94.757C130.502 94.919 130.228 95 129.886 95H128.158L136.285 79.043C136.402 78.818 136.523 78.611 136.649 78.422C136.775 78.233 136.91 78.053 137.054 77.882H126.956C126.803 77.882 126.668 77.8235 126.551 77.7065C126.434 77.5805 126.376 77.441 126.376 77.288V75.6545H139.511ZM141.69 93.9C141.69 93.7267 141.72 93.5633 141.78 93.41C141.847 93.2567 141.933 93.1233 142.04 93.01C142.153 92.8967 142.287 92.8067 142.44 92.74C142.593 92.6733 142.757 92.64 142.93 92.64C143.103 92.64 143.267 92.6733 143.42 92.74C143.573 92.8067 143.707 92.8967 143.82 93.01C143.933 93.1233 144.023 93.2567 144.09 93.41C144.157 93.5633 144.19 93.7267 144.19 93.9C144.19 94.08 144.157 94.2467 144.09 94.4C144.023 94.5467 143.933 94.6767 143.82 94.79C143.707 94.9033 143.573 94.99 143.42 95.05C143.267 95.1167 143.103 95.15 142.93 95.15C142.757 95.15 142.593 95.1167 142.44 95.05C142.287 94.99 142.153 94.9033 142.04 94.79C141.933 94.6767 141.847 94.5467 141.78 94.4C141.72 94.2467 141.69 94.08 141.69 93.9ZM151.107 93.74C151.573 93.74 151.99 93.6767 152.357 93.55C152.73 93.4167 153.043 93.2333 153.297 93C153.557 92.76 153.753 92.4767 153.887 92.15C154.027 91.8167 154.097 91.45 154.097 91.05C154.097 90.5567 154.013 90.1367 153.847 89.79C153.687 89.4367 153.467 89.15 153.187 88.93C152.913 88.71 152.597 88.55 152.237 88.45C151.877 88.3433 151.5 88.29 151.107 88.29C150.713 88.29 150.337 88.3433 149.977 88.45C149.617 88.55 149.297 88.71 149.017 88.93C148.743 89.15 148.523 89.4367 148.357 89.79C148.197 90.1367 148.117 90.5567 148.117 91.05C148.117 91.45 148.183 91.8167 148.317 92.15C148.457 92.4767 148.653 92.76 148.907 93C149.167 93.2333 149.48 93.4167 149.847 93.55C150.22 93.6767 150.64 93.74 151.107 93.74ZM151.107 81.89C150.68 81.89 150.303 81.9533 149.977 82.08C149.657 82.2067 149.387 82.38 149.167 82.6C148.953 82.82 148.79 83.0767 148.677 83.37C148.57 83.6633 148.517 83.9767 148.517 84.31C148.517 84.6367 148.563 84.9533 148.657 85.26C148.75 85.5667 148.9 85.84 149.107 86.08C149.313 86.3133 149.58 86.5033 149.907 86.65C150.24 86.79 150.64 86.86 151.107 86.86C151.573 86.86 151.97 86.79 152.297 86.65C152.63 86.5033 152.9 86.3133 153.107 86.08C153.313 85.84 153.463 85.5667 153.557 85.26C153.65 84.9533 153.697 84.6367 153.697 84.31C153.697 83.9767 153.64 83.6633 153.527 83.37C153.42 83.0767 153.257 82.82 153.037 82.6C152.823 82.38 152.553 82.2067 152.227 82.08C151.907 81.9533 151.533 81.89 151.107 81.89ZM153.157 87.53C154.05 87.7833 154.737 88.2067 155.217 88.8C155.697 89.3933 155.937 90.1533 155.937 91.08C155.937 91.7067 155.817 92.2733 155.577 92.78C155.343 93.28 155.013 93.7067 154.587 94.06C154.167 94.4133 153.66 94.6867 153.067 94.88C152.473 95.0667 151.82 95.16 151.107 95.16C150.393 95.16 149.74 95.0667 149.147 94.88C148.553 94.6867 148.043 94.4133 147.617 94.06C147.19 93.7067 146.86 93.28 146.627 92.78C146.393 92.2733 146.277 91.7067 146.277 91.08C146.277 90.1533 146.517 89.3933 146.997 88.8C147.477 88.2067 148.163 87.7833 149.057 87.53C148.303 87.25 147.733 86.8333 147.347 86.28C146.967 85.72 146.777 85.0533 146.777 84.28C146.777 83.7533 146.88 83.26 147.087 82.8C147.293 82.34 147.587 81.94 147.967 81.6C148.347 81.26 148.8 80.9933 149.327 80.8C149.86 80.6067 150.453 80.51 151.107 80.51C151.753 80.51 152.343 80.6067 152.877 80.8C153.41 80.9933 153.867 81.26 154.247 81.6C154.627 81.94 154.92 82.34 155.127 82.8C155.333 83.26 155.437 83.7533 155.437 84.28C155.437 85.0533 155.243 85.72 154.857 86.28C154.477 86.8333 153.91 87.25 153.157 87.53ZM159.738 84.88C159.738 85.3333 159.802 85.74 159.928 86.1C160.062 86.4533 160.248 86.7533 160.488 87C160.735 87.2467 161.032 87.4333 161.378 87.56C161.732 87.6867 162.125 87.75 162.558 87.75C163.038 87.75 163.462 87.6733 163.828 87.52C164.202 87.36 164.515 87.15 164.768 86.89C165.022 86.63 165.215 86.33 165.348 85.99C165.482 85.65 165.548 85.2967 165.548 84.93C165.548 84.4833 165.475 84.08 165.328 83.72C165.188 83.3533 164.992 83.0433 164.738 82.79C164.485 82.5367 164.182 82.3433 163.828 82.21C163.482 82.07 163.098 82 162.678 82C162.238 82 161.838 82.0733 161.478 82.22C161.118 82.36 160.808 82.5567 160.548 82.81C160.288 83.0633 160.088 83.3667 159.948 83.72C159.808 84.0733 159.738 84.46 159.738 84.88ZM163.898 89.29C164.045 89.0967 164.182 88.9133 164.308 88.74C164.435 88.5667 164.555 88.3933 164.668 88.22C164.302 88.5133 163.888 88.7367 163.428 88.89C162.968 89.0433 162.482 89.12 161.968 89.12C161.428 89.12 160.915 89.03 160.428 88.85C159.948 88.67 159.525 88.4067 159.158 88.06C158.792 87.7067 158.498 87.2767 158.278 86.77C158.065 86.2567 157.958 85.67 157.958 85.01C157.958 84.3833 158.075 83.7967 158.308 83.25C158.542 82.7033 158.868 82.2267 159.288 81.82C159.708 81.4133 160.208 81.0933 160.788 80.86C161.368 80.6267 162.005 80.51 162.698 80.51C163.385 80.51 164.008 80.6233 164.568 80.85C165.128 81.0767 165.608 81.3933 166.008 81.8C166.408 82.2067 166.715 82.6933 166.928 83.26C167.148 83.8267 167.258 84.4533 167.258 85.14C167.258 85.5533 167.218 85.9467 167.138 86.32C167.065 86.6867 166.955 87.05 166.808 87.41C166.668 87.7633 166.495 88.1167 166.288 88.47C166.082 88.8167 165.848 89.1733 165.588 89.54L162.098 94.58C162.012 94.7067 161.888 94.81 161.728 94.89C161.568 94.9633 161.385 95 161.178 95H159.538L163.898 89.29Z" fill="white"/>
<path d="M189 85L185 81M185 81L185 89M185 81L181 85" stroke="#34CBAD" stroke-width="2" stroke-linecap="round" stroke-linejoin="round"/>
<path d="M197.471 90.01C197.831 90.01 198.156 89.9525 198.446 89.8375C198.741 89.7225 198.991 89.5625 199.196 89.3575C199.406 89.1525 199.566 88.91 199.676 88.63C199.791 88.35 199.849 88.045 199.849 87.715C199.849 87.365 199.794 87.05 199.684 86.77C199.574 86.485 199.416 86.245 199.211 86.05C199.011 85.85 198.771 85.6975 198.491 85.5925C198.211 85.4875 197.904 85.435 197.569 85.435C197.209 85.435 196.884 85.4975 196.594 85.6225C196.304 85.7425 196.056 85.9075 195.851 86.1175C195.651 86.3225 195.496 86.5625 195.386 86.8375C195.281 87.1075 195.229 87.39 195.229 87.685C195.229 88.03 195.279 88.345 195.379 88.63C195.479 88.915 195.624 89.16 195.814 89.365C196.009 89.57 196.244 89.73 196.519 89.845C196.799 89.955 197.116 90.01 197.471 90.01ZM196.691 84.28C196.596 84.4 196.504 84.5175 196.414 84.6325C196.329 84.7425 196.246 84.8525 196.166 84.9625C196.421 84.7875 196.701 84.6525 197.006 84.5575C197.311 84.4625 197.644 84.415 198.004 84.415C198.439 84.415 198.849 84.4875 199.234 84.6325C199.619 84.7725 199.954 84.98 200.239 85.255C200.529 85.525 200.759 85.86 200.929 86.26C201.099 86.655 201.184 87.1075 201.184 87.6175C201.184 88.1125 201.094 88.5725 200.914 88.9975C200.734 89.4225 200.481 89.7925 200.156 90.1075C199.836 90.4225 199.449 90.67 198.994 90.85C198.544 91.03 198.046 91.12 197.501 91.12C196.961 91.12 196.471 91.035 196.031 90.865C195.591 90.69 195.216 90.445 194.906 90.13C194.601 89.81 194.364 89.425 194.194 88.975C194.029 88.52 193.946 88.0125 193.946 87.4525C193.946 86.9825 194.049 86.4825 194.254 85.9525C194.464 85.4175 194.796 84.8475 195.251 84.2425L197.981 80.575C198.051 80.485 198.146 80.41 198.266 80.35C198.391 80.285 198.534 80.2525 198.694 80.2525H199.879L196.691 84.28ZM207.252 82.8475C207.252 83.2675 207.187 83.645 207.057 83.98C206.927 84.31 206.752 84.59 206.532 84.82C206.317 85.045 206.065 85.2175 205.775 85.3375C205.49 85.4575 205.187 85.5175 204.867 85.5175C204.532 85.5175 204.22 85.4575 203.93 85.3375C203.64 85.2175 203.387 85.045 203.172 84.82C202.962 84.59 202.797 84.31 202.677 83.98C202.557 83.645 202.497 83.2675 202.497 82.8475C202.497 82.4175 202.557 82.035 202.677 81.7C202.797 81.365 202.962 81.0825 203.172 80.8525C203.387 80.6225 203.64 80.4475 203.93 80.3275C204.22 80.2075 204.532 80.1475 204.867 80.1475C205.207 80.1475 205.522 80.2075 205.812 80.3275C206.102 80.4475 206.355 80.6225 206.57 80.8525C206.785 81.0825 206.952 81.365 207.072 81.7C207.192 82.035 207.252 82.4175 207.252 82.8475ZM206.217 82.8475C206.217 82.5175 206.182 82.2375 206.112 82.0075C206.042 81.7775 205.945 81.59 205.82 81.445C205.7 81.295 205.557 81.1875 205.392 81.1225C205.227 81.0575 205.052 81.025 204.867 81.025C204.682 81.025 204.51 81.0575 204.35 81.1225C204.19 81.1875 204.05 81.295 203.93 81.445C203.81 81.59 203.715 81.7775 203.645 82.0075C203.575 82.2375 203.54 82.5175 203.54 82.8475C203.54 83.1725 203.575 83.45 203.645 83.68C203.715 83.905 203.81 84.09 203.93 84.235C204.05 84.375 204.19 84.4775 204.35 84.5425C204.51 84.6025 204.682 84.6325 204.867 84.6325C205.052 84.6325 205.227 84.6025 205.392 84.5425C205.557 84.4775 205.7 84.375 205.82 84.235C205.945 84.09 206.042 83.905 206.112 83.68C206.182 83.45 206.217 83.1725 206.217 82.8475ZM211.055 80.4775C211.105 80.4175 211.162 80.365 211.227 80.32C211.297 80.275 211.39 80.2525 211.505 80.2525H212.472L204.612 90.7825C204.567 90.8475 204.51 90.9 204.44 90.94C204.37 90.98 204.285 91 204.185 91H203.202L211.055 80.4775ZM213.2 88.465C213.2 88.885 213.135 89.26 213.005 89.59C212.875 89.92 212.7 90.2 212.48 90.43C212.265 90.655 212.012 90.8275 211.722 90.9475C211.437 91.0675 211.135 91.1275 210.815 91.1275C210.475 91.1275 210.16 91.0675 209.87 90.9475C209.585 90.8275 209.335 90.655 209.12 90.43C208.91 90.2 208.745 89.92 208.625 89.59C208.505 89.26 208.445 88.885 208.445 88.465C208.445 88.035 208.505 87.6525 208.625 87.3175C208.745 86.9775 208.91 86.6925 209.12 86.4625C209.335 86.2325 209.585 86.0575 209.87 85.9375C210.16 85.8175 210.475 85.7575 210.815 85.7575C211.15 85.7575 211.462 85.8175 211.752 85.9375C212.047 86.0575 212.3 86.2325 212.51 86.4625C212.725 86.6925 212.892 86.9775 213.012 87.3175C213.137 87.6525 213.2 88.035 213.2 88.465ZM212.165 88.465C212.165 88.135 212.13 87.855 212.06 87.625C211.99 87.39 211.892 87.2 211.767 87.055C211.647 86.91 211.505 86.805 211.34 86.74C211.175 86.675 211 86.6425 210.815 86.6425C210.63 86.6425 210.455 86.675 210.29 86.74C210.13 86.805 209.99 86.91 209.87 87.055C209.75 87.2 209.655 87.39 209.585 87.625C209.52 87.855 209.487 88.135 209.487 88.465C209.487 88.79 209.52 89.065 209.585 89.29C209.655 89.515 209.75 89.7 209.87 89.845C209.99 89.985 210.13 90.0875 210.29 90.1525C210.455 90.2125 210.63 90.2425 210.815 90.2425C211 90.2425 211.175 90.2125 211.34 90.1525C211.505 90.0875 211.647 89.985 211.767 89.845C211.892 89.7 211.99 89.515 212.06 89.29C212.13 89.065 212.165 88.79 212.165 88.465Z" fill="#34CBAD"/>
</g>
<g opacity="0.25" filter="url(#filter1_d)">
<g clip-path="url(#clip0)">
<path d="M348 91.4641C346.895 89.5509 347.551 87.1046 349.464 86L425.674 42C427.588 40.8954 430.034 41.5509 431.138 43.4641L455.138 85.0333C456.243 86.9465 455.588 89.3929 453.674 90.4974L377.464 134.497C375.551 135.602 373.105 134.946 372 133.033L348 91.4641Z" fill="url(#paint0_linear)"/>
<path d="M348 91.4641C346.895 89.5509 347.551 87.1046 349.464 86L425.674 42C427.588 40.8954 430.034 41.5509 431.138 43.4641L455.138 85.0333C456.243 86.9465 455.588 89.3929 453.674 90.4974L377.464 134.497C375.551 135.602 373.105 134.946 372 133.033L348 91.4641Z" fill="url(#paint1_linear)"/>
<path d="M348 91.4641C346.895 89.5509 347.551 87.1046 349.464 86L425.674 42C427.588 40.8954 430.034 41.5509 431.138 43.4641L455.138 85.0333C456.243 86.9465 455.588 89.3929 453.674 90.4974L377.464 134.497C375.551 135.602 373.105 134.946 372 133.033L348 91.4641Z" fill="#41546C" fill-opacity="0.8"/>
<path fill-rule="evenodd" clip-rule="evenodd" d="M368.32 86.6603L367.82 85.7942C367.544 85.3159 366.933 85.1521 366.454 85.4282L361.258 88.4282L362.258 90.1603L362.758 91.0263L363.758 92.7583L364.258 93.6244L365.258 95.3564L365.758 96.2224L361.428 98.7224L361.928 99.5885C362.204 100.067 362.816 100.231 363.294 99.9545L371.954 94.9545C372.433 94.6783 372.597 94.0668 372.32 93.5885L371.82 92.7224L367.49 95.2224L366.99 94.3564L365.99 92.6244L365.49 91.7583L364.49 90.0263L363.99 89.1603L368.32 86.6603ZM364.392 95.8564L363.392 94.1244L359.928 96.1244L360.928 97.8564L364.392 95.8564ZM362.892 93.2583L361.892 91.5263L358.428 93.5263L359.428 95.2583L362.892 93.2583ZM361.392 90.6603L360.392 88.9282L357.794 90.4282C357.316 90.7043 357.152 91.3159 357.428 91.7942L357.928 92.6603L361.392 90.6603ZM371.32 91.8564L367.856 93.8564L366.856 92.1244L370.32 90.1244L371.32 91.8564ZM369.82 89.2583L366.356 91.2583L365.356 89.5263L368.82 87.5263L369.82 89.2583Z" fill="url(#paint2_linear)"/>
<path fill-rule="evenodd" clip-rule="evenodd" d="M368.32 86.6603L367.82 85.7942C367.544 85.3159 366.933 85.1521 366.454 85.4282L361.258 88.4282L362.258 90.1603L362.758 91.0263L363.758 92.7583L364.258 93.6244L365.258 95.3564L365.758 96.2224L361.428 98.7224L361.928 99.5885C362.204 100.067 362.816 100.231 363.294 99.9545L371.954 94.9545C372.433 94.6783 372.597 94.0668 372.32 93.5885L371.82 92.7224L367.49 95.2224L366.99 94.3564L365.99 92.6244L365.49 91.7583L364.49 90.0263L363.99 89.1603L368.32 86.6603ZM364.392 95.8564L363.392 94.1244L359.928 96.1244L360.928 97.8564L364.392 95.8564ZM362.892 93.2583L361.892 91.5263L358.428 93.5263L359.428 95.2583L362.892 93.2583ZM361.392 90.6603L360.392 88.9282L357.794 90.4282C357.316 90.7043 357.152 91.3159 357.428 91.7942L357.928 92.6603L361.392 90.6603ZM371.32 91.8564L367.856 93.8564L366.856 92.1244L370.32 90.1244L371.32 91.8564ZM369.82 89.2583L366.356 91.2583L365.356 89.5263L368.82 87.5263L369.82 89.2583Z" fill="white" fill-opacity="0.6"/>
<path d="M373.66 115.909L429.086 83.909" stroke="#D6E4F7" stroke-width="4" stroke-linecap="round"/>
<path d="M377.66 122.837L398.445 110.837" stroke="#D6E4F7" stroke-width="4" stroke-linecap="round"/>
</g>
<path d="M349.964 86.866L426.174 42.866L425.174 41.134L348.964 85.134L349.964 86.866ZM430.272 43.9641L454.272 85.5333L456.004 84.5333L432.004 42.9641L430.272 43.9641ZM453.174 89.6314L376.964 133.631L377.964 135.363L454.174 91.3634L453.174 89.6314ZM372.866 132.533L348.866 90.9641L347.134 91.9641L371.134 133.533L372.866 132.533ZM376.964 133.631C375.529 134.46 373.694 133.968 372.866 132.533L371.134 133.533C372.515 135.925 375.573 136.744 377.964 135.363L376.964 133.631ZM454.272 85.5333C455.101 86.9682 454.609 88.803 453.174 89.6314L454.174 91.3634C456.566 89.9827 457.385 86.9248 456.004 84.5333L454.272 85.5333ZM426.174 42.866C427.609 42.0376 429.444 42.5292 430.272 43.9641L432.004 42.9641C430.624 40.5726 427.566 39.7533 425.174 41.134L426.174 42.866ZM348.964 85.134C346.573 86.5147 345.753 89.5726 347.134 91.9641L348.866 90.9641C348.038 89.5292 348.529 87.6945 349.964 86.866L348.964 85.134Z" fill="url(#paint3_linear)"/>
<path d="M349.964 86.866L426.174 42.866L425.174 41.134L348.964 85.134L349.964 86.866ZM430.272 43.9641L454.272 85.5333L456.004 84.5333L432.004 42.9641L430.272 43.9641ZM453.174 89.6314L376.964 133.631L377.964 135.363L454.174 91.3634L453.174 89.6314ZM372.866 132.533L348.866 90.9641L347.134 91.9641L371.134 133.533L372.866 132.533ZM376.964 133.631C375.529 134.46 373.694 133.968 372.866 132.533L371.134 133.533C372.515 135.925 375.573 136.744 377.964 135.363L376.964 133.631ZM454.272 85.5333C455.101 86.9682 454.609 88.803 453.174 89.6314L454.174 91.3634C456.566 89.9827 457.385 86.9248 456.004 84.5333L454.272 85.5333ZM426.174 42.866C427.609 42.0376 429.444 42.5292 430.272 43.9641L432.004 42.9641C430.624 40.5726 427.566 39.7533 425.174 41.134L426.174 42.866ZM348.964 85.134C346.573 86.5147 345.753 89.5726 347.134 91.9641L348.866 90.9641C348.038 89.5292 348.529 87.6945 349.964 86.866L348.964 85.134Z" fill="url(#paint4_linear)"/>
</g>
<g filter="url(#filter2_d)">
<g clip-path="url(#clip1)">
<rect x="212" y="142" width="180" height="156" fill="url(#paint5_linear)"/>
<rect width="240" height="24" transform="translate(152 118)" fill="white"/>
<circle cx="163" cy="130" r="3" fill="#ED695E"/>
<circle cx="171" cy="130" r="3" fill="#F5BD4F"/>
<circle cx="179" cy="130" r="3" fill="#61C354"/>
<rect x="212" y="124" width="120" height="12" rx="4" fill="#F1F6FC"/>
<path d="M218 130H258" stroke="#D6E4F7" stroke-width="4" stroke-linecap="round"/>
<g filter="url(#filter3_ddd)">
<rect x="152" y="142" width="60" height="156" fill="#41546C"/>
<path d="M166 156H190" stroke="#7187A5" stroke-width="4" stroke-linecap="round"/>
<path d="M166 168H180" stroke="#7187A5" stroke-width="4" stroke-linecap="round"/>
<path d="M166 180H190" stroke="#7187A5" stroke-width="4" stroke-linecap="round"/>
<path d="M166 192H180" stroke="#7187A5" stroke-width="4" stroke-linecap="round"/>
<path d="M166 204H180" stroke="#7187A5" stroke-width="4" stroke-linecap="round"/>
<path d="M166 216H190" stroke="#7187A5" stroke-width="4" stroke-linecap="round"/>
</g>
<g filter="url(#filter4_d)">
<rect x="224" y="208" width="100" height="68" rx="4" fill="white"/>
</g>
<path d="M234 218H258" stroke="#D6E4F7" stroke-width="4" stroke-linecap="round"/>
<rect x="232" y="250" width="84" height="18" rx="4" fill="#F8FAFD"/>
<rect x="236" y="254" width="76" height="10" rx="2" fill="#F8FAFD" stroke="#D6E4F7" stroke-linecap="round" stroke-dasharray="4 4"/>
<rect x="232" y="224" width="84" height="22" rx="4" fill="#F8FAFD"/>
<path d="M238 230H282" stroke="#7187A5" stroke-width="4" stroke-linecap="round"/>
<path d="M237 237H311" stroke="#D6E4F7" stroke-width="2" stroke-linecap="round"/>
<path d="M237 241H285" stroke="#D6E4F7" stroke-width="2" stroke-linecap="round"/>
<g filter="url(#filter5_d)">
<rect x="224" y="168" width="100" height="32" rx="4" fill="white"/>
</g>
<rect x="232.5" y="184.5" width="83" height="7" rx="1.5" fill="white" stroke="#D6E4F7"/>
<path d="M234 178H278" stroke="#D6E4F7" stroke-width="4" stroke-linecap="round"/>
<g filter="url(#filter6_d)">
<rect x="332" y="168" width="48" height="30" rx="4" fill="white"/>
</g>
<path d="M342 178H356" stroke="#D6E4F7" stroke-width="4" stroke-linecap="round"/>
<path d="M341 185H371" stroke="#D6E4F7" stroke-width="2" stroke-linecap="round"/>
<path d="M341 189H361" stroke="#D6E4F7" stroke-width="2" stroke-linecap="round"/>
<g filter="url(#filter7_d)">
<rect x="332" y="206" width="48" height="28" rx="4" fill="white"/>
</g>
<path d="M341 216H359" stroke="#D6E4F7" stroke-width="2" stroke-linecap="round"/>
<rect x="364" y="214" width="8" height="4" rx="2" fill="#D6E4F7"/>
<g filter="url(#filter8_ddd)">
<rect x="364" y="214" width="4" height="4" rx="2" fill="white"/>
</g>
<path d="M341 224H359" stroke="#D6E4F7" stroke-width="2" stroke-linecap="round"/>
<rect x="364" y="222" width="8" height="4" rx="2" fill="#34CBAD"/>
<g filter="url(#filter9_ddd)">
<rect x="368" y="222" width="4" height="4" rx="2" fill="white"/>
</g>
<path d="M226 156H260" stroke="#7187A5" stroke-width="4" stroke-linecap="round"/>
<rect x="356" y="152" width="24" height="8" rx="4" fill="#44B5EE"/>
<path d="M362 156L374 156" stroke="white" stroke-opacity="0.3" stroke-width="2" stroke-linecap="round"/>
</g>
</g>
<g filter="url(#filter10_d)">
<g clip-path="url(#clip2)">
<rect x="8" y="228" width="180" height="180" rx="90" fill="url(#paint6_linear)"/>
<g opacity="0.2">
<line x1="98.5" y1="228.5" x2="98.5" y2="407.5" stroke="white" stroke-linecap="round" stroke-dasharray="4 4"/>
<line x1="48.5" y1="228.5" x2="48.5" y2="407.5" stroke="white" stroke-linecap="round" stroke-dasharray="4 4"/>
<line x1="148.5" y1="228.5" x2="148.5" y2="407.5" stroke="white" stroke-linecap="round" stroke-dasharray="4 4"/>
</g>
<g opacity="0.3">
<path d="M24.1396 355.13C8.56678 355.13 7.57277 373.643 -8 373.643V409.5H204.055V365.964C190.47 365.964 189.476 347.536 172.578 347.536C155.348 347.536 154.686 361.869 135.468 361.869C118.902 361.869 117.908 346 98.3587 346C80.4666 346 80.4666 366.322 61.2491 366.322C44.351 366.322 43.0257 355.13 24.1396 355.13Z" fill="url(#paint7_linear)"/>
<path d="M24.1396 355.13C8.56678 355.13 7.57277 373.643 -8 373.643V409.5H204.055V365.964C190.47 365.964 189.476 347.536 172.578 347.536C155.348 347.536 154.686 361.869 135.468 361.869C118.902 361.869 117.908 346 98.3587 346C80.4666 346 80.4666 366.322 61.2491 366.322C44.351 366.322 43.0257 355.13 24.1396 355.13Z" fill="url(#paint8_linear)"/>
</g>
<path d="M-8 373.643C7.57277 373.643 8.56678 355.13 24.1396 355.13C43.0257 355.13 44.351 366.322 61.2491 366.322C80.4666 366.322 80.4666 346 98.3587 346C117.908 346 118.902 361.869 135.468 361.869C154.686 361.869 155.348 347.536 172.578 347.536C189.476 347.536 190.47 365.964 204.055 365.964" stroke="url(#paint9_linear)"/>
<path d="M-8 373.643C7.57277 373.643 8.56678 355.13 24.1396 355.13C43.0257 355.13 44.351 366.322 61.2491 366.322C80.4666 366.322 80.4666 346 98.3587 346C117.908 346 118.902 361.869 135.468 361.869C154.686 361.869 155.348 347.536 172.578 347.536C189.476 347.536 190.47 365.964 204.055 365.964" stroke="url(#paint10_linear)"/>
<g filter="url(#filter11_d)">
<path fill-rule="evenodd" clip-rule="evenodd" d="M79 302C72.3726 302 67 307.373 67 314V326C67 332.627 72.3726 338 79 338H92L98 344L104 338H117C123.627 338 129 332.627 129 326V314C129 307.373 123.627 302 117 302H79Z" fill="#283341"/>
<path d="M79.155 323.035C79.5083 322.988 79.775 322.87 79.955 322.68C80.1383 322.487 80.23 322.235 80.23 321.925C80.23 321.798 80.2067 321.688 80.16 321.595C80.1167 321.498 80.0533 321.413 79.97 321.34C79.89 321.267 79.795 321.203 79.685 321.15C79.575 321.097 79.455 321.047 79.325 321L79.155 323.035ZM78.835 317.75C78.6483 317.773 78.49 317.813 78.36 317.87C78.23 317.923 78.1233 317.99 78.04 318.07C77.9567 318.15 77.895 318.24 77.855 318.34C77.8183 318.44 77.8 318.545 77.8 318.655C77.8 318.782 77.8217 318.893 77.865 318.99C77.9117 319.083 77.9733 319.168 78.05 319.245C78.13 319.318 78.2233 319.385 78.33 319.445C78.4367 319.502 78.5533 319.555 78.68 319.605L78.835 317.75ZM79.42 319.845C79.66 319.918 79.8983 320 80.135 320.09C80.3717 320.177 80.5833 320.29 80.77 320.43C80.96 320.57 81.1133 320.745 81.23 320.955C81.3467 321.162 81.405 321.422 81.405 321.735C81.405 322.045 81.3533 322.337 81.25 322.61C81.1467 322.88 80.995 323.12 80.795 323.33C80.595 323.537 80.35 323.707 80.06 323.84C79.77 323.97 79.4383 324.047 79.065 324.07L79.005 324.805C79.0017 324.882 78.9683 324.952 78.905 325.015C78.845 325.082 78.7683 325.115 78.675 325.115H78.22L78.31 324.045C77.92 323.992 77.5533 323.885 77.21 323.725C76.8667 323.565 76.575 323.367 76.335 323.13L76.715 322.565C76.7483 322.515 76.7917 322.475 76.845 322.445C76.9017 322.412 76.9617 322.395 77.025 322.395C77.0983 322.395 77.1767 322.422 77.26 322.475C77.3433 322.525 77.4383 322.585 77.545 322.655C77.6517 322.722 77.7733 322.79 77.91 322.86C78.0467 322.93 78.2083 322.982 78.395 323.015L78.58 320.78C78.3433 320.713 78.1083 320.635 77.875 320.545C77.645 320.455 77.4367 320.337 77.25 320.19C77.0667 320.04 76.9183 319.852 76.805 319.625C76.6917 319.398 76.635 319.115 76.635 318.775C76.635 318.522 76.685 318.275 76.785 318.035C76.885 317.792 77.0317 317.575 77.225 317.385C77.4217 317.195 77.6617 317.038 77.945 316.915C78.2283 316.792 78.5533 316.722 78.92 316.705L78.975 316.075C78.9817 315.995 79.015 315.923 79.075 315.86C79.135 315.797 79.2133 315.765 79.31 315.765H79.765L79.685 316.745C80.0383 316.802 80.3433 316.903 80.6 317.05C80.8567 317.193 81.0783 317.355 81.265 317.535L80.965 317.99C80.9217 318.057 80.8767 318.107 80.83 318.14C80.7833 318.173 80.7267 318.19 80.66 318.19C80.61 318.19 80.55 318.175 80.48 318.145C80.41 318.112 80.3317 318.073 80.245 318.03C80.1583 317.983 80.06 317.937 79.95 317.89C79.8433 317.843 79.725 317.805 79.595 317.775L79.42 319.845ZM87.9758 323.075V324H83.9758V323.075H85.4408V318.86C85.4408 318.693 85.4458 318.522 85.4558 318.345L84.4158 319.215C84.3558 319.262 84.2958 319.292 84.2358 319.305C84.1791 319.315 84.1241 319.315 84.0708 319.305C84.0208 319.295 83.9758 319.278 83.9358 319.255C83.8958 319.228 83.8658 319.2 83.8458 319.17L83.4558 318.635L85.6608 316.76H86.6758V323.075H87.9758ZM95.0616 316.77V317.305C95.0616 317.465 95.0449 317.595 95.0116 317.695C94.9782 317.792 94.9449 317.873 94.9116 317.94L92.1716 323.58C92.1149 323.697 92.0349 323.797 91.9316 323.88C91.8282 323.96 91.6899 324 91.5166 324H90.6216L93.4166 318.475C93.4799 318.362 93.5416 318.258 93.6016 318.165C93.6649 318.068 93.7349 317.977 93.8116 317.89H90.3516C90.2749 317.89 90.2082 317.862 90.1516 317.805C90.0949 317.748 90.0666 317.682 90.0666 317.605V316.77H95.0616ZM101.577 323.075V324H97.5773V323.075H99.0423V318.86C99.0423 318.693 99.0473 318.522 99.0573 318.345L98.0173 319.215C97.9573 319.262 97.8973 319.292 97.8373 319.305C97.7807 319.315 97.7257 319.315 97.6723 319.305C97.6223 319.295 97.5773 319.278 97.5373 319.255C97.4973 319.228 97.4673 319.2 97.4473 319.17L97.0573 318.635L99.2623 316.76H100.277V323.075H101.577ZM103.633 323.32C103.633 323.217 103.651 323.118 103.688 323.025C103.728 322.932 103.781 322.852 103.848 322.785C103.915 322.718 103.995 322.665 104.088 322.625C104.181 322.585 104.281 322.565 104.388 322.565C104.495 322.565 104.593 322.585 104.683 322.625C104.776 322.665 104.856 322.718 104.923 322.785C104.993 322.852 105.048 322.932 105.088 323.025C105.128 323.118 105.148 323.217 105.148 323.32C105.148 323.427 105.128 323.527 105.088 323.62C105.048 323.71 104.993 323.788 104.923 323.855C104.856 323.922 104.776 323.973 104.683 324.01C104.593 324.05 104.495 324.07 104.388 324.07C104.281 324.07 104.181 324.05 104.088 324.01C103.995 323.973 103.915 323.922 103.848 323.855C103.781 323.788 103.728 323.71 103.688 323.62C103.651 323.527 103.633 323.427 103.633 323.32ZM109.186 319.395L108.936 319.705C109.076 319.635 109.226 319.582 109.386 319.545C109.55 319.505 109.725 319.485 109.911 319.485C110.185 319.485 110.45 319.53 110.706 319.62C110.966 319.71 111.195 319.847 111.391 320.03C111.588 320.21 111.746 320.435 111.866 320.705C111.986 320.975 112.046 321.29 112.046 321.65C112.046 321.987 111.985 322.303 111.861 322.6C111.738 322.893 111.565 323.15 111.341 323.37C111.118 323.59 110.848 323.763 110.531 323.89C110.218 324.017 109.871 324.08 109.491 324.08C109.105 324.08 108.758 324.018 108.451 323.895C108.145 323.772 107.883 323.6 107.666 323.38C107.45 323.157 107.283 322.89 107.166 322.58C107.053 322.267 106.996 321.92 106.996 321.54C106.996 321.2 107.065 320.852 107.201 320.495C107.341 320.135 107.556 319.762 107.846 319.375L109.571 317.06C109.631 316.98 109.718 316.912 109.831 316.855C109.948 316.798 110.081 316.77 110.231 316.77H111.331L109.186 319.395ZM109.466 323.07C109.663 323.07 109.843 323.037 110.006 322.97C110.173 322.903 110.315 322.81 110.431 322.69C110.551 322.57 110.645 322.43 110.711 322.27C110.778 322.107 110.811 321.93 110.811 321.74C110.811 321.533 110.78 321.348 110.716 321.185C110.653 321.018 110.563 320.878 110.446 320.765C110.33 320.648 110.19 320.56 110.026 320.5C109.863 320.44 109.683 320.41 109.486 320.41C109.29 320.41 109.111 320.443 108.951 320.51C108.791 320.577 108.655 320.67 108.541 320.79C108.428 320.907 108.34 321.047 108.276 321.21C108.213 321.37 108.181 321.543 108.181 321.73C108.181 321.93 108.208 322.113 108.261 322.28C108.318 322.443 108.4 322.583 108.506 322.7C108.616 322.817 108.751 322.908 108.911 322.975C109.071 323.038 109.256 323.07 109.466 323.07ZM115.527 319.8H115.842C115.969 319.8 116.074 319.783 116.157 319.75C116.24 319.713 116.312 319.657 116.372 319.58L118.367 317.055C118.45 316.948 118.537 316.875 118.627 316.835C118.72 316.792 118.837 316.77 118.977 316.77H120.137L117.702 319.775C117.559 319.958 117.41 320.088 117.257 320.165C117.367 320.205 117.465 320.262 117.552 320.335C117.642 320.405 117.727 320.498 117.807 320.615L120.317 324H119.132C118.972 324 118.852 323.978 118.772 323.935C118.695 323.888 118.63 323.822 118.577 323.735L116.532 321.065C116.469 320.975 116.395 320.912 116.312 320.875C116.229 320.838 116.109 320.82 115.952 320.82H115.527V324H114.182V316.77H115.527V319.8Z" fill="white"/>
</g>
<rect x="36" y="270" width="25" height="14" rx="4" fill="white" fill-opacity="0.1"/>
<path d="M44.916 274.216V280H43.968V276.264C43.968 276.115 43.976 275.953 43.992 275.78L42.244 279.064C42.1613 279.221 42.0347 279.3 41.864 279.3H41.712C41.5413 279.3 41.4147 279.221 41.332 279.064L39.564 275.768C39.572 275.856 39.5787 275.943 39.584 276.028C39.5893 276.113 39.592 276.192 39.592 276.264V280H38.644V274.216H39.456C39.504 274.216 39.5453 274.217 39.58 274.22C39.6147 274.223 39.6453 274.229 39.672 274.24C39.7013 274.251 39.7267 274.268 39.748 274.292C39.772 274.316 39.7947 274.348 39.816 274.388L41.548 277.6C41.5933 277.685 41.6347 277.773 41.672 277.864C41.712 277.955 41.7507 278.048 41.788 278.144C41.8253 278.045 41.864 277.951 41.904 277.86C41.944 277.767 41.9867 277.677 42.032 277.592L43.74 274.388C43.7613 274.348 43.784 274.316 43.808 274.292C43.832 274.268 43.8573 274.251 43.884 274.24C43.9133 274.229 43.9453 274.223 43.98 274.22C44.0147 274.217 44.056 274.216 44.104 274.216H44.916ZM50.2625 277.816L49.5585 275.892C49.5238 275.807 49.4878 275.705 49.4505 275.588C49.4132 275.471 49.3758 275.344 49.3385 275.208C49.3038 275.344 49.2678 275.472 49.2305 275.592C49.1932 275.709 49.1572 275.812 49.1225 275.9L48.4225 277.816H50.2625ZM52.1625 280H51.3305C51.2372 280 51.1612 279.977 51.1025 279.932C51.0438 279.884 50.9998 279.825 50.9705 279.756L50.5385 278.576H48.1425L47.7105 279.756C47.6892 279.817 47.6478 279.873 47.5865 279.924C47.5252 279.975 47.4492 280 47.3585 280H46.5185L48.7945 274.216H49.8905L52.1625 280ZM55.5092 276.968C55.7119 276.968 55.8879 276.943 56.0372 276.892C56.1892 276.841 56.3132 276.772 56.4092 276.684C56.5079 276.593 56.5812 276.487 56.6292 276.364C56.6772 276.241 56.7012 276.107 56.7012 275.96C56.7012 275.667 56.6039 275.441 56.4092 275.284C56.2172 275.127 55.9225 275.048 55.5252 275.048H54.8372V276.968H55.5092ZM58.2772 280H57.3052C57.1212 280 56.9879 279.928 56.9052 279.784L55.6892 277.932C55.6439 277.863 55.5932 277.813 55.5372 277.784C55.4839 277.755 55.4039 277.74 55.2972 277.74H54.8372V280H53.7612V274.216H55.5252C55.9172 274.216 56.2532 274.257 56.5332 274.34C56.8159 274.42 57.0465 274.533 57.2252 274.68C57.4065 274.827 57.5399 275.003 57.6252 275.208C57.7105 275.411 57.7532 275.635 57.7532 275.88C57.7532 276.075 57.7239 276.259 57.6652 276.432C57.6092 276.605 57.5265 276.763 57.4172 276.904C57.3105 277.045 57.1772 277.169 57.0172 277.276C56.8599 277.383 56.6799 277.467 56.4772 277.528C56.5465 277.568 56.6105 277.616 56.6692 277.672C56.7279 277.725 56.7812 277.789 56.8292 277.864L58.2772 280Z" fill="white"/>
<rect x="88" y="270" width="22" height="14" rx="4" fill="white" fill-opacity="0.1"/>
<path d="M93.7 277.816L92.996 275.892C92.9613 275.807 92.9253 275.705 92.888 275.588C92.8507 275.471 92.8133 275.344 92.776 275.208C92.7413 275.344 92.7053 275.472 92.668 275.592C92.6307 275.709 92.5947 275.812 92.56 275.9L91.86 277.816H93.7ZM95.6 280H94.768C94.6747 280 94.5987 279.977 94.54 279.932C94.4813 279.884 94.4373 279.825 94.408 279.756L93.976 278.576H91.58L91.148 279.756C91.1267 279.817 91.0853 279.873 91.024 279.924C90.9627 279.975 90.8867 280 90.796 280H89.956L92.232 274.216H93.328L95.6 280ZM99.0787 277.124C99.276 277.124 99.448 277.1 99.5947 277.052C99.7414 277.001 99.8627 276.931 99.9587 276.84C100.057 276.747 100.131 276.635 100.179 276.504C100.227 276.371 100.251 276.223 100.251 276.06C100.251 275.905 100.227 275.765 100.179 275.64C100.131 275.515 100.059 275.408 99.9627 275.32C99.8667 275.232 99.7454 275.165 99.5987 275.12C99.452 275.072 99.2787 275.048 99.0787 275.048H98.2747V277.124H99.0787ZM99.0787 274.216C99.4654 274.216 99.8 274.261 100.083 274.352C100.365 274.443 100.599 274.569 100.783 274.732C100.967 274.895 101.103 275.089 101.191 275.316C101.281 275.543 101.327 275.791 101.327 276.06C101.327 276.34 101.28 276.597 101.187 276.832C101.093 277.064 100.953 277.264 100.767 277.432C100.58 277.6 100.345 277.731 100.063 277.824C99.7827 277.917 99.4547 277.964 99.0787 277.964H98.2747V280H97.1987V274.216H99.0787ZM104.9 276.968C105.102 276.968 105.278 276.943 105.428 276.892C105.58 276.841 105.704 276.772 105.8 276.684C105.898 276.593 105.972 276.487 106.02 276.364C106.068 276.241 106.092 276.107 106.092 275.96C106.092 275.667 105.994 275.441 105.8 275.284C105.608 275.127 105.313 275.048 104.916 275.048H104.228V276.968H104.9ZM107.668 280H106.696C106.512 280 106.378 279.928 106.296 279.784L105.08 277.932C105.034 277.863 104.984 277.813 104.928 277.784C104.874 277.755 104.794 277.74 104.688 277.74H104.228V280H103.152V274.216H104.916C105.308 274.216 105.644 274.257 105.924 274.34C106.206 274.42 106.437 274.533 106.616 274.68C106.797 274.827 106.93 275.003 107.016 275.208C107.101 275.411 107.144 275.635 107.144 275.88C107.144 276.075 107.114 276.259 107.056 276.432C107 276.605 106.917 276.763 106.808 276.904C106.701 277.045 106.568 277.169 106.408 277.276C106.25 277.383 106.07 277.467 105.868 277.528C105.937 277.568 106.001 277.616 106.06 277.672C106.118 277.725 106.172 277.789 106.22 277.864L107.668 280Z" fill="white"/>
<rect x="136" y="270" width="24" height="14" rx="4" fill="white" fill-opacity="0.1"/>
<path d="M144.916 274.216V280H143.968V276.264C143.968 276.115 143.976 275.953 143.992 275.78L142.244 279.064C142.161 279.221 142.035 279.3 141.864 279.3H141.712C141.541 279.3 141.415 279.221 141.332 279.064L139.564 275.768C139.572 275.856 139.579 275.943 139.584 276.028C139.589 276.113 139.592 276.192 139.592 276.264V280H138.644V274.216H139.456C139.504 274.216 139.545 274.217 139.58 274.22C139.615 274.223 139.645 274.229 139.672 274.24C139.701 274.251 139.727 274.268 139.748 274.292C139.772 274.316 139.795 274.348 139.816 274.388L141.548 277.6C141.593 277.685 141.635 277.773 141.672 277.864C141.712 277.955 141.751 278.048 141.788 278.144C141.825 278.045 141.864 277.951 141.904 277.86C141.944 277.767 141.987 277.677 142.032 277.592L143.74 274.388C143.761 274.348 143.784 274.316 143.808 274.292C143.832 274.268 143.857 274.251 143.884 274.24C143.913 274.229 143.945 274.223 143.98 274.22C144.015 274.217 144.056 274.216 144.104 274.216H144.916ZM150.263 277.816L149.559 275.892C149.524 275.807 149.488 275.705 149.451 275.588C149.413 275.471 149.376 275.344 149.339 275.208C149.304 275.344 149.268 275.472 149.231 275.592C149.193 275.709 149.157 275.812 149.123 275.9L148.423 277.816H150.263ZM152.163 280H151.331C151.237 280 151.161 279.977 151.103 279.932C151.044 279.884 151 279.825 150.97 279.756L150.539 278.576H148.143L147.711 279.756C147.689 279.817 147.648 279.873 147.587 279.924C147.525 279.975 147.449 280 147.359 280H146.518L148.795 274.216H149.891L152.163 280ZM155.644 277.76V280H154.572V277.76L152.464 274.216H153.412C153.505 274.216 153.578 274.239 153.632 274.284C153.688 274.329 153.734 274.387 153.772 274.456L154.828 276.388C154.889 276.503 154.942 276.611 154.988 276.712C155.036 276.813 155.078 276.915 155.116 277.016C155.15 276.915 155.19 276.813 155.236 276.712C155.281 276.611 155.333 276.503 155.392 276.388L156.444 274.456C156.473 274.397 156.517 274.343 156.576 274.292C156.634 274.241 156.709 274.216 156.8 274.216H157.752L155.644 277.76Z" fill="white"/>
</g>
</g>
<g filter="url(#filter12_d)">
<path d="M371 81C371 78.7909 372.791 77 375 77H463C465.209 77 467 78.7909 467 81V129C467 131.209 465.209 133 463 133H375C372.791 133 371 131.209 371 129V81Z" fill="url(#paint11_linear)"/>
<path d="M371 81C371 78.7909 372.791 77 375 77H463C465.209 77 467 78.7909 467 81V129C467 131.209 465.209 133 463 133H375C372.791 133 371 131.209 371 129V81Z" fill="url(#paint12_linear)"/>
<path d="M371 81C371 78.7909 372.791 77 375 77H463C465.209 77 467 78.7909 467 81V129C467 131.209 465.209 133 463 133H375C372.791 133 371 131.209 371 129V81Z" fill="#41546C" fill-opacity="0.8"/>
<path fill-rule="evenodd" clip-rule="evenodd" d="M391 87L391 86C391 85.4477 390.552 85 390 85L384 85L384 87L384 88L384 90L384 91L384 93L384 94L379 94L379 95C379 95.5523 379.448 96 380 96L390 96C390.552 96 391 95.5523 391 95L391 94L386 94L386 93L386 91L386 90L386 88L386 87L391 87ZM383 93L383 91L379 91L379 93L383 93ZM383 90L383 88L379 88L379 90L383 90ZM383 87L383 85L380 85C379.448 85 379 85.4477 379 86L379 87L383 87ZM391 93L387 93L387 91L391 91L391 93ZM391 90L387 90L387 88L391 88L391 90Z" fill="url(#paint13_linear)"/>
<path fill-rule="evenodd" clip-rule="evenodd" d="M391 87L391 86C391 85.4477 390.552 85 390 85L384 85L384 87L384 88L384 90L384 91L384 93L384 94L379 94L379 95C379 95.5523 379.448 96 380 96L390 96C390.552 96 391 95.5523 391 95L391 94L386 94L386 93L386 91L386 90L386 88L386 87L391 87ZM383 93L383 91L379 91L379 93L383 93ZM383 90L383 88L379 88L379 90L383 90ZM383 87L383 85L380 85C379.448 85 379 85.4477 379 86L379 87L383 87ZM391 93L387 93L387 91L391 91L391 93ZM391 90L387 90L387 88L391 88L391 90Z" fill="white" fill-opacity="0.6"/>
<path d="M381 115H445" stroke="#D6E4F7" stroke-width="4" stroke-linecap="round"/>
<path d="M381 123H405" stroke="#D6E4F7" stroke-width="4" stroke-linecap="round"/>
<path d="M375 78H463V76H375V78ZM466 81V129H468V81H466ZM463 132H375V134H463V132ZM372 129V81H370V129H372ZM375 132C373.343 132 372 130.657 372 129H370C370 131.761 372.239 134 375 134V132ZM466 129C466 130.657 464.657 132 463 132V134C465.761 134 468 131.761 468 129H466ZM463 78C464.657 78 466 79.3431 466 81H468C468 78.2386 465.761 76 463 76V78ZM375 76C372.239 76 370 78.2386 370 81H372C372 79.3431 373.343 78 375 78V76Z" fill="url(#paint14_linear)"/>
<path d="M375 78H463V76H375V78ZM466 81V129H468V81H466ZM463 132H375V134H463V132ZM372 129V81H370V129H372ZM375 132C373.343 132 372 130.657 372 129H370C370 131.761 372.239 134 375 134V132ZM466 129C466 130.657 464.657 132 463 132V134C465.761 134 468 131.761 468 129H466ZM463 78C464.657 78 466 79.3431 466 81H468C468 78.2386 465.761 76 463 76V78ZM375 76C372.239 76 370 78.2386 370 81H372C372 79.3431 373.343 78 375 78V76Z" fill="url(#paint15_linear)"/>
</g>
<g filter="url(#filter13_d)">
<rect x="369" y="213" width="102" height="194" rx="15" fill="url(#paint16_linear)" stroke="black" stroke-width="2"/>
<g filter="url(#filter14_d)">
<path d="M372 336C372 333.791 373.791 332 376 332H464C466.209 332 468 333.791 468 336V384C468 386.209 466.209 388 464 388H376C373.791 388 372 386.209 372 384V336Z" fill="url(#paint17_linear)"/>
<path d="M372 336C372 333.791 373.791 332 376 332H464C466.209 332 468 333.791 468 336V384C468 386.209 466.209 388 464 388H376C373.791 388 372 386.209 372 384V336Z" fill="url(#paint18_linear)"/>
<path d="M372 336C372 333.791 373.791 332 376 332H464C466.209 332 468 333.791 468 336V384C468 386.209 466.209 388 464 388H376C373.791 388 372 386.209 372 384V336Z" fill="white" fill-opacity="0.9"/>
<path fill-rule="evenodd" clip-rule="evenodd" d="M392 342L392 341C392 340.448 391.552 340 391 340L385 340L385 342L385 343L385 345L385 346L385 348L385 349L380 349L380 350C380 350.552 380.448 351 381 351L391 351C391.552 351 392 350.552 392 350L392 349L387 349L387 348L387 346L387 345L387 343L387 342L392 342ZM384 348L384 346L380 346L380 348L384 348ZM384 345L384 343L380 343L380 345L384 345ZM384 342L384 340L381 340C380.448 340 380 340.448 380 341L380 342L384 342ZM392 348L388 348L388 346L392 346L392 348ZM392 345L388 345L388 343L392 343L392 345Z" fill="url(#paint19_linear)"/>
<path fill-rule="evenodd" clip-rule="evenodd" d="M392 342L392 341C392 340.448 391.552 340 391 340L385 340L385 342L385 343L385 345L385 346L385 348L385 349L380 349L380 350C380 350.552 380.448 351 381 351L391 351C391.552 351 392 350.552 392 350L392 349L387 349L387 348L387 346L387 345L387 343L387 342L392 342ZM384 348L384 346L380 346L380 348L384 348ZM384 345L384 343L380 343L380 345L384 345ZM384 342L384 340L381 340C380.448 340 380 340.448 380 341L380 342L384 342ZM392 348L388 348L388 346L392 346L392 348ZM392 345L388 345L388 343L392 343L392 345Z" fill="white" fill-opacity="0.6"/>
<path d="M382 370H446" stroke="#D6E4F7" stroke-width="4" stroke-linecap="round"/>
<path d="M382 378H406" stroke="#D6E4F7" stroke-width="4" stroke-linecap="round"/>
<path d="M376 333H464V331H376V333ZM467 336V384H469V336H467ZM464 387H376V389H464V387ZM373 384V336H371V384H373ZM376 387C374.343 387 373 385.657 373 384H371C371 386.761 373.239 389 376 389V387ZM467 384C467 385.657 465.657 387 464 387V389C466.761 389 469 386.761 469 384H467ZM464 333C465.657 333 467 334.343 467 336H469C469 333.239 466.761 331 464 331V333ZM376 331C373.239 331 371 333.239 371 336H373C373 334.343 374.343 333 376 333V331Z" fill="url(#paint20_linear)"/>
<path d="M376 333H464V331H376V333ZM467 336V384H469V336H467ZM464 387H376V389H464V387ZM373 384V336H371V384H373ZM376 387C374.343 387 373 385.657 373 384H371C371 386.761 373.239 389 376 389V387ZM467 384C467 385.657 465.657 387 464 387V389C466.761 389 469 386.761 469 384H467ZM464 333C465.657 333 467 334.343 467 336H469C469 333.239 466.761 331 464 331V333ZM376 331C373.239 331 371 333.239 371 336H373C373 334.343 374.343 333 376 333V331Z" fill="url(#paint21_linear)"/>
</g>
<g filter="url(#filter15_d)">
<rect x="372" y="260" width="96" height="64" rx="4" fill="white"/>
<path d="M382 270H406" stroke="#7187A5" stroke-width="4" stroke-linecap="round"/>
<path d="M402 286H436" stroke="#D6E4F7" stroke-width="4" stroke-linecap="round"/>
<path d="M401 291H425" stroke="#D6E4F7" stroke-width="2" stroke-linecap="round"/>
<rect x="380" y="280" width="16" height="16" rx="2" fill="#85E0CE"/>
<path d="M402 306H426" stroke="#D6E4F7" stroke-width="4" stroke-linecap="round"/>
<path d="M401 311H415" stroke="#D6E4F7" stroke-width="2" stroke-linecap="round"/>
<rect x="380" y="300" width="16" height="16" rx="2" fill="#73C8F2"/>
</g>
<path d="M382 226H406" stroke="#7187A5" stroke-width="4" stroke-linecap="round"/>
<path d="M382 238H426" stroke="#D6E4F7" stroke-width="4" stroke-linecap="round"/>
<path d="M381 245H455" stroke="#D6E4F7" stroke-width="2" stroke-linecap="round"/>
<path d="M381 249H429" stroke="#D6E4F7" stroke-width="2" stroke-linecap="round"/>
</g>
<defs>
<filter id="filter0_d" x="0" y="0" width="284" height="144" filterUnits="userSpaceOnUse" color-interpolation-filters="sRGB">
<feFlood flood-opacity="0" result="BackgroundImageFix"/>
<feColorMatrix in="SourceAlpha" type="matrix" values="0 0 0 0 0 0 0 0 0 0 0 0 0 0 0 0 0 0 127 0"/>
<feOffset/>
<feGaussianBlur stdDeviation="4"/>
<feColorMatrix type="matrix" values="0 0 0 0 0 0 0 0 0 0 0 0 0 0 0 0 0 0 0.4 0"/>
<feBlend mode="normal" in2="BackgroundImageFix" result="effect1_dropShadow"/>
<feBlend mode="normal" in="SourceGraphic" in2="effect1_dropShadow" result="shape"/>
</filter>
<filter id="filter1_d" x="344" y="39" width="115.138" height="100.497" filterUnits="userSpaceOnUse" color-interpolation-filters="sRGB">
<feFlood flood-opacity="0" result="BackgroundImageFix"/>
<feColorMatrix in="SourceAlpha" type="matrix" values="0 0 0 0 0 0 0 0 0 0 0 0 0 0 0 0 0 0 127 0"/>
<feOffset dy="1"/>
<feGaussianBlur stdDeviation="1"/>
<feColorMatrix type="matrix" values="0 0 0 0 0.156863 0 0 0 0 0.2 0 0 0 0 0.254902 0 0 0 0.15 0"/>
<feBlend mode="normal" in2="BackgroundImageFix" result="effect1_dropShadow"/>
<feBlend mode="normal" in="SourceGraphic" in2="effect1_dropShadow" result="shape"/>
</filter>
<filter id="filter2_d" x="144" y="110" width="256" height="196" filterUnits="userSpaceOnUse" color-interpolation-filters="sRGB">
<feFlood flood-opacity="0" result="BackgroundImageFix"/>
<feColorMatrix in="SourceAlpha" type="matrix" values="0 0 0 0 0 0 0 0 0 0 0 0 0 0 0 0 0 0 127 0"/>
<feOffset/>
<feGaussianBlur stdDeviation="4"/>
<feColorMatrix type="matrix" values="0 0 0 0 0 0 0 0 0 0 0 0 0 0 0 0 0 0 0.4 0"/>
<feBlend mode="normal" in2="BackgroundImageFix" result="effect1_dropShadow"/>
<feBlend mode="normal" in="SourceGraphic" in2="effect1_dropShadow" result="shape"/>
</filter>
<filter id="filter3_ddd" x="149" y="140" width="66" height="162" filterUnits="userSpaceOnUse" color-interpolation-filters="sRGB">
<feFlood flood-opacity="0" result="BackgroundImageFix"/>
<feColorMatrix in="SourceAlpha" type="matrix" values="0 0 0 0 0 0 0 0 0 0 0 0 0 0 0 0 0 0 127 0"/>
<feOffset dy="1"/>
<feGaussianBlur stdDeviation="1.5"/>
<feColorMatrix type="matrix" values="0 0 0 0 0.156863 0 0 0 0 0.2 0 0 0 0 0.254902 0 0 0 0.1 0"/>
<feBlend mode="normal" in2="BackgroundImageFix" result="effect1_dropShadow"/>
<feColorMatrix in="SourceAlpha" type="matrix" values="0 0 0 0 0 0 0 0 0 0 0 0 0 0 0 0 0 0 127 0"/>
<feOffset dy="1"/>
<feGaussianBlur stdDeviation="1"/>
<feColorMatrix type="matrix" values="0 0 0 0 0.156863 0 0 0 0 0.2 0 0 0 0 0.254902 0 0 0 0.1 0"/>
<feBlend mode="normal" in2="effect1_dropShadow" result="effect2_dropShadow"/>
<feColorMatrix in="SourceAlpha" type="matrix" values="0 0 0 0 0 0 0 0 0 0 0 0 0 0 0 0 0 0 127 0"/>
<feOffset/>
<feGaussianBlur stdDeviation="0.5"/>
<feColorMatrix type="matrix" values="0 0 0 0 0.156863 0 0 0 0 0.2 0 0 0 0 0.254902 0 0 0 0.1 0"/>
<feBlend mode="normal" in2="effect2_dropShadow" result="effect3_dropShadow"/>
<feBlend mode="normal" in="SourceGraphic" in2="effect3_dropShadow" result="shape"/>
</filter>
<filter id="filter4_d" x="222" y="207" width="104" height="72" filterUnits="userSpaceOnUse" color-interpolation-filters="sRGB">
<feFlood flood-opacity="0" result="BackgroundImageFix"/>
<feColorMatrix in="SourceAlpha" type="matrix" values="0 0 0 0 0 0 0 0 0 0 0 0 0 0 0 0 0 0 127 0"/>
<feOffset dy="1"/>
<feGaussianBlur stdDeviation="1"/>
<feColorMatrix type="matrix" values="0 0 0 0 0.156863 0 0 0 0 0.2 0 0 0 0 0.254902 0 0 0 0.15 0"/>
<feBlend mode="normal" in2="BackgroundImageFix" result="effect1_dropShadow"/>
<feBlend mode="normal" in="SourceGraphic" in2="effect1_dropShadow" result="shape"/>
</filter>
<filter id="filter5_d" x="222" y="167" width="104" height="36" filterUnits="userSpaceOnUse" color-interpolation-filters="sRGB">
<feFlood flood-opacity="0" result="BackgroundImageFix"/>
<feColorMatrix in="SourceAlpha" type="matrix" values="0 0 0 0 0 0 0 0 0 0 0 0 0 0 0 0 0 0 127 0"/>
<feOffset dy="1"/>
<feGaussianBlur stdDeviation="1"/>
<feColorMatrix type="matrix" values="0 0 0 0 0.156863 0 0 0 0 0.2 0 0 0 0 0.254902 0 0 0 0.15 0"/>
<feBlend mode="normal" in2="BackgroundImageFix" result="effect1_dropShadow"/>
<feBlend mode="normal" in="SourceGraphic" in2="effect1_dropShadow" result="shape"/>
</filter>
<filter id="filter6_d" x="330" y="167" width="52" height="34" filterUnits="userSpaceOnUse" color-interpolation-filters="sRGB">
<feFlood flood-opacity="0" result="BackgroundImageFix"/>
<feColorMatrix in="SourceAlpha" type="matrix" values="0 0 0 0 0 0 0 0 0 0 0 0 0 0 0 0 0 0 127 0"/>
<feOffset dy="1"/>
<feGaussianBlur stdDeviation="1"/>
<feColorMatrix type="matrix" values="0 0 0 0 0.156863 0 0 0 0 0.2 0 0 0 0 0.254902 0 0 0 0.15 0"/>
<feBlend mode="normal" in2="BackgroundImageFix" result="effect1_dropShadow"/>
<feBlend mode="normal" in="SourceGraphic" in2="effect1_dropShadow" result="shape"/>
</filter>
<filter id="filter7_d" x="330" y="205" width="52" height="32" filterUnits="userSpaceOnUse" color-interpolation-filters="sRGB">
<feFlood flood-opacity="0" result="BackgroundImageFix"/>
<feColorMatrix in="SourceAlpha" type="matrix" values="0 0 0 0 0 0 0 0 0 0 0 0 0 0 0 0 0 0 127 0"/>
<feOffset dy="1"/>
<feGaussianBlur stdDeviation="1"/>
<feColorMatrix type="matrix" values="0 0 0 0 0.156863 0 0 0 0 0.2 0 0 0 0 0.254902 0 0 0 0.15 0"/>
<feBlend mode="normal" in2="BackgroundImageFix" result="effect1_dropShadow"/>
<feBlend mode="normal" in="SourceGraphic" in2="effect1_dropShadow" result="shape"/>
</filter>
<filter id="filter8_ddd" x="361" y="212" width="10" height="10" filterUnits="userSpaceOnUse" color-interpolation-filters="sRGB">
<feFlood flood-opacity="0" result="BackgroundImageFix"/>
<feColorMatrix in="SourceAlpha" type="matrix" values="0 0 0 0 0 0 0 0 0 0 0 0 0 0 0 0 0 0 127 0"/>
<feOffset dy="1"/>
<feGaussianBlur stdDeviation="1.5"/>
<feColorMatrix type="matrix" values="0 0 0 0 0.156863 0 0 0 0 0.2 0 0 0 0 0.254902 0 0 0 0.1 0"/>
<feBlend mode="normal" in2="BackgroundImageFix" result="effect1_dropShadow"/>
<feColorMatrix in="SourceAlpha" type="matrix" values="0 0 0 0 0 0 0 0 0 0 0 0 0 0 0 0 0 0 127 0"/>
<feOffset dy="1"/>
<feGaussianBlur stdDeviation="1"/>
<feColorMatrix type="matrix" values="0 0 0 0 0.156863 0 0 0 0 0.2 0 0 0 0 0.254902 0 0 0 0.1 0"/>
<feBlend mode="normal" in2="effect1_dropShadow" result="effect2_dropShadow"/>
<feColorMatrix in="SourceAlpha" type="matrix" values="0 0 0 0 0 0 0 0 0 0 0 0 0 0 0 0 0 0 127 0"/>
<feOffset/>
<feGaussianBlur stdDeviation="0.5"/>
<feColorMatrix type="matrix" values="0 0 0 0 0.156863 0 0 0 0 0.2 0 0 0 0 0.254902 0 0 0 0.1 0"/>
<feBlend mode="normal" in2="effect2_dropShadow" result="effect3_dropShadow"/>
<feBlend mode="normal" in="SourceGraphic" in2="effect3_dropShadow" result="shape"/>
</filter>
<filter id="filter9_ddd" x="365" y="220" width="10" height="10" filterUnits="userSpaceOnUse" color-interpolation-filters="sRGB">
<feFlood flood-opacity="0" result="BackgroundImageFix"/>
<feColorMatrix in="SourceAlpha" type="matrix" values="0 0 0 0 0 0 0 0 0 0 0 0 0 0 0 0 0 0 127 0"/>
<feOffset dy="1"/>
<feGaussianBlur stdDeviation="1.5"/>
<feColorMatrix type="matrix" values="0 0 0 0 0.156863 0 0 0 0 0.2 0 0 0 0 0.254902 0 0 0 0.1 0"/>
<feBlend mode="normal" in2="BackgroundImageFix" result="effect1_dropShadow"/>
<feColorMatrix in="SourceAlpha" type="matrix" values="0 0 0 0 0 0 0 0 0 0 0 0 0 0 0 0 0 0 127 0"/>
<feOffset dy="1"/>
<feGaussianBlur stdDeviation="1"/>
<feColorMatrix type="matrix" values="0 0 0 0 0.156863 0 0 0 0 0.2 0 0 0 0 0.254902 0 0 0 0.1 0"/>
<feBlend mode="normal" in2="effect1_dropShadow" result="effect2_dropShadow"/>
<feColorMatrix in="SourceAlpha" type="matrix" values="0 0 0 0 0 0 0 0 0 0 0 0 0 0 0 0 0 0 127 0"/>
<feOffset/>
<feGaussianBlur stdDeviation="0.5"/>
<feColorMatrix type="matrix" values="0 0 0 0 0.156863 0 0 0 0 0.2 0 0 0 0 0.254902 0 0 0 0.1 0"/>
<feBlend mode="normal" in2="effect2_dropShadow" result="effect3_dropShadow"/>
<feBlend mode="normal" in="SourceGraphic" in2="effect3_dropShadow" result="shape"/>
</filter>
<filter id="filter10_d" x="0" y="220" width="196" height="196" filterUnits="userSpaceOnUse" color-interpolation-filters="sRGB">
<feFlood flood-opacity="0" result="BackgroundImageFix"/>
<feColorMatrix in="SourceAlpha" type="matrix" values="0 0 0 0 0 0 0 0 0 0 0 0 0 0 0 0 0 0 127 0"/>
<feOffset/>
<feGaussianBlur stdDeviation="4"/>
<feColorMatrix type="matrix" values="0 0 0 0 0 0 0 0 0 0 0 0 0 0 0 0 0 0 0.4 0"/>
<feBlend mode="normal" in2="BackgroundImageFix" result="effect1_dropShadow"/>
<feBlend mode="normal" in="SourceGraphic" in2="effect1_dropShadow" result="shape"/>
</filter>
<filter id="filter11_d" x="65" y="301" width="66" height="46" filterUnits="userSpaceOnUse" color-interpolation-filters="sRGB">
<feFlood flood-opacity="0" result="BackgroundImageFix"/>
<feColorMatrix in="SourceAlpha" type="matrix" values="0 0 0 0 0 0 0 0 0 0 0 0 0 0 0 0 0 0 127 0"/>
<feOffset dy="1"/>
<feGaussianBlur stdDeviation="1"/>
<feColorMatrix type="matrix" values="0 0 0 0 0.156863 0 0 0 0 0.2 0 0 0 0 0.254902 0 0 0 0.15 0"/>
<feBlend mode="normal" in2="BackgroundImageFix" result="effect1_dropShadow"/>
<feBlend mode="normal" in="SourceGraphic" in2="effect1_dropShadow" result="shape"/>
</filter>
<filter id="filter12_d" x="369" y="76" width="100" height="60" filterUnits="userSpaceOnUse" color-interpolation-filters="sRGB">
<feFlood flood-opacity="0" result="BackgroundImageFix"/>
<feColorMatrix in="SourceAlpha" type="matrix" values="0 0 0 0 0 0 0 0 0 0 0 0 0 0 0 0 0 0 127 0"/>
<feOffset dy="1"/>
<feGaussianBlur stdDeviation="1"/>
<feColorMatrix type="matrix" values="0 0 0 0 0.156863 0 0 0 0 0.2 0 0 0 0 0.254902 0 0 0 0.15 0"/>
<feBlend mode="normal" in2="BackgroundImageFix" result="effect1_dropShadow"/>
<feBlend mode="normal" in="SourceGraphic" in2="effect1_dropShadow" result="shape"/>
</filter>
<filter id="filter13_d" x="360" y="204" width="120" height="212" filterUnits="userSpaceOnUse" color-interpolation-filters="sRGB">
<feFlood flood-opacity="0" result="BackgroundImageFix"/>
<feColorMatrix in="SourceAlpha" type="matrix" values="0 0 0 0 0 0 0 0 0 0 0 0 0 0 0 0 0 0 127 0"/>
<feOffset/>
<feGaussianBlur stdDeviation="4"/>
<feColorMatrix type="matrix" values="0 0 0 0 0 0 0 0 0 0 0 0 0 0 0 0 0 0 0.4 0"/>
<feBlend mode="normal" in2="BackgroundImageFix" result="effect1_dropShadow"/>
<feBlend mode="normal" in="SourceGraphic" in2="effect1_dropShadow" result="shape"/>
</filter>
<filter id="filter14_d" x="370" y="331" width="100" height="60" filterUnits="userSpaceOnUse" color-interpolation-filters="sRGB">
<feFlood flood-opacity="0" result="BackgroundImageFix"/>
<feColorMatrix in="SourceAlpha" type="matrix" values="0 0 0 0 0 0 0 0 0 0 0 0 0 0 0 0 0 0 127 0"/>
<feOffset dy="1"/>
<feGaussianBlur stdDeviation="1"/>
<feColorMatrix type="matrix" values="0 0 0 0 0.156863 0 0 0 0 0.2 0 0 0 0 0.254902 0 0 0 0.15 0"/>
<feBlend mode="normal" in2="BackgroundImageFix" result="effect1_dropShadow"/>
<feBlend mode="normal" in="SourceGraphic" in2="effect1_dropShadow" result="shape"/>
</filter>
<filter id="filter15_d" x="370" y="259" width="100" height="68" filterUnits="userSpaceOnUse" color-interpolation-filters="sRGB">
<feFlood flood-opacity="0" result="BackgroundImageFix"/>
<feColorMatrix in="SourceAlpha" type="matrix" values="0 0 0 0 0 0 0 0 0 0 0 0 0 0 0 0 0 0 127 0"/>
<feOffset dy="1"/>
<feGaussianBlur stdDeviation="1"/>
<feColorMatrix type="matrix" values="0 0 0 0 0.156863 0 0 0 0 0.2 0 0 0 0 0.254902 0 0 0 0.15 0"/>
<feBlend mode="normal" in2="BackgroundImageFix" result="effect1_dropShadow"/>
<feBlend mode="normal" in="SourceGraphic" in2="effect1_dropShadow" result="shape"/>
</filter>
<linearGradient id="paint0_linear" x1="346" y1="88" x2="429.998" y2="135.996" gradientUnits="userSpaceOnUse">
<stop offset="0.104167" stop-color="#ACC9DA"/>
<stop offset="0.203125" stop-color="#E7AED2"/>
<stop offset="0.317708" stop-color="#FF9ECA"/>
<stop offset="0.479167" stop-color="#6EFFFB"/>
<stop offset="0.536458" stop-color="#BCFFDF"/>
<stop offset="0.692708" stop-color="#FF9FB4"/>
<stop offset="0.918609" stop-color="#ACB8DA"/>
</linearGradient>
<linearGradient id="paint1_linear" x1="361.454" y1="87.7668" x2="424.284" y2="120.335" gradientUnits="userSpaceOnUse">
<stop stop-color="#D6E4F7" stop-opacity="0.83"/>
<stop offset="1" stop-color="#D6E4F7" stop-opacity="0.46"/>
</linearGradient>
<linearGradient id="paint2_linear" x1="367.32" y1="84.9282" x2="362.428" y2="100.454" gradientUnits="userSpaceOnUse">
<stop stop-color="#7187A5"/>
<stop offset="0.317708" stop-color="#D6E4F7"/>
<stop offset="0.640625" stop-color="#7187A5"/>
<stop offset="1" stop-color="#7187A5"/>
</linearGradient>
<linearGradient id="paint3_linear" x1="346" y1="88" x2="429.998" y2="135.996" gradientUnits="userSpaceOnUse">
<stop offset="0.104167" stop-color="#ACC9DA"/>
<stop offset="0.203125" stop-color="#E7AED2"/>
<stop offset="0.317708" stop-color="#FF9ECA"/>
<stop offset="0.479167" stop-color="#6EFFFB"/>
<stop offset="0.536458" stop-color="#BCFFDF"/>
<stop offset="0.692708" stop-color="#FF9FB4"/>
<stop offset="0.918609" stop-color="#ACB8DA"/>
</linearGradient>
<linearGradient id="paint4_linear" x1="361.454" y1="87.7668" x2="424.284" y2="120.335" gradientUnits="userSpaceOnUse">
<stop stop-color="#D6E4F7" stop-opacity="0.83"/>
<stop offset="1" stop-color="#D6E4F7" stop-opacity="0.46"/>
</linearGradient>
<linearGradient id="paint5_linear" x1="302" y1="142" x2="302" y2="298" gradientUnits="userSpaceOnUse">
<stop stop-color="#F1F6FC"/>
<stop offset="1" stop-color="#F8FAFD"/>
</linearGradient>
<linearGradient id="paint6_linear" x1="8" y1="228" x2="171.214" y2="213.886" gradientUnits="userSpaceOnUse">
<stop stop-color="#254E81"/>
<stop offset="1" stop-color="#2C7EA1"/>
</linearGradient>
<linearGradient id="paint7_linear" x1="-8" y1="346" x2="26.9007" y2="462.549" gradientUnits="userSpaceOnUse">
<stop offset="0.104167" stop-color="#ACC9DA"/>
<stop offset="0.203125" stop-color="#E7AED2"/>
<stop offset="0.317708" stop-color="#FF9ECA"/>
<stop offset="0.479167" stop-color="#6EFFFB"/>
<stop offset="0.536458" stop-color="#BCFFDF"/>
<stop offset="0.692708" stop-color="#FF9FB4"/>
<stop offset="0.918609" stop-color="#ACB8DA"/>
</linearGradient>
<linearGradient id="paint8_linear" x1="21.8202" y1="354.533" x2="50.0495" y2="440.52" gradientUnits="userSpaceOnUse">
<stop stop-color="#D6E4F7" stop-opacity="0.83"/>
<stop offset="1" stop-color="#D6E4F7" stop-opacity="0.46"/>
</linearGradient>
<linearGradient id="paint9_linear" x1="-8" y1="346" x2="-0.913532" y2="400.362" gradientUnits="userSpaceOnUse">
<stop offset="0.104167" stop-color="#ACC9DA"/>
<stop offset="0.203125" stop-color="#E7AED2"/>
<stop offset="0.317708" stop-color="#FF9ECA"/>
<stop offset="0.479167" stop-color="#6EFFFB"/>
<stop offset="0.536458" stop-color="#BCFFDF"/>
<stop offset="0.692708" stop-color="#FF9FB4"/>
<stop offset="0.918609" stop-color="#ACB8DA"/>
</linearGradient>
<linearGradient id="paint10_linear" x1="21.8202" y1="349.715" x2="27.6277" y2="390.351" gradientUnits="userSpaceOnUse">
<stop stop-color="#D6E4F7" stop-opacity="0.83"/>
<stop offset="1" stop-color="#D6E4F7" stop-opacity="0.46"/>
</linearGradient>
<linearGradient id="paint11_linear" x1="371" y1="77" x2="419.746" y2="160.565" gradientUnits="userSpaceOnUse">
<stop offset="0.104167" stop-color="#ACC9DA"/>
<stop offset="0.203125" stop-color="#E7AED2"/>
<stop offset="0.317708" stop-color="#FF9ECA"/>
<stop offset="0.479167" stop-color="#6EFFFB"/>
<stop offset="0.536458" stop-color="#BCFFDF"/>
<stop offset="0.692708" stop-color="#FF9FB4"/>
<stop offset="0.918609" stop-color="#ACB8DA"/>
</linearGradient>
<linearGradient id="paint12_linear" x1="384.5" y1="84.525" x2="422.628" y2="144.145" gradientUnits="userSpaceOnUse">
<stop stop-color="#D6E4F7" stop-opacity="0.83"/>
<stop offset="1" stop-color="#D6E4F7" stop-opacity="0.46"/>
</linearGradient>
<linearGradient id="paint13_linear" x1="391" y1="85" x2="379" y2="96" gradientUnits="userSpaceOnUse">
<stop stop-color="#7187A5"/>
<stop offset="0.317708" stop-color="#D6E4F7"/>
<stop offset="0.640625" stop-color="#7187A5"/>
<stop offset="1" stop-color="#7187A5"/>
</linearGradient>
<linearGradient id="paint14_linear" x1="371" y1="77" x2="419.746" y2="160.565" gradientUnits="userSpaceOnUse">
<stop offset="0.104167" stop-color="#ACC9DA"/>
<stop offset="0.203125" stop-color="#E7AED2"/>
<stop offset="0.317708" stop-color="#FF9ECA"/>
<stop offset="0.479167" stop-color="#6EFFFB"/>
<stop offset="0.536458" stop-color="#BCFFDF"/>
<stop offset="0.692708" stop-color="#FF9FB4"/>
<stop offset="0.918609" stop-color="#ACB8DA"/>
</linearGradient>
<linearGradient id="paint15_linear" x1="384.5" y1="84.525" x2="422.628" y2="144.145" gradientUnits="userSpaceOnUse">
<stop stop-color="#D6E4F7" stop-opacity="0.83"/>
<stop offset="1" stop-color="#D6E4F7" stop-opacity="0.46"/>
</linearGradient>
<linearGradient id="paint16_linear" x1="420" y1="212" x2="420" y2="408" gradientUnits="userSpaceOnUse">
<stop stop-color="#F1F6FC"/>
<stop offset="1" stop-color="#F8FAFD"/>
</linearGradient>
<linearGradient id="paint17_linear" x1="372" y1="332" x2="420.746" y2="415.565" gradientUnits="userSpaceOnUse">
<stop offset="0.104167" stop-color="#ACC9DA"/>
<stop offset="0.203125" stop-color="#E7AED2"/>
<stop offset="0.317708" stop-color="#FF9ECA"/>
<stop offset="0.479167" stop-color="#6EFFFB"/>
<stop offset="0.536458" stop-color="#BCFFDF"/>
<stop offset="0.692708" stop-color="#FF9FB4"/>
<stop offset="0.918609" stop-color="#ACB8DA"/>
</linearGradient>
<linearGradient id="paint18_linear" x1="385.5" y1="339.525" x2="423.628" y2="399.145" gradientUnits="userSpaceOnUse">
<stop stop-color="#D6E4F7" stop-opacity="0.83"/>
<stop offset="1" stop-color="#D6E4F7" stop-opacity="0.46"/>
</linearGradient>
<linearGradient id="paint19_linear" x1="392" y1="340" x2="380" y2="351" gradientUnits="userSpaceOnUse">
<stop stop-color="#7187A5"/>
<stop offset="0.317708" stop-color="#D6E4F7"/>
<stop offset="0.640625" stop-color="#7187A5"/>
<stop offset="1" stop-color="#7187A5"/>
</linearGradient>
<linearGradient id="paint20_linear" x1="372" y1="332" x2="420.746" y2="415.565" gradientUnits="userSpaceOnUse">
<stop offset="0.104167" stop-color="#ACC9DA"/>
<stop offset="0.203125" stop-color="#E7AED2"/>
<stop offset="0.317708" stop-color="#FF9ECA"/>
<stop offset="0.479167" stop-color="#6EFFFB"/>
<stop offset="0.536458" stop-color="#BCFFDF"/>
<stop offset="0.692708" stop-color="#FF9FB4"/>
<stop offset="0.918609" stop-color="#ACB8DA"/>
</linearGradient>
<linearGradient id="paint21_linear" x1="385.5" y1="339.525" x2="423.628" y2="399.145" gradientUnits="userSpaceOnUse">
<stop stop-color="#D6E4F7" stop-opacity="0.83"/>
<stop offset="1" stop-color="#D6E4F7" stop-opacity="0.46"/>
</linearGradient>
<clipPath id="clip0">
<path d="M348 91.4641C346.895 89.5509 347.551 87.1046 349.464 86L425.674 42C427.588 40.8954 430.034 41.5509 431.138 43.4641L455.138 85.0333C456.243 86.9465 455.588 89.3929 453.674 90.4974L377.464 134.497C375.551 135.602 373.105 134.946 372 133.033L348 91.4641Z" fill="white"/>
</clipPath>
<clipPath id="clip1">
<path d="M152 126C152 121.582 155.582 118 160 118H384C388.418 118 392 121.582 392 126V290C392 294.418 388.418 298 384 298H160C155.582 298 152 294.418 152 290V126Z" fill="white"/>
</clipPath>
<clipPath id="clip2">
<rect x="8" y="228" width="180" height="180" rx="90" fill="white"/>
</clipPath>
</defs>
</svg>
