<svg width="80" height="80" viewBox="0 0 80 80" fill="none" xmlns="http://www.w3.org/2000/svg">
<rect width="80" height="80" rx="40" fill="#283341"/>
<circle cx="40.5" cy="40.5" r="22.5" fill="white"/>
<path d="M29.9666 34.5504H37.1337V35.1174H30.6235V39.3842H36.7455V39.9511H30.6235V44.6356H37.2084V45.2025H29.9666V34.5504ZM37.7758 34.5504H38.5373L41.9118 39.235L45.361 34.5504L50.0524 28.6L42.3448 39.7273L46.3166 45.2025H45.5252L41.9118 40.2196L38.2834 45.2025H37.507L41.5086 39.7273L37.7758 34.5504ZM46.6003 35.1174V34.5504H54.7679V35.1174H51.0051V45.2025H50.3481V35.1174H46.6003Z" fill="#283341"/>
<path d="M21 34.5504H21.8212L33.1456 51.4149L28.4658 45.2025L21.6869 35.3561L21.657 45.2025H21V34.5504Z" fill="#283341"/>
<path d="M54.7015 44.4646C54.8373 44.4646 54.9364 44.3611 54.9364 44.2273C54.9364 44.0935 54.8373 43.99 54.7015 43.99C54.5672 43.99 54.4666 44.0935 54.4666 44.2273C54.4666 44.3611 54.5672 44.4646 54.7015 44.4646ZM55.347 43.8404C55.347 44.2353 55.6331 44.4932 56.0501 44.4932C56.4943 44.4932 56.7628 44.2273 56.7628 43.7655V42.1397H56.4049V43.7639C56.4049 44.0203 56.2754 44.1572 56.0469 44.1572C55.8424 44.1572 55.7034 44.0298 55.6986 43.8404H55.347ZM57.231 43.8197C57.2566 44.2305 57.6001 44.4932 58.1115 44.4932C58.658 44.4932 58.9999 44.2177 58.9999 43.7783C58.9999 43.4327 58.805 43.2416 58.332 43.1318L58.0779 43.0697C57.7775 42.9996 57.6561 42.9056 57.6561 42.7416C57.6561 42.5346 57.8446 42.3993 58.1275 42.3993C58.3959 42.3993 58.5813 42.5314 58.6148 42.7432H58.9632C58.9424 42.3563 58.6004 42.084 58.1322 42.084C57.6289 42.084 57.2933 42.3563 57.2933 42.7655C57.2933 43.1031 57.4835 43.3037 57.9005 43.4009L58.1978 43.4725C58.503 43.5442 58.6372 43.6493 58.6372 43.8244C58.6372 44.0283 58.4263 44.1763 58.1386 44.1763C57.8302 44.1763 57.6161 44.0378 57.5857 43.8197H57.231Z" fill="#283341"/>
</svg>
