<svg width="80" height="80" viewBox="0 0 80 80" fill="none" xmlns="http://www.w3.org/2000/svg">
<rect width="80" height="80" rx="40" fill="#283341"/>
<g clip-path="url(#clip0)">
<path d="M42.2338 34.5658L41.1387 36.4621L37.3935 29.9752L25.8964 49.8863H33.6807C33.6807 50.9336 34.5297 51.7826 35.577 51.7826H25.8964C25.219 51.7826 24.5931 51.421 24.2545 50.8343C23.9158 50.2476 23.9158 49.5248 24.2545 48.9382L35.7516 29.0271C36.0904 28.4403 36.7164 28.0789 37.3939 28.0789C38.0714 28.0789 38.6974 28.4403 39.0362 29.0271L42.2338 34.5658V34.5658Z" fill="white"/>
<path d="M50.5333 48.9383L43.329 36.4622L42.2339 34.5659L41.1388 36.4622L33.9352 48.9383C33.5965 49.5249 33.5965 50.2477 33.9351 50.8344C34.2738 51.4211 34.8997 51.7827 35.5771 51.7827H48.8891C49.5666 51.7827 50.1928 51.4215 50.5316 50.8347C50.8705 50.248 50.8705 49.525 50.5317 48.9383H50.5333ZM35.5771 49.8864L42.2339 38.3585L48.8891 49.8864H35.5771L35.5771 49.8864Z" fill="white"/>
<path d="M55.6842 50.8345C55.3455 51.4211 54.7196 51.7826 54.0423 51.7826H48.8891C49.9364 51.7826 50.7854 50.9336 50.7854 49.8863H54.0383L44.8081 33.8998L43.329 36.4621L42.2339 34.5658L43.1662 32.9516C43.505 32.3649 44.131 32.0034 44.8085 32.0034C45.486 32.0034 46.112 32.3649 46.4508 32.9516L55.6842 48.9382C56.0229 49.5249 56.0229 50.2478 55.6842 50.8345V50.8345Z" fill="white"/>
</g>
<defs>
<clipPath id="clip0">
<rect width="32" height="23.84" fill="white" transform="translate(24 28)"/>
</clipPath>
</defs>
</svg>
