<svg width="107" height="32" viewBox="0 0 107 32" fill="none" xmlns="http://www.w3.org/2000/svg">
<path d="M33.3175 4.68249C27.0742 -1.56083 16.9258 -1.56083 10.6825 4.68249C4.43917 10.9258 4.43917 21.0742 10.6825 27.3175C16.9258 33.5608 27.0742 33.5608 33.3175 27.3175C39.5608 21.0742 39.5608 10.9258 33.3175 4.68249ZM30.8209 16.3508L22.3525 24.8192C22.1482 25.0235 21.8305 25.0235 21.6262 24.8192L13.1579 16.3508C12.9535 16.1465 12.9535 15.8288 13.1579 15.6245L21.6262 7.15615C21.8305 6.95178 22.1482 6.95178 22.3525 7.15615L30.8209 15.6245C31.0252 15.8288 31.0252 16.1465 30.8209 16.3508V16.3508Z" fill="white"/>
<path d="M38 16.0315C38 11.8552 36.3329 7.83552 33.3594 4.88716C30.8363 2.38608 26.7584 2.36346 24.2353 4.86454L21.757 7.29862C21.8486 7.21331 21.9693 7.16545 22.0949 7.1646C22.231 7.16917 22.3601 7.22522 22.4558 7.32124L33.3137 18.1079C33.9134 18.7015 34.3891 19.4064 34.7136 20.1824C35.0382 20.9583 35.2053 21.7901 35.2053 22.6301C35.2053 23.4701 35.0382 24.3019 34.7136 25.0779C34.3891 25.8538 33.9134 26.5588 33.3137 27.1523C36.31 24.204 38 20.2069 38 16.0315ZM10.8618 27.1213C13.3849 29.6224 17.4628 29.6224 20.0087 27.144L22.4642 24.6647C22.2842 24.8657 21.9462 24.8657 21.7434 24.6873L13.3629 16.3799C13.2505 16.2903 13.2049 16.1345 13.2049 16.0005C13.2049 15.8665 13.2497 15.7325 13.3401 15.6428L10.9066 18.0551C8.38346 20.5562 8.36065 24.5985 10.8618 27.1222V27.1213Z" fill="#C6CED8"/>
<path d="M46.928 24.043C43.566 24.043 41 21.91 41 18.115C41 14.32 43.693 12.133 47.1 12.133C50.507 12.133 53 14.303 53 18.061C53 21.819 50.253 24.043 46.927 24.043H46.928ZM46.982 14.943C45.446 14.943 44.669 16.173 44.669 18.088C44.669 20.003 45.464 21.188 47.001 21.188C48.538 21.188 49.314 19.995 49.314 18.061C49.314 16.127 48.519 14.934 46.982 14.934V14.943ZM68.362 17.111C68.362 15.774 67.784 15.304 66.844 15.304C66.174 15.322 65.524 15.574 65.037 16.027V23.69H61.332V17.11C61.332 15.773 60.736 15.303 59.796 15.303C59.1329 15.3017 58.4914 15.5392 57.989 15.972V23.689H54.284L54.302 12.375H58.007V13.821C59.001 12.791 60.104 12.158 61.567 12.176C62.967 12.176 64.17 12.846 64.712 14.182C65.742 12.952 67.044 12.194 68.58 12.194C70.767 12.194 72.068 13.658 72.05 16.062L72.032 23.725H68.328L68.362 17.111ZM75.792 10.958C74.436 10.958 73.605 10.253 73.605 8.988C73.605 7.668 74.455 7 75.792 7C77.129 7 77.979 7.67 77.979 9.006C77.979 10.271 77.166 10.958 75.792 10.958ZM73.948 12.404H77.653L77.635 23.718H73.93L73.948 12.404ZM83.598 24.096C82.062 24.096 80.038 23.753 78.863 23.102L79.586 20.427C80.8466 21.0942 82.2451 21.4591 83.671 21.493C84.683 21.493 85.189 21.186 85.189 20.589C85.189 19.939 84.556 19.721 83.291 19.432C80.688 18.908 79.044 17.968 79.044 15.782C79.044 13.685 80.869 12.202 83.978 12.202C85.46 12.202 87.412 12.636 88.514 13.178L87.774 15.818C86.509 15.168 84.991 14.806 83.924 14.806C83.02 14.806 82.55 15.106 82.55 15.636C82.55 16.232 83.237 16.486 84.466 16.738C87.086 17.316 88.666 18.184 88.659 20.425C88.677 22.431 86.906 24.095 83.599 24.095L83.598 24.096ZM95.944 21.396C97.174 21.396 98.474 20.962 99.594 20.312L99.954 23.168C98.834 23.746 97.254 24.072 95.598 24.072C91.821 24.072 89.363 21.975 89.363 18.216C89.363 14.566 91.875 12.179 95.418 12.196C98.581 12.196 100.316 14.094 100.316 16.896C100.316 17.492 100.244 18.378 100.081 18.866L92.996 18.974V19.028C93.104 20.564 94.116 21.396 95.942 21.396H95.944ZM96.884 16.914C96.884 15.577 96.342 14.781 95.184 14.764C93.919 14.764 93.142 15.866 93.014 17.132L96.882 17.114L96.884 16.914Z" fill="white"/>
</svg>
