<svg width="132" height="32" viewBox="0 0 132 32" fill="none" xmlns="http://www.w3.org/2000/svg">
<path d="M49.0008 7.15637H41.7489C41.5089 7.15622 41.2766 7.24182 41.0941 7.39774C40.9115 7.55366 40.7906 7.76965 40.7532 8.00679L37.8202 26.6026C37.8068 26.6889 37.8121 26.7771 37.836 26.8611C37.8599 26.9451 37.9017 27.023 37.9585 27.0893C38.0153 27.1556 38.0859 27.2088 38.1652 27.2452C38.2446 27.2817 38.3309 27.3005 38.4183 27.3004H41.8804C42.1206 27.3005 42.353 27.2147 42.5356 27.0586C42.7182 26.9025 42.8389 26.6862 42.8761 26.4489L43.6672 21.4333C43.7043 21.1961 43.8249 20.98 44.0073 20.8239C44.1896 20.6678 44.4217 20.5819 44.6618 20.5818H46.9575C51.7345 20.5818 54.4915 18.2702 55.2115 13.6894C55.536 11.6852 55.2253 10.1106 54.2868 9.00779C53.2561 7.79684 51.4281 7.15637 49.0008 7.15637ZM49.8375 13.9481C49.4409 16.5503 47.4527 16.5503 45.5302 16.5503H44.4359L45.2036 11.6905C45.2261 11.5484 45.2986 11.4189 45.408 11.3254C45.5175 11.2319 45.6567 11.1805 45.8006 11.1805H46.3022C47.6118 11.1805 48.8471 11.1805 49.4854 11.927C49.8661 12.3724 49.9828 13.034 49.8375 13.9481ZM70.6781 13.8643H67.2054C67.0615 13.8643 66.9222 13.9157 66.8128 14.0092C66.7034 14.1027 66.6309 14.2322 66.6084 14.3744L66.4547 15.3457L66.2118 14.9936C65.46 13.9025 63.7836 13.5377 62.1103 13.5377C58.2728 13.5377 54.9952 16.4442 54.3568 20.5214C54.0249 22.5552 54.4968 24.4999 55.6505 25.8561C56.7087 27.1031 58.2229 27.6227 60.0245 27.6227C63.1166 27.6227 64.8312 25.6345 64.8312 25.6345L64.6764 26.5994C64.6626 26.6857 64.6677 26.774 64.6913 26.8581C64.7149 26.9422 64.7564 27.0202 64.813 27.0867C64.8697 27.1533 64.9401 27.2067 65.0194 27.2434C65.0987 27.2801 65.185 27.2992 65.2723 27.2993H68.4004C68.6407 27.2994 68.873 27.2137 69.0556 27.0575C69.2382 26.9014 69.359 26.6852 69.3961 26.4478L71.273 14.562C71.2868 14.476 71.2818 14.3879 71.2582 14.304C71.2347 14.22 71.1932 14.1422 71.1366 14.0758C71.0801 14.0095 71.0098 13.9562 70.9306 13.9197C70.8515 13.8832 70.7653 13.8643 70.6781 13.8643ZM65.8375 20.6232C65.5024 22.6071 63.9278 23.939 61.9194 23.939C60.911 23.939 60.1051 23.6155 59.5877 23.0026C59.0744 22.394 58.8793 21.5277 59.0426 20.5627C59.3554 18.5957 60.9566 17.2204 62.9342 17.2204C63.9204 17.2204 64.722 17.5481 65.2501 18.1663C65.7792 18.7908 65.9891 19.6625 65.8375 20.6232ZM89.1732 13.8643H85.6835C85.5189 13.8646 85.3569 13.905 85.2115 13.982C85.0661 14.0591 84.9416 14.1705 84.849 14.3065L80.036 21.3962L77.9958 14.5833C77.9332 14.3755 77.8053 14.1934 77.6311 14.0639C77.457 13.9344 77.2458 13.8644 77.0287 13.8643H73.5995C73.5032 13.8641 73.4083 13.8868 73.3226 13.9306C73.2369 13.9745 73.1629 14.0382 73.1068 14.1164C73.0507 14.1946 73.014 14.2851 73 14.3803C72.9859 14.4755 72.9947 14.5727 73.0258 14.6638L76.8697 25.9441L73.2559 31.0456C73.1917 31.1361 73.1536 31.2424 73.1458 31.3531C73.138 31.4637 73.1608 31.5744 73.2118 31.673C73.2627 31.7715 73.3397 31.8542 73.4345 31.9118C73.5292 31.9695 73.6381 32 73.749 31.9999H77.2344C77.3972 32.0002 77.5575 31.9609 77.7018 31.8856C77.846 31.8102 77.9698 31.701 78.0626 31.5673L89.6695 14.8134C89.7324 14.7227 89.7693 14.6166 89.7762 14.5065C89.7831 14.3963 89.7597 14.2864 89.7086 14.1887C89.6574 14.0909 89.5805 14.009 89.4861 13.9518C89.3918 13.8946 89.2836 13.8644 89.1732 13.8643Z" fill="white"/>
<path d="M100.727 7.15646H93.4741C93.2342 7.15656 93.0022 7.24227 92.8199 7.39816C92.6376 7.55406 92.5169 7.76991 92.4795 8.00688L89.5465 26.6027C89.5328 26.6889 89.538 26.7769 89.5617 26.8609C89.5854 26.9448 89.627 27.0226 89.6836 27.0889C89.7403 27.1553 89.8106 27.2085 89.8898 27.245C89.969 27.2815 90.0552 27.3004 90.1424 27.3004H93.8643C94.0323 27.3002 94.1946 27.24 94.3221 27.1308C94.4496 27.0216 94.5339 26.8704 94.56 26.7045L95.3923 21.4334C95.4295 21.1962 95.5501 20.9801 95.7325 20.824C95.9148 20.6679 96.1469 20.582 96.387 20.5819H98.6816C103.46 20.5819 106.216 18.2703 106.937 13.6894C107.262 11.6853 106.949 10.1107 106.011 9.00787C104.981 7.79692 103.154 7.15646 100.727 7.15646ZM101.564 13.9482C101.168 16.5503 99.18 16.5503 97.2565 16.5503H96.1632L96.932 11.6906C96.9541 11.5484 97.0263 11.4189 97.1356 11.3253C97.2449 11.2317 97.3841 11.1804 97.5279 11.1806H98.0295C99.338 11.1806 100.574 11.1806 101.213 11.9271C101.593 12.3725 101.709 13.0341 101.564 13.9482ZM122.403 13.8644H118.933C118.789 13.864 118.649 13.9153 118.54 14.0089C118.431 14.1024 118.359 14.2322 118.337 14.3744L118.183 15.3457L117.939 14.9937C117.187 13.9026 115.512 13.5378 113.839 13.5378C110.001 13.5378 106.725 16.4443 106.086 20.5214C105.755 22.5553 106.225 24.5 107.379 25.8562C108.439 27.1032 109.951 27.6228 111.753 27.6228C114.845 27.6228 116.56 25.6346 116.56 25.6346L116.405 26.5995C116.391 26.686 116.396 26.7744 116.42 26.8587C116.443 26.9429 116.485 27.0211 116.542 27.0876C116.599 27.1542 116.67 27.2076 116.749 27.2441C116.829 27.2807 116.915 27.2996 117.003 27.2994H120.13C120.37 27.2992 120.602 27.2134 120.784 27.0573C120.967 26.9012 121.087 26.6851 121.125 26.4479L123.002 14.5621C123.016 14.4758 123.01 14.3876 122.986 14.3036C122.962 14.2195 122.92 14.1417 122.863 14.0754C122.806 14.0091 122.736 13.956 122.656 13.9195C122.577 13.8831 122.491 13.8643 122.403 13.8644ZM117.563 20.6232C117.23 22.6072 115.653 23.939 113.645 23.939C112.638 23.939 111.83 23.6156 111.313 23.0027C110.8 22.3941 110.607 21.5277 110.768 20.5628C111.083 18.5958 112.682 17.2205 114.659 17.2205C115.646 17.2205 116.447 17.5482 116.975 18.1664C117.507 18.7909 117.716 19.6625 117.563 20.6232ZM126.497 7.6665L123.521 26.6027C123.507 26.6889 123.513 26.7769 123.536 26.8609C123.56 26.9448 123.601 27.0226 123.658 27.0889C123.715 27.1553 123.785 27.2085 123.864 27.245C123.943 27.2815 124.03 27.3004 124.117 27.3004H127.109C127.607 27.3004 128.029 26.9399 128.105 26.449L131.04 7.85418C131.054 7.76799 131.049 7.67987 131.025 7.59587C131.001 7.51188 130.96 7.43401 130.903 7.36761C130.846 7.30121 130.776 7.24786 130.697 7.21123C130.618 7.1746 130.531 7.15555 130.444 7.1554H127.093C126.95 7.1559 126.811 7.20762 126.701 7.30127C126.592 7.39492 126.52 7.5244 126.497 7.6665Z" fill="white"/>
<path d="M21.7918 7.29964C22.2226 7.36704 22.6486 7.4616 23.0675 7.58276C23.1659 7.61194 23.2638 7.64269 23.3612 7.67501C23.7327 7.79624 24.0935 7.94841 24.4396 8.12991C24.9742 8.4049 25.4543 8.77501 25.8563 9.2221C27.1245 10.6674 27.3726 12.7224 26.8933 15.1835C25.746 21.075 21.8205 23.1109 16.8059 23.1109H16.0319C15.419 23.1109 14.8973 23.5563 14.8018 24.1628L14.7393 24.5021L13.7648 30.6862L13.7139 30.9492C13.6174 31.5536 13.0967 31.999 12.4838 31.999H7.30814C7.20028 31.9989 7.0937 31.9755 6.99576 31.9303C6.89782 31.8851 6.81083 31.8193 6.74079 31.7372C6.67075 31.6552 6.61932 31.559 6.59004 31.4551C6.56076 31.3513 6.55433 31.2424 6.57118 31.1359L8.48835 18.9744L8.53606 18.6679L10.1945 8.16384C10.2401 7.87068 10.389 7.60348 10.6144 7.41056C10.8398 7.21764 11.1268 7.11172 11.4235 7.11195H19.2194C20.0805 7.10607 20.9407 7.16883 21.7918 7.29964Z" fill="white"/>
<path fill-rule="evenodd" clip-rule="evenodd" d="M8.53262 18.689L8.5359 18.6679L10.1943 8.16382C10.2399 7.87065 10.3888 7.60346 10.6142 7.41053C10.6855 7.34951 10.763 7.2972 10.845 7.25419C11.0221 7.16123 11.2205 7.11176 11.4233 7.11192H19.2192C19.7696 7.10816 20.3195 7.13244 20.867 7.18461C21.1191 7.20862 21.3707 7.23855 21.6215 7.27437C21.6782 7.28248 21.735 7.2909 21.7917 7.29961C22.0965 7.3473 22.3989 7.40859 22.6981 7.48328C22.8218 7.51415 22.9448 7.5473 23.0673 7.58273C23.1536 7.60833 23.2396 7.63513 23.3251 7.66315C23.3371 7.66707 23.3491 7.67101 23.361 7.67498C23.3877 7.68369 23.4143 7.69256 23.4409 7.70158C23.5969 7.75456 23.7509 7.81302 23.9027 7.87683C24.085 7.95352 24.2641 8.03793 24.4394 8.12988C24.9741 8.40487 25.4541 8.77498 25.8561 9.22207C27.1243 10.6674 27.3724 12.7224 26.8931 15.1835C25.7458 21.075 21.8203 23.1109 16.8058 23.1109H16.0317C15.4188 23.1109 14.8971 23.5562 14.8017 24.1628L14.7391 24.5021L13.7646 30.6862L13.7137 30.9492C13.6172 31.5536 13.0966 31.999 12.4837 31.999H7.30798C7.20012 31.9989 7.09354 31.9755 6.9956 31.9303C6.89766 31.8851 6.81067 31.8192 6.74063 31.7372C6.67059 31.6552 6.61916 31.5589 6.58988 31.4551C6.5606 31.3513 6.55417 31.2424 6.57102 31.1358L6.89208 29.0992L8.48818 18.9744L8.53262 18.689ZM24.5659 7.01056C24.2818 6.87944 23.9901 6.76494 23.6924 6.6677C23.585 6.63212 23.4772 6.59825 23.3688 6.56611L23.362 6.56412C22.9002 6.43054 22.4305 6.32629 21.9556 6.25198L21.9527 6.25154C21.0471 6.11236 20.1319 6.04548 19.2156 6.05154H11.4233C10.8738 6.05132 10.3422 6.24759 9.92473 6.60495C9.50739 6.96215 9.23149 7.45674 9.14677 7.99946L9.14653 8.00096L7.4885 18.5025L5.92084 28.4499H0.853508C0.73007 28.4497 0.608132 28.4228 0.496084 28.3711C0.384036 28.3193 0.284535 28.2438 0.204427 28.1499C0.124319 28.056 0.0655039 27.9458 0.0320284 27.827C-0.00144706 27.7082 -0.00878887 27.5836 0.010508 27.4616L4.1534 1.20141C4.26156 0.508981 4.85855 0 5.5584 0H15.5047C18.9308 0 21.6083 0.723177 23.0917 2.41236C24.2254 3.70505 24.6832 5.11138 24.5659 7.01056Z" fill="white"/>
</svg>
