<svg width="134" height="24" viewBox="0 0 134 24" fill="none" xmlns="http://www.w3.org/2000/svg">
<path d="M19.6933 2H1.153C0.530381 2 0 2.53263 0 3.18105V5.28842C0 5.93684 0.530381 6.46947 1.153 6.46947H19.6933C20.339 6.46947 20.8463 5.93684 20.8693 5.28842V3.20421C20.8693 2.53263 20.339 2 19.6933 2ZM19.6933 13.6947H1.153C0.853221 13.6947 0.553441 13.8105 0.345901 14.0421C0.1153 14.2737 0 14.5516 0 14.8758V16.9832C0 17.6316 0.530381 18.1642 1.153 18.1642H19.6933C20.339 18.1642 20.8463 17.6547 20.8693 16.9832V14.8758C20.8463 14.2042 20.339 13.6947 19.6933 13.6947ZM11.5992 19.5305H1.153C0.853221 19.5305 0.553441 19.6463 0.345901 19.8779C0.13836 20.1095 0 20.3874 0 20.7116V22.8189C0 23.4674 0.530381 24 1.153 24H11.5761C12.2218 24 12.7291 23.4674 12.7291 22.8421V20.7347C12.7522 20.04 12.2449 19.5305 11.5992 19.5305ZM20.8693 7.83579H1.153C0.853221 7.83579 0.553441 7.95157 0.345901 8.18315C0.13836 8.41473 0 8.69263 0 9.01684V11.1242C0 11.7726 0.530381 12.3053 1.153 12.3053H20.8463C21.492 12.3053 21.9993 11.7726 21.9993 11.1242V9.01684C22.0223 8.39158 21.492 7.85894 20.8693 7.83579Z" fill="white"/>
<path d="M40.6302 6.84752C40.0691 6.2638 39.4183 5.81478 38.6776 5.50047C37.937 5.18616 37.1514 5.029 36.3434 5.029C35.5579 5.00655 34.7948 5.18616 34.0766 5.52292C33.6053 5.74743 33.1788 6.06174 32.8197 6.4434V6.08419C32.8197 5.90459 32.7524 5.72498 32.6402 5.59027C32.528 5.45556 32.3484 5.36576 32.1464 5.36576H29.6551C29.4756 5.36576 29.296 5.43311 29.1838 5.59027C29.0491 5.72498 28.9818 5.90459 29.0043 6.08419V22.8775C29.0043 23.0571 29.0716 23.2367 29.1838 23.3714C29.3185 23.5061 29.4756 23.5734 29.6551 23.5734H32.2137C32.3933 23.5734 32.5504 23.5061 32.6851 23.3714C32.8197 23.2591 32.9095 23.0795 32.8871 22.8775V17.13C33.2462 17.5341 33.7175 17.826 34.2337 18.0056C34.907 18.2526 35.6028 18.3873 36.321 18.3873C37.129 18.3873 37.937 18.2301 38.6776 17.9158C39.4183 17.6015 40.0916 17.1525 40.6527 16.5688C41.2362 15.9626 41.6851 15.2442 41.9993 14.4584C42.3584 13.5828 42.5155 12.6399 42.4931 11.6969C42.5155 10.754 42.336 9.81103 41.9993 8.913C41.6627 8.17212 41.2138 7.4537 40.6302 6.84752ZM38.3409 12.9317C38.2063 13.2909 38.0043 13.6052 37.735 13.8971C37.2187 14.4584 36.4781 14.7727 35.715 14.7727C35.3335 14.7727 34.9519 14.7053 34.5928 14.5257C34.2561 14.3686 33.9419 14.1665 33.6726 13.8971C33.4033 13.6277 33.2013 13.2909 33.0666 12.9317C32.7748 12.1684 32.7748 11.3377 33.0666 10.5744C33.2013 10.2152 33.4257 9.90084 33.6726 9.63143C33.9419 9.36202 34.2561 9.13751 34.5928 8.98036C34.9519 8.8232 35.3335 8.73339 35.715 8.73339C36.119 8.73339 36.4781 8.80075 36.8596 8.98036C37.1963 9.13751 37.5105 9.33957 37.7574 9.60898C38.0267 9.87839 38.2063 10.1927 38.3634 10.5519C38.6327 11.3377 38.6103 12.1684 38.3409 12.9317ZM56.2064 5.38821H53.6702C53.4906 5.38821 53.3111 5.45556 53.1989 5.59027C53.0642 5.72498 52.9969 5.90458 52.9969 6.10664V6.42096C52.6827 6.03929 52.2787 5.74742 51.8522 5.54537C51.1565 5.2086 50.3934 5.05145 49.6303 5.05145C47.9919 5.05145 46.4432 5.70253 45.2761 6.84752C44.6702 7.4537 44.1988 8.17212 43.8846 8.9579C43.5255 9.83349 43.346 10.7764 43.3684 11.7418C43.346 12.6847 43.5255 13.6277 43.8846 14.5257C44.2213 15.3115 44.6702 16.0299 45.2761 16.6361C46.4208 17.8036 47.9919 18.4546 49.6078 18.4546C50.3709 18.4771 51.134 18.2975 51.8298 17.9607C52.2562 17.7362 52.6827 17.4443 52.9969 17.0851V17.4219C52.9969 17.6015 53.0642 17.7811 53.1989 17.9158C53.3335 18.0281 53.4906 18.1179 53.6702 18.1179H56.2064C56.3859 18.1179 56.5655 18.0505 56.6777 17.9158C56.8123 17.7811 56.8797 17.6015 56.8797 17.4219V6.12909C56.8797 5.94948 56.8123 5.76988 56.7001 5.63517C56.5655 5.47802 56.3859 5.38821 56.2064 5.38821ZM52.7724 12.9317C52.6378 13.2909 52.4358 13.6052 52.1664 13.8971C51.8971 14.1665 51.6053 14.391 51.2687 14.5482C50.5505 14.8849 49.72 14.8849 49.0018 14.5482C48.6652 14.391 48.351 14.1665 48.0816 13.8971C47.8123 13.6277 47.6103 13.2909 47.4756 12.9317C47.2063 12.1684 47.2063 11.3377 47.4756 10.5744C47.6103 10.2152 47.8123 9.92329 48.0816 9.63143C48.351 9.36202 48.6427 9.13751 49.0018 8.98036C49.72 8.64359 50.5505 8.64359 51.2462 8.98036C51.5829 9.13751 51.8971 9.33957 52.144 9.60898C52.3909 9.87839 52.5929 10.1927 52.75 10.5519C53.0642 11.3377 53.0642 12.1684 52.7724 12.9317ZM81.4783 11.405C81.1192 11.0907 80.6927 10.8213 80.2439 10.6417C79.7725 10.4397 79.2563 10.305 78.7626 10.1927L76.8324 9.81103C76.3386 9.72123 75.9795 9.58653 75.8 9.42937C75.6428 9.31712 75.5306 9.13751 75.5306 8.93545C75.5306 8.73339 75.6428 8.55379 75.8897 8.39663C76.2264 8.21702 76.5855 8.12722 76.967 8.14967C77.4608 8.14967 77.9546 8.26193 78.4035 8.44154C78.8523 8.64359 79.2788 8.84565 79.6828 9.11506C80.2439 9.47428 80.7376 9.40692 81.0743 9.00281L81.9945 7.94761C82.174 7.76801 82.2638 7.5435 82.2863 7.29654C82.2638 7.02713 82.1292 6.80262 81.9272 6.62301C81.5456 6.28625 80.9172 5.92703 80.0868 5.56782C79.2563 5.2086 78.2015 5.029 76.967 5.029C76.2039 5.00655 75.4633 5.1188 74.7451 5.34331C74.1391 5.54537 73.5556 5.83723 73.0393 6.21889C72.568 6.57811 72.2089 7.02712 71.9396 7.56595C71.6927 8.08232 71.558 8.64359 71.558 9.20486C71.558 10.2601 71.8723 11.1132 72.5007 11.7418C73.1291 12.3704 73.9595 12.797 74.992 12.9991L77.0119 13.4481C77.4384 13.5154 77.8872 13.6501 78.2912 13.8522C78.5157 13.942 78.6503 14.1665 78.6503 14.4135C78.6503 14.638 78.5381 14.84 78.2912 15.0196C78.0444 15.1993 77.6404 15.3115 77.1017 15.3115C76.563 15.3115 76.0019 15.1993 75.5082 14.9523C75.0369 14.7278 74.6104 14.4359 74.2064 14.0992C74.0269 13.9645 73.8473 13.8522 73.6229 13.7624C73.3984 13.695 73.1067 13.7624 72.8149 14.0094L71.7151 14.84C71.4009 15.0645 71.2438 15.4462 71.3336 15.8054C71.4009 16.1871 71.6927 16.5463 72.2538 16.9729C73.6453 17.9158 75.3062 18.4097 76.9895 18.3648C77.775 18.3648 78.5606 18.275 79.3012 18.0505C79.9521 17.8485 80.5581 17.5566 81.0967 17.1525C81.5905 16.7933 81.9945 16.3218 82.2638 15.7605C82.5331 15.2217 82.6678 14.638 82.6678 14.0318C82.6903 13.493 82.578 12.9542 82.3536 12.4602C82.1292 12.101 81.8374 11.7194 81.4783 11.405ZM92.5656 14.4808C92.4534 14.2788 92.2514 14.1441 92.0045 14.0992C91.7801 14.0992 91.5332 14.1665 91.3536 14.3012C91.0394 14.5033 90.6803 14.6155 90.3212 14.638C90.209 14.638 90.0743 14.6155 89.9621 14.5931C89.8274 14.5706 89.7152 14.5033 89.6254 14.4135C89.5132 14.3012 89.4235 14.1665 89.3561 14.0318C89.2663 13.8073 89.2215 13.5828 89.2439 13.3583V8.75585H92.5207C92.7227 8.75585 92.9023 8.66604 93.0369 8.53134C93.1716 8.39663 93.2614 8.23947 93.2614 8.03742V6.08419C93.2614 5.88213 93.194 5.70252 93.0369 5.59027C92.9023 5.45556 92.7227 5.38821 92.5432 5.38821H89.2439V2.24509C89.2439 2.06548 89.1766 1.86342 89.0419 1.75117C88.9072 1.63891 88.7501 1.57156 88.5706 1.54911H86.012C85.8324 1.54911 85.6529 1.61646 85.5182 1.75117C85.3835 1.88587 85.2938 2.06548 85.2938 2.24509V5.38821H83.8349C83.6553 5.38821 83.4758 5.45557 83.3411 5.61272C83.2289 5.74743 83.1616 5.92703 83.1616 6.10664V8.05987C83.1616 8.23948 83.2289 8.41908 83.3411 8.55379C83.4534 8.71095 83.6329 8.7783 83.8349 8.7783H85.2938V14.2563C85.2713 14.9074 85.406 15.5585 85.6753 16.1422C85.9222 16.6361 86.2364 17.0627 86.6628 17.4219C87.0668 17.7587 87.5382 18.0056 88.0544 18.1403C88.5706 18.2975 89.1092 18.3873 89.6479 18.3873C90.3437 18.3873 91.0619 18.275 91.7352 18.0505C92.3636 17.8485 92.9247 17.4892 93.3736 17.0178C93.6654 16.7259 93.6878 16.2544 93.4634 15.9177L92.5656 14.4808ZM106.436 5.38821H103.9C103.72 5.38821 103.563 5.45556 103.428 5.59027C103.294 5.72498 103.226 5.90458 103.226 6.10664V6.42096C102.912 6.03929 102.531 5.74742 102.082 5.54537C101.386 5.2086 100.623 5.05145 99.8599 5.05145C98.2215 5.05145 96.6729 5.70253 95.5058 6.84752C94.8998 7.4537 94.4285 8.17212 94.1142 8.9579C93.7551 9.83349 93.5756 10.7764 93.598 11.7194C93.5756 12.6623 93.7551 13.6052 94.1142 14.5033C94.4285 15.2891 94.9222 16.0075 95.5058 16.6137C96.6504 17.7811 98.199 18.4322 99.8375 18.4322C100.601 18.4546 101.364 18.275 102.059 17.9607C102.508 17.7362 102.912 17.4443 103.226 17.0851V17.4219C103.226 17.6015 103.294 17.7811 103.428 17.8934C103.563 18.0281 103.72 18.0954 103.9 18.0954H106.436C106.818 18.0954 107.109 17.8036 107.109 17.4219V6.12909C107.109 5.94948 107.042 5.76988 106.93 5.63517C106.818 5.47802 106.638 5.38821 106.436 5.38821ZM103.025 12.9542C102.89 13.3134 102.688 13.6277 102.419 13.9196C102.149 14.189 101.857 14.4135 101.521 14.5706C101.162 14.7278 100.78 14.8176 100.376 14.8176C99.9721 14.8176 99.613 14.7278 99.2539 14.5706C98.9173 14.4135 98.603 14.189 98.3337 13.9196C98.0644 13.6501 97.8624 13.3134 97.7502 12.9542C97.4808 12.1908 97.4808 11.3601 97.7502 10.5968C97.8848 10.2376 98.0868 9.92329 98.3337 9.65388C98.603 9.38447 98.9173 9.15996 99.2539 9.00281C99.613 8.84565 99.9946 8.75585 100.376 8.75585C100.758 8.75585 101.139 8.8232 101.521 9.00281C101.857 9.15996 102.149 9.36202 102.419 9.63143C102.688 9.90084 102.89 10.2152 103.025 10.5744C103.316 11.3152 103.316 12.1908 103.025 12.9542ZM120.351 14.3237L118.892 13.2011C118.623 12.9766 118.354 12.9093 118.129 12.9991C117.927 13.0889 117.748 13.2236 117.591 13.3807C117.276 13.7624 116.895 14.0992 116.491 14.391C116.042 14.638 115.571 14.7727 115.077 14.7278C114.493 14.7278 113.955 14.5706 113.483 14.2339C113.012 13.8971 112.653 13.4481 112.473 12.8868C112.339 12.5051 112.271 12.1235 112.271 11.7418C112.271 11.3377 112.339 10.956 112.473 10.5519C112.608 10.1927 112.788 9.87839 113.057 9.60898C113.326 9.33957 113.618 9.11506 113.955 8.98036C114.314 8.8232 114.695 8.73339 115.099 8.73339C115.593 8.71094 116.087 8.84565 116.513 9.09261C116.94 9.36202 117.299 9.69878 117.613 10.1029C117.748 10.2601 117.927 10.3948 118.129 10.4846C118.354 10.5744 118.623 10.507 118.892 10.2825L120.351 9.18241C120.531 9.07016 120.665 8.89055 120.733 8.68849C120.823 8.46398 120.8 8.21702 120.665 8.01496C120.104 7.13938 119.341 6.42095 118.421 5.90458C117.456 5.36576 116.311 5.0739 115.032 5.0739C114.134 5.0739 113.237 5.25351 112.384 5.59027C111.576 5.92703 110.857 6.3985 110.251 7.00467C109.645 7.61085 109.152 8.32928 108.815 9.13751C108.119 10.8213 108.119 12.7072 108.815 14.391C109.152 15.1768 109.623 15.9177 110.251 16.5014C111.531 17.7587 113.237 18.4322 115.032 18.4322C116.311 18.4322 117.456 18.1403 118.421 17.6015C119.341 17.0851 120.127 16.3667 120.688 15.4687C120.8 15.2666 120.823 15.0196 120.755 14.8176C120.665 14.638 120.531 14.4584 120.351 14.3237ZM133.863 16.9504L129.845 11.0683L133.279 6.53321C133.436 6.33115 133.503 6.03929 133.414 5.79233C133.346 5.61272 133.189 5.43311 132.763 5.43311H130.047C129.89 5.43311 129.733 5.47801 129.598 5.54537C129.419 5.63517 129.284 5.76988 129.194 5.92703L126.456 9.76614H125.805V0.695979C125.805 0.516372 125.738 0.336762 125.603 0.202057C125.468 0.0673513 125.311 0 125.132 0H122.596C122.416 0 122.237 0.0673513 122.102 0.202057C121.967 0.336762 121.9 0.493921 121.9 0.695979V17.4219C121.9 17.6239 121.967 17.7811 122.102 17.9158C122.237 18.0505 122.416 18.1179 122.596 18.1179H125.132C125.311 18.1179 125.491 18.0505 125.603 17.9158C125.738 17.7811 125.805 17.6015 125.805 17.4219V12.9991H126.523L129.508 17.579C129.688 17.9158 130.025 18.1179 130.384 18.1179H133.234C133.661 18.1179 133.84 17.9158 133.93 17.7362C134.042 17.4443 134.02 17.1525 133.863 16.9504ZM70.6154 5.41067H67.765C67.5406 5.41067 67.3386 5.47802 67.1815 5.63517C67.0468 5.76988 66.957 5.92703 66.9121 6.10664L64.8024 13.9196H64.2862L62.0418 6.10664C61.9969 5.94948 61.9296 5.79233 61.8174 5.63517C61.6827 5.47802 61.5031 5.38821 61.3011 5.38821H58.4059C58.0243 5.38821 57.7999 5.50046 57.6877 5.76987C57.6203 5.99438 57.6203 6.24134 57.6877 6.46585L61.2787 17.4668C61.346 17.6239 61.4134 17.8036 61.548 17.9158C61.6827 18.0505 61.8847 18.1179 62.0867 18.1179H63.6129L63.4782 18.4771L63.1416 19.4874C63.0293 19.8017 62.8498 20.0711 62.5805 20.2732C62.3336 20.4528 62.0418 20.565 61.7276 20.5426C61.4582 20.5426 61.2114 20.4752 60.9645 20.3854C60.7176 20.2732 60.4932 20.1384 60.2912 19.9813C60.1116 19.8466 59.8872 19.7792 59.6403 19.7792H59.6178C59.3485 19.8017 59.1016 19.9364 58.967 20.1833L58.0692 21.5079C57.7101 22.0917 57.9121 22.4509 58.1365 22.6529C58.6303 23.102 59.1914 23.4387 59.8198 23.6408C60.5156 23.8877 61.2338 24 61.952 24C63.2538 24 64.3311 23.6408 65.1615 22.9448C66.0144 22.1815 66.6653 21.1936 66.9795 20.0711L71.154 6.46585C71.2438 6.21889 71.2663 5.97194 71.1765 5.74743C71.154 5.59027 70.9969 5.38821 70.6154 5.41067Z" fill="white"/>
</svg>
