<svg width="82" height="66" viewBox="0 0 82 66" fill="none" xmlns="http://www.w3.org/2000/svg">
<path d="M18.3297 59.0386C18.3137 58.9751 18.3137 58.88 18.3137 58.7531C18.3137 57.9441 18.5853 57.3096 19.1285 56.8655C19.6717 56.4055 20.2628 56.1834 20.9178 56.1834C21.7806 56.1834 22.3877 56.5007 22.7232 57.151L18.3297 59.0386ZM24.6244 57.8965C24.6084 56.9448 24.2569 56.1676 23.538 55.5648C22.819 54.962 21.9244 54.6765 20.838 54.6765C20.151 54.6765 19.4959 54.8193 18.8888 55.1207C18.2658 55.422 17.7545 55.882 17.3391 56.5324C16.9238 57.1669 16.7161 57.8965 16.7161 58.7372C16.7161 59.9427 17.1155 60.9262 17.9143 61.6558C18.7131 62.4014 19.6877 62.7662 20.806 62.7662C22.0841 62.7662 23.2025 62.2903 24.1451 61.3227L23.1705 60.2441C22.5954 60.9262 21.8604 61.2751 20.9817 61.2751C20.0871 61.2751 19.3841 60.9579 18.8729 60.3234L24.6403 57.9124L24.6244 57.8965Z" fill="#27245D"/>
<path d="M14.7988 55.1524C14.3355 55.4696 13.968 55.8662 13.7124 56.3579V54.7717H12.0349V62.6393H13.6965V59.2765C13.6965 58.3882 13.9041 57.6586 14.3195 57.1351C14.7349 56.5958 15.358 56.342 16.1728 56.342H16.2686L16.2527 54.6765C15.7574 54.6765 15.2621 54.8351 14.7988 55.1524Z" fill="#27245D"/>
<path d="M30.5833 58.642C30.3117 58.4675 30.0721 58.3248 29.8324 58.2296C29.5928 58.1344 29.3532 58.0393 29.1135 57.96C28.8579 57.8806 28.5863 57.8013 28.2508 57.722C27.9313 57.6427 27.6756 57.5634 27.4999 57.4682C27.2443 57.3572 27.1165 57.1669 27.1165 56.9131C27.1165 56.6275 27.2443 56.4055 27.4839 56.2627C27.7396 56.12 28.0591 56.0406 28.4585 56.0406C29.2094 56.0406 29.9123 56.2469 30.5514 56.6751L31.1745 55.4537C30.3597 54.9144 29.4969 54.6606 28.5863 54.6606C27.6756 54.6606 26.9248 54.8827 26.3656 55.311C25.7904 55.7551 25.5029 56.3262 25.5029 57.0558C25.5029 58.0869 26.3336 58.8324 27.9792 59.2765C28.0111 59.2924 28.0751 59.3082 28.1549 59.34C29.2094 59.6572 29.7366 60.0062 29.7366 60.4027C29.7366 60.6724 29.6248 60.8944 29.4171 61.0531C29.1934 61.2275 28.9058 61.3069 28.5224 61.3069C27.6597 61.3069 26.765 60.9579 25.8384 60.2758L25.0396 61.5606C25.5188 61.9413 26.062 62.2268 26.6851 62.4331C27.3082 62.6393 27.8993 62.7503 28.4745 62.7503C29.3212 62.7503 30.0242 62.5282 30.5674 62.0841C31.1106 61.64 31.3822 61.0372 31.3822 60.2917C31.3981 59.5462 31.1265 59.0069 30.5833 58.642Z" fill="#27245D"/>
<path d="M8.53612 57.4841C8.18464 57.849 7.51363 58.0393 6.55505 58.0393H4.51008V53.8993H6.29943C7.25801 53.8993 7.94499 54.0421 8.39233 54.3435C8.83967 54.6448 9.06334 55.1366 9.06334 55.8504C9.06334 56.58 8.8876 57.1193 8.53612 57.4841ZM9.78227 53.2173C9.06334 52.6145 7.91304 52.3131 6.33138 52.3131H2.75269V62.6393H4.51008V59.6097H6.36334C7.89706 59.6097 9.03138 59.3241 9.7663 58.7373C10.5012 58.1504 10.8687 57.2462 10.8687 55.9931C10.8687 54.7559 10.5012 53.82 9.78227 53.2173Z" fill="#27245D"/>
<path d="M35.2966 61.3386C34.9451 61.3386 34.6575 61.2276 34.4658 61.0055C34.2741 60.7835 34.1623 60.4821 34.1623 60.1172V56.12H36.2392V54.7876H34.1623V52.3131H32.5007V60.0538C32.5007 60.8786 32.7564 61.5448 33.2516 62.0207C33.7469 62.5124 34.354 62.7503 35.0729 62.7503C35.7759 62.7503 36.4309 62.4966 37.022 61.9731L36.335 60.7993C35.9995 61.1641 35.6481 61.3386 35.2966 61.3386Z" fill="#27245D"/>
<path d="M42.9172 60.5931C42.4539 61.0689 41.9107 61.3069 41.2557 61.3069C40.6007 61.3069 40.0255 61.0689 39.5462 60.5931C39.0669 60.1172 38.8113 59.5145 38.8113 58.7531C38.8113 57.9917 39.0509 57.3731 39.5302 56.8655C40.0095 56.3579 40.5687 56.1041 41.2397 56.1041C41.9107 56.1041 42.4699 56.3579 42.9172 56.8655C43.3805 57.3731 43.6042 57.9917 43.6042 58.7372C43.6042 59.4986 43.3805 60.1172 42.9172 60.5931ZM43.5722 56.1517C42.9012 55.1682 42.0385 54.6765 41.0001 54.6765C39.9616 54.6765 39.0509 55.0413 38.2841 55.771C37.5172 56.5007 37.1338 57.4682 37.1338 58.6896C37.1338 59.911 37.5012 60.8945 38.2521 61.64C39.003 62.3855 39.8657 62.7662 40.8722 62.7662C41.3675 62.7662 41.8628 62.6393 42.3581 62.4014C42.8533 62.1634 43.2527 61.8145 43.5722 61.3545V62.6393H45.2338V54.7717H43.5722V56.1517V56.1517Z" fill="#27245D"/>
<path d="M69.9489 60.5772C69.4696 61.0531 68.8785 61.291 68.1596 61.291C67.4406 61.291 66.8335 61.0531 66.3702 60.5772C65.8909 60.1014 65.6673 59.4827 65.6673 58.7213C65.6673 57.96 65.9069 57.3413 66.3702 56.8655C66.8335 56.3896 67.4406 56.1517 68.1596 56.1517C68.8785 56.1517 69.4856 56.3896 69.9489 56.8655C70.4122 57.3413 70.6519 57.96 70.6519 58.7213C70.6519 59.4827 70.4282 60.1014 69.9489 60.5772ZM68.1596 54.6765C66.9614 54.6765 65.9708 55.0731 65.188 55.8503C64.3892 56.6276 63.9897 57.5951 63.9897 58.7213C63.9897 59.8476 64.3892 60.8151 65.188 61.5924C65.9868 62.3696 66.9773 62.7662 68.1596 62.7662C69.3418 62.7662 70.3483 62.3696 71.1312 61.5924C71.93 60.8151 72.3294 59.8476 72.3294 58.7213C72.3294 57.5951 71.93 56.6276 71.1312 55.8503C70.3324 55.0572 69.3418 54.6765 68.1596 54.6765Z" fill="#E2066F"/>
<path d="M79.0079 60.5772C78.5286 61.0531 77.9534 61.291 77.2984 61.291C76.6434 61.291 76.0842 61.0531 75.6369 60.5772C75.1736 60.1013 74.9499 59.4827 74.9499 58.7372C74.9499 57.9917 75.1736 57.3731 75.6369 56.8655C76.1002 56.3738 76.6594 56.12 77.3144 56.12C77.9854 56.12 78.5446 56.3738 79.0239 56.8655C79.5032 57.3572 79.7428 57.9917 79.7428 58.7372C79.7268 59.4986 79.4872 60.1013 79.0079 60.5772ZM80.27 55.771C79.5191 55.0413 78.6085 54.6765 77.554 54.6765C76.4996 54.6765 75.6369 55.1682 74.9818 56.1675V54.7876H73.3203V65.5103H74.9818V61.4655C75.7807 62.3379 76.6753 62.7662 77.6659 62.7662C78.6564 62.7662 79.5351 62.3855 80.286 61.6241C81.0369 60.8627 81.4043 59.8793 81.4043 58.6738C81.4043 57.4682 81.0209 56.4848 80.27 55.771Z" fill="#E2066F"/>
<path d="M60.1077 54.6765C59.5485 54.6765 59.0373 54.8193 58.558 55.0889C58.0787 55.3586 57.7112 55.7393 57.4716 56.231V51.7103H55.8101V62.6552H57.4716V58.4041C57.4716 57.6745 57.6793 57.1193 58.1106 56.7386C58.542 56.3579 59.0373 56.1676 59.6124 56.1676C60.8266 56.1676 61.4337 56.8972 61.4337 58.3407V62.6552H63.0953V57.8331C63.0953 56.802 62.8237 56.0248 62.2645 55.4855C61.7213 54.9462 61.0024 54.6765 60.1077 54.6765Z" fill="#E2066F"/>
<path d="M53.8131 57.6902C53.2699 57.2302 52.4711 56.8654 51.4006 56.6116C50.3302 56.3578 49.6433 56.1199 49.3077 55.8978C48.9882 55.6758 48.8125 55.3585 48.8125 54.9302C48.8125 54.5178 48.9722 54.2006 49.3077 53.9944C49.6273 53.7882 50.0586 53.6771 50.5699 53.6771C51.0811 53.6771 51.5924 53.7723 52.1196 53.9468C52.6468 54.1213 53.0622 54.3433 53.3657 54.6289L54.3083 53.3123C53.8291 52.9158 53.2699 52.6144 52.6149 52.3923C51.9598 52.1702 51.3048 52.0751 50.6338 52.0751C49.5953 52.0751 48.7326 52.3289 48.0296 52.8523C47.3267 53.3758 46.9752 54.1054 46.9752 55.0571C46.9752 56.0089 47.2787 56.7227 47.9018 57.1827C48.2054 57.4365 48.5569 57.6268 48.9563 57.7854C49.3557 57.944 49.9308 58.1027 50.6977 58.293C51.4646 58.4675 51.9918 58.6737 52.3113 58.8958C52.6308 59.1178 52.7746 59.4351 52.7746 59.8316C52.7746 60.2282 52.6149 60.5454 52.2793 60.7992C51.9438 61.0371 51.4965 61.164 50.9373 61.164C49.803 61.164 48.7166 60.704 47.6622 59.7999L46.5598 61.1165C47.8219 62.2268 49.2598 62.782 50.8894 62.782C52.0078 62.782 52.9024 62.4965 53.5894 61.9413C54.2764 61.3861 54.6119 60.6564 54.6119 59.7523C54.6119 58.8482 54.3563 58.1502 53.8131 57.6902Z" fill="#E2066F"/>
<path d="M33.6351 36.5621C34.0185 36.3876 34.4019 36.2448 34.8013 36.0862C35.2487 35.9276 35.696 35.769 36.1433 35.6262C36.7025 35.4517 37.2777 35.309 37.8528 35.1821C38.6356 35.0235 39.4185 34.8966 40.2013 34.8172C39.754 36.1972 39.2747 37.5772 38.7315 38.9414C38.7475 39.211 38.7635 39.4648 38.7794 39.7345C39.8498 39.5283 40.9522 39.4173 42.0865 39.4173C43.2209 39.4173 44.3232 39.5283 45.3936 39.7345C45.3936 39.4648 45.4096 39.1952 45.4416 38.9414C44.9143 37.5772 44.4191 36.1972 43.9717 34.8172C44.7546 34.8966 45.5534 35.0076 46.3203 35.1821C46.8954 35.309 47.4546 35.4517 48.0297 35.6262C48.4771 35.769 48.9244 35.9117 49.3717 36.0862C49.7711 36.229 50.1546 36.3876 50.538 36.5621C53.254 37.7676 55.7303 39.5441 57.7593 41.86C62.8558 37.4979 66.083 31.0421 66.083 23.8248C66.083 10.6752 55.3469 0 42.0865 0C28.8422 0 18.0901 10.6593 18.0901 23.8248C18.0901 31.0262 21.3173 37.4821 26.4138 41.86C28.4427 39.5441 30.9191 37.7676 33.6351 36.5621Z" fill="#A0DBE8"/>
<path d="M35.2165 40.8766C36.3349 40.3849 37.5331 40.0042 38.7633 39.7662C38.7633 39.4966 38.7473 39.2269 38.7153 38.9731C39.2425 37.609 39.7378 36.229 40.1852 34.849C39.4023 34.9283 38.6035 35.0393 37.8366 35.2138C37.2615 35.3407 36.7023 35.4835 36.1272 35.658C35.6798 35.8007 35.2325 35.9435 34.7852 36.118L36.5266 36.5462L35.2165 40.8766Z" fill="#525353"/>
<path d="M31.0947 43.4304C31.1427 42.9863 31.1587 42.5421 31.1587 42.0821C31.1587 41.8125 31.3823 41.5904 31.6539 41.5904H32.0853L33.619 36.5463C30.903 37.7518 28.4267 39.5283 26.3977 41.8442C27.516 42.8118 28.7302 43.6683 30.0084 44.4138C30.3758 44.0807 30.7273 43.7476 31.0947 43.4304Z" fill="#525353"/>
<path d="M50.5217 36.562L52.0555 41.6061H52.4868C52.7584 41.6061 52.9821 41.8282 52.9821 42.0979C52.9821 42.5579 53.014 43.002 53.046 43.4461C53.4134 43.7634 53.7809 44.0806 54.1164 44.4296C55.4105 43.6841 56.6087 42.8275 57.7271 41.8599C55.714 39.5441 53.2377 37.7675 50.5217 36.562Z" fill="#525353"/>
<path d="M47.5983 36.5145L49.3397 36.0862C48.8924 35.9276 48.445 35.769 47.9977 35.6262C47.4385 35.4517 46.8634 35.309 46.2882 35.1821C45.5054 35.0235 44.7225 34.8966 43.9397 34.8173C44.387 36.1973 44.8663 37.5773 45.4095 38.9414C45.3935 39.2111 45.3776 39.4649 45.3616 39.7345C46.6077 39.9724 47.79 40.3531 48.9083 40.8449L47.5983 36.5145Z" fill="#525353"/>
<path d="M42.0703 41.6062H45.4573C45.3934 40.9876 45.3615 40.369 45.3774 39.7662C44.307 39.56 43.2047 39.449 42.0703 39.449C40.936 39.449 39.8336 39.56 38.7632 39.7662C38.7792 40.3848 38.7473 40.9876 38.6833 41.6062H42.0703Z" fill="black"/>
<path d="M30.0242 44.4137C30.2958 44.5724 30.5833 44.731 30.8709 44.8896C30.9668 44.4137 31.0467 43.922 31.0946 43.4303C30.7271 43.7475 30.3756 44.0806 30.0242 44.4137Z" fill="black"/>
<path d="M34.9929 41.6062H38.6994C38.7633 40.9876 38.7953 40.369 38.7793 39.7662C37.5332 40.0042 36.3509 40.3849 35.2326 40.8766L34.9929 41.6062Z" fill="black"/>
<path d="M53.0623 43.4303C53.1102 43.922 53.1901 44.4137 53.2859 44.8896C53.5735 44.7468 53.8451 44.5882 54.1327 44.4137C53.7812 44.0806 53.4297 43.7475 53.0623 43.4303Z" fill="black"/>
<path d="M49.1639 41.6062L48.9402 40.8766C47.8219 40.3849 46.6237 40.0042 45.3935 39.7662C45.3775 40.3849 45.4095 40.9876 45.4734 41.6062H49.1639Z" fill="black"/>
<path d="M34.9928 41.6062L35.2164 40.8765L36.5425 36.5145L34.8011 36.0862C34.4017 36.2289 34.0182 36.3876 33.6348 36.562L32.1011 41.6062H33.7466H34.9928Z" fill="#AA9678"/>
<path d="M48.94 40.8765L49.1637 41.6062H50.4099H52.0554L50.5217 36.562C50.1383 36.3876 49.7548 36.2448 49.3554 36.0862L47.614 36.5145L48.94 40.8765Z" fill="#AA9678"/>
<path d="M32.1489 42.6214C32.1649 42.6056 32.1809 42.6056 32.1969 42.5897H32.1489C32.1489 42.5897 32.1489 42.6056 32.1489 42.6214Z" fill="#C0B098"/>
<path d="M42.0703 42.5897H38.5395H34.6892H32.1969C32.1809 42.6056 32.1649 42.6056 32.149 42.6214C32.117 43.5573 31.9892 44.4614 31.7815 45.3497C34.8969 46.8249 38.3797 47.6497 42.0703 47.6497V42.5897Z" fill="#C0B098"/>
<path d="M52.0076 42.5897H51.9597C51.9757 42.6056 51.9917 42.6056 52.0076 42.6214C52.0076 42.6056 52.0076 42.5897 52.0076 42.5897Z" fill="#AA9678"/>
<path d="M51.9599 42.5897H49.4676H45.6013H42.0706V47.6497C45.7451 47.6497 49.2439 46.8249 52.3593 45.3497C52.1516 44.4614 52.0238 43.5414 51.9919 42.6214C51.9919 42.6056 51.9759 42.5897 51.9599 42.5897Z" fill="#AA9678"/>
<path d="M53.0621 43.4303C53.0142 42.9862 52.9982 42.5421 52.9982 42.0821C52.9982 41.8124 52.7745 41.5903 52.5029 41.5903H52.0716H50.394H49.1479H45.4414H42.0544H38.6674H34.9609H33.7147H32.0692H31.6378C31.3662 41.5903 31.1426 41.8124 31.1426 42.0821C31.1426 42.5421 31.1106 42.9862 31.0787 43.4303C31.0307 43.9221 30.9508 44.4138 30.855 44.8897C31.1585 45.0483 31.4621 45.2069 31.7656 45.3497C31.9733 44.4614 32.1011 43.5414 32.1331 42.6214C32.1331 42.6055 32.1331 42.6055 32.1331 42.5896H32.181H34.6733H38.5236H42.0544H45.6011H49.4514H51.9437H51.9917C51.9917 42.6055 51.9917 42.6055 51.9917 42.6214C52.0236 43.5572 52.1514 44.4614 52.3591 45.3497C52.6627 45.2069 52.9662 45.0483 53.2698 44.8897C53.1739 44.4138 53.11 43.9221 53.0621 43.4303Z" fill="#8B7460"/>
<path d="M48.94 38.1958C48.8601 38.1165 48.7962 38.0213 48.7163 37.9261C48.7962 38.0372 48.8761 38.1165 48.94 38.1958Z" fill="#525353"/>
<path d="M49.4994 38.751C49.4994 38.751 49.2597 38.5606 48.9402 38.2117C49.2597 38.5606 49.4994 38.751 49.4994 38.751Z" fill="#AA9678"/>
<path d="M58.0467 18.5269C58.0467 18.5269 58.0467 18.511 58.0467 18.5269C57.839 18.2414 57.6313 17.9876 57.4236 17.7655C57.3278 17.6545 57.2319 17.5593 57.1361 17.4641C57.1041 17.4324 57.0562 17.4007 57.0242 17.3689C56.9603 17.3055 56.8964 17.2579 56.8325 17.2103V19.431L57.6793 23.3172C57.6952 23.3489 57.6952 23.3807 57.7112 23.4124L58.3023 24.0786H58.9254C58.9254 24.0152 58.9254 23.9676 58.9254 23.9041C58.9254 22.0641 58.6219 20.3034 58.0787 18.6538C58.0627 18.5903 58.0627 18.5586 58.0467 18.5269Z" fill="#BBBCBD"/>
<path d="M57.775 23.682V23.6979C57.775 23.6979 57.775 23.6979 57.775 23.7137C57.791 23.8089 57.791 23.9041 57.791 23.9992C57.791 24.0151 57.791 24.031 57.791 24.0468C57.791 24.0627 57.791 24.0785 57.791 24.0944C57.791 24.1896 57.791 24.2848 57.775 24.3641V24.3799V24.3958C57.759 24.491 57.743 24.5861 57.7271 24.6813L58.3182 24.031L57.7271 23.3647C57.743 23.4758 57.759 23.571 57.775 23.682Z" fill="#676A6A"/>
<path d="M57.759 24.4276C57.759 24.4117 57.759 24.4117 57.759 24.3958C57.775 24.3007 57.775 24.2055 57.775 24.1262C57.775 24.1103 57.775 24.0786 57.775 24.0627C57.775 24.0469 57.775 24.031 57.775 23.9993C57.775 23.9041 57.775 23.8089 57.759 23.7138C57.759 23.6979 57.759 23.6979 57.759 23.682C57.743 23.5869 57.727 23.4917 57.7111 23.3965C57.6951 23.3648 57.6951 23.3331 57.6791 23.3014C57.6152 23.111 57.5513 22.9524 57.4555 22.8096C57.4395 22.7938 57.4235 22.7779 57.4235 22.762C57.3915 22.7303 57.3756 22.6986 57.3436 22.6669C57.3117 22.6193 57.2637 22.5876 57.2158 22.5558C57.1998 22.54 57.1839 22.54 57.1679 22.5241C57.1359 22.4924 57.088 22.4765 57.056 22.4607C57.0401 22.4607 57.0241 22.4448 57.0081 22.4448C56.9602 22.4289 56.8963 22.4131 56.8324 22.4131C56.7685 22.4131 56.7205 22.4289 56.6566 22.4448C56.6407 22.4448 56.6247 22.4607 56.6087 22.4607C56.5767 22.4765 56.5288 22.4924 56.4969 22.5241C56.4809 22.54 56.4649 22.54 56.4489 22.5558C56.401 22.5876 56.3691 22.6352 56.3211 22.6669C56.2892 22.6986 56.2732 22.7303 56.2412 22.762C56.2253 22.7779 56.2093 22.7938 56.2093 22.8096C56.1134 22.9524 56.0335 23.111 55.9856 23.3014V23.3172C55.9537 23.3965 55.9377 23.4917 55.9217 23.5869C55.9217 23.6186 55.9057 23.6345 55.9057 23.6662C55.8898 23.7772 55.8898 23.8724 55.8738 23.9834C55.8738 23.9993 55.8738 24.0151 55.8738 24.031C55.8738 24.9351 56.3051 25.6807 56.8324 25.6807C56.9282 25.6807 57.0081 25.6489 57.104 25.6172C57.1199 25.6172 57.1359 25.6014 57.1519 25.6014C57.1838 25.5855 57.2158 25.5538 57.2478 25.5379C57.2637 25.522 57.2797 25.5062 57.2957 25.4903C57.3436 25.4586 57.3756 25.411 57.4235 25.3634C57.4555 25.3317 57.4714 25.3 57.5034 25.2524C57.5194 25.2207 57.5353 25.2048 57.5513 25.1731C57.5833 25.1255 57.5992 25.0779 57.6312 25.0145C57.6472 24.9986 57.6472 24.9827 57.6631 24.951C57.6951 24.8717 57.7111 24.7924 57.743 24.7131C57.743 24.6179 57.759 24.5227 57.759 24.4276ZM56.8643 23.8248C56.6566 23.8248 56.4969 23.5552 56.4969 23.2062C56.4969 22.8731 56.6566 22.5876 56.8643 22.5876C57.072 22.5876 57.2318 22.8572 57.2318 23.2062C57.2318 23.5552 57.056 23.8248 56.8643 23.8248Z" fill="black"/>
<path d="M56.8645 23.8248C57.0675 23.8248 57.232 23.5478 57.232 23.2061C57.232 22.8645 57.0675 22.5875 56.8645 22.5875C56.6616 22.5875 56.4971 22.8645 56.4971 23.2061C56.4971 23.5478 56.6616 23.8248 56.8645 23.8248Z" fill="white"/>
<path d="M55.9697 23.3014C56.0336 23.111 56.0975 22.9524 56.1934 22.8096C56.2094 22.7938 56.2254 22.7779 56.2254 22.7621C56.2573 22.7303 56.2733 22.6986 56.3052 22.6669C56.3372 22.6193 56.3851 22.5876 56.433 22.5558C56.449 22.54 56.465 22.54 56.481 22.5241C56.5129 22.4924 56.5609 22.4765 56.5928 22.4607C56.6088 22.4607 56.6248 22.4448 56.6407 22.4448C56.6887 22.429 56.7526 22.4131 56.8165 22.4131C56.8804 22.4131 56.9283 22.429 56.9922 22.4448C57.0082 22.4448 57.0242 22.4607 57.0401 22.4607C57.0721 22.4765 57.12 22.4924 57.152 22.5241C57.168 22.54 57.1839 22.54 57.1999 22.5558C57.2478 22.5876 57.2798 22.6352 57.3277 22.6669C57.3597 22.6986 57.3757 22.7303 57.4076 22.7621C57.4236 22.7779 57.4396 22.7938 57.4396 22.8096C57.5354 22.9524 57.6153 23.111 57.6632 23.3014L56.8165 19.4152L55.9697 23.3014Z" fill="#909393"/>
<path d="M45.5053 24.0151C45.5053 23.9358 45.5053 23.8565 45.4893 23.7772C45.4733 23.6979 45.4733 23.6344 45.4574 23.5551C45.4414 23.4758 45.4254 23.4124 45.3935 23.3489C45.3775 23.2855 45.3455 23.2062 45.3136 23.1427C45.2816 23.0793 45.2497 23.0158 45.2177 22.9524C45.1059 22.762 44.9781 22.5875 44.8183 22.4448C44.6106 22.2544 44.371 22.0958 44.1154 21.9848C43.9875 21.9372 43.8438 21.8896 43.716 21.8579C43.716 21.8579 43.7159 21.8579 43.7 21.8579C43.5562 21.8262 43.4124 21.8103 43.2686 21.8103C43.1248 21.8103 42.981 21.8262 42.8373 21.8579H42.8213C42.6775 21.8896 42.5497 21.9213 42.4219 21.9689C42.4219 21.9689 42.4219 21.9689 42.4059 21.9689C42.2781 22.0165 42.1503 22.08 42.0384 22.1593C41.9266 22.2386 41.8148 22.3179 41.7189 22.4131H41.7029C41.5432 22.5717 41.3994 22.7462 41.2875 22.9365C41.2556 23 41.2236 23.0634 41.1917 23.1269C41.1917 23.1269 41.1917 23.1427 41.1757 23.1427C41.1438 23.2062 41.1278 23.2538 41.1118 23.3172C41.1118 23.3331 41.0958 23.3331 41.0958 23.3489C41.0799 23.4124 41.0639 23.46 41.0479 23.5234C41.0479 23.5393 41.0319 23.5551 41.0319 23.571C41.0159 23.6344 41.0159 23.682 41 23.7455C41 23.7613 41 23.7772 40.984 23.7931C40.984 23.8724 40.968 23.9517 40.968 24.031C40.968 24.1738 40.984 24.3165 41.0159 24.4593C41.0159 24.4593 41.0159 24.4593 41.0159 24.4751C41.0479 24.6179 41.0799 24.7448 41.1438 24.8875C41.2556 25.1413 41.4154 25.3793 41.6071 25.5855C41.7668 25.7441 41.9426 25.8869 42.1343 25.9979C42.1982 26.0296 42.2621 26.0613 42.326 26.0931H42.342C42.4059 26.1248 42.4698 26.1407 42.5177 26.1565C42.5337 26.1565 42.5337 26.1565 42.5497 26.1724C42.6136 26.1882 42.6615 26.2041 42.7254 26.22C42.7414 26.22 42.7574 26.2358 42.7733 26.2358C42.8372 26.2517 42.8852 26.2517 42.9491 26.2675C42.9651 26.2675 42.981 26.2675 42.997 26.2834C43.0769 26.2834 43.1568 26.2993 43.2367 26.2993C43.5562 26.2993 43.8438 26.2358 44.1154 26.1248C44.2432 26.0613 44.371 25.9979 44.4988 25.9186C44.7384 25.76 44.9461 25.5538 45.1059 25.3158C45.1858 25.1889 45.2497 25.062 45.3136 24.9351C45.4254 24.6655 45.4893 24.3641 45.4893 24.0627V24.0469C45.5053 24.0151 45.5053 24.0151 45.5053 24.0151ZM43.2526 23.7455C42.7893 23.7455 42.4059 23.3648 42.4059 22.9048C42.4059 22.4448 42.7893 22.0641 43.2526 22.0641C43.7159 22.0641 44.0994 22.4448 44.0994 22.9048C44.0994 23.3648 43.7159 23.7455 43.2526 23.7455Z" fill="black"/>
<path d="M43.2527 23.7455C43.7204 23.7455 44.0995 23.3691 44.0995 22.9048C44.0995 22.4405 43.7204 22.0641 43.2527 22.0641C42.7851 22.0641 42.406 22.4405 42.406 22.9048C42.406 23.3691 42.7851 23.7455 43.2527 23.7455Z" fill="white"/>
<path d="M41.6871 22.413L43.2528 17.6703C43.2528 17.6703 43.2528 17.3848 43.2528 17.1151C43.2528 17.0358 43.2528 16.9565 43.2528 16.893C43.2528 16.8613 43.2528 16.8455 43.2528 16.8296C43.2528 16.7979 43.2528 16.7661 43.2528 16.7344C43.2528 16.7186 43.2528 16.6868 43.2528 16.671C43.2528 16.6551 43.2528 16.6234 43.2528 16.6075C43.2528 16.5917 43.2528 16.5758 43.2528 16.5758C43.2528 16.5599 43.2528 16.5599 43.2528 16.5599C42.3901 16.3855 41.4954 16.2903 40.5848 16.2903C40.2812 16.2903 39.9777 16.3061 39.6741 16.322C39.6262 16.322 39.5942 16.322 39.5463 16.3379C37.9806 16.4489 36.4469 16.8613 35.025 17.5117C33.8108 18.0668 32.6605 18.7965 31.654 19.653C31.3824 19.891 31.1108 20.1289 30.8552 20.3827C30.8073 20.4303 30.7593 20.4779 30.7114 20.5255C30.4718 20.7634 30.2321 21.0172 30.0084 21.271C29.9605 21.3344 29.9126 21.382 29.8647 21.4455C29.641 21.7151 29.4173 21.9848 29.2096 22.2544C29.1936 22.2703 29.1777 22.302 29.1617 22.3179C28.97 22.5875 28.7783 22.8572 28.5865 23.1427C28.5546 23.1903 28.5067 23.2537 28.4747 23.3013C28.3309 23.5392 28.1871 23.7772 28.0593 24.0151H35.1368H35.1528L41.6871 22.413Z" fill="#BBBCBD"/>
<path d="M47.6782 21.8896C47.6941 21.6992 47.7101 21.5248 47.7101 21.3344C47.7261 21.0806 47.7261 20.8427 47.7421 20.5889C47.7421 20.3985 47.7421 20.2082 47.7421 20.002C47.7421 19.9385 47.7421 19.891 47.7421 19.8275C47.7421 19.3199 47.7101 18.8282 47.6941 18.3206C47.6941 18.3206 47.6782 18.3206 47.6782 18.3048C47.6782 18.3048 47.6622 18.3048 47.6622 18.2889C47.5663 18.2413 47.3427 18.1144 47.135 17.9875H47.119C47.0711 17.9558 47.0231 17.9241 46.9752 17.9082C46.9432 17.8923 46.9113 17.8606 46.8793 17.8448L46.8634 17.8289C46.8314 17.813 46.7995 17.7972 46.7835 17.7813C46.464 17.6068 46.1285 17.4641 45.793 17.3213C44.9941 16.9882 43.9077 16.6868 43.2847 16.5441V16.9723V17.0675V17.0992C43.2847 17.3848 43.2847 17.6544 43.2847 17.6544L44.8344 22.3813C44.9941 22.5241 45.1379 22.6985 45.2338 22.8889C45.2657 22.9523 45.2977 23.0158 45.3296 23.0792C45.3616 23.1427 45.3935 23.2061 45.4095 23.2854C45.4255 23.3489 45.4575 23.4282 45.4734 23.4917C45.4894 23.571 45.5054 23.6344 45.5054 23.7137C45.5214 23.793 45.5214 23.8723 45.5214 23.9516V23.9675H47.4066C47.5344 23.2854 47.6302 22.5875 47.6782 21.8896C47.6782 21.9213 47.6782 21.9054 47.6782 21.8896Z" fill="#E2DDDB"/>
<path d="M45.5213 30.7724C45.9526 30.3441 46.352 29.9476 46.7355 29.551C46.9591 29.3131 47.1828 29.0752 47.4065 28.8531C48.9881 27.1559 50.1384 25.5538 50.8414 23.5076C50.8573 23.46 50.8733 23.3966 50.8893 23.3172C50.8893 23.3014 50.8893 23.3014 50.8893 23.2855C50.9053 23.2062 50.9213 23.1269 50.9372 23.0317C50.9372 22.9683 50.9532 22.9048 50.9532 22.8414C50.7775 21.9531 50.442 21.0807 50.1384 20.2241C50.1384 20.2241 50.1384 20.2241 50.1384 20.24C50.1384 20.24 50.1384 20.24 50.1224 20.2241C50.0585 20.1765 50.0106 20.1131 49.9467 20.0655C49.771 19.9069 49.5952 19.7483 49.4035 19.5897C48.8443 19.1297 48.2692 18.7014 47.6621 18.3365C47.694 18.8441 47.71 19.3359 47.71 19.8434C47.71 19.9069 47.71 19.9545 47.71 20.0179C47.71 20.2083 47.71 20.3986 47.71 20.6048C47.71 20.8586 47.694 21.1124 47.6781 21.3503C47.6621 21.5407 47.6621 21.7152 47.6461 21.9055C47.6461 21.9214 47.6461 21.9372 47.6461 21.969C47.5822 22.6669 47.5023 23.3648 47.3745 24.0469L47.1508 25.0938C46.6875 26.9655 45.7449 28.6469 44.9781 30.3917C44.7704 30.8517 44.5786 31.3276 44.4029 31.8035C44.3869 31.851 44.371 31.8986 44.355 31.9462C44.5946 31.6924 44.8183 31.4704 44.9781 31.3117C45.1857 31.1055 45.3455 30.931 45.5213 30.7724Z" fill="#FBB040"/>
<path d="M41.7031 22.4131C41.799 22.3179 41.9108 22.2386 42.0227 22.1593C42.1345 22.08 42.2623 22.0165 42.3901 21.9689C42.3901 21.9689 42.3901 21.9689 42.4061 21.9689C42.5339 21.9213 42.6617 21.8738 42.8055 21.8579H42.8215C42.9653 21.8262 43.109 21.8103 43.2528 21.8103C43.3966 21.8103 43.5404 21.8262 43.6842 21.8579C43.6842 21.8579 43.6842 21.8579 43.7002 21.8579C43.844 21.8896 43.9718 21.9213 44.0996 21.9848C44.3552 22.0958 44.5948 22.2386 44.8025 22.4448L43.2528 17.7179L41.7031 22.4131Z" fill="#909393"/>
<path d="M41.1597 24.8876C41.1118 24.7607 41.0638 24.6179 41.0319 24.4751C41.0319 24.4751 41.0319 24.4751 41.0319 24.4593C40.9999 24.3165 40.984 24.1738 40.984 24.031C40.984 23.9517 40.9839 23.8724 40.9999 23.7931C40.9999 23.7772 40.9999 23.7614 41.0159 23.7455C41.0159 23.682 41.0319 23.6345 41.0479 23.571C41.0479 23.5552 41.0638 23.5393 41.0638 23.5234C41.0798 23.46 41.0958 23.4124 41.1118 23.3489C41.1118 23.3331 41.1277 23.3331 41.1277 23.3172C41.1437 23.2538 41.1757 23.1903 41.1916 23.1427C41.1916 23.1427 41.1916 23.1269 41.2076 23.1269C41.2396 23.0634 41.2715 23 41.3035 22.9365C41.4153 22.7462 41.5591 22.5717 41.7189 22.4131L35.1686 24.0152H35.1526L41.639 25.5855C41.4313 25.3951 41.2715 25.1572 41.1597 24.8876Z" fill="#676A6A"/>
<path d="M55.8901 23.6661C55.8901 23.6344 55.9061 23.6027 55.9061 23.5868C55.9221 23.4917 55.9381 23.3965 55.97 23.3172C55.97 23.3013 55.97 23.3013 55.97 23.2855L56.8168 19.3992V17.1786C56.1138 16.6075 55.3789 16.2903 54.5961 16.2903C53.6055 16.2903 52.6949 16.8296 52.0079 17.4958C51.257 18.2255 50.6819 19.1455 50.2026 20.0655C50.1866 20.113 50.1546 20.1448 50.1387 20.1924C50.2825 20.3192 50.4262 20.4461 50.57 20.573C50.8896 20.8586 51.2091 21.1599 51.5126 21.4613C51.6564 21.6041 51.8002 21.7468 51.944 21.8896C52.0878 22.0482 52.2475 22.191 52.3913 22.3496C52.583 22.5558 52.7748 22.7461 52.9505 22.9523C53.0304 23.0317 53.1103 23.1268 53.1901 23.2061C53.4138 23.4599 53.6375 23.6979 53.8612 23.9517C53.8931 23.9834 53.9251 24.0151 53.941 24.031H55.8742C55.8742 24.0151 55.8742 23.9992 55.8742 23.9834C55.8742 23.8882 55.8742 23.7772 55.8901 23.6661Z" fill="#E2DDDB"/>
<path d="M26.8929 26.4738C26.8929 26.4579 26.9089 26.4421 26.9089 26.4262C27.0367 26.109 27.1645 25.7917 27.3083 25.4745C27.3402 25.3793 27.3882 25.3 27.4361 25.2207C27.5479 24.9669 27.6757 24.729 27.8036 24.491C27.8515 24.3959 27.8994 24.3007 27.9633 24.1897C27.9953 24.1421 28.0272 24.0786 28.0592 24.031C28.203 23.7931 28.3308 23.5552 28.4746 23.3173C28.5065 23.2697 28.5544 23.2062 28.5864 23.1586C28.7621 22.8731 28.9539 22.6035 29.1615 22.3338C29.1775 22.3179 29.1935 22.2862 29.2095 22.2704C29.4172 21.9848 29.6408 21.7152 29.8645 21.4614C29.9124 21.3979 29.9604 21.3504 30.0083 21.2869C30.232 21.0331 30.4716 20.7793 30.7112 20.5414C30.7592 20.4938 30.8071 20.4462 30.855 20.3986C31.1107 20.1448 31.3663 19.9069 31.6539 19.669C32.7243 16.0842 36.0314 13.4669 39.9296 13.4669C41.4953 13.4669 43.0609 13.911 44.403 14.7359C45.7769 15.5766 46.8953 16.7979 47.6142 18.2097C47.6142 18.2097 47.6142 18.2255 47.6302 18.2255C47.6462 18.2573 47.6621 18.289 47.6941 18.3366C48.3012 18.7014 48.8763 19.1297 49.4355 19.5897C49.6272 19.7483 49.803 19.9069 49.9787 20.0655C50.0426 20.1131 50.0905 20.1766 50.1544 20.2242C50.1704 20.1766 50.1864 20.1448 50.2183 20.0973C50.7615 16.6552 52.2953 14.1648 54.1006 14.1648C55.4586 14.1648 56.6728 15.5766 57.4077 17.7497V17.7655C57.6154 17.9876 57.8231 18.2414 58.0308 18.5111C58.0308 18.5111 58.0308 18.5269 58.0467 18.5269C58.0627 18.5586 58.0627 18.5904 58.0787 18.6221L58.0467 18.5111C55.7941 11.9124 49.5154 7.15381 42.1024 7.15381C32.8041 7.15381 25.2793 14.6248 25.2793 23.8566C25.2793 25.6807 25.5669 27.4255 26.1101 29.0593C26.1101 29.0593 26.1101 29.0593 26.1101 29.0435C26.2219 28.5517 26.3497 28.06 26.4935 27.5842C26.6213 27.2035 26.7491 26.8386 26.8929 26.4738Z" fill="#525353"/>
<path d="M58.3024 24.0469L57.7113 24.6972C57.6953 24.7765 57.6634 24.8558 57.6314 24.9351C57.6314 24.951 57.6154 24.9669 57.5995 24.9986C57.5835 25.0462 57.5515 25.1096 57.5196 25.1572C57.5036 25.1889 57.4876 25.2048 57.4717 25.2365C57.4397 25.2682 57.4237 25.3158 57.3918 25.3475C57.3598 25.3951 57.3119 25.4427 57.264 25.4744C57.248 25.4903 57.232 25.5062 57.216 25.522C57.1841 25.5538 57.1521 25.5696 57.1202 25.5855C57.1042 25.5855 57.0882 25.6013 57.0722 25.6013C56.9924 25.6489 56.8965 25.6648 56.8006 25.6648C56.2734 25.6648 55.8421 24.9351 55.8421 24.0151H53.9089C54.2764 24.4275 54.6279 24.84 54.9634 25.2682L54.9794 25.2841C55.3149 25.6965 55.6504 26.1089 55.9859 26.5213C56.0018 26.5372 56.0178 26.5689 56.0338 26.5848C56.3533 26.9813 56.6569 27.3779 56.9604 27.7744C56.9924 27.8062 57.0243 27.8537 57.0563 27.8855C57.3758 28.3137 57.6953 28.742 58.0148 29.1544C58.0148 29.1544 58.0148 29.1544 58.0148 29.1703C58.574 27.5365 58.8776 25.8075 58.8935 23.9993L58.3024 24.0469Z" fill="white"/>
<path d="M39.5463 16.3221C39.5943 16.3221 39.6262 16.3221 39.6741 16.3062C39.9777 16.2904 40.2812 16.2745 40.5848 16.2745C41.4954 16.2745 42.3901 16.3697 43.2528 16.5442C43.2528 16.5442 43.2528 16.5442 43.2528 16.56C43.2528 16.56 43.2528 16.5759 43.2528 16.5917C43.2528 16.6076 43.2528 16.6235 43.2528 16.6552C43.2528 16.6711 43.2528 16.6869 43.2528 16.7186C43.2528 16.7504 43.2528 16.7821 43.2528 16.8138C43.2528 16.8297 43.2528 16.8614 43.2528 16.8773C43.2528 16.909 43.2528 16.9407 43.2528 16.9724V16.5442C43.8599 16.6869 44.9463 16.9883 45.7611 17.3214C46.0966 17.4642 46.4321 17.6228 46.7516 17.7814C46.7676 17.7814 46.7996 17.7973 46.8315 17.829C46.8315 17.829 46.8475 17.829 46.8475 17.8448C46.8795 17.8607 46.9114 17.8766 46.9434 17.9083C46.9913 17.94 47.0392 17.9559 47.0871 17.9876H47.1031C47.3108 18.0986 47.5345 18.2414 47.6303 18.289C47.6463 18.289 47.6463 18.3048 47.6463 18.3048L47.6623 18.3207C47.6463 18.289 47.6303 18.2573 47.5984 18.2097C47.5984 18.2097 47.5984 18.1938 47.5824 18.1938C46.8635 16.7662 45.7292 15.5448 44.3712 14.72C43.0292 13.9111 41.4635 13.451 39.8978 13.451C35.9996 13.451 32.6925 16.0683 31.6221 19.6531C32.6446 18.7807 33.7789 18.0511 34.9931 17.5117C36.4469 16.8455 37.9966 16.449 39.5463 16.3221Z" fill="black"/>
<path d="M52.0235 17.5117C52.7105 16.8455 53.6211 16.3062 54.6117 16.3062C55.3945 16.3062 56.1454 16.6234 56.8324 17.1944C56.8963 17.242 56.9602 17.3055 57.0241 17.3531C57.056 17.3848 57.104 17.4165 57.1359 17.4482C57.2318 17.5434 57.3276 17.6386 57.4235 17.7496V17.7338C56.6726 15.5606 55.4744 14.1489 54.1164 14.1489C52.3111 14.1489 50.7773 16.6234 50.2341 20.0813C50.6815 19.1613 51.2726 18.2413 52.0235 17.5117Z" fill="black"/>
<path d="M36.0792 39.4489C36.239 39.5124 36.3828 39.56 36.5425 39.6075C38.284 40.2103 40.1532 40.5434 42.1023 40.5434C44.323 40.5434 46.4479 40.1151 48.381 39.3379C48.4769 39.2903 48.5887 39.2586 48.6846 39.211C48.8443 39.1475 49.0201 39.0682 49.1798 38.9889C49.3236 38.9255 49.4674 38.862 49.6112 38.7827C49.5792 38.7827 49.5473 38.7986 49.5153 38.7986C48.9082 38.862 48.3171 38.8779 47.726 38.7827C44.2591 38.291 43.4922 36.6255 43.6041 34.9124C43.3485 34.7696 43.1088 34.611 42.8372 34.4206C40.1692 32.5013 38.5875 30.4551 38.5875 30.4551C38.5875 30.4551 40.6485 32.0255 43.7159 33.2151C43.7798 33.2469 43.8437 33.2627 43.9076 33.2944C44.0514 32.8027 44.2272 32.3268 44.3709 31.9144C44.3869 31.8668 44.4029 31.8193 44.4189 31.7717C44.5946 31.2958 44.7863 30.82 44.994 30.36C45.7609 28.6151 46.7035 26.9179 47.1668 25.062L47.3905 24.0151H45.5053V24.031C45.5053 24.3482 45.4414 24.6337 45.3295 24.9034C45.2656 25.0303 45.2017 25.1731 45.1218 25.2841C44.9621 25.522 44.7544 25.7282 44.5147 25.8868C44.3869 25.9662 44.2591 26.0296 44.1313 26.0931C43.8597 26.2041 43.5561 26.2675 43.2526 26.2675C43.1727 26.2675 43.0928 26.2675 43.013 26.2517C42.997 26.2517 42.981 26.2517 42.965 26.2358C42.9011 26.2358 42.8532 26.22 42.7893 26.2041C42.7733 26.2041 42.7573 26.1882 42.7414 26.1882C42.6775 26.1724 42.6295 26.1565 42.5656 26.1406C42.5496 26.1406 42.5496 26.1406 42.5337 26.1248C42.4698 26.1089 42.4059 26.0772 42.3579 26.0613H42.342C42.278 26.0296 42.2141 25.9979 42.1502 25.9662C41.9585 25.8551 41.7828 25.7282 41.623 25.5537L35.1366 23.9834H28.0591C28.0272 24.031 27.9952 24.0944 27.9633 24.142C27.9153 24.2372 27.8514 24.3324 27.8035 24.4434C27.6757 24.6813 27.5479 24.9351 27.436 25.1731C27.3881 25.2524 27.3562 25.3475 27.3082 25.4268C27.1644 25.7441 27.0366 26.0613 26.9088 26.3786C26.9088 26.3944 26.8928 26.4103 26.8928 26.4262C26.7491 26.791 26.6212 27.1717 26.5094 27.5524C26.3656 28.0282 26.2378 28.52 26.126 29.0117C27.2443 32.3903 29.4011 35.2931 32.2449 37.3234C32.3248 37.3869 32.4206 37.4344 32.5005 37.4979C32.9798 37.831 33.4751 38.1482 33.9863 38.4179C34.6573 38.8303 35.3603 39.1634 36.0792 39.4489Z" fill="white"/>
<path d="M47.6942 34.2462C47.6622 34.4206 47.6462 34.5951 47.6462 34.7696C47.6303 35.071 47.6622 35.3724 47.7102 35.642C47.7421 35.8324 47.7741 36.0068 47.822 36.1813C47.9019 36.4351 47.9818 36.6731 48.0936 36.8951C48.2054 37.1172 48.3173 37.3234 48.4291 37.4979C48.461 37.5613 48.509 37.6248 48.5409 37.6724C48.6048 37.7517 48.6528 37.831 48.7167 37.9103C48.7965 38.0055 48.8764 38.1006 48.9403 38.1799C49.2439 38.5289 49.4995 38.7193 49.4995 38.7193C49.4995 38.7193 49.4995 38.7193 49.4995 38.7351C49.4995 38.751 49.4995 38.7668 49.5155 38.7827C49.5474 38.7827 49.5794 38.7668 49.6113 38.7668C50.3622 38.6717 51.1131 38.4655 51.864 38.2117C52.2474 38.0689 52.6309 37.9262 52.9983 37.7675C53.1102 37.72 53.222 37.6565 53.3338 37.6089C57.1841 35.7531 60.4113 32.4855 60.4113 32.4855C55.5865 34.8489 50.8415 34.7537 47.6942 34.2462Z" fill="#9F2255"/>
<path d="M56.9922 27.8062C56.6887 27.4096 56.3691 27.0131 56.0656 26.6165C56.0496 26.6007 56.0336 26.5689 56.0177 26.5531C55.6822 26.1407 55.3467 25.7282 55.0112 25.3158L54.9952 25.3C54.6437 24.8717 54.2922 24.4593 53.9407 24.0469C53.9248 24.0151 53.8928 23.9993 53.8768 23.9676C53.6532 23.7138 53.4295 23.4758 53.2058 23.222C53.1259 23.1427 53.0461 23.0476 52.9662 22.9682C52.7745 22.762 52.5987 22.5717 52.407 22.3655C52.2632 22.2069 52.1035 22.0641 51.9597 21.9055C51.8159 21.7627 51.6721 21.62 51.5283 21.4772C51.2248 21.1758 50.9052 20.8745 50.5857 20.5889C50.4419 20.462 50.2981 20.3351 50.1543 20.2083C50.4579 21.0807 50.8094 21.9531 50.9851 22.8572C51.033 23.0951 51.065 23.3172 51.0969 23.5393C51.5283 26.6641 50.5058 28.7103 48.9082 31.4069C48.7964 31.5972 48.6685 31.8034 48.5567 31.9938C48.1892 32.5965 47.9496 33.1834 47.8218 33.7227C47.7739 33.8972 47.7419 34.0717 47.71 34.2462C50.8573 34.7538 55.5863 34.8489 60.4271 32.4855C60.4271 32.4855 59.4845 31.1055 58.0467 29.202C57.7271 28.7738 57.4076 28.3455 57.0881 27.9331C57.0561 27.8855 57.0242 27.8379 56.9922 27.8062Z" fill="#E2066F"/>
<path d="M49.4992 38.751C49.4992 38.751 49.2596 38.5607 48.9401 38.2117C48.8602 38.1324 48.7963 38.0372 48.7164 37.942C48.6525 37.8627 48.6046 37.7834 48.5406 37.7041C48.5087 37.6406 48.4608 37.5931 48.4288 37.5296C48.317 37.3393 48.2051 37.1489 48.0933 36.9269C47.9975 36.7048 47.9016 36.4669 47.8217 36.2131C47.7738 36.0386 47.7259 35.8641 47.7099 35.6738C47.662 35.4041 47.646 35.1027 47.646 34.8013C47.646 34.6269 47.662 34.4524 47.6939 34.2779C47.7259 34.1034 47.7578 33.9289 47.8057 33.7544C47.9495 33.2151 48.1732 32.6441 48.5406 32.0255C48.6525 31.8193 48.7803 31.6289 48.8921 31.4386C50.4898 28.742 51.5122 26.7117 51.0809 23.571C51.0489 23.3489 51.017 23.111 50.969 22.8889C50.9531 23.0475 50.9211 23.1903 50.8892 23.3013C50.8892 23.3172 50.8892 23.3172 50.8892 23.3331C50.8732 23.4124 50.8572 23.4758 50.8412 23.5234C50.1383 25.5696 48.988 27.1717 47.4063 28.8689C47.1986 29.1069 46.975 29.3289 46.7353 29.5669C46.3519 29.9634 45.9365 30.3758 45.5211 30.7882C45.3454 30.9627 45.1696 31.1213 44.9939 31.2958C44.8341 31.4544 44.6105 31.6765 44.3708 31.9303C44.227 32.3427 44.0513 32.8186 43.9075 33.3103C43.8436 33.2786 43.7797 33.2627 43.7158 33.231C40.6483 32.0572 38.5874 30.471 38.5874 30.471C38.5874 30.471 40.1691 32.5172 42.8371 34.4365C43.0927 34.6269 43.3483 34.7855 43.604 34.9282C43.4921 36.6572 44.259 38.3069 47.7259 38.7986C48.317 38.8779 48.9081 38.8779 49.5152 38.8144C49.5152 38.7827 49.4992 38.7669 49.4992 38.751Z" fill="black"/>
</svg>
