<svg width="80" height="80" viewBox="0 0 80 80" fill="none" xmlns="http://www.w3.org/2000/svg">
<path d="M0 40C0 17.9086 17.9086 0 40 0V0C62.0914 0 80 17.9086 80 40V40C80 62.0914 62.0914 80 40 80V80C17.9086 80 0 62.0914 0 40V40Z" fill="#283341"/>
<circle cx="40.2" cy="37.5" r="12.5" fill="#7187A5" stroke="#151B23"/>
<circle cx="40.25" cy="37.55" r="9.75" fill="#D6E4F7" stroke="#151B23"/>
<path d="M36.4583 32.25C34.8181 33.452 33.75 35.4133 33.75 37.6287C33.75 41.2855 36.6601 44.25 40.25 44.25C43.8399 44.25 46.75 41.2855 46.75 37.6287C46.75 35.4133 45.6819 33.452 44.0417 32.25" stroke="#151B23" stroke-linecap="round" stroke-linejoin="round"/>
<path d="M40.35 31V38" stroke="#151B23" stroke-linecap="round"/>
<path d="M44.9 44.0238C44.2925 44.0238 43.8 44.5631 43.8 45.2285V44.6262C43.8 43.9608 43.3075 43.4214 42.7 43.4214C42.0925 43.4214 41.6 43.9608 41.6 44.6262V44.0238C41.6 43.3584 41.1075 42.819 40.5 42.819C39.8925 42.819 39.4 43.3584 39.4 44.0238V39.2048C39.4 38.5394 38.9075 38 38.3 38C37.6925 38 37.2 38.5394 37.2 39.2048V46.4333C37.2 45.7679 36.7075 45.2285 36.1 45.2285C35.4925 45.2285 35 45.7679 35 46.4333V49.0875C35 52.4144 37.4624 54.9231 40.5 54.9231C43.5376 54.9231 46 52.4144 46 49.0875V45.2285C46 44.5631 45.5075 44.0238 44.9 44.0238Z" fill="white" stroke="#151B23" stroke-linejoin="round"/>
</svg>
