<svg width="152" height="32" viewBox="0 0 152 32" fill="none" xmlns="http://www.w3.org/2000/svg">
<path d="M36.0708 12.0749C35.8317 12.9669 35.3683 13.6216 34.6806 14.0397C33.992 14.4576 33.0264 14.667 31.7808 14.667H27.8234L29.2126 9.48316H33.17C34.4146 9.48316 35.2692 9.69218 35.7334 10.1101C36.1968 10.5286 36.3098 11.1833 36.0708 12.0749ZM40.1689 11.9632C40.6722 10.0874 40.4636 8.64726 39.5434 7.64401C38.6231 6.64075 37.0105 6.1394 34.7074 6.1394H25.8735L20.5566 25.9806H24.8485L26.9921 17.9826H29.8067C30.4378 17.9826 30.9346 18.085 31.298 18.2894C31.6621 18.4942 31.8753 18.8565 31.9411 19.376L32.7066 25.9806H37.3052L36.5592 19.8223C36.4071 18.4474 35.7779 17.6392 34.6723 17.3978C36.0819 16.9895 37.2626 16.3107 38.2134 15.3631C39.1634 14.416 39.8158 13.2829 40.1689 11.9632Z" fill="white"/>
<path d="M50.5998 18.8746C50.2412 20.212 49.6888 21.2342 48.9428 21.9399C48.1959 22.6461 47.3024 22.9988 46.2626 22.9988C45.2023 22.9988 44.4832 22.6507 44.1041 21.9538C43.7231 21.2573 43.7102 20.2499 44.0643 18.9302C44.4174 17.6114 44.9808 16.5804 45.7565 15.8366C46.5313 15.0943 47.4386 14.7222 48.4793 14.7222C49.5192 14.7222 50.2236 15.0805 50.5887 15.7955C50.9539 16.5105 50.9585 17.5368 50.5998 18.8746ZM52.4811 11.852L51.9437 13.8585C51.711 13.1338 51.2615 12.5582 50.5961 12.131C49.9298 11.7038 49.104 11.4896 48.1197 11.4896C46.9122 11.4896 45.7509 11.8011 44.637 12.4234C43.523 13.0461 42.5489 13.9238 41.7158 15.0568C40.8827 16.1902 40.2719 17.4813 39.8836 18.9302C39.4953 20.3797 39.4174 21.6568 39.651 22.762C39.8845 23.8676 40.3905 24.7174 41.1699 25.3119C41.9484 25.9069 42.9512 26.2035 44.1773 26.2035C45.1615 26.2035 46.0995 25.9992 46.9892 25.5904C47.8788 25.1823 48.6341 24.6151 49.256 23.8907L48.6954 25.9807H52.8472L56.6331 11.852H52.4811Z" fill="white"/>
<path d="M71.5628 11.8519H59.4962L58.6528 15.0011H65.6749L56.3905 23.0265L55.5981 25.9806H68.0549L68.8991 22.8318H61.3757L70.801 14.6943L71.5628 11.8519Z" fill="white"/>
<path d="M82.1862 18.8468C81.8127 20.2397 81.2594 21.2809 80.5273 21.9682C79.7951 22.6554 78.9091 22.9987 77.8693 22.9987C75.6951 22.9987 74.9796 21.6155 75.721 18.8468C76.0899 17.4719 76.6459 16.4363 77.3892 15.7398C78.1333 15.0429 79.0343 14.6944 80.0936 14.6944C81.1334 14.6944 81.8349 15.0429 82.1964 15.7398C82.5578 16.4363 82.555 17.4719 82.1862 18.8468ZM84.6153 12.3812C83.6598 11.7871 82.4392 11.4896 80.9526 11.4896C79.4476 11.4896 78.0537 11.7871 76.7702 12.3812C75.4866 12.9762 74.3939 13.8307 73.4922 14.9451C72.5894 16.06 71.9389 17.3603 71.5403 18.8468C71.1418 20.3333 71.0955 21.6332 71.4014 22.748C71.7063 23.8629 72.3402 24.7175 73.3059 25.312C74.2706 25.9069 75.5051 26.2035 77.0102 26.2035C78.4967 26.2035 79.8766 25.9069 81.151 25.312C82.4234 24.7175 83.5124 23.8629 84.4151 22.748C85.3168 21.6332 85.9674 20.3333 86.3659 18.8468C86.7644 17.3603 86.8108 16.06 86.5059 14.9451C86.2 13.8307 85.5698 12.9762 84.6153 12.3812Z" fill="white"/>
<path d="M128.042 18.8746C127.683 20.212 127.131 21.2342 126.385 21.9399C125.639 22.6461 124.743 22.9988 123.704 22.9988C122.645 22.9988 121.925 22.6507 121.546 21.9538C121.165 21.2573 121.152 20.2499 121.506 18.9302C121.859 17.6114 122.423 16.5804 123.199 15.8366C123.973 15.0943 124.881 14.7222 125.921 14.7222C126.961 14.7222 127.666 15.0805 128.031 15.7955C128.396 16.5105 128.4 17.5368 128.042 18.8746ZM129.923 11.852L129.386 13.8585C129.153 13.1338 128.704 12.5582 128.038 12.131C127.372 11.7038 126.546 11.4896 125.562 11.4896C124.354 11.4896 123.193 11.8011 122.079 12.4234C120.965 13.0461 119.991 13.9238 119.158 15.0568C118.325 16.1902 117.714 17.4813 117.326 18.9302C116.937 20.3797 116.86 21.6568 117.093 22.762C117.326 23.8676 117.832 24.7174 118.612 25.3119C119.39 25.9069 120.393 26.2035 121.619 26.2035C122.603 26.2035 123.541 25.9992 124.431 25.5904C125.321 25.1823 126.076 24.6151 126.698 23.8907L126.137 25.9807H130.289L134.075 11.852H129.923Z" fill="white"/>
<path d="M99.4185 15.642L100.477 11.7964C100.117 11.6105 99.6409 11.5175 99.0468 11.5175C98.0987 11.5175 97.1858 11.7542 96.3064 12.2282C95.5511 12.6349 94.9079 13.2057 94.3648 13.921L94.9153 11.85L93.7132 11.852H90.7647L86.9497 25.9806H91.159L93.1377 18.5961C93.426 17.5188 93.9431 16.6781 94.691 16.0744C95.437 15.4706 96.3684 15.1684 97.4834 15.1684C98.1709 15.1684 98.8151 15.3264 99.4185 15.642Z" fill="white"/>
<path d="M111.135 18.93C110.781 20.2497 110.233 21.2571 109.489 21.9536C108.744 22.6505 107.853 22.9985 106.813 22.9985C105.772 22.9985 105.063 22.6459 104.686 21.9397C104.308 21.2339 104.299 20.2121 104.657 18.8743C105.016 17.5366 105.574 16.5101 106.332 15.7951C107.09 15.0801 107.99 14.7219 109.031 14.7219C110.052 14.7219 110.746 15.0941 111.114 15.8369C111.481 16.5801 111.488 17.6116 111.135 18.93ZM114.077 12.4231C113.296 11.8008 112.301 11.4899 111.095 11.4899C110.035 11.4899 109.027 11.7313 108.072 12.2141C107.115 12.6979 106.339 13.3564 105.744 14.1927L105.758 14.1001L106.465 11.8498H105.651V11.8518H102.356L101.31 15.7588C101.298 15.8042 101.288 15.8466 101.275 15.8925L96.9595 31.9998H101.168L103.341 23.891C103.554 24.6148 103.997 25.1819 104.668 25.5902C105.339 25.9989 106.167 26.2033 107.152 26.2033C108.378 26.2033 109.544 25.9067 110.652 25.3117C111.758 24.7176 112.72 23.8673 113.536 22.7617C114.352 21.657 114.955 20.3794 115.343 18.93C115.731 17.4809 115.812 16.19 115.587 15.0566C115.361 13.9235 114.857 13.0459 114.077 12.4231Z" fill="white"/>
<path d="M151.502 11.8558L151.505 11.8519H148.956C148.875 11.8519 148.803 11.8542 148.728 11.8558H147.405L146.729 12.7984C146.674 12.8694 146.62 12.9409 146.562 13.0238L146.488 13.133L141.111 20.621L139.997 11.8519H135.593L137.823 25.1771L132.897 32H133.038H135.553H137.285L138.479 30.3091C138.514 30.2588 138.544 30.2175 138.582 30.1642L139.975 28.1895L140.015 28.1329L146.247 19.2979L151.498 11.8617L151.505 11.8558H151.502Z" fill="white"/>
<path d="M9.74129 8.41241L8.48145 13.0487L15.6903 8.38634L10.976 25.9762L15.7634 25.9806L22.7277 0L9.74129 8.41241Z" fill="white"/>
<path d="M1.98196 18.586L0 25.9805H9.81314C9.81314 25.9805 13.827 10.9415 13.8281 10.9371C13.8243 10.9395 1.98196 18.586 1.98196 18.586Z" fill="white"/>
</svg>
