<svg width="80" height="80" viewBox="0 0 80 80" fill="none" xmlns="http://www.w3.org/2000/svg">
<rect width="80" height="80" rx="40" fill="#283341"/>
<path d="M56 39.852C56 37.7322 53.3453 35.7232 49.2752 34.4774C50.2144 30.329 49.797 27.0286 47.9576 25.9719C47.5336 25.724 47.0379 25.6066 46.4965 25.6066V27.0612C46.7966 27.0612 47.0379 27.1199 47.2401 27.2308C48.1272 27.7395 48.512 29.6767 48.212 32.1684C48.1402 32.7815 48.0228 33.4272 47.8793 34.086C46.6009 33.7729 45.2051 33.5316 43.7375 33.3751C42.8569 32.1684 41.9437 31.0726 41.0241 30.1138C43.1504 28.1374 45.1464 27.0546 46.5031 27.0546V25.6001C44.7093 25.6001 42.3612 26.8785 39.987 29.0962C37.6127 26.8916 35.2646 25.6262 33.4709 25.6262V27.0807C34.821 27.0807 36.8235 28.157 38.9499 30.1203C38.0367 31.0791 37.1235 32.1684 36.256 33.3751C34.7819 33.5316 33.3861 33.7729 32.1076 34.0926C31.9576 33.4403 31.8467 32.8076 31.7684 32.201C31.4619 29.7094 31.8402 27.7721 32.7208 27.2568C32.9164 27.1394 33.1708 27.0873 33.4709 27.0873V25.6327C32.923 25.6327 32.4272 25.7501 31.9967 25.998C30.1639 27.0546 29.753 30.3486 30.6987 34.4839C26.6417 35.7363 24 37.7387 24 39.852C24 41.9719 26.6547 43.9809 30.7248 45.2267C29.7856 49.3751 30.203 52.6755 32.0424 53.7322C32.4664 53.98 32.9621 54.0974 33.51 54.0974C35.3037 54.0974 37.6519 52.819 40.0261 50.6013C42.4003 52.806 44.7485 54.0714 46.5422 54.0714C47.0901 54.0714 47.5858 53.9539 48.0163 53.7061C49.8492 52.6494 50.2601 49.3555 49.3143 45.2202C53.3583 43.9743 56 41.9654 56 39.852ZM47.5075 35.5014C47.2662 36.3429 46.9662 37.2104 46.627 38.0779C46.3596 37.5561 46.0791 37.0343 45.7725 36.5124C45.4725 35.9906 45.1529 35.4819 44.8333 34.9862C45.7595 35.1231 46.6531 35.2927 47.5075 35.5014ZM44.5202 42.448C44.0114 43.3286 43.4896 44.1635 42.9482 44.9397C41.9764 45.0245 40.9914 45.0701 40 45.0701C39.0151 45.0701 38.0302 45.0245 37.0648 44.9462C36.5234 44.17 35.9951 43.3416 35.4863 42.4676C34.9906 41.6131 34.5406 40.7456 34.1296 39.8716C34.534 38.9976 34.9906 38.1235 35.4798 37.2691C35.9886 36.3885 36.5104 35.5536 37.0518 34.7774C38.0236 34.6926 39.0086 34.647 40 34.647C40.9849 34.647 41.9698 34.6926 42.9352 34.7709C43.4766 35.5471 44.0049 36.3755 44.5137 37.2495C45.0094 38.104 45.4594 38.9715 45.8704 39.8455C45.4594 40.7195 45.0094 41.5936 44.5202 42.448ZM46.627 41.6001C46.9792 42.4741 47.2793 43.3482 47.5271 44.1961C46.6726 44.4048 45.7725 44.5809 44.8398 44.7179C45.1594 44.2157 45.479 43.7004 45.779 43.172C46.0791 42.6502 46.3596 42.1219 46.627 41.6001ZM40.013 48.5597C39.4064 47.9336 38.7998 47.2356 38.1998 46.4725C38.7868 46.4986 39.3869 46.5182 39.9935 46.5182C40.6066 46.5182 41.2132 46.5051 41.8068 46.4725C41.2197 47.2356 40.6131 47.9336 40.013 48.5597ZM35.1602 44.7179C34.234 44.5809 33.3404 44.4113 32.4859 44.2026C32.7273 43.3612 33.0273 42.4937 33.3665 41.6262C33.6339 42.148 33.9144 42.6698 34.221 43.1916C34.5275 43.7134 34.8406 44.2222 35.1602 44.7179ZM39.9804 31.1443C40.587 31.7705 41.1936 32.4684 41.7937 33.2316C41.2067 33.2055 40.6066 33.1859 40 33.1859C39.3869 33.1859 38.7803 33.199 38.1867 33.2316C38.7737 32.4684 39.3804 31.7705 39.9804 31.1443ZM35.1537 34.9862C34.8341 35.4884 34.5145 36.0037 34.2144 36.532C33.9144 37.0538 33.6339 37.5756 33.3665 38.0974C33.0143 37.2234 32.7142 36.3494 32.4664 35.5014C33.3208 35.2992 34.221 35.1231 35.1537 34.9862ZM29.2507 43.1525C26.9417 42.1676 25.448 40.8761 25.448 39.852C25.448 38.828 26.9417 37.53 29.2507 36.5516C29.8117 36.3102 30.4248 36.095 31.0575 35.8928C31.4293 37.1712 31.9185 38.5019 32.5251 39.8651C31.925 41.2218 31.4423 42.5459 31.077 43.8178C30.4313 43.6156 29.8182 43.3938 29.2507 43.1525ZM32.7599 52.4733C31.8728 51.9645 31.488 50.0273 31.788 47.5357C31.8598 46.9226 31.9772 46.2768 32.1207 45.618C33.3991 45.9311 34.7949 46.1725 36.2625 46.329C37.1431 47.5357 38.0563 48.6315 38.9759 49.5903C36.8496 51.5667 34.8536 52.6494 33.4969 52.6494C33.2034 52.6429 32.9556 52.5842 32.7599 52.4733ZM48.2316 47.5031C48.5381 49.9947 48.1598 51.9319 47.2792 52.4472C47.0836 52.5646 46.8292 52.6168 46.5291 52.6168C45.179 52.6168 43.1765 51.5406 41.0501 49.5773C41.9633 48.6184 42.8765 47.5292 43.744 46.3225C45.2181 46.1659 46.6139 45.9246 47.8924 45.605C48.0424 46.2638 48.1598 46.8965 48.2316 47.5031ZM50.7428 43.1525C50.1818 43.3938 49.5687 43.6091 48.936 43.8113C48.5642 42.5328 48.075 41.2022 47.4684 39.839C48.0685 38.4823 48.5512 37.1582 48.9164 35.8863C49.5622 36.0885 50.1753 36.3102 50.7493 36.5516C53.0583 37.5365 54.552 38.828 54.552 39.852C54.5455 40.8761 53.0518 42.1741 50.7428 43.1525Z" fill="white"/>
<path d="M39.9935 42.8328C41.6398 42.8328 42.9744 41.4982 42.9744 39.8519C42.9744 38.2057 41.6398 36.8711 39.9935 36.8711C38.3473 36.8711 37.0127 38.2057 37.0127 39.8519C37.0127 41.4982 38.3473 42.8328 39.9935 42.8328Z" fill="white"/>
</svg>
