<svg width="80" height="80" viewBox="0 0 80 80" fill="none" xmlns="http://www.w3.org/2000/svg">
<path d="M66.8549 15.3807C66.7973 14.9775 66.4517 14.7471 66.1638 14.7471C65.8758 14.7471 60.1741 14.6319 60.1741 14.6319C60.1741 14.6319 55.3939 10.0245 54.9331 9.50617C54.4724 9.04543 53.5509 9.16061 53.2053 9.2758C53.2053 9.2758 52.2838 9.56376 50.7864 10.0245C50.5561 9.21821 50.1529 8.23912 49.6346 7.20245C47.9644 3.97724 45.4303 2.24945 42.4354 2.24945C42.2051 2.24945 42.0323 2.24945 41.8019 2.30705C41.6867 2.19186 41.6291 2.07667 41.514 2.01908C40.1893 0.636849 38.5191 -0.054267 36.5034 0.00332596C32.6446 0.118512 28.7859 2.94057 25.6183 7.89357C23.4298 11.4067 21.7596 15.7838 21.2412 19.1818C16.8066 20.564 13.6965 21.5431 13.5814 21.5431C11.3352 22.2342 11.2776 22.2918 10.9897 24.4228C10.8745 26.0354 5 71.4762 5 71.4762L54.2996 80L75.6666 74.7014C75.609 74.7014 66.9125 15.7838 66.8549 15.3807ZM48.3099 10.8308C47.1581 11.1764 45.891 11.5795 44.5088 12.0403C44.5088 10.0821 44.2208 7.31764 43.3569 5.01392C46.2942 5.47466 47.734 8.81506 48.3099 10.8308ZM41.9171 12.789C39.3254 13.5953 36.5034 14.4592 33.6813 15.3231C34.4876 12.2706 35.985 9.2758 37.828 7.26004C38.5191 6.51133 39.4982 5.70503 40.5925 5.24429C41.7443 7.49042 41.9747 10.658 41.9171 12.789ZM36.6186 2.59501C37.54 2.59501 38.2887 2.76779 38.9223 3.22853C37.8856 3.74687 36.8489 4.55317 35.9274 5.58985C33.4509 8.23913 31.5504 12.3282 30.8017 16.3021C28.4403 17.0509 26.1366 17.742 24.0633 18.3755C25.4455 12.0979 30.6865 2.76779 36.6186 2.59501Z" fill="#95BF47"/>
<path d="M66.1638 14.7472C65.8759 14.7472 60.1742 14.632 60.1742 14.632C60.1742 14.632 55.3939 10.0246 54.9332 9.50623C54.7604 9.33345 54.5301 9.21826 54.2997 9.21826V80.0001L75.6667 74.7015C75.6667 74.7015 66.9701 15.7839 66.9125 15.3807C66.7974 14.9776 66.4518 14.7472 66.1638 14.7472Z" fill="#5E8E3E"/>
<path d="M42.4355 25.7474L39.959 35.0199C39.959 35.0199 37.1945 33.7528 33.9117 33.9832C29.0739 34.2712 29.0739 37.3236 29.0739 38.0723C29.3619 42.219 40.2469 43.1405 40.8805 52.8737C41.3412 60.5336 36.8489 65.7745 30.2833 66.1777C22.4507 66.5808 18.1312 61.9734 18.1312 61.9734L19.8014 54.8895C19.8014 54.8895 24.1785 58.1723 27.6341 57.9419C29.8802 57.8267 30.7441 55.9261 30.6289 54.6591C30.2833 49.2453 21.414 49.5909 20.8381 40.664C20.3774 33.1769 25.2728 25.6322 36.1002 24.9411C40.3045 24.6531 42.4355 25.7474 42.4355 25.7474Z" fill="white"/>
</svg>
