<svg width="80" height="80" viewBox="0 0 80 80" fill="none" xmlns="http://www.w3.org/2000/svg">
<path d="M0 40C0 17.9086 17.9086 0 40 0V0C62.0914 0 80 17.9086 80 40V40C80 62.0914 62.0914 80 40 80V80C17.9086 80 0 62.0914 0 40V40Z" fill="#283341"/>
<path d="M25 30C25 28.8954 25.8954 28 27 28H53C54.1046 28 55 28.8954 55 30V50C55 51.1046 54.1046 52 53 52H27C25.8954 52 25 51.1046 25 50V30Z" fill="#D6E4F7" stroke="#151B23" stroke-miterlimit="10" stroke-linecap="round" stroke-linejoin="round"/>
<path d="M25 30C25 28.8954 25.8954 28 27 28H53C54.1046 28 55 28.8954 55 30V34H25V30Z" fill="white" stroke="#151B23" stroke-miterlimit="10" stroke-linecap="round" stroke-linejoin="round"/>
<circle cx="28" cy="31" r="0.5" stroke="#7187A5"/>
<circle cx="31" cy="31" r="0.5" stroke="#7187A5"/>
<circle cx="34" cy="31" r="0.5" stroke="#7187A5"/>
<path d="M41 34H55V50C55 51.1046 54.1046 52 53 52H41V34Z" fill="#7187A5" stroke="#151B23"/>
<path d="M46 39H50" stroke="#151B23" stroke-linecap="round"/>
<path d="M47 42H49" stroke="#151B23" stroke-linecap="round"/>
<rect x="45" y="45" width="6" height="3" rx="1.5" fill="#D6E4F7" stroke="#151B23"/>
<rect x="29" y="42" width="8" height="5" rx="1" fill="white" stroke="#151B23"/>
<rect x="31" y="39" width="4" height="3" rx="1" fill="#D6E4F7" stroke="#151B23"/>
</svg>
