<svg width="128" height="32" viewBox="0 0 128 32" fill="none" xmlns="http://www.w3.org/2000/svg">
<path fill-rule="evenodd" clip-rule="evenodd" d="M5.34705 2.24989e-07H26.6529C28.0713 -0.000410944 29.4319 0.562755 30.4349 1.56557C31.438 2.56838 32.0016 3.92866 32.0016 5.34705V26.6513C32.0016 29.6054 29.6068 32 26.6529 32H5.34705C2.3937 31.9991 0 29.6048 0 26.6513V5.34705C0 2.39395 2.39395 2.24989e-07 5.34705 2.24989e-07ZM24.4995 26.1825C25.4316 26.1825 26.1872 25.4269 26.1872 24.4948L26.1825 7.50666C26.1825 6.5746 25.4269 5.81903 24.4948 5.81903H7.50822C7.06036 5.81903 6.63087 5.99705 6.31433 6.31388C5.99779 6.63071 5.82017 7.06036 5.82058 7.50822V24.4948C5.82058 25.4269 6.57616 26.1825 7.50822 26.1825H24.4995Z" fill="white"/>
<path d="M12.6051 20.3386C12.0731 20.3344 11.6441 19.9019 11.6441 19.3698V12.5882C11.6428 12.3305 11.7443 12.0828 11.9262 11.9001C12.108 11.7175 12.3551 11.6147 12.6129 11.6147H19.4039C19.6615 11.6152 19.9083 11.718 20.0901 11.9006C20.2718 12.0832 20.3735 12.3306 20.3726 12.5882V19.3682C20.3735 19.6258 20.2718 19.8733 20.0901 20.0558C19.9083 20.2385 19.6615 20.3413 19.4039 20.3418L12.6051 20.3386Z" fill="white"/>
<path d="M48.2852 14.574C47.2946 14.3039 46.3569 14.0492 45.6287 13.7248C44.2811 13.1224 43.6539 12.2871 43.6539 11.0978C43.6539 8.84969 45.8274 7.83741 47.9918 7.83741C50.0488 7.83741 51.8452 8.68822 53.0516 10.2315L53.1338 10.337L54.8727 8.97701L54.7889 8.87142C53.1851 6.83135 50.8097 5.7135 48.0972 5.7135C46.2917 5.7135 44.6366 6.20101 43.4396 7.08752C42.092 8.0734 41.3809 9.50332 41.3809 11.2096C41.3809 15.1765 45.1163 16.1436 48.1191 16.9215C51.1575 17.7226 53.019 18.3312 53.019 20.6476C53.019 22.9283 51.1745 24.4018 48.3208 24.4018C46.9096 24.4018 44.2967 24.0277 42.654 21.5187L42.578 21.4006L40.749 22.725L40.8204 22.8322C42.373 25.1827 45.0527 26.532 48.1812 26.532C52.4305 26.532 55.2872 24.1331 55.2872 20.5654C55.2872 16.4821 51.4027 15.4248 48.2852 14.574Z" fill="white"/>
<path fill-rule="evenodd" clip-rule="evenodd" d="M69.1482 13.7496V11.6024H71.1928V31.997H69.1482V24.0291C67.9806 25.6299 66.2293 26.5055 64.1706 26.5055C60.283 26.5055 57.5659 23.3926 57.5659 18.8979C57.5659 14.4032 60.2891 11.2655 64.1706 11.2655C66.2154 11.2655 67.9666 12.1458 69.1482 13.7496ZM59.721 18.8731C59.721 23.0339 62.1041 24.5167 64.3351 24.5167L64.3397 24.5182C67.2602 24.5182 69.1482 22.2825 69.1482 18.8731C69.1482 15.4636 67.2571 13.259 64.3351 13.259C60.9335 13.259 59.721 16.1592 59.721 18.8731Z" fill="white"/>
<path d="M84.7111 11.6023V19.6523C84.7111 22.4703 82.7813 24.5166 80.1232 24.5166C77.9155 24.5166 76.8412 23.2062 76.8412 20.5125V11.6023H74.7964V20.9301C74.7964 24.4234 76.6951 26.5084 79.8748 26.5084C81.8559 26.5084 83.5575 25.6686 84.7126 24.133V26.1762H86.7574V11.6023H84.7111Z" fill="white"/>
<path fill-rule="evenodd" clip-rule="evenodd" d="M90.6081 13.1332C92.1156 11.9486 94.1619 11.2701 96.219 11.2701C99.4686 11.2701 101.408 12.8864 101.402 15.5971V26.1795H99.3553V24.5632C98.3227 25.8565 96.8292 26.5117 94.9072 26.5117C91.7755 26.5117 89.8286 24.7992 89.8286 22.045C89.8286 18.4632 93.2039 17.9011 94.6417 17.662C94.876 17.6233 95.1182 17.5861 95.3602 17.5487H95.3605L95.3693 17.5474C97.3336 17.245 99.3614 16.933 99.3614 15.2665C99.3614 13.3801 96.913 13.2341 96.1632 13.2341C94.8388 13.2341 92.968 13.6269 91.6964 14.7292L91.58 14.8301L90.5118 13.2093L90.6081 13.1332ZM91.9634 21.9301C91.9634 24.2652 94.1619 24.5181 95.1075 24.5181H95.1089C97.1646 24.5181 99.3646 23.4221 99.36 20.3418V18.2333C98.3626 18.8633 96.9431 19.1094 95.6769 19.3289L95.6555 19.3327L95.0205 19.446C92.9928 19.8217 91.9634 20.3061 91.9634 21.9301Z" fill="white"/>
<path d="M113.248 11.8772C112.762 11.531 111.996 11.3245 111.198 11.3245C109.558 11.346 108.024 12.1366 107.054 13.4593V11.5962H105.01V26.1686H107.054V18.3747C107.054 14.9187 108.997 13.3707 110.92 13.3707C111.483 13.3632 112.041 13.4815 112.552 13.717L112.69 13.7899L113.338 11.9362L113.248 11.8772Z" fill="white"/>
<path fill-rule="evenodd" clip-rule="evenodd" d="M113.847 18.9289C113.847 14.4203 116.658 11.2701 120.678 11.2701C124.55 11.2701 127.256 14.0663 127.248 18.0765C127.247 18.4252 127.228 18.7734 127.191 19.1199L127.178 19.2395H116C116.051 22.4486 117.983 24.5181 120.946 24.5181C122.645 24.5181 124.117 23.8274 125.09 22.5712L125.179 22.4565L126.66 23.776L126.578 23.8754C125.593 25.0755 123.799 26.5071 120.833 26.5071C116.657 26.5071 113.847 23.4624 113.847 18.9289ZM120.622 13.2326C118.124 13.2326 116.352 14.8767 116.076 17.437H125.087C124.91 15.3782 123.653 13.2326 120.622 13.2326Z" fill="white"/>
</svg>
