<svg width="80" height="80" viewBox="0 0 80 80" fill="none" xmlns="http://www.w3.org/2000/svg">
<path fill-rule="evenodd" clip-rule="evenodd" d="M34.2418 23.8242C34.2418 20.3956 37.0549 19.0769 41.7143 19.0769C48.3956 19.0769 56.8352 21.0989 63.5165 24.7033V4.04395C56.2198 1.14286 49.011 0 41.7143 0C23.8681 0 12 9.31868 12 24.8791C12 49.1429 45.4066 45.2747 45.4066 55.7363C45.4066 59.7802 41.8901 61.0989 36.967 61.0989C29.6703 61.0989 20.3516 58.1099 12.967 54.0659V74.989C21.1429 78.5055 29.4066 80 36.967 80C55.2527 80 67.8242 70.945 67.8242 55.2088C67.7362 29.011 34.2418 33.6703 34.2418 23.8242Z" fill="#6772E5"/>
</svg>
