<svg width="77" height="32" viewBox="0 0 77 32" fill="none" xmlns="http://www.w3.org/2000/svg">
<path fill-rule="evenodd" clip-rule="evenodd" d="M76.1002 16.527C76.1002 11.1304 73.4862 6.87219 68.4902 6.87219C63.4731 6.87219 60.4375 11.1304 60.4375 16.4848C60.4375 22.83 64.0212 26.0342 69.1648 26.0342C71.6733 26.0342 73.5706 25.4651 75.004 24.664V20.4479C73.5706 21.1647 71.9263 21.6074 69.8393 21.6074C67.7945 21.6074 65.9816 20.8906 65.7497 18.4032H76.058C76.058 18.1291 76.1002 17.0329 76.1002 16.527ZM65.6865 14.5244C65.6865 12.1423 67.141 11.1515 68.4691 11.1515C69.755 11.1515 71.1252 12.1423 71.1252 14.5244H65.6865Z" fill="white"/>
<path fill-rule="evenodd" clip-rule="evenodd" d="M52.3008 6.87219C50.2349 6.87219 48.9069 7.84189 48.1691 8.51646L47.895 7.20948H43.2573V31.7892L48.5274 30.6719L48.5485 24.7062C49.3074 25.2543 50.4247 26.0342 52.2797 26.0342C56.0531 26.0342 59.4892 22.9987 59.4892 16.3162C59.4681 10.2029 55.9899 6.87219 52.3008 6.87219ZM51.036 21.3966C49.7922 21.3966 49.0544 20.9539 48.5485 20.4058L48.5274 12.585C49.0755 11.9736 49.8344 11.552 51.036 11.552C52.9543 11.552 54.2824 13.7022 54.2824 16.4638C54.2824 19.2885 52.9754 21.3966 51.036 21.3966Z" fill="white"/>
<path fill-rule="evenodd" clip-rule="evenodd" d="M41.2965 4.49013V0.210815L36.0054 1.32807V5.62847L41.2965 4.49013Z" fill="white"/>
<path d="M41.2965 7.23059H36.0054V25.6759H41.2965V7.23059Z" fill="white"/>
<path fill-rule="evenodd" clip-rule="evenodd" d="M30.335 8.79054L29.9977 7.23059H25.4443V25.6759H30.7144V13.1753C31.9582 11.5521 34.0662 11.8472 34.7197 12.0791V7.23059C34.0451 6.97763 31.5787 6.51386 30.335 8.79054Z" fill="white"/>
<path fill-rule="evenodd" clip-rule="evenodd" d="M19.7946 2.65613L14.651 3.75231L14.6299 20.6377C14.6299 23.7576 16.9698 26.0553 20.0897 26.0553C21.8183 26.0553 23.0831 25.7391 23.7788 25.3597V21.0804C23.1042 21.3544 19.7735 22.3241 19.7735 19.2042V11.7207H23.7788V7.23057H19.7735L19.7946 2.65613Z" fill="white"/>
<path fill-rule="evenodd" clip-rule="evenodd" d="M5.54427 12.585C5.54427 11.7628 6.21884 11.4466 7.3361 11.4466C8.93821 11.4466 10.9619 11.9315 12.564 12.7958V7.84189C10.8144 7.14624 9.08577 6.87219 7.3361 6.87219C3.05679 6.87219 0.210938 9.10671 0.210938 12.8379C0.210938 18.6561 8.22148 17.7286 8.22148 20.2371C8.22148 21.2068 7.37826 21.523 6.19776 21.523C4.44809 21.523 2.21357 20.8063 0.442821 19.8366V24.8537C2.40329 25.697 4.38485 26.0553 6.19776 26.0553C10.5825 26.0553 13.597 23.884 13.597 20.1107C13.5759 13.8287 5.54427 14.946 5.54427 12.585Z" fill="white"/>
</svg>
