<svg width="80" height="80" viewBox="0 0 80 80" fill="none" xmlns="http://www.w3.org/2000/svg">
<rect width="80" height="80" rx="40" fill="#283341"/>
<g clip-path="url(#clip0)">
<path d="M51.7294 28.234C48.758 23.9811 42.8894 22.7205 38.6461 25.424L31.1939 30.1737C30.1872 30.807 29.3237 31.6434 28.6586 32.6295C27.9936 33.6155 27.5415 34.7295 27.3315 35.9002C26.976 37.8721 27.2884 39.9063 28.2194 41.6807C27.5815 42.6483 27.1464 43.7353 26.9404 44.8758C26.7281 46.0701 26.7564 47.2947 27.0237 48.4779C27.291 49.661 27.7918 50.7789 28.4968 51.766C31.4689 56.0193 37.3375 57.2793 41.5801 54.5759L49.0323 49.8263C50.0391 49.193 50.9026 48.3566 51.5677 47.3706C52.2328 46.3845 52.6848 45.2705 52.8947 44.0998C53.2502 42.1279 52.938 40.0937 52.0075 38.3191C52.6452 37.3515 53.0801 36.2646 53.2859 35.1242C53.4983 33.9299 53.4701 32.7052 53.2028 31.5221C52.9355 30.3389 52.4346 29.221 51.7295 28.234" fill="white"/>
<path d="M37.9182 52.1661C36.7454 52.471 35.5073 52.4087 34.3711 51.9875C33.2349 51.5664 32.2554 50.8067 31.5647 49.811C31.1406 49.2175 30.8394 48.5452 30.6786 47.8337C30.5179 47.1222 30.5008 46.3857 30.6285 45.6675C30.6718 45.4317 30.7313 45.1991 30.8066 44.9716L30.947 44.5436L31.3288 44.824C32.2105 45.4719 33.1964 45.9645 34.2439 46.2806L34.5209 46.3646L34.4954 46.641C34.4615 47.0343 34.568 47.4268 34.7959 47.749C35.0038 48.049 35.2987 48.2778 35.6407 48.4048C35.9828 48.5318 36.3557 48.5507 36.7088 48.459C36.8708 48.4158 37.0252 48.3479 37.1666 48.2579L44.619 43.5088C44.8013 43.394 44.9578 43.2424 45.0783 43.0638C45.1989 42.8852 45.2809 42.6834 45.3192 42.4714C45.3574 42.2549 45.3521 42.033 45.3037 41.8185C45.2553 41.6041 45.1646 41.4015 45.037 41.2224C44.829 40.9225 44.534 40.6935 44.1918 40.5665C43.8496 40.4394 43.4767 40.4204 43.1234 40.512C42.9616 40.5553 42.8074 40.6231 42.6662 40.7131L39.8224 42.5259C39.3548 42.8232 38.8445 43.0473 38.3092 43.1904C37.1364 43.4954 35.8984 43.433 34.7622 43.0119C33.626 42.5907 32.6464 41.831 31.9558 40.8354C31.5317 40.2419 31.2305 39.5696 31.0697 38.8581C30.9089 38.1465 30.8919 37.41 31.0196 36.6918C31.1459 35.9879 31.4177 35.318 31.8177 34.7251C32.2177 34.1322 32.737 33.6293 33.3425 33.2486L40.7942 28.4991C41.262 28.2013 41.7727 27.9769 42.3085 27.8338C43.4812 27.5289 44.7193 27.5912 45.8555 28.0124C46.9916 28.4335 47.9712 29.1932 48.6618 30.1888C49.0859 30.7824 49.3871 31.4546 49.5479 32.1662C49.7087 32.8777 49.7257 33.6142 49.598 34.3324C49.5546 34.5681 49.4951 34.8007 49.4199 35.0283L49.2796 35.4562L48.898 35.1762C48.0163 34.528 47.0303 34.0352 45.9826 33.7191L45.7057 33.635L45.7312 33.3586C45.7647 32.9654 45.6583 32.573 45.4306 32.2506C45.2228 31.9507 44.9279 31.7218 44.5858 31.5948C44.2437 31.4679 43.8709 31.4489 43.5177 31.5406C43.3557 31.5839 43.2014 31.6517 43.06 31.7418L35.6076 36.4911C35.4252 36.6058 35.2688 36.7573 35.1484 36.9359C35.0279 37.1145 34.946 37.3162 34.9079 37.5282C34.8695 37.7447 34.8745 37.9666 34.9229 38.1811C34.9712 38.3956 35.0619 38.5983 35.1895 38.7773C35.3975 39.0772 35.6925 39.3062 36.0347 39.4332C36.3769 39.5603 36.7498 39.5793 37.1032 39.4877C37.2651 39.4443 37.4195 39.3765 37.5609 39.2865L40.4043 37.4744C40.8717 37.1766 41.382 36.9523 41.9174 36.8093C43.0901 36.5044 44.3282 36.5667 45.4644 36.9878C46.6006 37.409 47.5801 38.1687 48.2708 39.1643C48.6949 39.7579 48.9961 40.4301 49.1569 41.1417C49.3176 41.8532 49.3347 42.5897 49.207 43.3079C49.0806 44.0119 48.8087 44.6818 48.4087 45.2747C48.0088 45.8677 47.4895 46.3707 46.8841 46.7516L39.4323 51.5007C38.9645 51.7985 38.4538 52.0229 37.918 52.1661" fill="#151B23"/>
</g>
<defs>
<clipPath id="clip0">
<rect width="32" height="32" fill="white" transform="translate(24 24)"/>
</clipPath>
</defs>
</svg>
