<svg width="81" height="32" viewBox="0 0 81 32" fill="none" xmlns="http://www.w3.org/2000/svg">
<path d="M46.3602 0.608273C44.7975 1.40166 44.1204 2.88265 44.1204 6.90249C44.1204 6.90249 44.9017 6.1091 46.1519 5.63307C47.0635 5.28926 47.7146 4.83968 48.1834 4.49588C49.5377 3.46447 49.7461 2.2215 49.7461 0.0529009C49.7201 0.0529009 47.5844 -0.0793305 46.3602 0.608273Z" fill="#FBBD71"/>
<path d="M36.8016 1.53353C35.4473 2.67072 35.1087 4.62775 35.1087 4.62775L30.7331 21.6591L27.1389 7.72196C26.8003 6.24097 26.1232 4.41618 25.1074 3.14675C23.8572 1.53353 21.2527 1.42775 20.9402 1.42775C20.7058 1.42775 18.1273 1.53353 16.773 3.14675C15.7572 4.41618 15.0801 6.24097 14.7415 7.72196L11.3556 21.6591L6.98006 4.62775C6.98006 4.62775 6.64148 2.80295 5.28714 1.53353C3.15145 -0.423494 0 0.0525393 0 0.0525393L8.3344 31.9203C8.3344 31.9203 11.0431 32.1583 12.3974 31.4707C14.1945 30.5451 15.1061 29.8839 16.1219 25.5203C17.1376 21.6327 19.8463 10.3137 20.0547 9.52031C20.1588 9.17651 20.3932 8.1451 21.0704 8.1451C21.7476 8.1451 21.982 9.07072 22.0862 9.52031C22.3206 10.3137 25.0032 21.6327 26.019 25.5203C27.1389 29.8575 27.9203 30.5451 29.7434 31.4707C31.0977 32.1583 33.8064 31.9203 33.8064 31.9203L42.0887 0.0525393C42.0887 0.0525393 38.9373 -0.397047 36.8016 1.53353Z" fill="black"/>
<path d="M49.72 5.18346C49.72 5.18346 49.147 5.97685 48.027 6.66446C47.2457 7.11404 46.5685 7.35206 45.7872 7.80165C44.4328 8.48925 44.0942 9.17685 44.0942 10.2083V10.5521V12.2711V12.6149V31.8149C44.0942 31.8149 46.2299 32.0529 47.5843 31.3653C49.3814 30.4397 49.72 29.5405 49.72 25.6529V6.45289V5.18346Z" fill="black"/>
<path d="M70.4256 16.0529L80.9999 0.158673C80.9999 0.158673 76.6243 -0.634716 74.3584 1.42809C72.8999 2.69752 71.4413 5.07768 71.4413 5.07768L67.6127 10.7901C67.3783 11.1339 67.17 11.3719 66.8314 11.3719C66.4928 11.3719 66.1542 11.0281 66.05 10.7901L62.2214 5.07768C62.2214 5.07768 60.6587 2.8033 59.3044 1.42809C57.0645 -0.634716 52.6629 0.158673 52.6629 0.158673L62.8986 16.0264L52.4285 31.8942C52.4285 31.8942 57.0384 32.476 59.3044 30.4132C60.7629 29.1438 62.1172 26.9752 62.1172 26.9752L65.9458 21.2628C66.1802 20.919 66.3886 20.681 66.7272 20.681C67.0658 20.681 67.4044 21.0248 67.5085 21.2628L71.3372 26.9752C71.3372 26.9752 72.7957 29.1438 74.15 30.4132C76.3899 32.476 80.8957 31.8942 80.8957 31.8942L70.4256 16.0529Z" fill="black"/>
</svg>
