<svg width="80" height="80" viewBox="0 0 80 80" fill="none" xmlns="http://www.w3.org/2000/svg">
<path d="M7.38795 16H72.185C76.2857 16 79.6052 19.3196 79.6052 23.4203V48.1544C79.6052 52.2551 76.2857 55.5747 72.185 55.5747H48.9479L52.1373 63.3855L38.1104 55.5747H7.42049C3.31982 55.5747 0.000237273 52.2551 0.000237273 48.1544V23.4203C-0.0323077 19.3521 3.28728 16 7.38795 16Z" fill="#9B5C8F"/>
<path d="M4.5332 22.7632C4.98624 22.1484 5.66579 21.8248 6.57187 21.7601C8.22222 21.6306 9.16066 22.4073 9.38718 24.09C10.3903 30.8532 11.4906 36.5809 12.6555 41.2731L19.7423 27.779C20.3895 26.5493 21.1985 25.9021 22.1693 25.8374C23.5932 25.7403 24.4669 26.6464 24.8228 28.5557C25.6318 32.8595 26.6673 36.5162 27.897 39.6227C28.7384 31.4033 30.1622 25.4815 32.1685 21.8248C32.6539 20.9187 33.3658 20.4657 34.3043 20.401C35.0485 20.3362 35.7281 20.5628 36.3429 21.0482C36.9578 21.5336 37.2814 22.1484 37.3461 22.8927C37.3785 23.4752 37.2814 23.9606 37.0225 24.446C35.7605 26.7759 34.7249 30.6914 33.8836 36.1279C33.0746 41.4025 32.7834 45.5122 32.9775 48.457C33.0422 49.266 32.9128 49.9779 32.5892 50.5927C32.2009 51.3046 31.6184 51.6929 30.8741 51.7577C30.0328 51.8224 29.159 51.4341 28.3177 50.5604C25.3082 47.4862 22.9136 42.8911 21.1662 36.7751C19.0628 40.9171 17.5095 44.0237 16.5063 46.0947C14.5971 49.7514 12.9791 51.6282 11.62 51.7253C10.7463 51.79 10.002 51.0458 9.35482 49.4925C7.70446 45.2533 5.92467 37.0663 4.01544 24.9313C3.886 24.09 4.08016 23.3457 4.5332 22.7632ZM74.0745 27.8437C72.9096 25.8051 71.1945 24.5754 68.897 24.09C68.2821 23.9606 67.6996 23.8958 67.1495 23.8958C64.043 23.8958 61.5189 25.5138 59.545 28.7498C57.8622 31.5004 57.0209 34.5422 57.0209 37.8753C57.0209 40.367 57.5386 42.5028 58.5742 44.2825C59.7391 46.3212 61.4542 47.5509 63.7517 48.0363C64.3666 48.1657 64.9491 48.2304 65.4992 48.2304C68.6381 48.2304 71.1621 46.6125 73.1037 43.3765C74.7865 40.5935 75.6278 37.5517 75.6278 34.2186C75.6602 31.6946 75.11 29.5912 74.0745 27.8437ZM69.9972 36.8074C69.5442 38.9432 68.7352 40.5288 67.5378 41.5967C66.5994 42.438 65.7257 42.794 64.9167 42.6322C64.1401 42.4704 63.4929 41.7908 63.0075 40.5288C62.6191 39.5256 62.425 38.5225 62.425 37.5841C62.425 36.7751 62.4897 35.9661 62.6515 35.2218C62.9427 33.895 63.4929 32.6006 64.3666 31.371C65.4344 29.7853 66.567 29.1381 67.732 29.3646C68.5086 29.5264 69.1558 30.206 69.6412 31.468C70.0295 32.4712 70.2237 33.4744 70.2237 34.4128C70.2237 35.2541 70.159 36.0631 69.9972 36.8074ZM53.8173 27.8437C52.6523 25.8051 50.9049 24.5754 48.6397 24.09C48.0248 23.9606 47.4424 23.8958 46.8923 23.8958C43.7857 23.8958 41.2616 25.5138 39.2877 28.7498C37.605 31.5004 36.7636 34.5422 36.7636 37.8753C36.7636 40.367 37.2814 42.5028 38.3169 44.2825C39.4818 46.3212 41.1969 47.5509 43.4945 48.0363C44.1093 48.1657 44.6918 48.2304 45.2419 48.2304C48.3808 48.2304 50.9049 46.6125 52.8465 43.3765C54.5292 40.5935 55.3705 37.5517 55.3705 34.2186C55.3705 31.6946 54.8528 29.5912 53.8173 27.8437ZM49.7076 36.8074C49.2545 38.9432 48.4455 40.5288 47.2482 41.5967C46.3098 42.438 45.4361 42.794 44.6271 42.6322C43.8504 42.4704 43.2032 41.7908 42.7178 40.5288C42.3295 39.5256 42.1353 38.5225 42.1353 37.5841C42.1353 36.7751 42.2001 35.9661 42.3619 35.2218C42.6531 33.895 43.2032 32.6006 44.0769 31.371C45.1448 29.7853 46.2774 29.1381 47.4424 29.3646C48.219 29.5264 48.8662 30.206 49.3516 31.468C49.7399 32.4712 49.9341 33.4744 49.9341 34.4128C49.9664 35.2541 49.8694 36.0631 49.7076 36.8074Z" fill="white"/>
</svg>
